M48
;DRILL file {KiCad 4.0.2+dfsg1-stable} date sam. 06 janv. 2018 00:19:02 CET
;FORMAT={2:4/ absolute / inch / suppress leading zeros}
FMAT,2
INCH,TZ
T1C0.012
T2C0.031
T3C0.039
T4C0.047
T5C0.059
T6C0.118
%
G90
G05
M72
T1
X21560Y-40960
X21900Y-55920
X23620Y-37660
X24641Y-47416
X24840Y-43500
X25960Y-49780
X25995Y-34074
X27420Y-38040
X27447Y-43346
X27800Y-33900
X30340Y-48720
X30760Y-33880
X31300Y-40534
X31400Y-42240
X32400Y-45980
X32557Y-41727
X33120Y-40760
X33380Y-42160
X33760Y-43900
X34337Y-56750
X34420Y-42180
X34911Y-41457
X34920Y-45448
X35160Y-40720
X35405Y-40204
X35911Y-45157
X36935Y-45218
X37090Y-43680
X37365Y-44518
X39120Y-45780
X40440Y-46580
X40555Y-42779
X40600Y-48940
X42020Y-51780
X42080Y-55260
X42100Y-51160
X43140Y-50880
X43153Y-49488
X43200Y-51460
X43237Y-54250
X43237Y-54750
X43237Y-55250
X43930Y-53732
X44031Y-44176
X44060Y-42106
X44100Y-51200
X44605Y-55287
X44654Y-48479
X44660Y-40700
X45160Y-42240
X45213Y-43900
X45340Y-46156
X46080Y-55695
X46206Y-46010
X46274Y-49101
X46664Y-49044
X46728Y-45497
X46839Y-51132
X47460Y-50920
X47500Y-47987
X47780Y-40420
X48120Y-55695
X48200Y-44540
X48213Y-43900
X48560Y-38100
X48660Y-40620
X48758Y-50800
X49787Y-43900
X50342Y-45926
X50400Y-49000
X50565Y-47524
X50900Y-49400
X51300Y-46300
X51996Y-48035
X52240Y-49720
T2
X25635Y-38178
X25635Y-39556
X25689Y-41634
X25689Y-45634
X27067Y-41669
X27067Y-45669
X27660Y-48033
X27660Y-49411
X27660Y-53755
X27660Y-55133
X29145Y-34626
X29145Y-36004
X31500Y-48100
X31500Y-49600
X35500Y-48100
X35500Y-49600
X45700Y-38100
X45700Y-39400
X49700Y-38100
X49700Y-39400
X51378Y-41374
X51378Y-45374
X52756Y-41374
X52756Y-45374
T3
X54600Y-44500
X54600Y-45500
X54600Y-46500
X54600Y-47500
X54626Y-40815
X54626Y-41815
X54626Y-42815
T4
X27180Y-57620
X28180Y-57620
X41500Y-57600
X42500Y-57600
X44100Y-57600
X45100Y-57600
X46100Y-57600
X47100Y-57600
X48700Y-57600
X49700Y-57600
X51200Y-57600
X52200Y-57600
X54500Y-53600
X54500Y-54600
X54560Y-49000
X54560Y-50000
X54560Y-51000
X54560Y-52000
T5
X25057Y-48283
X25057Y-50251
X25057Y-52894
X25057Y-54862
X29140Y-41480
X29140Y-45968
X30990Y-56750
X31010Y-52642
X39652Y-56750
X39672Y-52642
X45200Y-47100
X49688Y-47100
T6
X22835Y-35433
X22835Y-57087
X54331Y-35433
X54331Y-57087
T0
M30
