G04 #@! TF.FileFunction,Legend,Bot*
%FSLAX46Y46*%
G04 Gerber Fmt 4.6, Leading zero omitted, Abs format (unit mm)*
G04 Created by KiCad (PCBNEW 4.0.2+dfsg1-stable) date sam. 06 janv. 2018 03:07:49 CET*
%MOMM*%
G01*
G04 APERTURE LIST*
%ADD10C,0.100000*%
%ADD11C,0.120000*%
%ADD12C,0.150000*%
G04 APERTURE END LIST*
D10*
D11*
X84070000Y-125206000D02*
X84070000Y-123206000D01*
X86110000Y-123206000D02*
X86110000Y-125206000D01*
D12*
X104400000Y-119000000D02*
X104400000Y-101000000D01*
X108000000Y-119000000D02*
X104400000Y-119000000D01*
X108000000Y-101000000D02*
X108000000Y-119000000D01*
X104400000Y-101000000D02*
X108000000Y-101000000D01*
D11*
X132980000Y-111000000D02*
X132980000Y-109000000D01*
X135020000Y-109000000D02*
X135020000Y-111000000D01*
X111502000Y-139430000D02*
X111502000Y-137430000D01*
X113542000Y-137430000D02*
X113542000Y-139430000D01*
X55625200Y-126387600D02*
X55625200Y-124387600D01*
X57665200Y-124387600D02*
X57665200Y-126387600D01*
X120392000Y-99552000D02*
X120392000Y-97552000D01*
X122432000Y-97552000D02*
X122432000Y-99552000D01*
X122843100Y-128863600D02*
X122843100Y-126863600D01*
X124883100Y-126863600D02*
X124883100Y-128863600D01*
X119630000Y-120888000D02*
X119630000Y-118888000D01*
X121670000Y-118888000D02*
X121670000Y-120888000D01*
X88408000Y-107946000D02*
X90408000Y-107946000D01*
X90408000Y-109986000D02*
X88408000Y-109986000D01*
X125460000Y-112526000D02*
X123460000Y-112526000D01*
X123460000Y-110486000D02*
X125460000Y-110486000D01*
X83042000Y-109986000D02*
X81042000Y-109986000D01*
X81042000Y-107946000D02*
X83042000Y-107946000D01*
X59075200Y-124387600D02*
X59075200Y-126387600D01*
X61215200Y-126387600D02*
X61215200Y-124387600D01*
X72847100Y-91199200D02*
X72847100Y-89199200D01*
X70707100Y-89199200D02*
X70707100Y-91199200D01*
X67027100Y-88629200D02*
X65027100Y-88629200D01*
X65027100Y-90769200D02*
X67027100Y-90769200D01*
X77597100Y-91199200D02*
X77597100Y-89199200D01*
X75457100Y-89199200D02*
X75457100Y-91199200D01*
X63620200Y-99595600D02*
X63620200Y-97595600D01*
X61480200Y-97595600D02*
X61480200Y-99595600D01*
X56050200Y-99915600D02*
X58050200Y-99915600D01*
X58050200Y-97775600D02*
X56050200Y-97775600D01*
X68620200Y-99595600D02*
X68620200Y-97595600D01*
X66480200Y-97595600D02*
X66480200Y-99595600D01*
X132358000Y-140430000D02*
X130358000Y-140430000D01*
X130358000Y-142570000D02*
X132358000Y-142570000D01*
X125460000Y-107642000D02*
X123460000Y-107642000D01*
X123460000Y-109782000D02*
X125460000Y-109782000D01*
X66348000Y-111998000D02*
X66348000Y-109998000D01*
X64208000Y-109998000D02*
X64208000Y-111998000D01*
X122532800Y-128863600D02*
X122532800Y-126863600D01*
X120392800Y-126863600D02*
X120392800Y-128863600D01*
X119180000Y-120888000D02*
X119180000Y-118888000D01*
X117040000Y-118888000D02*
X117040000Y-120888000D01*
X88408000Y-112576000D02*
X90408000Y-112576000D01*
X90408000Y-110436000D02*
X88408000Y-110436000D01*
X115840000Y-112576000D02*
X117840000Y-112576000D01*
X117840000Y-110436000D02*
X115840000Y-110436000D01*
X83042000Y-110436000D02*
X81042000Y-110436000D01*
X81042000Y-112576000D02*
X83042000Y-112576000D01*
X59125200Y-138349600D02*
X59125200Y-136349600D01*
X61165200Y-136349600D02*
X61165200Y-138349600D01*
X94166000Y-132061000D02*
X94166000Y-135361000D01*
X94166000Y-135361000D02*
X87266000Y-135361000D01*
X94166000Y-132061000D02*
X87266000Y-132061000D01*
X94115200Y-142494600D02*
X94115200Y-145794600D01*
X94115200Y-145794600D02*
X87215200Y-145794600D01*
X94115200Y-142494600D02*
X87215200Y-142494600D01*
X55575200Y-136349600D02*
X55575200Y-138349600D01*
X57715200Y-138349600D02*
X57715200Y-136349600D01*
D12*
X101600000Y-101000000D02*
X101600000Y-119000000D01*
X98000000Y-101000000D02*
X101600000Y-101000000D01*
X98000000Y-119000000D02*
X98000000Y-101000000D01*
X101600000Y-119000000D02*
X98000000Y-119000000D01*
D11*
X67630000Y-112117600D02*
X67630000Y-110117600D01*
X69670000Y-110117600D02*
X69670000Y-112117600D01*
D12*
X83697143Y-122396476D02*
X83744762Y-122348857D01*
X83792381Y-122206000D01*
X83792381Y-122110762D01*
X83744762Y-121967904D01*
X83649524Y-121872666D01*
X83554286Y-121825047D01*
X83363810Y-121777428D01*
X83220952Y-121777428D01*
X83030476Y-121825047D01*
X82935238Y-121872666D01*
X82840000Y-121967904D01*
X82792381Y-122110762D01*
X82792381Y-122206000D01*
X82840000Y-122348857D01*
X82887619Y-122396476D01*
X83792381Y-122825047D02*
X82792381Y-122825047D01*
X83173333Y-122825047D02*
X83125714Y-122920285D01*
X83125714Y-123110762D01*
X83173333Y-123206000D01*
X83220952Y-123253619D01*
X83316190Y-123301238D01*
X83601905Y-123301238D01*
X83697143Y-123253619D01*
X83744762Y-123206000D01*
X83792381Y-123110762D01*
X83792381Y-122920285D01*
X83744762Y-122825047D01*
X83792381Y-123872666D02*
X83744762Y-123777428D01*
X83697143Y-123729809D01*
X83601905Y-123682190D01*
X83316190Y-123682190D01*
X83220952Y-123729809D01*
X83173333Y-123777428D01*
X83125714Y-123872666D01*
X83125714Y-124015524D01*
X83173333Y-124110762D01*
X83220952Y-124158381D01*
X83316190Y-124206000D01*
X83601905Y-124206000D01*
X83697143Y-124158381D01*
X83744762Y-124110762D01*
X83792381Y-124015524D01*
X83792381Y-123872666D01*
X83792381Y-124777428D02*
X83744762Y-124682190D01*
X83697143Y-124634571D01*
X83601905Y-124586952D01*
X83316190Y-124586952D01*
X83220952Y-124634571D01*
X83173333Y-124682190D01*
X83125714Y-124777428D01*
X83125714Y-124920286D01*
X83173333Y-125015524D01*
X83220952Y-125063143D01*
X83316190Y-125110762D01*
X83601905Y-125110762D01*
X83697143Y-125063143D01*
X83744762Y-125015524D01*
X83792381Y-124920286D01*
X83792381Y-124777428D01*
X83125714Y-125396476D02*
X83125714Y-125777428D01*
X82792381Y-125539333D02*
X83649524Y-125539333D01*
X83744762Y-125586952D01*
X83792381Y-125682190D01*
X83792381Y-125777428D01*
X82887619Y-126063143D02*
X82840000Y-126110762D01*
X82792381Y-126206000D01*
X82792381Y-126444096D01*
X82840000Y-126539334D01*
X82887619Y-126586953D01*
X82982857Y-126634572D01*
X83078095Y-126634572D01*
X83220952Y-126586953D01*
X83792381Y-126015524D01*
X83792381Y-126634572D01*
X100552381Y-108961905D02*
X99552381Y-108961905D01*
X100552381Y-109533334D02*
X99980952Y-109104762D01*
X99552381Y-109533334D02*
X100123810Y-108961905D01*
X100552381Y-110485715D02*
X100552381Y-109914286D01*
X100552381Y-110200000D02*
X99552381Y-110200000D01*
X99695238Y-110104762D01*
X99790476Y-110009524D01*
X99838095Y-109914286D01*
X132607143Y-109833334D02*
X132654762Y-109785715D01*
X132702381Y-109642858D01*
X132702381Y-109547620D01*
X132654762Y-109404762D01*
X132559524Y-109309524D01*
X132464286Y-109261905D01*
X132273810Y-109214286D01*
X132130952Y-109214286D01*
X131940476Y-109261905D01*
X131845238Y-109309524D01*
X131750000Y-109404762D01*
X131702381Y-109547620D01*
X131702381Y-109642858D01*
X131750000Y-109785715D01*
X131797619Y-109833334D01*
X132702381Y-110785715D02*
X132702381Y-110214286D01*
X132702381Y-110500000D02*
X131702381Y-110500000D01*
X131845238Y-110404762D01*
X131940476Y-110309524D01*
X131988095Y-110214286D01*
X111129143Y-138263334D02*
X111176762Y-138215715D01*
X111224381Y-138072858D01*
X111224381Y-137977620D01*
X111176762Y-137834762D01*
X111081524Y-137739524D01*
X110986286Y-137691905D01*
X110795810Y-137644286D01*
X110652952Y-137644286D01*
X110462476Y-137691905D01*
X110367238Y-137739524D01*
X110272000Y-137834762D01*
X110224381Y-137977620D01*
X110224381Y-138072858D01*
X110272000Y-138215715D01*
X110319619Y-138263334D01*
X110224381Y-139168096D02*
X110224381Y-138691905D01*
X110700571Y-138644286D01*
X110652952Y-138691905D01*
X110605333Y-138787143D01*
X110605333Y-139025239D01*
X110652952Y-139120477D01*
X110700571Y-139168096D01*
X110795810Y-139215715D01*
X111033905Y-139215715D01*
X111129143Y-139168096D01*
X111176762Y-139120477D01*
X111224381Y-139025239D01*
X111224381Y-138787143D01*
X111176762Y-138691905D01*
X111129143Y-138644286D01*
X55252343Y-125220934D02*
X55299962Y-125173315D01*
X55347581Y-125030458D01*
X55347581Y-124935220D01*
X55299962Y-124792362D01*
X55204724Y-124697124D01*
X55109486Y-124649505D01*
X54919010Y-124601886D01*
X54776152Y-124601886D01*
X54585676Y-124649505D01*
X54490438Y-124697124D01*
X54395200Y-124792362D01*
X54347581Y-124935220D01*
X54347581Y-125030458D01*
X54395200Y-125173315D01*
X54442819Y-125220934D01*
X54347581Y-125554267D02*
X54347581Y-126220934D01*
X55347581Y-125792362D01*
X120019143Y-96742476D02*
X120066762Y-96694857D01*
X120114381Y-96552000D01*
X120114381Y-96456762D01*
X120066762Y-96313904D01*
X119971524Y-96218666D01*
X119876286Y-96171047D01*
X119685810Y-96123428D01*
X119542952Y-96123428D01*
X119352476Y-96171047D01*
X119257238Y-96218666D01*
X119162000Y-96313904D01*
X119114381Y-96456762D01*
X119114381Y-96552000D01*
X119162000Y-96694857D01*
X119209619Y-96742476D01*
X120114381Y-97171047D02*
X119114381Y-97171047D01*
X119495333Y-97171047D02*
X119447714Y-97266285D01*
X119447714Y-97456762D01*
X119495333Y-97552000D01*
X119542952Y-97599619D01*
X119638190Y-97647238D01*
X119923905Y-97647238D01*
X120019143Y-97599619D01*
X120066762Y-97552000D01*
X120114381Y-97456762D01*
X120114381Y-97266285D01*
X120066762Y-97171047D01*
X120114381Y-98218666D02*
X120066762Y-98123428D01*
X120019143Y-98075809D01*
X119923905Y-98028190D01*
X119638190Y-98028190D01*
X119542952Y-98075809D01*
X119495333Y-98123428D01*
X119447714Y-98218666D01*
X119447714Y-98361524D01*
X119495333Y-98456762D01*
X119542952Y-98504381D01*
X119638190Y-98552000D01*
X119923905Y-98552000D01*
X120019143Y-98504381D01*
X120066762Y-98456762D01*
X120114381Y-98361524D01*
X120114381Y-98218666D01*
X120114381Y-99123428D02*
X120066762Y-99028190D01*
X120019143Y-98980571D01*
X119923905Y-98932952D01*
X119638190Y-98932952D01*
X119542952Y-98980571D01*
X119495333Y-99028190D01*
X119447714Y-99123428D01*
X119447714Y-99266286D01*
X119495333Y-99361524D01*
X119542952Y-99409143D01*
X119638190Y-99456762D01*
X119923905Y-99456762D01*
X120019143Y-99409143D01*
X120066762Y-99361524D01*
X120114381Y-99266286D01*
X120114381Y-99123428D01*
X119447714Y-99742476D02*
X119447714Y-100123428D01*
X119114381Y-99885333D02*
X119971524Y-99885333D01*
X120066762Y-99932952D01*
X120114381Y-100028190D01*
X120114381Y-100123428D01*
X120114381Y-100980572D02*
X120114381Y-100409143D01*
X120114381Y-100694857D02*
X119114381Y-100694857D01*
X119257238Y-100599619D01*
X119352476Y-100504381D01*
X119400095Y-100409143D01*
X122470243Y-126815981D02*
X122517862Y-126768362D01*
X122565481Y-126625505D01*
X122565481Y-126530267D01*
X122517862Y-126387409D01*
X122422624Y-126292171D01*
X122327386Y-126244552D01*
X122136910Y-126196933D01*
X121994052Y-126196933D01*
X121803576Y-126244552D01*
X121708338Y-126292171D01*
X121613100Y-126387409D01*
X121565481Y-126530267D01*
X121565481Y-126625505D01*
X121613100Y-126768362D01*
X121660719Y-126815981D01*
X122517862Y-127625505D02*
X122565481Y-127530267D01*
X122565481Y-127339790D01*
X122517862Y-127244552D01*
X122422624Y-127196933D01*
X122041671Y-127196933D01*
X121946433Y-127244552D01*
X121898814Y-127339790D01*
X121898814Y-127530267D01*
X121946433Y-127625505D01*
X122041671Y-127673124D01*
X122136910Y-127673124D01*
X122232148Y-127196933D01*
X121898814Y-128101695D02*
X122565481Y-128101695D01*
X121994052Y-128101695D02*
X121946433Y-128149314D01*
X121898814Y-128244552D01*
X121898814Y-128387410D01*
X121946433Y-128482648D01*
X122041671Y-128530267D01*
X122565481Y-128530267D01*
X122565481Y-129530267D02*
X122565481Y-128958838D01*
X122565481Y-129244552D02*
X121565481Y-129244552D01*
X121708338Y-129149314D01*
X121803576Y-129054076D01*
X121851195Y-128958838D01*
X119257143Y-118697524D02*
X119304762Y-118649905D01*
X119352381Y-118507048D01*
X119352381Y-118411810D01*
X119304762Y-118268952D01*
X119209524Y-118173714D01*
X119114286Y-118126095D01*
X118923810Y-118078476D01*
X118780952Y-118078476D01*
X118590476Y-118126095D01*
X118495238Y-118173714D01*
X118400000Y-118268952D01*
X118352381Y-118411810D01*
X118352381Y-118507048D01*
X118400000Y-118649905D01*
X118447619Y-118697524D01*
X119352381Y-119268952D02*
X119304762Y-119173714D01*
X119257143Y-119126095D01*
X119161905Y-119078476D01*
X118876190Y-119078476D01*
X118780952Y-119126095D01*
X118733333Y-119173714D01*
X118685714Y-119268952D01*
X118685714Y-119411810D01*
X118733333Y-119507048D01*
X118780952Y-119554667D01*
X118876190Y-119602286D01*
X119161905Y-119602286D01*
X119257143Y-119554667D01*
X119304762Y-119507048D01*
X119352381Y-119411810D01*
X119352381Y-119268952D01*
X118685714Y-119888000D02*
X118685714Y-120268952D01*
X119352381Y-120030857D02*
X118495238Y-120030857D01*
X118400000Y-120078476D01*
X118352381Y-120173714D01*
X118352381Y-120268952D01*
X118685714Y-120459429D02*
X118685714Y-120840381D01*
X119352381Y-120602286D02*
X118495238Y-120602286D01*
X118400000Y-120649905D01*
X118352381Y-120745143D01*
X118352381Y-120840381D01*
X119352381Y-121697525D02*
X119352381Y-121126096D01*
X119352381Y-121411810D02*
X118352381Y-121411810D01*
X118495238Y-121316572D01*
X118590476Y-121221334D01*
X118638095Y-121126096D01*
X90598476Y-107573143D02*
X90646095Y-107620762D01*
X90788952Y-107668381D01*
X90884190Y-107668381D01*
X91027048Y-107620762D01*
X91122286Y-107525524D01*
X91169905Y-107430286D01*
X91217524Y-107239810D01*
X91217524Y-107096952D01*
X91169905Y-106906476D01*
X91122286Y-106811238D01*
X91027048Y-106716000D01*
X90884190Y-106668381D01*
X90788952Y-106668381D01*
X90646095Y-106716000D01*
X90598476Y-106763619D01*
X90027048Y-107668381D02*
X90122286Y-107620762D01*
X90169905Y-107573143D01*
X90217524Y-107477905D01*
X90217524Y-107192190D01*
X90169905Y-107096952D01*
X90122286Y-107049333D01*
X90027048Y-107001714D01*
X89884190Y-107001714D01*
X89788952Y-107049333D01*
X89741333Y-107096952D01*
X89693714Y-107192190D01*
X89693714Y-107477905D01*
X89741333Y-107573143D01*
X89788952Y-107620762D01*
X89884190Y-107668381D01*
X90027048Y-107668381D01*
X89408000Y-107001714D02*
X89027048Y-107001714D01*
X89265143Y-107668381D02*
X89265143Y-106811238D01*
X89217524Y-106716000D01*
X89122286Y-106668381D01*
X89027048Y-106668381D01*
X88836571Y-107001714D02*
X88455619Y-107001714D01*
X88693714Y-107668381D02*
X88693714Y-106811238D01*
X88646095Y-106716000D01*
X88550857Y-106668381D01*
X88455619Y-106668381D01*
X88169904Y-106763619D02*
X88122285Y-106716000D01*
X88027047Y-106668381D01*
X87788951Y-106668381D01*
X87693713Y-106716000D01*
X87646094Y-106763619D01*
X87598475Y-106858857D01*
X87598475Y-106954095D01*
X87646094Y-107096952D01*
X88217523Y-107668381D01*
X87598475Y-107668381D01*
X125793333Y-113613143D02*
X125840952Y-113660762D01*
X125983809Y-113708381D01*
X126079047Y-113708381D01*
X126221905Y-113660762D01*
X126317143Y-113565524D01*
X126364762Y-113470286D01*
X126412381Y-113279810D01*
X126412381Y-113136952D01*
X126364762Y-112946476D01*
X126317143Y-112851238D01*
X126221905Y-112756000D01*
X126079047Y-112708381D01*
X125983809Y-112708381D01*
X125840952Y-112756000D01*
X125793333Y-112803619D01*
X125364762Y-113041714D02*
X125364762Y-114041714D01*
X125364762Y-113089333D02*
X125269524Y-113041714D01*
X125079047Y-113041714D01*
X124983809Y-113089333D01*
X124936190Y-113136952D01*
X124888571Y-113232190D01*
X124888571Y-113517905D01*
X124936190Y-113613143D01*
X124983809Y-113660762D01*
X125079047Y-113708381D01*
X125269524Y-113708381D01*
X125364762Y-113660762D01*
X124031428Y-113041714D02*
X124031428Y-113708381D01*
X124460000Y-113041714D02*
X124460000Y-113565524D01*
X124412381Y-113660762D01*
X124317143Y-113708381D01*
X124174285Y-113708381D01*
X124079047Y-113660762D01*
X124031428Y-113613143D01*
X123412381Y-113708381D02*
X123507619Y-113660762D01*
X123555238Y-113565524D01*
X123555238Y-112708381D01*
X122507618Y-113708381D02*
X123079047Y-113708381D01*
X122793333Y-113708381D02*
X122793333Y-112708381D01*
X122888571Y-112851238D01*
X122983809Y-112946476D01*
X123079047Y-112994095D01*
X83375333Y-111073143D02*
X83422952Y-111120762D01*
X83565809Y-111168381D01*
X83661047Y-111168381D01*
X83803905Y-111120762D01*
X83899143Y-111025524D01*
X83946762Y-110930286D01*
X83994381Y-110739810D01*
X83994381Y-110596952D01*
X83946762Y-110406476D01*
X83899143Y-110311238D01*
X83803905Y-110216000D01*
X83661047Y-110168381D01*
X83565809Y-110168381D01*
X83422952Y-110216000D01*
X83375333Y-110263619D01*
X82946762Y-110501714D02*
X82946762Y-111501714D01*
X82946762Y-110549333D02*
X82851524Y-110501714D01*
X82661047Y-110501714D01*
X82565809Y-110549333D01*
X82518190Y-110596952D01*
X82470571Y-110692190D01*
X82470571Y-110977905D01*
X82518190Y-111073143D01*
X82565809Y-111120762D01*
X82661047Y-111168381D01*
X82851524Y-111168381D01*
X82946762Y-111120762D01*
X81613428Y-110501714D02*
X81613428Y-111168381D01*
X82042000Y-110501714D02*
X82042000Y-111025524D01*
X81994381Y-111120762D01*
X81899143Y-111168381D01*
X81756285Y-111168381D01*
X81661047Y-111120762D01*
X81613428Y-111073143D01*
X80994381Y-111168381D02*
X81089619Y-111120762D01*
X81137238Y-111025524D01*
X81137238Y-110168381D01*
X80661047Y-110263619D02*
X80613428Y-110216000D01*
X80518190Y-110168381D01*
X80280094Y-110168381D01*
X80184856Y-110216000D01*
X80137237Y-110263619D01*
X80089618Y-110358857D01*
X80089618Y-110454095D01*
X80137237Y-110596952D01*
X80708666Y-111168381D01*
X80089618Y-111168381D01*
X62447581Y-125220934D02*
X61971390Y-124887600D01*
X62447581Y-124649505D02*
X61447581Y-124649505D01*
X61447581Y-125030458D01*
X61495200Y-125125696D01*
X61542819Y-125173315D01*
X61638057Y-125220934D01*
X61780914Y-125220934D01*
X61876152Y-125173315D01*
X61923771Y-125125696D01*
X61971390Y-125030458D01*
X61971390Y-124649505D01*
X61447581Y-125554267D02*
X61447581Y-126220934D01*
X62447581Y-125792362D01*
X70379481Y-90032534D02*
X69903290Y-89699200D01*
X70379481Y-89461105D02*
X69379481Y-89461105D01*
X69379481Y-89842058D01*
X69427100Y-89937296D01*
X69474719Y-89984915D01*
X69569957Y-90032534D01*
X69712814Y-90032534D01*
X69808052Y-89984915D01*
X69855671Y-89937296D01*
X69903290Y-89842058D01*
X69903290Y-89461105D01*
X69808052Y-90603962D02*
X69760433Y-90508724D01*
X69712814Y-90461105D01*
X69617576Y-90413486D01*
X69569957Y-90413486D01*
X69474719Y-90461105D01*
X69427100Y-90508724D01*
X69379481Y-90603962D01*
X69379481Y-90794439D01*
X69427100Y-90889677D01*
X69474719Y-90937296D01*
X69569957Y-90984915D01*
X69617576Y-90984915D01*
X69712814Y-90937296D01*
X69760433Y-90889677D01*
X69808052Y-90794439D01*
X69808052Y-90603962D01*
X69855671Y-90508724D01*
X69903290Y-90461105D01*
X69998529Y-90413486D01*
X70189005Y-90413486D01*
X70284243Y-90461105D01*
X70331862Y-90508724D01*
X70379481Y-90603962D01*
X70379481Y-90794439D01*
X70331862Y-90889677D01*
X70284243Y-90937296D01*
X70189005Y-90984915D01*
X69998529Y-90984915D01*
X69903290Y-90937296D01*
X69855671Y-90889677D01*
X69808052Y-90794439D01*
X66193766Y-92001581D02*
X66527100Y-91525390D01*
X66765195Y-92001581D02*
X66765195Y-91001581D01*
X66384242Y-91001581D01*
X66289004Y-91049200D01*
X66241385Y-91096819D01*
X66193766Y-91192057D01*
X66193766Y-91334914D01*
X66241385Y-91430152D01*
X66289004Y-91477771D01*
X66384242Y-91525390D01*
X66765195Y-91525390D01*
X65717576Y-92001581D02*
X65527100Y-92001581D01*
X65431861Y-91953962D01*
X65384242Y-91906343D01*
X65289004Y-91763486D01*
X65241385Y-91573010D01*
X65241385Y-91192057D01*
X65289004Y-91096819D01*
X65336623Y-91049200D01*
X65431861Y-91001581D01*
X65622338Y-91001581D01*
X65717576Y-91049200D01*
X65765195Y-91096819D01*
X65812814Y-91192057D01*
X65812814Y-91430152D01*
X65765195Y-91525390D01*
X65717576Y-91573010D01*
X65622338Y-91620629D01*
X65431861Y-91620629D01*
X65336623Y-91573010D01*
X65289004Y-91525390D01*
X65241385Y-91430152D01*
X75129481Y-89556343D02*
X74653290Y-89223009D01*
X75129481Y-88984914D02*
X74129481Y-88984914D01*
X74129481Y-89365867D01*
X74177100Y-89461105D01*
X74224719Y-89508724D01*
X74319957Y-89556343D01*
X74462814Y-89556343D01*
X74558052Y-89508724D01*
X74605671Y-89461105D01*
X74653290Y-89365867D01*
X74653290Y-88984914D01*
X75129481Y-90508724D02*
X75129481Y-89937295D01*
X75129481Y-90223009D02*
X74129481Y-90223009D01*
X74272338Y-90127771D01*
X74367576Y-90032533D01*
X74415195Y-89937295D01*
X74129481Y-91127771D02*
X74129481Y-91223010D01*
X74177100Y-91318248D01*
X74224719Y-91365867D01*
X74319957Y-91413486D01*
X74510433Y-91461105D01*
X74748529Y-91461105D01*
X74939005Y-91413486D01*
X75034243Y-91365867D01*
X75081862Y-91318248D01*
X75129481Y-91223010D01*
X75129481Y-91127771D01*
X75081862Y-91032533D01*
X75034243Y-90984914D01*
X74939005Y-90937295D01*
X74748529Y-90889676D01*
X74510433Y-90889676D01*
X74319957Y-90937295D01*
X74224719Y-90984914D01*
X74177100Y-91032533D01*
X74129481Y-91127771D01*
X61152581Y-97952743D02*
X60676390Y-97619409D01*
X61152581Y-97381314D02*
X60152581Y-97381314D01*
X60152581Y-97762267D01*
X60200200Y-97857505D01*
X60247819Y-97905124D01*
X60343057Y-97952743D01*
X60485914Y-97952743D01*
X60581152Y-97905124D01*
X60628771Y-97857505D01*
X60676390Y-97762267D01*
X60676390Y-97381314D01*
X61152581Y-98905124D02*
X61152581Y-98333695D01*
X61152581Y-98619409D02*
X60152581Y-98619409D01*
X60295438Y-98524171D01*
X60390676Y-98428933D01*
X60438295Y-98333695D01*
X61152581Y-99857505D02*
X61152581Y-99286076D01*
X61152581Y-99571790D02*
X60152581Y-99571790D01*
X60295438Y-99476552D01*
X60390676Y-99381314D01*
X60438295Y-99286076D01*
X57693057Y-97447981D02*
X58026391Y-96971790D01*
X58264486Y-97447981D02*
X58264486Y-96447981D01*
X57883533Y-96447981D01*
X57788295Y-96495600D01*
X57740676Y-96543219D01*
X57693057Y-96638457D01*
X57693057Y-96781314D01*
X57740676Y-96876552D01*
X57788295Y-96924171D01*
X57883533Y-96971790D01*
X58264486Y-96971790D01*
X56740676Y-97447981D02*
X57312105Y-97447981D01*
X57026391Y-97447981D02*
X57026391Y-96447981D01*
X57121629Y-96590838D01*
X57216867Y-96686076D01*
X57312105Y-96733695D01*
X56359724Y-96543219D02*
X56312105Y-96495600D01*
X56216867Y-96447981D01*
X55978771Y-96447981D01*
X55883533Y-96495600D01*
X55835914Y-96543219D01*
X55788295Y-96638457D01*
X55788295Y-96733695D01*
X55835914Y-96876552D01*
X56407343Y-97447981D01*
X55788295Y-97447981D01*
X66152581Y-97952743D02*
X65676390Y-97619409D01*
X66152581Y-97381314D02*
X65152581Y-97381314D01*
X65152581Y-97762267D01*
X65200200Y-97857505D01*
X65247819Y-97905124D01*
X65343057Y-97952743D01*
X65485914Y-97952743D01*
X65581152Y-97905124D01*
X65628771Y-97857505D01*
X65676390Y-97762267D01*
X65676390Y-97381314D01*
X66152581Y-98905124D02*
X66152581Y-98333695D01*
X66152581Y-98619409D02*
X65152581Y-98619409D01*
X65295438Y-98524171D01*
X65390676Y-98428933D01*
X65438295Y-98333695D01*
X65152581Y-99238457D02*
X65152581Y-99857505D01*
X65533533Y-99524171D01*
X65533533Y-99667029D01*
X65581152Y-99762267D01*
X65628771Y-99809886D01*
X65724010Y-99857505D01*
X65962105Y-99857505D01*
X66057343Y-99809886D01*
X66104962Y-99762267D01*
X66152581Y-99667029D01*
X66152581Y-99381314D01*
X66104962Y-99286076D01*
X66057343Y-99238457D01*
X132000857Y-143802381D02*
X132334191Y-143326190D01*
X132572286Y-143802381D02*
X132572286Y-142802381D01*
X132191333Y-142802381D01*
X132096095Y-142850000D01*
X132048476Y-142897619D01*
X132000857Y-142992857D01*
X132000857Y-143135714D01*
X132048476Y-143230952D01*
X132096095Y-143278571D01*
X132191333Y-143326190D01*
X132572286Y-143326190D01*
X131048476Y-143802381D02*
X131619905Y-143802381D01*
X131334191Y-143802381D02*
X131334191Y-142802381D01*
X131429429Y-142945238D01*
X131524667Y-143040476D01*
X131619905Y-143088095D01*
X130143714Y-142802381D02*
X130619905Y-142802381D01*
X130667524Y-143278571D01*
X130619905Y-143230952D01*
X130524667Y-143183333D01*
X130286571Y-143183333D01*
X130191333Y-143230952D01*
X130143714Y-143278571D01*
X130096095Y-143373810D01*
X130096095Y-143611905D01*
X130143714Y-143707143D01*
X130191333Y-143754762D01*
X130286571Y-143802381D01*
X130524667Y-143802381D01*
X130619905Y-143754762D01*
X130667524Y-143707143D01*
X125531428Y-111014381D02*
X125864762Y-110538190D01*
X126102857Y-111014381D02*
X126102857Y-110014381D01*
X125721904Y-110014381D01*
X125626666Y-110062000D01*
X125579047Y-110109619D01*
X125531428Y-110204857D01*
X125531428Y-110347714D01*
X125579047Y-110442952D01*
X125626666Y-110490571D01*
X125721904Y-110538190D01*
X126102857Y-110538190D01*
X124674285Y-111014381D02*
X124674285Y-110014381D01*
X124674285Y-110966762D02*
X124769523Y-111014381D01*
X124960000Y-111014381D01*
X125055238Y-110966762D01*
X125102857Y-110919143D01*
X125150476Y-110823905D01*
X125150476Y-110538190D01*
X125102857Y-110442952D01*
X125055238Y-110395333D01*
X124960000Y-110347714D01*
X124769523Y-110347714D01*
X124674285Y-110395333D01*
X123769523Y-111014381D02*
X123769523Y-110014381D01*
X123769523Y-110966762D02*
X123864761Y-111014381D01*
X124055238Y-111014381D01*
X124150476Y-110966762D01*
X124198095Y-110919143D01*
X124245714Y-110823905D01*
X124245714Y-110538190D01*
X124198095Y-110442952D01*
X124150476Y-110395333D01*
X124055238Y-110347714D01*
X123864761Y-110347714D01*
X123769523Y-110395333D01*
X122769523Y-111014381D02*
X123340952Y-111014381D01*
X123055238Y-111014381D02*
X123055238Y-110014381D01*
X123150476Y-110157238D01*
X123245714Y-110252476D01*
X123340952Y-110300095D01*
X63880381Y-109926572D02*
X63404190Y-109593238D01*
X63880381Y-109355143D02*
X62880381Y-109355143D01*
X62880381Y-109736096D01*
X62928000Y-109831334D01*
X62975619Y-109878953D01*
X63070857Y-109926572D01*
X63213714Y-109926572D01*
X63308952Y-109878953D01*
X63356571Y-109831334D01*
X63404190Y-109736096D01*
X63404190Y-109355143D01*
X63880381Y-110783715D02*
X62880381Y-110783715D01*
X63832762Y-110783715D02*
X63880381Y-110688477D01*
X63880381Y-110498000D01*
X63832762Y-110402762D01*
X63785143Y-110355143D01*
X63689905Y-110307524D01*
X63404190Y-110307524D01*
X63308952Y-110355143D01*
X63261333Y-110402762D01*
X63213714Y-110498000D01*
X63213714Y-110688477D01*
X63261333Y-110783715D01*
X63880381Y-111688477D02*
X62880381Y-111688477D01*
X63832762Y-111688477D02*
X63880381Y-111593239D01*
X63880381Y-111402762D01*
X63832762Y-111307524D01*
X63785143Y-111259905D01*
X63689905Y-111212286D01*
X63404190Y-111212286D01*
X63308952Y-111259905D01*
X63261333Y-111307524D01*
X63213714Y-111402762D01*
X63213714Y-111593239D01*
X63261333Y-111688477D01*
X62975619Y-112117048D02*
X62928000Y-112164667D01*
X62880381Y-112259905D01*
X62880381Y-112498001D01*
X62928000Y-112593239D01*
X62975619Y-112640858D01*
X63070857Y-112688477D01*
X63166095Y-112688477D01*
X63308952Y-112640858D01*
X63880381Y-112069429D01*
X63880381Y-112688477D01*
X120065181Y-126815981D02*
X119588990Y-126482647D01*
X120065181Y-126244552D02*
X119065181Y-126244552D01*
X119065181Y-126625505D01*
X119112800Y-126720743D01*
X119160419Y-126768362D01*
X119255657Y-126815981D01*
X119398514Y-126815981D01*
X119493752Y-126768362D01*
X119541371Y-126720743D01*
X119588990Y-126625505D01*
X119588990Y-126244552D01*
X120017562Y-127625505D02*
X120065181Y-127530267D01*
X120065181Y-127339790D01*
X120017562Y-127244552D01*
X119922324Y-127196933D01*
X119541371Y-127196933D01*
X119446133Y-127244552D01*
X119398514Y-127339790D01*
X119398514Y-127530267D01*
X119446133Y-127625505D01*
X119541371Y-127673124D01*
X119636610Y-127673124D01*
X119731848Y-127196933D01*
X119398514Y-128101695D02*
X120065181Y-128101695D01*
X119493752Y-128101695D02*
X119446133Y-128149314D01*
X119398514Y-128244552D01*
X119398514Y-128387410D01*
X119446133Y-128482648D01*
X119541371Y-128530267D01*
X120065181Y-128530267D01*
X120065181Y-129530267D02*
X120065181Y-128958838D01*
X120065181Y-129244552D02*
X119065181Y-129244552D01*
X119208038Y-129149314D01*
X119303276Y-129054076D01*
X119350895Y-128958838D01*
X116712381Y-118697524D02*
X116236190Y-118364190D01*
X116712381Y-118126095D02*
X115712381Y-118126095D01*
X115712381Y-118507048D01*
X115760000Y-118602286D01*
X115807619Y-118649905D01*
X115902857Y-118697524D01*
X116045714Y-118697524D01*
X116140952Y-118649905D01*
X116188571Y-118602286D01*
X116236190Y-118507048D01*
X116236190Y-118126095D01*
X116712381Y-119268952D02*
X116664762Y-119173714D01*
X116617143Y-119126095D01*
X116521905Y-119078476D01*
X116236190Y-119078476D01*
X116140952Y-119126095D01*
X116093333Y-119173714D01*
X116045714Y-119268952D01*
X116045714Y-119411810D01*
X116093333Y-119507048D01*
X116140952Y-119554667D01*
X116236190Y-119602286D01*
X116521905Y-119602286D01*
X116617143Y-119554667D01*
X116664762Y-119507048D01*
X116712381Y-119411810D01*
X116712381Y-119268952D01*
X116045714Y-119888000D02*
X116045714Y-120268952D01*
X116712381Y-120030857D02*
X115855238Y-120030857D01*
X115760000Y-120078476D01*
X115712381Y-120173714D01*
X115712381Y-120268952D01*
X116045714Y-120459429D02*
X116045714Y-120840381D01*
X116712381Y-120602286D02*
X115855238Y-120602286D01*
X115760000Y-120649905D01*
X115712381Y-120745143D01*
X115712381Y-120840381D01*
X116712381Y-121697525D02*
X116712381Y-121126096D01*
X116712381Y-121411810D02*
X115712381Y-121411810D01*
X115855238Y-121316572D01*
X115950476Y-121221334D01*
X115998095Y-121126096D01*
X90598476Y-110108381D02*
X90931810Y-109632190D01*
X91169905Y-110108381D02*
X91169905Y-109108381D01*
X90788952Y-109108381D01*
X90693714Y-109156000D01*
X90646095Y-109203619D01*
X90598476Y-109298857D01*
X90598476Y-109441714D01*
X90646095Y-109536952D01*
X90693714Y-109584571D01*
X90788952Y-109632190D01*
X91169905Y-109632190D01*
X90027048Y-110108381D02*
X90122286Y-110060762D01*
X90169905Y-110013143D01*
X90217524Y-109917905D01*
X90217524Y-109632190D01*
X90169905Y-109536952D01*
X90122286Y-109489333D01*
X90027048Y-109441714D01*
X89884190Y-109441714D01*
X89788952Y-109489333D01*
X89741333Y-109536952D01*
X89693714Y-109632190D01*
X89693714Y-109917905D01*
X89741333Y-110013143D01*
X89788952Y-110060762D01*
X89884190Y-110108381D01*
X90027048Y-110108381D01*
X89408000Y-109441714D02*
X89027048Y-109441714D01*
X89265143Y-110108381D02*
X89265143Y-109251238D01*
X89217524Y-109156000D01*
X89122286Y-109108381D01*
X89027048Y-109108381D01*
X88836571Y-109441714D02*
X88455619Y-109441714D01*
X88693714Y-110108381D02*
X88693714Y-109251238D01*
X88646095Y-109156000D01*
X88550857Y-109108381D01*
X88455619Y-109108381D01*
X88169904Y-109203619D02*
X88122285Y-109156000D01*
X88027047Y-109108381D01*
X87788951Y-109108381D01*
X87693713Y-109156000D01*
X87646094Y-109203619D01*
X87598475Y-109298857D01*
X87598475Y-109394095D01*
X87646094Y-109536952D01*
X88217523Y-110108381D01*
X87598475Y-110108381D01*
X118173333Y-110108381D02*
X118506667Y-109632190D01*
X118744762Y-110108381D02*
X118744762Y-109108381D01*
X118363809Y-109108381D01*
X118268571Y-109156000D01*
X118220952Y-109203619D01*
X118173333Y-109298857D01*
X118173333Y-109441714D01*
X118220952Y-109536952D01*
X118268571Y-109584571D01*
X118363809Y-109632190D01*
X118744762Y-109632190D01*
X117744762Y-109441714D02*
X117744762Y-110441714D01*
X117744762Y-109489333D02*
X117649524Y-109441714D01*
X117459047Y-109441714D01*
X117363809Y-109489333D01*
X117316190Y-109536952D01*
X117268571Y-109632190D01*
X117268571Y-109917905D01*
X117316190Y-110013143D01*
X117363809Y-110060762D01*
X117459047Y-110108381D01*
X117649524Y-110108381D01*
X117744762Y-110060762D01*
X116411428Y-109441714D02*
X116411428Y-110108381D01*
X116840000Y-109441714D02*
X116840000Y-109965524D01*
X116792381Y-110060762D01*
X116697143Y-110108381D01*
X116554285Y-110108381D01*
X116459047Y-110060762D01*
X116411428Y-110013143D01*
X115792381Y-110108381D02*
X115887619Y-110060762D01*
X115935238Y-109965524D01*
X115935238Y-109108381D01*
X114887618Y-110108381D02*
X115459047Y-110108381D01*
X115173333Y-110108381D02*
X115173333Y-109108381D01*
X115268571Y-109251238D01*
X115363809Y-109346476D01*
X115459047Y-109394095D01*
X83375333Y-113808381D02*
X83708667Y-113332190D01*
X83946762Y-113808381D02*
X83946762Y-112808381D01*
X83565809Y-112808381D01*
X83470571Y-112856000D01*
X83422952Y-112903619D01*
X83375333Y-112998857D01*
X83375333Y-113141714D01*
X83422952Y-113236952D01*
X83470571Y-113284571D01*
X83565809Y-113332190D01*
X83946762Y-113332190D01*
X82946762Y-113141714D02*
X82946762Y-114141714D01*
X82946762Y-113189333D02*
X82851524Y-113141714D01*
X82661047Y-113141714D01*
X82565809Y-113189333D01*
X82518190Y-113236952D01*
X82470571Y-113332190D01*
X82470571Y-113617905D01*
X82518190Y-113713143D01*
X82565809Y-113760762D01*
X82661047Y-113808381D01*
X82851524Y-113808381D01*
X82946762Y-113760762D01*
X81613428Y-113141714D02*
X81613428Y-113808381D01*
X82042000Y-113141714D02*
X82042000Y-113665524D01*
X81994381Y-113760762D01*
X81899143Y-113808381D01*
X81756285Y-113808381D01*
X81661047Y-113760762D01*
X81613428Y-113713143D01*
X80994381Y-113808381D02*
X81089619Y-113760762D01*
X81137238Y-113665524D01*
X81137238Y-112808381D01*
X80661047Y-112903619D02*
X80613428Y-112856000D01*
X80518190Y-112808381D01*
X80280094Y-112808381D01*
X80184856Y-112856000D01*
X80137237Y-112903619D01*
X80089618Y-112998857D01*
X80089618Y-113094095D01*
X80137237Y-113236952D01*
X80708666Y-113808381D01*
X80089618Y-113808381D01*
X58752343Y-136706743D02*
X58799962Y-136659124D01*
X58847581Y-136516267D01*
X58847581Y-136421029D01*
X58799962Y-136278171D01*
X58704724Y-136182933D01*
X58609486Y-136135314D01*
X58419010Y-136087695D01*
X58276152Y-136087695D01*
X58085676Y-136135314D01*
X57990438Y-136182933D01*
X57895200Y-136278171D01*
X57847581Y-136421029D01*
X57847581Y-136516267D01*
X57895200Y-136659124D01*
X57942819Y-136706743D01*
X58847581Y-137659124D02*
X58847581Y-137087695D01*
X58847581Y-137373409D02*
X57847581Y-137373409D01*
X57990438Y-137278171D01*
X58085676Y-137182933D01*
X58133295Y-137087695D01*
X58847581Y-138611505D02*
X58847581Y-138040076D01*
X58847581Y-138325790D02*
X57847581Y-138325790D01*
X57990438Y-138230552D01*
X58085676Y-138135314D01*
X58133295Y-138040076D01*
X90504095Y-131663381D02*
X90504095Y-130663381D01*
X90266000Y-130663381D01*
X90123142Y-130711000D01*
X90027904Y-130806238D01*
X89980285Y-130901476D01*
X89932666Y-131091952D01*
X89932666Y-131234810D01*
X89980285Y-131425286D01*
X90027904Y-131520524D01*
X90123142Y-131615762D01*
X90266000Y-131663381D01*
X90504095Y-131663381D01*
X89075523Y-130663381D02*
X89266000Y-130663381D01*
X89361238Y-130711000D01*
X89408857Y-130758619D01*
X89504095Y-130901476D01*
X89551714Y-131091952D01*
X89551714Y-131472905D01*
X89504095Y-131568143D01*
X89456476Y-131615762D01*
X89361238Y-131663381D01*
X89170761Y-131663381D01*
X89075523Y-131615762D01*
X89027904Y-131568143D01*
X88980285Y-131472905D01*
X88980285Y-131234810D01*
X89027904Y-131139571D01*
X89075523Y-131091952D01*
X89170761Y-131044333D01*
X89361238Y-131044333D01*
X89456476Y-131091952D01*
X89504095Y-131139571D01*
X89551714Y-131234810D01*
X90929486Y-142096981D02*
X90929486Y-141096981D01*
X90691391Y-141096981D01*
X90548533Y-141144600D01*
X90453295Y-141239838D01*
X90405676Y-141335076D01*
X90358057Y-141525552D01*
X90358057Y-141668410D01*
X90405676Y-141858886D01*
X90453295Y-141954124D01*
X90548533Y-142049362D01*
X90691391Y-142096981D01*
X90929486Y-142096981D01*
X89405676Y-142096981D02*
X89977105Y-142096981D01*
X89691391Y-142096981D02*
X89691391Y-141096981D01*
X89786629Y-141239838D01*
X89881867Y-141335076D01*
X89977105Y-141382695D01*
X88786629Y-141096981D02*
X88691390Y-141096981D01*
X88596152Y-141144600D01*
X88548533Y-141192219D01*
X88500914Y-141287457D01*
X88453295Y-141477933D01*
X88453295Y-141716029D01*
X88500914Y-141906505D01*
X88548533Y-142001743D01*
X88596152Y-142049362D01*
X88691390Y-142096981D01*
X88786629Y-142096981D01*
X88881867Y-142049362D01*
X88929486Y-142001743D01*
X88977105Y-141906505D01*
X89024724Y-141716029D01*
X89024724Y-141477933D01*
X88977105Y-141287457D01*
X88929486Y-141192219D01*
X88881867Y-141144600D01*
X88786629Y-141096981D01*
X58947581Y-136706743D02*
X58471390Y-136373409D01*
X58947581Y-136135314D02*
X57947581Y-136135314D01*
X57947581Y-136516267D01*
X57995200Y-136611505D01*
X58042819Y-136659124D01*
X58138057Y-136706743D01*
X58280914Y-136706743D01*
X58376152Y-136659124D01*
X58423771Y-136611505D01*
X58471390Y-136516267D01*
X58471390Y-136135314D01*
X58947581Y-137659124D02*
X58947581Y-137087695D01*
X58947581Y-137373409D02*
X57947581Y-137373409D01*
X58090438Y-137278171D01*
X58185676Y-137182933D01*
X58233295Y-137087695D01*
X57947581Y-138516267D02*
X57947581Y-138325790D01*
X57995200Y-138230552D01*
X58042819Y-138182933D01*
X58185676Y-138087695D01*
X58376152Y-138040076D01*
X58757105Y-138040076D01*
X58852343Y-138087695D01*
X58899962Y-138135314D01*
X58947581Y-138230552D01*
X58947581Y-138421029D01*
X58899962Y-138516267D01*
X58852343Y-138563886D01*
X58757105Y-138611505D01*
X58519010Y-138611505D01*
X58423771Y-138563886D01*
X58376152Y-138516267D01*
X58328533Y-138421029D01*
X58328533Y-138230552D01*
X58376152Y-138135314D01*
X58423771Y-138087695D01*
X58519010Y-138040076D01*
X106352381Y-109561905D02*
X105352381Y-109561905D01*
X106352381Y-110133334D02*
X105780952Y-109704762D01*
X105352381Y-110133334D02*
X105923810Y-109561905D01*
X105447619Y-110514286D02*
X105400000Y-110561905D01*
X105352381Y-110657143D01*
X105352381Y-110895239D01*
X105400000Y-110990477D01*
X105447619Y-111038096D01*
X105542857Y-111085715D01*
X105638095Y-111085715D01*
X105780952Y-111038096D01*
X106352381Y-110466667D01*
X106352381Y-111085715D01*
X67257143Y-110950934D02*
X67304762Y-110903315D01*
X67352381Y-110760458D01*
X67352381Y-110665220D01*
X67304762Y-110522362D01*
X67209524Y-110427124D01*
X67114286Y-110379505D01*
X66923810Y-110331886D01*
X66780952Y-110331886D01*
X66590476Y-110379505D01*
X66495238Y-110427124D01*
X66400000Y-110522362D01*
X66352381Y-110665220D01*
X66352381Y-110760458D01*
X66400000Y-110903315D01*
X66447619Y-110950934D01*
X66447619Y-111331886D02*
X66400000Y-111379505D01*
X66352381Y-111474743D01*
X66352381Y-111712839D01*
X66400000Y-111808077D01*
X66447619Y-111855696D01*
X66542857Y-111903315D01*
X66638095Y-111903315D01*
X66780952Y-111855696D01*
X67352381Y-111284267D01*
X67352381Y-111903315D01*
M02*
