G04 #@! TF.FileFunction,Soldermask,Top*
%FSLAX46Y46*%
G04 Gerber Fmt 4.6, Leading zero omitted, Abs format (unit mm)*
G04 Created by KiCad (PCBNEW 4.0.2+dfsg1-stable) date sam. 06 janv. 2018 03:07:49 CET*
%MOMM*%
G01*
G04 APERTURE LIST*
%ADD10C,0.100000*%
%ADD11C,2.000000*%
%ADD12O,2.000000X2.000000*%
%ADD13R,2.400000X3.000000*%
%ADD14O,2.400000X3.000000*%
%ADD15R,1.000000X2.400000*%
%ADD16R,2.000000X2.000000*%
%ADD17R,2.400000X2.000000*%
%ADD18O,4.400000X2.900000*%
%ADD19R,2.100000X2.100000*%
%ADD20O,2.100000X2.100000*%
%ADD21R,3.000000X2.400000*%
%ADD22O,3.000000X2.400000*%
%ADD23R,2.100000X2.400000*%
%ADD24R,2.400000X2.100000*%
%ADD25R,1.000000X1.600000*%
%ADD26R,1.600000X1.000000*%
%ADD27C,2.400000*%
%ADD28R,4.200000X2.400000*%
%ADD29R,1.900000X2.400000*%
%ADD30R,1.950000X1.000000*%
%ADD31C,3.400000*%
%ADD32O,3.400000X3.400000*%
%ADD33C,4.400000*%
%ADD34R,2.000000X2.400000*%
G04 APERTURE END LIST*
D10*
D11*
X130500000Y-115250000D03*
D12*
X130500000Y-105090000D03*
D13*
X112014000Y-146304000D03*
D14*
X114554000Y-146304000D03*
X117094000Y-146304000D03*
X119634000Y-146304000D03*
D15*
X113515000Y-114700000D03*
X114785000Y-114700000D03*
X116055000Y-114700000D03*
X117325000Y-114700000D03*
X118595000Y-114700000D03*
X119865000Y-114700000D03*
X121135000Y-114700000D03*
X122405000Y-114700000D03*
X123675000Y-114700000D03*
X124945000Y-114700000D03*
X126215000Y-114700000D03*
X127485000Y-114700000D03*
X127485000Y-105300000D03*
X126215000Y-105300000D03*
X124945000Y-105300000D03*
X123675000Y-105300000D03*
X122405000Y-105300000D03*
X121135000Y-105300000D03*
X119865000Y-105300000D03*
X118595000Y-105300000D03*
X117325000Y-105300000D03*
X116055000Y-105300000D03*
X114785000Y-105300000D03*
X113515000Y-105300000D03*
D16*
X70256400Y-122002800D03*
D11*
X70256400Y-125502800D03*
D16*
X74027100Y-87949200D03*
D11*
X74027100Y-91449200D03*
D16*
X65113700Y-100472600D03*
D11*
X65113700Y-96972600D03*
D17*
X79534000Y-101346000D03*
X83534000Y-101346000D03*
D10*
G36*
X121846000Y-130382000D02*
X121846000Y-127682000D01*
X125846000Y-128282000D01*
X125846000Y-129782000D01*
X121846000Y-130382000D01*
X121846000Y-130382000D01*
G37*
G36*
X131646000Y-127682000D02*
X131646000Y-130382000D01*
X127646000Y-129782000D01*
X127646000Y-128282000D01*
X131646000Y-127682000D01*
X131646000Y-127682000D01*
G37*
G36*
X75715200Y-127866400D02*
X75715200Y-130566400D01*
X71715200Y-129966400D01*
X71715200Y-128466400D01*
X75715200Y-127866400D01*
X75715200Y-127866400D01*
G37*
G36*
X65915200Y-130566400D02*
X65915200Y-127866400D01*
X69915200Y-128466400D01*
X69915200Y-129966400D01*
X65915200Y-130566400D01*
X65915200Y-130566400D01*
G37*
G36*
X88720000Y-86280000D02*
X88720000Y-88980000D01*
X84720000Y-88380000D01*
X84720000Y-86880000D01*
X88720000Y-86280000D01*
X88720000Y-86280000D01*
G37*
G36*
X78920000Y-88980000D02*
X78920000Y-86280000D01*
X82920000Y-86880000D01*
X82920000Y-88380000D01*
X78920000Y-88980000D01*
X78920000Y-88980000D01*
G37*
G36*
X78920000Y-93298000D02*
X78920000Y-90598000D01*
X82920000Y-91198000D01*
X82920000Y-92698000D01*
X78920000Y-93298000D01*
X78920000Y-93298000D01*
G37*
G36*
X88720000Y-90598000D02*
X88720000Y-93298000D01*
X84720000Y-92698000D01*
X84720000Y-91198000D01*
X88720000Y-90598000D01*
X88720000Y-90598000D01*
G37*
D18*
X78766000Y-133711000D03*
X100766000Y-133711000D03*
D13*
X123698000Y-146304000D03*
D14*
X126238000Y-146304000D03*
D13*
X69037200Y-146354800D03*
D14*
X71577200Y-146354800D03*
D19*
X138750000Y-108750000D03*
D20*
X138750000Y-106210000D03*
X138750000Y-103670000D03*
D13*
X105410000Y-146304000D03*
D14*
X107950000Y-146304000D03*
D21*
X138430000Y-136144000D03*
D22*
X138430000Y-138684000D03*
D13*
X130048000Y-146304000D03*
D14*
X132588000Y-146304000D03*
D21*
X138582400Y-124460000D03*
D22*
X138582400Y-127000000D03*
X138582400Y-129540000D03*
X138582400Y-132080000D03*
D23*
X133096000Y-122396000D03*
X133096000Y-118396000D03*
D24*
X124746000Y-132588000D03*
X128746000Y-132588000D03*
D23*
X105156000Y-125000000D03*
X105156000Y-129000000D03*
D24*
X119158000Y-92710000D03*
X123158000Y-92710000D03*
D15*
X92485000Y-105300000D03*
X91215000Y-105300000D03*
X89945000Y-105300000D03*
X88675000Y-105300000D03*
X87405000Y-105300000D03*
X86135000Y-105300000D03*
X84865000Y-105300000D03*
X83595000Y-105300000D03*
X82325000Y-105300000D03*
X81055000Y-105300000D03*
X79785000Y-105300000D03*
X78515000Y-105300000D03*
X78515000Y-114700000D03*
X79785000Y-114700000D03*
X81055000Y-114700000D03*
X82325000Y-114700000D03*
X83595000Y-114700000D03*
X84865000Y-114700000D03*
X86135000Y-114700000D03*
X87405000Y-114700000D03*
X88675000Y-114700000D03*
X89945000Y-114700000D03*
X91215000Y-114700000D03*
X92485000Y-114700000D03*
D25*
X109700000Y-133000000D03*
X110500000Y-133000000D03*
X111300000Y-133000000D03*
X112100000Y-133000000D03*
X112900000Y-133000000D03*
X113700000Y-133000000D03*
X114500000Y-133000000D03*
X115300000Y-133000000D03*
D26*
X116750000Y-131550000D03*
X116750000Y-130750000D03*
X116750000Y-129950000D03*
X116750000Y-129150000D03*
X116750000Y-128350000D03*
X116750000Y-127550000D03*
X116750000Y-126750000D03*
X116750000Y-125950000D03*
D25*
X115300000Y-124500000D03*
X114500000Y-124500000D03*
X113700000Y-124500000D03*
X112900000Y-124500000D03*
X112100000Y-124500000D03*
X111300000Y-124500000D03*
X110500000Y-124500000D03*
X109700000Y-124500000D03*
D26*
X108250000Y-125950000D03*
X108250000Y-126750000D03*
X108250000Y-127550000D03*
X108250000Y-128350000D03*
X108250000Y-129150000D03*
X108250000Y-129950000D03*
X108250000Y-130750000D03*
X108250000Y-131550000D03*
D27*
X63645200Y-122637600D03*
X63645200Y-127637600D03*
D28*
X66027100Y-92849200D03*
D29*
X66027100Y-86549200D03*
X63727100Y-86549200D03*
X68327100Y-86549200D03*
D28*
X57086500Y-95617900D03*
D29*
X57086500Y-101917900D03*
X59386500Y-101917900D03*
X54786500Y-101917900D03*
D30*
X115222000Y-140335000D03*
X115222000Y-139065000D03*
X115222000Y-137795000D03*
X115222000Y-136525000D03*
X109822000Y-136525000D03*
X109822000Y-137795000D03*
X109822000Y-139065000D03*
X109822000Y-140335000D03*
D16*
X70256400Y-140036800D03*
D11*
X70256400Y-136536800D03*
D16*
X126238000Y-100076000D03*
D12*
X116078000Y-100076000D03*
D16*
X116078000Y-96774000D03*
D12*
X126238000Y-96774000D03*
D10*
G36*
X75715200Y-131524000D02*
X75715200Y-134224000D01*
X71715200Y-133624000D01*
X71715200Y-132124000D01*
X75715200Y-131524000D01*
X75715200Y-131524000D01*
G37*
G36*
X65915200Y-134224000D02*
X65915200Y-131524000D01*
X69915200Y-132124000D01*
X69915200Y-133624000D01*
X65915200Y-134224000D01*
X65915200Y-134224000D01*
G37*
D18*
X78715200Y-144144600D03*
X100715200Y-144144600D03*
D11*
X134000000Y-115250000D03*
D12*
X134000000Y-105090000D03*
D11*
X65250000Y-105750000D03*
D12*
X65250000Y-115910000D03*
D31*
X114808000Y-119634000D03*
D32*
X126208000Y-119634000D03*
D31*
X74015600Y-105359200D03*
D32*
X74015600Y-116759200D03*
D33*
X138000000Y-145000000D03*
X58000000Y-145000000D03*
X138000000Y-90000000D03*
X58000000Y-90000000D03*
D27*
X63645200Y-134349600D03*
X63645200Y-139349600D03*
D34*
X112522000Y-100552000D03*
X112522000Y-96552000D03*
D17*
X88932000Y-118618000D03*
X92932000Y-118618000D03*
D16*
X90170000Y-125984000D03*
D12*
X80010000Y-125984000D03*
D16*
X80010000Y-122174000D03*
D12*
X90170000Y-122174000D03*
D11*
X68750000Y-116000000D03*
D12*
X68750000Y-105840000D03*
D23*
X93218000Y-121952000D03*
X93218000Y-125952000D03*
D19*
X138684000Y-113030000D03*
D20*
X138684000Y-115570000D03*
X138684000Y-118110000D03*
X138684000Y-120650000D03*
M02*
