G04 #@! TF.FileFunction,Copper,L2,Bot,Signal*
%FSLAX46Y46*%
G04 Gerber Fmt 4.6, Leading zero omitted, Abs format (unit mm)*
G04 Created by KiCad (PCBNEW 4.0.2+dfsg1-stable) date sam. 06 janv. 2018 03:07:49 CET*
%MOMM*%
G01*
G04 APERTURE LIST*
%ADD10C,0.100000*%
%ADD11C,1.600000*%
%ADD12O,1.600000X1.600000*%
%ADD13R,2.000000X2.600000*%
%ADD14O,2.000000X2.600000*%
%ADD15R,1.600000X2.000000*%
%ADD16R,7.400000X0.450000*%
%ADD17R,1.600000X1.600000*%
%ADD18R,2.000000X1.600000*%
%ADD19O,4.000000X2.500000*%
%ADD20R,1.700000X1.700000*%
%ADD21O,1.700000X1.700000*%
%ADD22R,2.600000X2.000000*%
%ADD23O,2.600000X2.000000*%
%ADD24R,1.700000X2.000000*%
%ADD25R,2.000000X1.700000*%
%ADD26C,2.000000*%
%ADD27R,3.500000X1.800000*%
%ADD28C,3.000000*%
%ADD29O,3.000000X3.000000*%
%ADD30C,4.000000*%
%ADD31C,0.800000*%
%ADD32C,1.200000*%
%ADD33C,0.500000*%
%ADD34C,2.000000*%
%ADD35C,1.000000*%
%ADD36C,0.250000*%
%ADD37C,1.200000*%
%ADD38C,0.254000*%
G04 APERTURE END LIST*
D10*
D11*
X130500000Y-115250000D03*
D12*
X130500000Y-105090000D03*
D13*
X112014000Y-146304000D03*
D14*
X114554000Y-146304000D03*
X117094000Y-146304000D03*
X119634000Y-146304000D03*
D15*
X85090000Y-122206000D03*
X85090000Y-126206000D03*
D16*
X107500000Y-115000000D03*
X107500000Y-113000000D03*
X107500000Y-111000000D03*
X107500000Y-109000000D03*
X107500000Y-107000000D03*
X107500000Y-105000000D03*
X107500000Y-106000000D03*
X107500000Y-108000000D03*
X107500000Y-110000000D03*
X107500000Y-112000000D03*
X107500000Y-114000000D03*
D15*
X134000000Y-108000000D03*
X134000000Y-112000000D03*
X112522000Y-136430000D03*
X112522000Y-140430000D03*
D17*
X70256400Y-122002800D03*
D11*
X70256400Y-125502800D03*
D15*
X56645200Y-123387600D03*
X56645200Y-127387600D03*
D17*
X74027100Y-87949200D03*
D11*
X74027100Y-91449200D03*
D17*
X65113700Y-100472600D03*
D11*
X65113700Y-96972600D03*
D15*
X121412000Y-96552000D03*
X121412000Y-100552000D03*
X123863100Y-125863600D03*
X123863100Y-129863600D03*
X120650000Y-117888000D03*
X120650000Y-121888000D03*
D18*
X91408000Y-108966000D03*
X87408000Y-108966000D03*
X122460000Y-111506000D03*
X126460000Y-111506000D03*
X80042000Y-108966000D03*
X84042000Y-108966000D03*
D19*
X78766000Y-133711000D03*
X100766000Y-133711000D03*
D13*
X123698000Y-146304000D03*
D14*
X126238000Y-146304000D03*
D13*
X69037200Y-146354800D03*
D14*
X71577200Y-146354800D03*
D20*
X138750000Y-108750000D03*
D21*
X138750000Y-106210000D03*
X138750000Y-103670000D03*
D13*
X105410000Y-146304000D03*
D14*
X107950000Y-146304000D03*
D22*
X138430000Y-136144000D03*
D23*
X138430000Y-138684000D03*
D13*
X130048000Y-146304000D03*
D14*
X132588000Y-146304000D03*
D22*
X138582400Y-124460000D03*
D23*
X138582400Y-127000000D03*
X138582400Y-129540000D03*
X138582400Y-132080000D03*
D24*
X60145200Y-127387600D03*
X60145200Y-123387600D03*
X71777100Y-88199200D03*
X71777100Y-92199200D03*
D25*
X64027100Y-89699200D03*
X68027100Y-89699200D03*
D24*
X76527100Y-88199200D03*
X76527100Y-92199200D03*
X62550200Y-96595600D03*
X62550200Y-100595600D03*
D25*
X59050200Y-98845600D03*
X55050200Y-98845600D03*
D24*
X67550200Y-96595600D03*
X67550200Y-100595600D03*
D25*
X129358000Y-141500000D03*
X133358000Y-141500000D03*
X122460000Y-108712000D03*
X126460000Y-108712000D03*
D24*
X65278000Y-108998000D03*
X65278000Y-112998000D03*
X121462800Y-125863600D03*
X121462800Y-129863600D03*
X118110000Y-117888000D03*
X118110000Y-121888000D03*
D25*
X91408000Y-111506000D03*
X87408000Y-111506000D03*
X118840000Y-111506000D03*
X114840000Y-111506000D03*
X80042000Y-111506000D03*
X84042000Y-111506000D03*
D26*
X63645200Y-122637600D03*
X63645200Y-127637600D03*
D17*
X70256400Y-140036800D03*
D11*
X70256400Y-136536800D03*
D15*
X60145200Y-135349600D03*
X60145200Y-139349600D03*
D17*
X126238000Y-100076000D03*
D12*
X116078000Y-100076000D03*
D17*
X116078000Y-96774000D03*
D12*
X126238000Y-96774000D03*
D27*
X92266000Y-133711000D03*
X87266000Y-133711000D03*
X92215200Y-144144600D03*
X87215200Y-144144600D03*
D19*
X78715200Y-144144600D03*
X100715200Y-144144600D03*
D11*
X134000000Y-115250000D03*
D12*
X134000000Y-105090000D03*
D11*
X65250000Y-105750000D03*
D12*
X65250000Y-115910000D03*
D24*
X56645200Y-139349600D03*
X56645200Y-135349600D03*
D28*
X114808000Y-119634000D03*
D29*
X126208000Y-119634000D03*
D28*
X74015600Y-105359200D03*
D29*
X74015600Y-116759200D03*
D30*
X138000000Y-145000000D03*
X58000000Y-145000000D03*
X138000000Y-90000000D03*
X58000000Y-90000000D03*
D26*
X63645200Y-134349600D03*
X63645200Y-139349600D03*
D16*
X98500000Y-105000000D03*
X98500000Y-107000000D03*
X98500000Y-109000000D03*
X98500000Y-111000000D03*
X98500000Y-113000000D03*
X98500000Y-115000000D03*
X98500000Y-114000000D03*
X98500000Y-112000000D03*
X98500000Y-110000000D03*
X98500000Y-108000000D03*
X98500000Y-106000000D03*
D15*
X68650000Y-109117600D03*
X68650000Y-113117600D03*
D17*
X90170000Y-125984000D03*
D12*
X80010000Y-125984000D03*
D17*
X80010000Y-122174000D03*
D12*
X90170000Y-122174000D03*
D11*
X68750000Y-116000000D03*
D12*
X68750000Y-105840000D03*
D20*
X138684000Y-113030000D03*
D21*
X138684000Y-115570000D03*
X138684000Y-118110000D03*
X138684000Y-120650000D03*
D31*
X123846000Y-129032000D03*
D32*
X120650000Y-121888000D03*
X87215200Y-144144600D03*
D31*
X117536753Y-124715534D03*
X113297044Y-140429992D03*
X109822000Y-140335000D03*
X106883200Y-140360400D03*
X106730800Y-131521200D03*
X114840000Y-111506000D03*
D32*
X126460000Y-111506000D03*
D31*
X94208011Y-110947200D03*
D32*
X85750400Y-111506000D03*
D31*
X111582844Y-136480315D03*
D32*
X121361200Y-102666800D03*
X62589199Y-120437599D03*
X102717600Y-118313200D03*
X99364800Y-116281200D03*
X103008430Y-108659156D03*
X66027100Y-86549200D03*
X59994800Y-95656400D03*
X123342400Y-96774000D03*
D31*
X118526346Y-124571558D03*
X127869790Y-116652694D03*
X115163423Y-117235520D03*
X84124800Y-103530400D03*
X89306400Y-103428800D03*
X117363434Y-116864753D03*
X88675000Y-105300000D03*
X122460000Y-111506000D03*
X82694988Y-105986390D03*
D32*
X65938400Y-126441200D03*
X78130400Y-86055200D03*
X69646800Y-96621600D03*
D31*
X122224800Y-141464410D03*
X117043200Y-141464410D03*
D32*
X118689219Y-115562219D03*
X111839989Y-112206591D03*
X123596400Y-103174800D03*
X114706400Y-107289600D03*
X111912400Y-106949990D03*
X113436400Y-103378000D03*
X89928300Y-102118238D03*
X88696800Y-115438390D03*
X82296000Y-116789200D03*
D31*
X91215000Y-114700000D03*
X94908021Y-113075408D03*
X93814496Y-114854800D03*
X106934000Y-129946400D03*
X109575600Y-129235200D03*
X109822000Y-139065000D03*
X109822000Y-137795000D03*
X132689600Y-126288800D03*
X109728000Y-130708400D03*
X132070591Y-122008815D03*
X118972326Y-129875010D03*
X112014000Y-130048000D03*
D32*
X70612000Y-86106000D03*
X54762400Y-104038400D03*
D31*
X113421603Y-123137015D03*
X122428000Y-113131600D03*
X109608230Y-125700012D03*
X77063600Y-123748800D03*
X63093600Y-110490000D03*
X79501739Y-102957108D03*
X120548400Y-129336800D03*
X87426800Y-107137200D03*
X84785200Y-107086400D03*
X128016000Y-124460000D03*
X128435990Y-120711626D03*
X130302000Y-117602000D03*
X129286000Y-125476000D03*
X79756000Y-107289600D03*
X103124000Y-124307600D03*
X69715589Y-110097724D03*
D32*
X55626000Y-142036800D03*
D33*
X126660000Y-111506000D02*
X126460000Y-111506000D01*
X128234000Y-110206000D02*
X127960000Y-110206000D01*
X132749999Y-105690001D02*
X128234000Y-110206000D01*
X132749999Y-104489999D02*
X132749999Y-105690001D01*
X133399999Y-103839999D02*
X132749999Y-104489999D01*
X127960000Y-110206000D02*
X126660000Y-111506000D01*
X135300000Y-110500000D02*
X135300000Y-104539998D01*
X134000000Y-111800000D02*
X135300000Y-110500000D01*
X134000000Y-112000000D02*
X134000000Y-111800000D01*
X134600001Y-103839999D02*
X133399999Y-103839999D01*
X135300000Y-104539998D02*
X134600001Y-103839999D01*
D34*
X138000000Y-145000000D02*
X134195990Y-148804010D01*
X134195990Y-148804010D02*
X118722727Y-148804010D01*
X118722727Y-148804010D02*
X117094000Y-147175283D01*
X117094000Y-147175283D02*
X117094000Y-146304000D01*
D35*
X138582400Y-129540000D02*
X138882400Y-129540000D01*
X138882400Y-129540000D02*
X140582401Y-127839999D01*
X140582401Y-127839999D02*
X140582401Y-113078401D01*
X140582401Y-113078401D02*
X140534000Y-113030000D01*
X140534000Y-113030000D02*
X138684000Y-113030000D01*
D33*
X118110000Y-121888000D02*
X118110000Y-123729900D01*
X117536753Y-124303147D02*
X117536753Y-124715534D01*
X118110000Y-123729900D02*
X117536753Y-124303147D01*
D35*
X128426481Y-118134001D02*
X127707999Y-118134001D01*
X128969791Y-117590691D02*
X128426481Y-118134001D01*
X126460000Y-113306000D02*
X128969791Y-115815791D01*
X128969791Y-115815791D02*
X128969791Y-117590691D01*
X127707999Y-118134001D02*
X126208000Y-119634000D01*
X126460000Y-111506000D02*
X126460000Y-113306000D01*
D34*
X54356000Y-124898400D02*
X54356000Y-121716798D01*
X66839999Y-117910001D02*
X67950001Y-116799999D01*
X67950001Y-116799999D02*
X68750000Y-116000000D01*
X54356000Y-121716798D02*
X58162797Y-117910001D01*
X58162797Y-117910001D02*
X66839999Y-117910001D01*
X56645200Y-127387600D02*
X56645200Y-127187600D01*
X56645200Y-127187600D02*
X54356000Y-124898400D01*
D33*
X138582400Y-129540000D02*
X124186700Y-129540000D01*
X124186700Y-129540000D02*
X123863100Y-129863600D01*
D35*
X117094000Y-143876898D02*
X113723493Y-140506391D01*
X113723493Y-140506391D02*
X113323494Y-140106392D01*
D33*
X113094886Y-140335000D02*
X113323494Y-140106392D01*
D35*
X117094000Y-146304000D02*
X117094000Y-143876898D01*
D33*
X112731359Y-140429992D02*
X113297044Y-140429992D01*
X112522008Y-140429992D02*
X112731359Y-140429992D01*
X112522000Y-140430000D02*
X112522008Y-140429992D01*
X113297034Y-140429992D02*
X113297036Y-140429992D01*
X112427000Y-140335000D02*
X112522000Y-140430000D01*
X113297034Y-140429992D02*
X113297037Y-140429992D01*
X113297043Y-140429992D02*
X113297044Y-140429992D01*
X113297039Y-140429992D02*
X113297041Y-140429992D01*
X113297037Y-140429992D02*
X113297039Y-140429992D01*
X113297041Y-140429992D02*
X113297043Y-140429992D01*
X109822000Y-140335000D02*
X113094886Y-140335000D01*
X118110000Y-121888000D02*
X120650000Y-121888000D01*
X106730800Y-131521200D02*
X106730800Y-140208000D01*
X106730800Y-140208000D02*
X106883200Y-140360400D01*
D35*
X134000000Y-115250000D02*
X134000000Y-112000000D01*
X134000000Y-112000000D02*
X137654000Y-112000000D01*
X137654000Y-112000000D02*
X138684000Y-113030000D01*
D34*
X68750000Y-116000000D02*
X68750000Y-113217600D01*
X68750000Y-113217600D02*
X68650000Y-113117600D01*
D33*
X107500000Y-109000000D02*
X113684000Y-109000000D01*
X113684000Y-109000000D02*
X114840000Y-110156000D01*
X114840000Y-110156000D02*
X114840000Y-111506000D01*
X98500000Y-111000000D02*
X94260811Y-111000000D01*
X94260811Y-111000000D02*
X94208011Y-110947200D01*
D35*
X84042000Y-111506000D02*
X84042000Y-108966000D01*
X87408000Y-111506000D02*
X87408000Y-108966000D01*
X87408000Y-111506000D02*
X85750400Y-111506000D01*
X84042000Y-111506000D02*
X85750400Y-111506000D01*
D34*
X71777100Y-92199200D02*
X67936598Y-92199200D01*
X65113700Y-95841230D02*
X65113700Y-96972600D01*
X65113700Y-95022098D02*
X65113700Y-95841230D01*
X67936598Y-92199200D02*
X65113700Y-95022098D01*
X62550200Y-96595600D02*
X64736700Y-96595600D01*
X64736700Y-96595600D02*
X65113700Y-96972600D01*
X71777100Y-92199200D02*
X73277100Y-92199200D01*
X73277100Y-92199200D02*
X74027100Y-91449200D01*
X58000000Y-90000000D02*
X58000000Y-92828427D01*
X58000000Y-92828427D02*
X58627963Y-93456390D01*
X58627963Y-93456390D02*
X60906073Y-93456390D01*
X60906073Y-93456390D02*
X62194810Y-94745127D01*
X62194810Y-94745127D02*
X62194810Y-96595600D01*
X62194810Y-96595600D02*
X62550200Y-96595600D01*
X87215200Y-144144600D02*
X87215200Y-133761800D01*
X87215200Y-133761800D02*
X87266000Y-133711000D01*
X63645200Y-127637600D02*
X60895200Y-130387600D01*
X60895200Y-130387600D02*
X59445200Y-130387600D01*
X59445200Y-130387600D02*
X56645200Y-127587600D01*
X56645200Y-127587600D02*
X56645200Y-127387600D01*
X71577200Y-146354800D02*
X71577200Y-148274802D01*
X71577200Y-148274802D02*
X70997201Y-148854801D01*
X70997201Y-148854801D02*
X61854801Y-148854801D01*
X61854801Y-148854801D02*
X59999999Y-146999999D01*
X59999999Y-146999999D02*
X58000000Y-145000000D01*
X63645200Y-139349600D02*
X63645200Y-139354800D01*
X63645200Y-139354800D02*
X58000000Y-145000000D01*
X60145200Y-139349600D02*
X60145200Y-142854800D01*
X60145200Y-142854800D02*
X58000000Y-145000000D01*
D36*
X113632060Y-136480315D02*
X112148529Y-136480315D01*
X119823399Y-128988799D02*
X119823399Y-130288976D01*
X120505199Y-128306999D02*
X119823399Y-128988799D01*
X137508999Y-119539001D02*
X128741001Y-128306999D01*
X137508999Y-116745001D02*
X137508999Y-119539001D01*
X119823399Y-130288976D02*
X113632060Y-136480315D01*
X138684000Y-115570000D02*
X137508999Y-116745001D01*
X128741001Y-128306999D02*
X120505199Y-128306999D01*
X112148529Y-136480315D02*
X111582844Y-136480315D01*
D33*
X112312652Y-136430000D02*
X112262337Y-136480315D01*
X112262337Y-136480315D02*
X112148529Y-136480315D01*
D34*
X67423686Y-120437599D02*
X63437727Y-120437599D01*
X70950011Y-116911274D02*
X67423686Y-120437599D01*
X78911775Y-105435598D02*
X70950011Y-113397362D01*
X70950011Y-113397362D02*
X70950011Y-116911274D01*
X79612400Y-105435598D02*
X78911775Y-105435598D01*
X84971998Y-100076000D02*
X79612400Y-105435598D01*
X116078000Y-100076000D02*
X84971998Y-100076000D01*
X63437727Y-120437599D02*
X62589199Y-120437599D01*
D35*
X121412000Y-100552000D02*
X121412000Y-102616000D01*
X121412000Y-102616000D02*
X121361200Y-102666800D01*
D34*
X60145200Y-123387600D02*
X60145200Y-122881598D01*
X60145200Y-122881598D02*
X62589199Y-120437599D01*
X62589199Y-120437599D02*
X68691199Y-120437599D01*
X68691199Y-120437599D02*
X70256400Y-122002800D01*
X92266000Y-133711000D02*
X100766000Y-133711000D01*
X56645200Y-123387600D02*
X60145200Y-123387600D01*
D35*
X112014000Y-146304000D02*
X112014000Y-146004000D01*
X107543600Y-127355600D02*
X109918000Y-127355600D01*
X109918000Y-127355600D02*
X111015598Y-126258002D01*
X111015598Y-126258002D02*
X111015598Y-125100398D01*
X111015598Y-125100398D02*
X104228400Y-118313200D01*
X104228400Y-118313200D02*
X103566128Y-118313200D01*
X103566128Y-118313200D02*
X102717600Y-118313200D01*
X103709999Y-148164001D02*
X103709999Y-131189201D01*
X103850008Y-148304010D02*
X103709999Y-148164001D01*
X110313990Y-148304010D02*
X103850008Y-148304010D01*
X112014000Y-146604000D02*
X110313990Y-148304010D01*
X103709999Y-131189201D02*
X107543600Y-127355600D01*
X112014000Y-146304000D02*
X112014000Y-146604000D01*
X99364800Y-116281200D02*
X99364800Y-115864800D01*
X99364800Y-115864800D02*
X98500000Y-115000000D01*
X107500000Y-105000000D02*
X103314998Y-105000000D01*
X103314998Y-105000000D02*
X103008430Y-105306568D01*
X103008430Y-105306568D02*
X103008430Y-108659156D01*
D37*
X74027100Y-87949200D02*
X74027100Y-88903602D01*
X74027100Y-88903602D02*
X75827109Y-90703611D01*
X75827109Y-90703611D02*
X75827109Y-91499209D01*
X75827109Y-91499209D02*
X76527100Y-92199200D01*
D34*
X64027100Y-89699200D02*
X64027100Y-88549200D01*
X64027100Y-88549200D02*
X66027100Y-86549200D01*
D35*
X130500000Y-105090000D02*
X130082000Y-105090000D01*
X130082000Y-105090000D02*
X126460000Y-108712000D01*
X133076479Y-102820001D02*
X130806480Y-105090000D01*
X137900001Y-102820001D02*
X133076479Y-102820001D01*
X138750000Y-103670000D02*
X137900001Y-102820001D01*
X130806480Y-105090000D02*
X130500000Y-105090000D01*
D37*
X138750000Y-103670000D02*
X138750000Y-102467919D01*
X70392389Y-98421609D02*
X69724191Y-98421609D01*
X138750000Y-102467919D02*
X131034080Y-94751999D01*
X131034080Y-94751999D02*
X74061999Y-94751999D01*
X74061999Y-94751999D02*
X70392389Y-98421609D01*
X69724191Y-98421609D02*
X67550200Y-100595600D01*
X63228000Y-112998000D02*
X65278000Y-112998000D01*
X61893598Y-111663598D02*
X63228000Y-112998000D01*
X61893598Y-106402202D02*
X61893598Y-111663598D01*
X67550200Y-100745600D02*
X61893598Y-106402202D01*
X67550200Y-100595600D02*
X67550200Y-100745600D01*
D33*
X126878000Y-108712000D02*
X126460000Y-108712000D01*
D34*
X65113700Y-100472600D02*
X67427200Y-100472600D01*
X67427200Y-100472600D02*
X67550200Y-100595600D01*
D37*
X65278000Y-112998000D02*
X65278000Y-115882000D01*
X65278000Y-115882000D02*
X65250000Y-115910000D01*
X65113700Y-100472600D02*
X65113700Y-99869098D01*
X65113700Y-99869098D02*
X63640203Y-98395601D01*
X63640203Y-98395601D02*
X61700199Y-98395601D01*
X61700199Y-98395601D02*
X61250200Y-98845600D01*
X61250200Y-98845600D02*
X59050200Y-98845600D01*
D34*
X59994800Y-95656400D02*
X59994800Y-97901000D01*
X59994800Y-97901000D02*
X59050200Y-98845600D01*
D35*
X123342400Y-96774000D02*
X121634000Y-96774000D01*
X121634000Y-96774000D02*
X121412000Y-96552000D01*
X121412000Y-96552000D02*
X116300000Y-96552000D01*
X116300000Y-96552000D02*
X116078000Y-96774000D01*
D34*
X80010000Y-122174000D02*
X85058000Y-122174000D01*
X85058000Y-122174000D02*
X85090000Y-122206000D01*
D33*
X118926345Y-124971557D02*
X118526346Y-124571558D01*
X119818388Y-125863600D02*
X118926345Y-124971557D01*
X121462800Y-125863600D02*
X119818388Y-125863600D01*
X127304105Y-116652694D02*
X127869790Y-116652694D01*
X123863100Y-119092898D02*
X126303304Y-116652694D01*
X126303304Y-116652694D02*
X127304105Y-116652694D01*
X116899999Y-119338001D02*
X116809999Y-119248001D01*
X115729108Y-117235520D02*
X115163423Y-117235520D01*
X116809999Y-118316411D02*
X115729108Y-117235520D01*
X123863100Y-119092898D02*
X123617997Y-119338001D01*
X123617997Y-119338001D02*
X116899999Y-119338001D01*
X116809999Y-119248001D02*
X116809999Y-118316411D01*
X123863100Y-119092898D02*
X123863100Y-124363600D01*
X123863100Y-124363600D02*
X123863100Y-125863600D01*
X121462800Y-125863600D02*
X123863100Y-125863600D01*
X89306400Y-103428800D02*
X84226400Y-103428800D01*
X84226400Y-103428800D02*
X84124800Y-103530400D01*
X118110000Y-117611319D02*
X117763433Y-117264752D01*
X117763433Y-117264752D02*
X117363434Y-116864753D01*
X118110000Y-117888000D02*
X118110000Y-117611319D01*
X118110000Y-117888000D02*
X120650000Y-117888000D01*
X91408000Y-108966000D02*
X91408000Y-111506000D01*
X88675000Y-105300000D02*
X88675000Y-106233000D01*
X88675000Y-106233000D02*
X91408000Y-108966000D01*
D35*
X118840000Y-111506000D02*
X122460000Y-111506000D01*
D33*
X80042000Y-108966000D02*
X80042000Y-111506000D01*
X82694988Y-106513012D02*
X82694988Y-105986390D01*
X80042000Y-108966000D02*
X80242000Y-108966000D01*
X80242000Y-108966000D02*
X82694988Y-106513012D01*
D34*
X64934799Y-125437599D02*
X65938400Y-126441200D01*
X60145200Y-127387600D02*
X62095201Y-125437599D01*
X62095201Y-125437599D02*
X64934799Y-125437599D01*
X78130400Y-86055200D02*
X78130400Y-86595900D01*
X78130400Y-86595900D02*
X76527100Y-88199200D01*
X67550200Y-96595600D02*
X69620800Y-96595600D01*
X69620800Y-96595600D02*
X69646800Y-96621600D01*
X68138410Y-125529926D02*
X65246084Y-122637600D01*
X68138410Y-127083410D02*
X68138410Y-125529926D01*
X74766000Y-133711000D02*
X68138410Y-127083410D01*
X65059413Y-122637600D02*
X63645200Y-122637600D01*
X78766000Y-133711000D02*
X74766000Y-133711000D01*
X65246084Y-122637600D02*
X65059413Y-122637600D01*
D33*
X117043200Y-141464410D02*
X117608885Y-141464410D01*
X117608885Y-141464410D02*
X122224800Y-141464410D01*
D35*
X112237780Y-114962220D02*
X118089220Y-114962220D01*
X118089220Y-114962220D02*
X118689219Y-115562219D01*
X107500000Y-115000000D02*
X112200000Y-115000000D01*
X112200000Y-115000000D02*
X112237780Y-114962220D01*
X107500000Y-115000000D02*
X107500000Y-114000000D01*
X107500000Y-112000000D02*
X107706591Y-112206591D01*
X110991461Y-112206591D02*
X111839989Y-112206591D01*
X107706591Y-112206591D02*
X110991461Y-112206591D01*
X107500000Y-112000000D02*
X107500000Y-112799990D01*
X113139999Y-112916001D02*
X113279999Y-113056001D01*
X116815201Y-112640801D02*
X116815201Y-109955999D01*
X112200000Y-110000000D02*
X113139999Y-110939999D01*
X113279999Y-113056001D02*
X116400001Y-113056001D01*
X122996401Y-103774799D02*
X123596400Y-103174800D01*
X107500000Y-110000000D02*
X112200000Y-110000000D01*
X116815201Y-109955999D02*
X122996401Y-103774799D01*
X113139999Y-110939999D02*
X113139999Y-112916001D01*
X116400001Y-113056001D02*
X116815201Y-112640801D01*
X107500000Y-110000000D02*
X107500000Y-110799990D01*
D33*
X107500000Y-108000000D02*
X113996000Y-108000000D01*
X113996000Y-108000000D02*
X114706400Y-107289600D01*
X111862390Y-107000000D02*
X111912400Y-106949990D01*
X107500000Y-107000000D02*
X111862390Y-107000000D01*
X112836401Y-104506795D02*
X112836401Y-103977999D01*
X111343196Y-106000000D02*
X112836401Y-104506795D01*
X107500000Y-106000000D02*
X111343196Y-106000000D01*
X112836401Y-103977999D02*
X113436400Y-103378000D01*
D37*
X98500000Y-105520000D02*
X99110000Y-105520000D01*
D33*
X98500000Y-105520000D02*
X98500000Y-106000000D01*
X98500000Y-105000000D02*
X98500000Y-105520000D01*
D37*
X90528299Y-102718237D02*
X89928300Y-102118238D01*
X91391262Y-103581200D02*
X90528299Y-102718237D01*
X98602800Y-103581200D02*
X91391262Y-103581200D01*
X98602800Y-104897200D02*
X98602800Y-103581200D01*
D33*
X98500000Y-107540000D02*
X98500000Y-107000000D01*
X98500000Y-108000000D02*
X98500000Y-107540000D01*
D37*
X98500000Y-107540000D02*
X98900000Y-107540000D01*
D35*
X91079189Y-113056001D02*
X89296799Y-114838391D01*
X92968001Y-113056001D02*
X91079189Y-113056001D01*
X89296799Y-114838391D02*
X88696800Y-115438390D01*
X93108001Y-112916001D02*
X92968001Y-113056001D01*
X93108001Y-108916999D02*
X93108001Y-112916001D01*
X95025000Y-107000000D02*
X93108001Y-108916999D01*
X98500000Y-107000000D02*
X95025000Y-107000000D01*
D33*
X98500000Y-109450000D02*
X98500000Y-109000000D01*
X98500000Y-110000000D02*
X98500000Y-109450000D01*
D37*
X98500000Y-109450000D02*
X98980000Y-109450000D01*
D35*
X83144528Y-116789200D02*
X82296000Y-116789200D01*
X92220185Y-116789200D02*
X83144528Y-116789200D01*
X101103801Y-117581201D02*
X93012186Y-117581201D01*
X102900001Y-115785001D02*
X101103801Y-117581201D01*
X93012186Y-117581201D02*
X92220185Y-116789200D01*
X102685002Y-110000000D02*
X102900001Y-110214999D01*
X98500000Y-110000000D02*
X102685002Y-110000000D01*
X102900001Y-110214999D02*
X102900001Y-115785001D01*
D33*
X94300000Y-112000000D02*
X94058011Y-112241989D01*
X94300000Y-112000000D02*
X94058012Y-112241988D01*
X94058011Y-113309509D02*
X93361508Y-114006012D01*
X91908988Y-114006012D02*
X91215000Y-114700000D01*
X98500000Y-112000000D02*
X94300000Y-112000000D01*
X94058011Y-112241989D02*
X98500000Y-112000000D01*
X94058012Y-112241988D02*
X94058011Y-113309509D01*
X93361508Y-114006012D02*
X91908988Y-114006012D01*
X95473706Y-113075408D02*
X94908021Y-113075408D01*
X98500000Y-113000000D02*
X98424592Y-113075408D01*
X98424592Y-113075408D02*
X95473706Y-113075408D01*
X94669296Y-114000000D02*
X94214495Y-114454801D01*
X94214495Y-114454801D02*
X93814496Y-114854800D01*
X98500000Y-114000000D02*
X94669296Y-114000000D01*
X106934000Y-129946400D02*
X105410000Y-131470400D01*
X105410000Y-131470400D02*
X105410000Y-146304000D01*
X107950000Y-130860800D02*
X107950000Y-146304000D01*
X109575600Y-129235200D02*
X107950000Y-130860800D01*
X111097000Y-139065000D02*
X109822000Y-139065000D01*
X129358000Y-141500000D02*
X127858000Y-141500000D01*
X125174109Y-138816109D02*
X111345891Y-138816109D01*
X127858000Y-141500000D02*
X125174109Y-138816109D01*
X111345891Y-138816109D02*
X111097000Y-139065000D01*
D37*
X130048000Y-146304000D02*
X130048000Y-142190000D01*
X130048000Y-142190000D02*
X129358000Y-141500000D01*
D33*
X109822000Y-137795000D02*
X111097000Y-137795000D01*
X111418098Y-138116098D02*
X129985710Y-138116098D01*
X129985710Y-138116098D02*
X130149600Y-138279988D01*
X111097000Y-137795000D02*
X111418098Y-138116098D01*
X130149600Y-138279988D02*
X130964788Y-138279988D01*
X133358000Y-141500000D02*
X133358000Y-140150000D01*
X133358000Y-140150000D02*
X131487988Y-138279988D01*
X131487988Y-138279988D02*
X130149600Y-138279988D01*
D37*
X132588000Y-146304000D02*
X132588000Y-142270000D01*
X132588000Y-142270000D02*
X133358000Y-141500000D01*
D36*
X132689600Y-126288800D02*
X133400800Y-127000000D01*
X133400800Y-127000000D02*
X138582400Y-127000000D01*
D33*
X119634000Y-146304000D02*
X119634000Y-146004000D01*
X132070591Y-122574500D02*
X132070591Y-122008815D01*
X112722812Y-127713588D02*
X128306414Y-127713588D01*
X109728000Y-130708400D02*
X112722812Y-127713588D01*
X128306414Y-127713588D02*
X132070591Y-123949411D01*
X132070591Y-123949411D02*
X132070591Y-122574500D01*
X118799336Y-130048000D02*
X118972326Y-129875010D01*
X112014000Y-130048000D02*
X118799336Y-130048000D01*
D34*
X70612000Y-86106000D02*
X70612000Y-87034100D01*
X70612000Y-87034100D02*
X71777100Y-88199200D01*
X71777100Y-88199200D02*
X69527100Y-88199200D01*
X69527100Y-88199200D02*
X68027100Y-89699200D01*
X54762400Y-104038400D02*
X54762400Y-99133400D01*
X54762400Y-99133400D02*
X55050200Y-98845600D01*
X55050200Y-98845600D02*
X55200200Y-98845600D01*
X55200200Y-98845600D02*
X58050200Y-101695600D01*
X58050200Y-101695600D02*
X61450200Y-101695600D01*
X61450200Y-101695600D02*
X62550200Y-100595600D01*
D36*
X115531399Y-115824000D02*
X112982999Y-118372400D01*
X122428000Y-113131600D02*
X118996601Y-116562999D01*
X118137799Y-116562999D02*
X117398800Y-115824000D01*
X117398800Y-115824000D02*
X115531399Y-115824000D01*
X112982999Y-118372400D02*
X112982999Y-122698411D01*
X118996601Y-116562999D02*
X118137799Y-116562999D01*
X113021604Y-122737016D02*
X113421603Y-123137015D01*
X112982999Y-122698411D02*
X113021604Y-122737016D01*
D33*
X122610000Y-108712000D02*
X122460000Y-108712000D01*
X123444402Y-113131600D02*
X123960000Y-112616002D01*
X122428000Y-113131600D02*
X123444402Y-113131600D01*
X123960000Y-112616002D02*
X123960000Y-110062000D01*
X123960000Y-110062000D02*
X122610000Y-108712000D01*
X109042545Y-125700012D02*
X109608230Y-125700012D01*
X92296014Y-125700012D02*
X109042545Y-125700012D01*
X89238036Y-124733999D02*
X91330001Y-124733999D01*
X91330001Y-124733999D02*
X92296014Y-125700012D01*
X88252837Y-123748800D02*
X89238036Y-124733999D01*
X77063600Y-123748800D02*
X88252837Y-123748800D01*
X65278000Y-108998000D02*
X64585600Y-108998000D01*
X64585600Y-108998000D02*
X63093600Y-110490000D01*
X67035999Y-107090001D02*
X69350001Y-107090001D01*
X78936054Y-102957108D02*
X79501739Y-102957108D01*
X65278000Y-108848000D02*
X67035999Y-107090001D01*
X65278000Y-108998000D02*
X65278000Y-108848000D01*
X69350001Y-107090001D02*
X73482894Y-102957108D01*
X73482894Y-102957108D02*
X78936054Y-102957108D01*
D36*
X120548400Y-129336800D02*
X120936000Y-129336800D01*
X120936000Y-129336800D02*
X121462800Y-129863600D01*
D35*
X84785200Y-107086400D02*
X87376000Y-107086400D01*
X87376000Y-107086400D02*
X87426800Y-107137200D01*
D33*
X128435990Y-124040010D02*
X128435990Y-121277311D01*
X128435990Y-121277311D02*
X128435990Y-120711626D01*
X128016000Y-124460000D02*
X128435990Y-124040010D01*
X129286000Y-125476000D02*
X129286000Y-118618000D01*
X129286000Y-118618000D02*
X130302000Y-117602000D01*
X78587600Y-118110000D02*
X78587600Y-107810398D01*
X78587600Y-107810398D02*
X79108398Y-107289600D01*
X79108398Y-107289600D02*
X79756000Y-107289600D01*
X83604002Y-118110000D02*
X78587600Y-118110000D01*
X103124000Y-124307600D02*
X91893567Y-124307600D01*
X91893567Y-124307600D02*
X91619955Y-124033988D01*
X91619955Y-124033988D02*
X89527990Y-124033988D01*
X89527990Y-124033988D02*
X83604002Y-118110000D01*
D35*
X130500000Y-110139600D02*
X132060400Y-110139600D01*
X132060400Y-110139600D02*
X134000000Y-108200000D01*
X134000000Y-108200000D02*
X134000000Y-108000000D01*
X130500000Y-115250000D02*
X130500000Y-110139600D01*
D33*
X134000000Y-105090000D02*
X134000000Y-108000000D01*
X70281274Y-110097724D02*
X69715589Y-110097724D01*
X70339211Y-109506811D02*
X70339211Y-110039787D01*
X69950000Y-109117600D02*
X70339211Y-109506811D01*
X70339211Y-110039787D02*
X70281274Y-110097724D01*
X68650000Y-109117600D02*
X69950000Y-109117600D01*
X65250000Y-105750000D02*
X68660000Y-105750000D01*
X68660000Y-105750000D02*
X68750000Y-105840000D01*
D34*
X56645200Y-139349600D02*
X56645200Y-141017600D01*
X56645200Y-141017600D02*
X55626000Y-142036800D01*
X70256400Y-140036800D02*
X70392563Y-140036800D01*
X84355208Y-146594610D02*
X84605208Y-146344610D01*
X70392563Y-140036800D02*
X76950373Y-146594610D01*
X76950373Y-146594610D02*
X84355208Y-146594610D01*
X80010000Y-125984000D02*
X84868000Y-125984000D01*
X84868000Y-125984000D02*
X85090000Y-126206000D01*
X85090000Y-126206000D02*
X85090000Y-126406000D01*
X85090000Y-126406000D02*
X84265199Y-127230801D01*
X84265199Y-127230801D02*
X84265199Y-146004601D01*
X84265199Y-146004601D02*
X84605208Y-146344610D01*
X84605208Y-146344610D02*
X89825192Y-146344610D01*
X89825192Y-146344610D02*
X92025202Y-144144600D01*
X92025202Y-144144600D02*
X92215200Y-144144600D01*
X92215200Y-144144600D02*
X100715200Y-144144600D01*
X70256400Y-140036800D02*
X69037200Y-141256000D01*
X69037200Y-141256000D02*
X69037200Y-146354800D01*
X60145200Y-135349600D02*
X56645200Y-135349600D01*
X60145200Y-135349600D02*
X61345201Y-136549601D01*
X61345201Y-136549601D02*
X63969201Y-136549601D01*
X63969201Y-136549601D02*
X67456400Y-140036800D01*
X67456400Y-140036800D02*
X70256400Y-140036800D01*
X63645200Y-134349600D02*
X72170200Y-134349600D01*
X72170200Y-134349600D02*
X78715200Y-140894600D01*
X78715200Y-140894600D02*
X78715200Y-144144600D01*
D38*
G36*
X64061810Y-101869031D02*
X64313700Y-101920040D01*
X64393572Y-101920040D01*
X64488013Y-101983143D01*
X64553147Y-101996099D01*
X61020321Y-105528925D01*
X60752607Y-105929588D01*
X60658598Y-106402202D01*
X60658598Y-111663598D01*
X60752607Y-112136212D01*
X61020321Y-112536875D01*
X62354723Y-113871277D01*
X62755386Y-114138991D01*
X63228000Y-114233000D01*
X63824778Y-114233000D01*
X63824838Y-114233317D01*
X63963910Y-114449441D01*
X64043000Y-114503481D01*
X64043000Y-115154989D01*
X63924233Y-115332736D01*
X63815000Y-115881887D01*
X63815000Y-115938113D01*
X63924233Y-116487264D01*
X64235302Y-116952811D01*
X64700849Y-117263880D01*
X65250000Y-117373113D01*
X65799151Y-117263880D01*
X66264698Y-116952811D01*
X66575767Y-116487264D01*
X66685000Y-115938113D01*
X66685000Y-115881887D01*
X66665375Y-115783223D01*
X67303035Y-115783223D01*
X67330222Y-116353454D01*
X67496136Y-116754005D01*
X67742255Y-116828139D01*
X68570395Y-116000000D01*
X67742255Y-115171861D01*
X67496136Y-115245995D01*
X67303035Y-115783223D01*
X66665375Y-115783223D01*
X66575767Y-115332736D01*
X66513000Y-115238799D01*
X66513000Y-114504844D01*
X66579441Y-114462090D01*
X66724431Y-114249890D01*
X66775440Y-113998000D01*
X66775440Y-111998000D01*
X66774178Y-111991291D01*
X67215000Y-111991291D01*
X67215000Y-112831850D01*
X67373750Y-112990600D01*
X68523000Y-112990600D01*
X68523000Y-111641350D01*
X68364250Y-111482600D01*
X67723690Y-111482600D01*
X67490301Y-111579273D01*
X67311673Y-111757902D01*
X67215000Y-111991291D01*
X66774178Y-111991291D01*
X66731162Y-111762683D01*
X66592090Y-111546559D01*
X66379890Y-111401569D01*
X66128000Y-111350560D01*
X64428000Y-111350560D01*
X64192683Y-111394838D01*
X63976559Y-111533910D01*
X63831569Y-111746110D01*
X63828149Y-111763000D01*
X63739554Y-111763000D01*
X63442332Y-111465778D01*
X63679115Y-111367942D01*
X63970519Y-111077046D01*
X64121331Y-110713848D01*
X64229863Y-110605316D01*
X64428000Y-110645440D01*
X66128000Y-110645440D01*
X66363317Y-110601162D01*
X66579441Y-110462090D01*
X66724431Y-110249890D01*
X66775440Y-109998000D01*
X66775440Y-108602140D01*
X67202560Y-108175019D01*
X67202560Y-110117600D01*
X67246838Y-110352917D01*
X67385910Y-110569041D01*
X67598110Y-110714031D01*
X67850000Y-110765040D01*
X68919305Y-110765040D01*
X69128543Y-110974643D01*
X69508812Y-111132544D01*
X69920560Y-111132903D01*
X70286569Y-110981672D01*
X70572541Y-110924787D01*
X70619949Y-110915357D01*
X70907064Y-110723514D01*
X70964998Y-110665579D01*
X70965001Y-110665577D01*
X71156844Y-110378462D01*
X71224211Y-110039787D01*
X71224211Y-109506811D01*
X71156844Y-109168136D01*
X70965001Y-108881021D01*
X70964998Y-108881019D01*
X70575790Y-108491810D01*
X70562087Y-108482654D01*
X70288675Y-108299967D01*
X70232484Y-108288790D01*
X70097440Y-108261927D01*
X70097440Y-108117600D01*
X70053162Y-107882283D01*
X69954977Y-107729699D01*
X69975791Y-107715791D01*
X71888807Y-105802774D01*
X72204580Y-106567000D01*
X72804641Y-107168109D01*
X73589059Y-107493828D01*
X74438415Y-107494570D01*
X74612490Y-107422643D01*
X70072945Y-111962188D01*
X69988327Y-111757902D01*
X69809699Y-111579273D01*
X69576310Y-111482600D01*
X68935750Y-111482600D01*
X68777000Y-111641350D01*
X68777000Y-112990600D01*
X68797000Y-112990600D01*
X68797000Y-113244600D01*
X68777000Y-113244600D01*
X68777000Y-113264600D01*
X68523000Y-113264600D01*
X68523000Y-113244600D01*
X67373750Y-113244600D01*
X67215000Y-113403350D01*
X67215000Y-114243909D01*
X67311673Y-114477298D01*
X67490301Y-114655927D01*
X67723690Y-114752600D01*
X67994048Y-114752600D01*
X67921861Y-114992255D01*
X68750000Y-115820395D01*
X68764142Y-115806252D01*
X68943748Y-115985858D01*
X68929605Y-116000000D01*
X68943748Y-116014142D01*
X68764142Y-116193748D01*
X68750000Y-116179605D01*
X67921861Y-117007745D01*
X67995995Y-117253864D01*
X68216076Y-117332970D01*
X66746446Y-118802599D01*
X62589204Y-118802599D01*
X62589199Y-118802598D01*
X61963512Y-118927056D01*
X61433079Y-119281479D01*
X61433077Y-119281482D01*
X58989080Y-121725478D01*
X58970958Y-121752600D01*
X57506631Y-121752600D01*
X57445200Y-121740160D01*
X55845200Y-121740160D01*
X55609883Y-121784438D01*
X55393759Y-121923510D01*
X55248769Y-122135710D01*
X55197760Y-122387600D01*
X55197760Y-122667472D01*
X55134657Y-122761913D01*
X55010200Y-123387600D01*
X55134657Y-124013287D01*
X55197760Y-124107728D01*
X55197760Y-124387600D01*
X55242038Y-124622917D01*
X55381110Y-124839041D01*
X55593310Y-124984031D01*
X55845200Y-125035040D01*
X57445200Y-125035040D01*
X57511313Y-125022600D01*
X59233769Y-125022600D01*
X59295200Y-125035040D01*
X60185521Y-125035040D01*
X59480400Y-125740160D01*
X59295200Y-125740160D01*
X59059883Y-125784438D01*
X58843759Y-125923510D01*
X58698769Y-126135710D01*
X58647760Y-126387600D01*
X58647760Y-126742302D01*
X58634657Y-126761912D01*
X58510199Y-127387600D01*
X58634657Y-128013288D01*
X58647760Y-128032898D01*
X58647760Y-128387600D01*
X58692038Y-128622917D01*
X58831110Y-128839041D01*
X59043310Y-128984031D01*
X59295200Y-129035040D01*
X60995200Y-129035040D01*
X61230517Y-128990762D01*
X61446641Y-128851690D01*
X61488701Y-128790132D01*
X62672273Y-128790132D01*
X62770936Y-129056987D01*
X63380661Y-129283508D01*
X64030660Y-129259456D01*
X64519464Y-129056987D01*
X64618127Y-128790132D01*
X63645200Y-127817205D01*
X62672273Y-128790132D01*
X61488701Y-128790132D01*
X61591631Y-128639490D01*
X61642640Y-128387600D01*
X61642640Y-128202400D01*
X62016159Y-127828881D01*
X62023344Y-128023060D01*
X62225813Y-128511864D01*
X62492668Y-128610527D01*
X63465595Y-127637600D01*
X63451453Y-127623458D01*
X63631058Y-127443853D01*
X63645200Y-127457995D01*
X63659343Y-127443853D01*
X63838948Y-127623458D01*
X63824805Y-127637600D01*
X64797732Y-128610527D01*
X65064587Y-128511864D01*
X65280641Y-127930314D01*
X65312712Y-127951743D01*
X65938400Y-128076200D01*
X66564088Y-127951743D01*
X66720268Y-127847386D01*
X66982290Y-128239530D01*
X71457361Y-132714600D01*
X63646626Y-132714600D01*
X63321405Y-132714316D01*
X62720257Y-132962706D01*
X62259922Y-133422237D01*
X62010484Y-134022952D01*
X62009916Y-134673395D01*
X62109581Y-134914601D01*
X62022440Y-134914601D01*
X61592640Y-134484800D01*
X61592640Y-134349600D01*
X61548362Y-134114283D01*
X61409290Y-133898159D01*
X61197090Y-133753169D01*
X60945200Y-133702160D01*
X59345200Y-133702160D01*
X59279087Y-133714600D01*
X57556631Y-133714600D01*
X57495200Y-133702160D01*
X55795200Y-133702160D01*
X55559883Y-133746438D01*
X55343759Y-133885510D01*
X55198769Y-134097710D01*
X55147760Y-134349600D01*
X55147760Y-134704303D01*
X55134657Y-134723913D01*
X55010200Y-135349600D01*
X55134657Y-135975287D01*
X55147760Y-135994897D01*
X55147760Y-136349600D01*
X55192038Y-136584917D01*
X55331110Y-136801041D01*
X55543310Y-136946031D01*
X55795200Y-136997040D01*
X57495200Y-136997040D01*
X57561313Y-136984600D01*
X59283769Y-136984600D01*
X59345200Y-136997040D01*
X59480400Y-136997040D01*
X60189079Y-137705718D01*
X60189081Y-137705721D01*
X60339394Y-137806156D01*
X60272200Y-137873350D01*
X60272200Y-139222600D01*
X61421450Y-139222600D01*
X61580200Y-139063850D01*
X61580200Y-138223291D01*
X61564174Y-138184601D01*
X62456179Y-138184601D01*
X62378386Y-138262394D01*
X62492666Y-138376674D01*
X62225813Y-138475336D01*
X61999292Y-139085061D01*
X62023344Y-139735060D01*
X62225813Y-140223864D01*
X62492668Y-140322527D01*
X63465595Y-139349600D01*
X63451453Y-139335458D01*
X63631058Y-139155853D01*
X63645200Y-139169995D01*
X63659343Y-139155853D01*
X63838948Y-139335458D01*
X63824805Y-139349600D01*
X64797732Y-140322527D01*
X65064587Y-140223864D01*
X65136813Y-140029453D01*
X66300280Y-141192920D01*
X66830712Y-141547343D01*
X67402200Y-141661019D01*
X67402200Y-144993369D01*
X67389760Y-145054800D01*
X67389760Y-147654800D01*
X67434038Y-147890117D01*
X67573110Y-148106241D01*
X67785310Y-148251231D01*
X68037200Y-148302240D01*
X70037200Y-148302240D01*
X70272517Y-148257962D01*
X70488641Y-148118890D01*
X70602549Y-147952180D01*
X71068845Y-148213944D01*
X71196766Y-148244924D01*
X71450200Y-148125577D01*
X71450200Y-146481800D01*
X71704200Y-146481800D01*
X71704200Y-148125577D01*
X71957634Y-148244924D01*
X72085555Y-148213944D01*
X72643517Y-147900722D01*
X73039142Y-147397820D01*
X73212200Y-146781800D01*
X73212200Y-146481800D01*
X71704200Y-146481800D01*
X71450200Y-146481800D01*
X71430200Y-146481800D01*
X71430200Y-146227800D01*
X71450200Y-146227800D01*
X71450200Y-144584023D01*
X71704200Y-144584023D01*
X71704200Y-146227800D01*
X73212200Y-146227800D01*
X73212200Y-145927800D01*
X73039142Y-145311780D01*
X72643517Y-144808878D01*
X72085555Y-144495656D01*
X71957634Y-144464676D01*
X71704200Y-144584023D01*
X71450200Y-144584023D01*
X71196766Y-144464676D01*
X71068845Y-144495656D01*
X70672200Y-144718320D01*
X70672200Y-142628677D01*
X75794251Y-147750727D01*
X75794253Y-147750730D01*
X76002861Y-147890117D01*
X76324685Y-148105153D01*
X76950373Y-148229611D01*
X76950378Y-148229610D01*
X84355203Y-148229610D01*
X84355208Y-148229611D01*
X84980896Y-148105153D01*
X85168785Y-147979610D01*
X89825187Y-147979610D01*
X89825192Y-147979611D01*
X90450880Y-147855153D01*
X90981312Y-147500730D01*
X92702442Y-145779600D01*
X99032811Y-145779600D01*
X99192219Y-145886113D01*
X99913577Y-146029600D01*
X101516823Y-146029600D01*
X102238181Y-145886113D01*
X102574999Y-145661058D01*
X102574999Y-148164001D01*
X102661396Y-148598347D01*
X102907433Y-148966567D01*
X103047442Y-149106576D01*
X103321955Y-149290000D01*
X53710000Y-149290000D01*
X53710000Y-146875022D01*
X56304584Y-146875022D01*
X56525353Y-147245743D01*
X57497012Y-147639119D01*
X58545247Y-147630713D01*
X59474647Y-147245743D01*
X59695416Y-146875022D01*
X58000000Y-145179605D01*
X56304584Y-146875022D01*
X53710000Y-146875022D01*
X53710000Y-142036800D01*
X53990999Y-142036800D01*
X54115457Y-142662488D01*
X54469880Y-143192920D01*
X55000312Y-143547343D01*
X55626000Y-143671801D01*
X55701008Y-143656881D01*
X55360881Y-144497012D01*
X55369287Y-145545247D01*
X55754257Y-146474647D01*
X56124978Y-146695416D01*
X57820395Y-145000000D01*
X58179605Y-145000000D01*
X59875022Y-146695416D01*
X60245743Y-146474647D01*
X60639119Y-145502988D01*
X60630713Y-144454753D01*
X60245743Y-143525353D01*
X59875022Y-143304584D01*
X58179605Y-145000000D01*
X57820395Y-145000000D01*
X57806252Y-144985858D01*
X57985858Y-144806252D01*
X58000000Y-144820395D01*
X59695416Y-143124978D01*
X59474647Y-142754257D01*
X58502988Y-142360881D01*
X57606973Y-142368066D01*
X57801317Y-142173722D01*
X57801320Y-142173720D01*
X58155743Y-141643287D01*
X58280200Y-141017600D01*
X58280200Y-139635350D01*
X58710200Y-139635350D01*
X58710200Y-140475909D01*
X58806873Y-140709298D01*
X58985501Y-140887927D01*
X59218890Y-140984600D01*
X59859450Y-140984600D01*
X60018200Y-140825850D01*
X60018200Y-139476600D01*
X60272200Y-139476600D01*
X60272200Y-140825850D01*
X60430950Y-140984600D01*
X61071510Y-140984600D01*
X61304899Y-140887927D01*
X61483527Y-140709298D01*
X61569338Y-140502132D01*
X62672273Y-140502132D01*
X62770936Y-140768987D01*
X63380661Y-140995508D01*
X64030660Y-140971456D01*
X64519464Y-140768987D01*
X64618127Y-140502132D01*
X63645200Y-139529205D01*
X62672273Y-140502132D01*
X61569338Y-140502132D01*
X61580200Y-140475909D01*
X61580200Y-139635350D01*
X61421450Y-139476600D01*
X60272200Y-139476600D01*
X60018200Y-139476600D01*
X58868950Y-139476600D01*
X58710200Y-139635350D01*
X58280200Y-139635350D01*
X58280200Y-139349600D01*
X58155743Y-138723913D01*
X58142640Y-138704303D01*
X58142640Y-138349600D01*
X58118874Y-138223291D01*
X58710200Y-138223291D01*
X58710200Y-139063850D01*
X58868950Y-139222600D01*
X60018200Y-139222600D01*
X60018200Y-137873350D01*
X59859450Y-137714600D01*
X59218890Y-137714600D01*
X58985501Y-137811273D01*
X58806873Y-137989902D01*
X58710200Y-138223291D01*
X58118874Y-138223291D01*
X58098362Y-138114283D01*
X57959290Y-137898159D01*
X57747090Y-137753169D01*
X57495200Y-137702160D01*
X55795200Y-137702160D01*
X55559883Y-137746438D01*
X55343759Y-137885510D01*
X55198769Y-138097710D01*
X55147760Y-138349600D01*
X55147760Y-138704303D01*
X55134657Y-138723913D01*
X55010200Y-139349600D01*
X55010200Y-140340361D01*
X54469880Y-140880680D01*
X54115457Y-141411112D01*
X53990999Y-142036800D01*
X53710000Y-142036800D01*
X53710000Y-127673350D01*
X55210200Y-127673350D01*
X55210200Y-128513909D01*
X55306873Y-128747298D01*
X55485501Y-128925927D01*
X55718890Y-129022600D01*
X56359450Y-129022600D01*
X56518200Y-128863850D01*
X56518200Y-127514600D01*
X56772200Y-127514600D01*
X56772200Y-128863850D01*
X56930950Y-129022600D01*
X57571510Y-129022600D01*
X57804899Y-128925927D01*
X57983527Y-128747298D01*
X58080200Y-128513909D01*
X58080200Y-127673350D01*
X57921450Y-127514600D01*
X56772200Y-127514600D01*
X56518200Y-127514600D01*
X55368950Y-127514600D01*
X55210200Y-127673350D01*
X53710000Y-127673350D01*
X53710000Y-126261291D01*
X55210200Y-126261291D01*
X55210200Y-127101850D01*
X55368950Y-127260600D01*
X56518200Y-127260600D01*
X56518200Y-125911350D01*
X56772200Y-125911350D01*
X56772200Y-127260600D01*
X57921450Y-127260600D01*
X58080200Y-127101850D01*
X58080200Y-126261291D01*
X57983527Y-126027902D01*
X57804899Y-125849273D01*
X57571510Y-125752600D01*
X56930950Y-125752600D01*
X56772200Y-125911350D01*
X56518200Y-125911350D01*
X56359450Y-125752600D01*
X55718890Y-125752600D01*
X55485501Y-125849273D01*
X55306873Y-126027902D01*
X55210200Y-126261291D01*
X53710000Y-126261291D01*
X53710000Y-105263823D01*
X54136713Y-105548943D01*
X54762400Y-105673400D01*
X55388087Y-105548943D01*
X55918520Y-105194520D01*
X56272943Y-104664087D01*
X56397400Y-104038400D01*
X56397400Y-102355039D01*
X56894078Y-102851717D01*
X56894080Y-102851720D01*
X57361269Y-103163885D01*
X57424513Y-103206143D01*
X58050200Y-103330601D01*
X58050205Y-103330600D01*
X61450195Y-103330600D01*
X61450200Y-103330601D01*
X62075888Y-103206143D01*
X62606320Y-102851720D01*
X63215000Y-102243040D01*
X63400200Y-102243040D01*
X63635517Y-102198762D01*
X63851641Y-102059690D01*
X63996631Y-101847490D01*
X64000721Y-101827291D01*
X64061810Y-101869031D01*
X64061810Y-101869031D01*
G37*
X64061810Y-101869031D02*
X64313700Y-101920040D01*
X64393572Y-101920040D01*
X64488013Y-101983143D01*
X64553147Y-101996099D01*
X61020321Y-105528925D01*
X60752607Y-105929588D01*
X60658598Y-106402202D01*
X60658598Y-111663598D01*
X60752607Y-112136212D01*
X61020321Y-112536875D01*
X62354723Y-113871277D01*
X62755386Y-114138991D01*
X63228000Y-114233000D01*
X63824778Y-114233000D01*
X63824838Y-114233317D01*
X63963910Y-114449441D01*
X64043000Y-114503481D01*
X64043000Y-115154989D01*
X63924233Y-115332736D01*
X63815000Y-115881887D01*
X63815000Y-115938113D01*
X63924233Y-116487264D01*
X64235302Y-116952811D01*
X64700849Y-117263880D01*
X65250000Y-117373113D01*
X65799151Y-117263880D01*
X66264698Y-116952811D01*
X66575767Y-116487264D01*
X66685000Y-115938113D01*
X66685000Y-115881887D01*
X66665375Y-115783223D01*
X67303035Y-115783223D01*
X67330222Y-116353454D01*
X67496136Y-116754005D01*
X67742255Y-116828139D01*
X68570395Y-116000000D01*
X67742255Y-115171861D01*
X67496136Y-115245995D01*
X67303035Y-115783223D01*
X66665375Y-115783223D01*
X66575767Y-115332736D01*
X66513000Y-115238799D01*
X66513000Y-114504844D01*
X66579441Y-114462090D01*
X66724431Y-114249890D01*
X66775440Y-113998000D01*
X66775440Y-111998000D01*
X66774178Y-111991291D01*
X67215000Y-111991291D01*
X67215000Y-112831850D01*
X67373750Y-112990600D01*
X68523000Y-112990600D01*
X68523000Y-111641350D01*
X68364250Y-111482600D01*
X67723690Y-111482600D01*
X67490301Y-111579273D01*
X67311673Y-111757902D01*
X67215000Y-111991291D01*
X66774178Y-111991291D01*
X66731162Y-111762683D01*
X66592090Y-111546559D01*
X66379890Y-111401569D01*
X66128000Y-111350560D01*
X64428000Y-111350560D01*
X64192683Y-111394838D01*
X63976559Y-111533910D01*
X63831569Y-111746110D01*
X63828149Y-111763000D01*
X63739554Y-111763000D01*
X63442332Y-111465778D01*
X63679115Y-111367942D01*
X63970519Y-111077046D01*
X64121331Y-110713848D01*
X64229863Y-110605316D01*
X64428000Y-110645440D01*
X66128000Y-110645440D01*
X66363317Y-110601162D01*
X66579441Y-110462090D01*
X66724431Y-110249890D01*
X66775440Y-109998000D01*
X66775440Y-108602140D01*
X67202560Y-108175019D01*
X67202560Y-110117600D01*
X67246838Y-110352917D01*
X67385910Y-110569041D01*
X67598110Y-110714031D01*
X67850000Y-110765040D01*
X68919305Y-110765040D01*
X69128543Y-110974643D01*
X69508812Y-111132544D01*
X69920560Y-111132903D01*
X70286569Y-110981672D01*
X70572541Y-110924787D01*
X70619949Y-110915357D01*
X70907064Y-110723514D01*
X70964998Y-110665579D01*
X70965001Y-110665577D01*
X71156844Y-110378462D01*
X71224211Y-110039787D01*
X71224211Y-109506811D01*
X71156844Y-109168136D01*
X70965001Y-108881021D01*
X70964998Y-108881019D01*
X70575790Y-108491810D01*
X70562087Y-108482654D01*
X70288675Y-108299967D01*
X70232484Y-108288790D01*
X70097440Y-108261927D01*
X70097440Y-108117600D01*
X70053162Y-107882283D01*
X69954977Y-107729699D01*
X69975791Y-107715791D01*
X71888807Y-105802774D01*
X72204580Y-106567000D01*
X72804641Y-107168109D01*
X73589059Y-107493828D01*
X74438415Y-107494570D01*
X74612490Y-107422643D01*
X70072945Y-111962188D01*
X69988327Y-111757902D01*
X69809699Y-111579273D01*
X69576310Y-111482600D01*
X68935750Y-111482600D01*
X68777000Y-111641350D01*
X68777000Y-112990600D01*
X68797000Y-112990600D01*
X68797000Y-113244600D01*
X68777000Y-113244600D01*
X68777000Y-113264600D01*
X68523000Y-113264600D01*
X68523000Y-113244600D01*
X67373750Y-113244600D01*
X67215000Y-113403350D01*
X67215000Y-114243909D01*
X67311673Y-114477298D01*
X67490301Y-114655927D01*
X67723690Y-114752600D01*
X67994048Y-114752600D01*
X67921861Y-114992255D01*
X68750000Y-115820395D01*
X68764142Y-115806252D01*
X68943748Y-115985858D01*
X68929605Y-116000000D01*
X68943748Y-116014142D01*
X68764142Y-116193748D01*
X68750000Y-116179605D01*
X67921861Y-117007745D01*
X67995995Y-117253864D01*
X68216076Y-117332970D01*
X66746446Y-118802599D01*
X62589204Y-118802599D01*
X62589199Y-118802598D01*
X61963512Y-118927056D01*
X61433079Y-119281479D01*
X61433077Y-119281482D01*
X58989080Y-121725478D01*
X58970958Y-121752600D01*
X57506631Y-121752600D01*
X57445200Y-121740160D01*
X55845200Y-121740160D01*
X55609883Y-121784438D01*
X55393759Y-121923510D01*
X55248769Y-122135710D01*
X55197760Y-122387600D01*
X55197760Y-122667472D01*
X55134657Y-122761913D01*
X55010200Y-123387600D01*
X55134657Y-124013287D01*
X55197760Y-124107728D01*
X55197760Y-124387600D01*
X55242038Y-124622917D01*
X55381110Y-124839041D01*
X55593310Y-124984031D01*
X55845200Y-125035040D01*
X57445200Y-125035040D01*
X57511313Y-125022600D01*
X59233769Y-125022600D01*
X59295200Y-125035040D01*
X60185521Y-125035040D01*
X59480400Y-125740160D01*
X59295200Y-125740160D01*
X59059883Y-125784438D01*
X58843759Y-125923510D01*
X58698769Y-126135710D01*
X58647760Y-126387600D01*
X58647760Y-126742302D01*
X58634657Y-126761912D01*
X58510199Y-127387600D01*
X58634657Y-128013288D01*
X58647760Y-128032898D01*
X58647760Y-128387600D01*
X58692038Y-128622917D01*
X58831110Y-128839041D01*
X59043310Y-128984031D01*
X59295200Y-129035040D01*
X60995200Y-129035040D01*
X61230517Y-128990762D01*
X61446641Y-128851690D01*
X61488701Y-128790132D01*
X62672273Y-128790132D01*
X62770936Y-129056987D01*
X63380661Y-129283508D01*
X64030660Y-129259456D01*
X64519464Y-129056987D01*
X64618127Y-128790132D01*
X63645200Y-127817205D01*
X62672273Y-128790132D01*
X61488701Y-128790132D01*
X61591631Y-128639490D01*
X61642640Y-128387600D01*
X61642640Y-128202400D01*
X62016159Y-127828881D01*
X62023344Y-128023060D01*
X62225813Y-128511864D01*
X62492668Y-128610527D01*
X63465595Y-127637600D01*
X63451453Y-127623458D01*
X63631058Y-127443853D01*
X63645200Y-127457995D01*
X63659343Y-127443853D01*
X63838948Y-127623458D01*
X63824805Y-127637600D01*
X64797732Y-128610527D01*
X65064587Y-128511864D01*
X65280641Y-127930314D01*
X65312712Y-127951743D01*
X65938400Y-128076200D01*
X66564088Y-127951743D01*
X66720268Y-127847386D01*
X66982290Y-128239530D01*
X71457361Y-132714600D01*
X63646626Y-132714600D01*
X63321405Y-132714316D01*
X62720257Y-132962706D01*
X62259922Y-133422237D01*
X62010484Y-134022952D01*
X62009916Y-134673395D01*
X62109581Y-134914601D01*
X62022440Y-134914601D01*
X61592640Y-134484800D01*
X61592640Y-134349600D01*
X61548362Y-134114283D01*
X61409290Y-133898159D01*
X61197090Y-133753169D01*
X60945200Y-133702160D01*
X59345200Y-133702160D01*
X59279087Y-133714600D01*
X57556631Y-133714600D01*
X57495200Y-133702160D01*
X55795200Y-133702160D01*
X55559883Y-133746438D01*
X55343759Y-133885510D01*
X55198769Y-134097710D01*
X55147760Y-134349600D01*
X55147760Y-134704303D01*
X55134657Y-134723913D01*
X55010200Y-135349600D01*
X55134657Y-135975287D01*
X55147760Y-135994897D01*
X55147760Y-136349600D01*
X55192038Y-136584917D01*
X55331110Y-136801041D01*
X55543310Y-136946031D01*
X55795200Y-136997040D01*
X57495200Y-136997040D01*
X57561313Y-136984600D01*
X59283769Y-136984600D01*
X59345200Y-136997040D01*
X59480400Y-136997040D01*
X60189079Y-137705718D01*
X60189081Y-137705721D01*
X60339394Y-137806156D01*
X60272200Y-137873350D01*
X60272200Y-139222600D01*
X61421450Y-139222600D01*
X61580200Y-139063850D01*
X61580200Y-138223291D01*
X61564174Y-138184601D01*
X62456179Y-138184601D01*
X62378386Y-138262394D01*
X62492666Y-138376674D01*
X62225813Y-138475336D01*
X61999292Y-139085061D01*
X62023344Y-139735060D01*
X62225813Y-140223864D01*
X62492668Y-140322527D01*
X63465595Y-139349600D01*
X63451453Y-139335458D01*
X63631058Y-139155853D01*
X63645200Y-139169995D01*
X63659343Y-139155853D01*
X63838948Y-139335458D01*
X63824805Y-139349600D01*
X64797732Y-140322527D01*
X65064587Y-140223864D01*
X65136813Y-140029453D01*
X66300280Y-141192920D01*
X66830712Y-141547343D01*
X67402200Y-141661019D01*
X67402200Y-144993369D01*
X67389760Y-145054800D01*
X67389760Y-147654800D01*
X67434038Y-147890117D01*
X67573110Y-148106241D01*
X67785310Y-148251231D01*
X68037200Y-148302240D01*
X70037200Y-148302240D01*
X70272517Y-148257962D01*
X70488641Y-148118890D01*
X70602549Y-147952180D01*
X71068845Y-148213944D01*
X71196766Y-148244924D01*
X71450200Y-148125577D01*
X71450200Y-146481800D01*
X71704200Y-146481800D01*
X71704200Y-148125577D01*
X71957634Y-148244924D01*
X72085555Y-148213944D01*
X72643517Y-147900722D01*
X73039142Y-147397820D01*
X73212200Y-146781800D01*
X73212200Y-146481800D01*
X71704200Y-146481800D01*
X71450200Y-146481800D01*
X71430200Y-146481800D01*
X71430200Y-146227800D01*
X71450200Y-146227800D01*
X71450200Y-144584023D01*
X71704200Y-144584023D01*
X71704200Y-146227800D01*
X73212200Y-146227800D01*
X73212200Y-145927800D01*
X73039142Y-145311780D01*
X72643517Y-144808878D01*
X72085555Y-144495656D01*
X71957634Y-144464676D01*
X71704200Y-144584023D01*
X71450200Y-144584023D01*
X71196766Y-144464676D01*
X71068845Y-144495656D01*
X70672200Y-144718320D01*
X70672200Y-142628677D01*
X75794251Y-147750727D01*
X75794253Y-147750730D01*
X76002861Y-147890117D01*
X76324685Y-148105153D01*
X76950373Y-148229611D01*
X76950378Y-148229610D01*
X84355203Y-148229610D01*
X84355208Y-148229611D01*
X84980896Y-148105153D01*
X85168785Y-147979610D01*
X89825187Y-147979610D01*
X89825192Y-147979611D01*
X90450880Y-147855153D01*
X90981312Y-147500730D01*
X92702442Y-145779600D01*
X99032811Y-145779600D01*
X99192219Y-145886113D01*
X99913577Y-146029600D01*
X101516823Y-146029600D01*
X102238181Y-145886113D01*
X102574999Y-145661058D01*
X102574999Y-148164001D01*
X102661396Y-148598347D01*
X102907433Y-148966567D01*
X103047442Y-149106576D01*
X103321955Y-149290000D01*
X53710000Y-149290000D01*
X53710000Y-146875022D01*
X56304584Y-146875022D01*
X56525353Y-147245743D01*
X57497012Y-147639119D01*
X58545247Y-147630713D01*
X59474647Y-147245743D01*
X59695416Y-146875022D01*
X58000000Y-145179605D01*
X56304584Y-146875022D01*
X53710000Y-146875022D01*
X53710000Y-142036800D01*
X53990999Y-142036800D01*
X54115457Y-142662488D01*
X54469880Y-143192920D01*
X55000312Y-143547343D01*
X55626000Y-143671801D01*
X55701008Y-143656881D01*
X55360881Y-144497012D01*
X55369287Y-145545247D01*
X55754257Y-146474647D01*
X56124978Y-146695416D01*
X57820395Y-145000000D01*
X58179605Y-145000000D01*
X59875022Y-146695416D01*
X60245743Y-146474647D01*
X60639119Y-145502988D01*
X60630713Y-144454753D01*
X60245743Y-143525353D01*
X59875022Y-143304584D01*
X58179605Y-145000000D01*
X57820395Y-145000000D01*
X57806252Y-144985858D01*
X57985858Y-144806252D01*
X58000000Y-144820395D01*
X59695416Y-143124978D01*
X59474647Y-142754257D01*
X58502988Y-142360881D01*
X57606973Y-142368066D01*
X57801317Y-142173722D01*
X57801320Y-142173720D01*
X58155743Y-141643287D01*
X58280200Y-141017600D01*
X58280200Y-139635350D01*
X58710200Y-139635350D01*
X58710200Y-140475909D01*
X58806873Y-140709298D01*
X58985501Y-140887927D01*
X59218890Y-140984600D01*
X59859450Y-140984600D01*
X60018200Y-140825850D01*
X60018200Y-139476600D01*
X60272200Y-139476600D01*
X60272200Y-140825850D01*
X60430950Y-140984600D01*
X61071510Y-140984600D01*
X61304899Y-140887927D01*
X61483527Y-140709298D01*
X61569338Y-140502132D01*
X62672273Y-140502132D01*
X62770936Y-140768987D01*
X63380661Y-140995508D01*
X64030660Y-140971456D01*
X64519464Y-140768987D01*
X64618127Y-140502132D01*
X63645200Y-139529205D01*
X62672273Y-140502132D01*
X61569338Y-140502132D01*
X61580200Y-140475909D01*
X61580200Y-139635350D01*
X61421450Y-139476600D01*
X60272200Y-139476600D01*
X60018200Y-139476600D01*
X58868950Y-139476600D01*
X58710200Y-139635350D01*
X58280200Y-139635350D01*
X58280200Y-139349600D01*
X58155743Y-138723913D01*
X58142640Y-138704303D01*
X58142640Y-138349600D01*
X58118874Y-138223291D01*
X58710200Y-138223291D01*
X58710200Y-139063850D01*
X58868950Y-139222600D01*
X60018200Y-139222600D01*
X60018200Y-137873350D01*
X59859450Y-137714600D01*
X59218890Y-137714600D01*
X58985501Y-137811273D01*
X58806873Y-137989902D01*
X58710200Y-138223291D01*
X58118874Y-138223291D01*
X58098362Y-138114283D01*
X57959290Y-137898159D01*
X57747090Y-137753169D01*
X57495200Y-137702160D01*
X55795200Y-137702160D01*
X55559883Y-137746438D01*
X55343759Y-137885510D01*
X55198769Y-138097710D01*
X55147760Y-138349600D01*
X55147760Y-138704303D01*
X55134657Y-138723913D01*
X55010200Y-139349600D01*
X55010200Y-140340361D01*
X54469880Y-140880680D01*
X54115457Y-141411112D01*
X53990999Y-142036800D01*
X53710000Y-142036800D01*
X53710000Y-127673350D01*
X55210200Y-127673350D01*
X55210200Y-128513909D01*
X55306873Y-128747298D01*
X55485501Y-128925927D01*
X55718890Y-129022600D01*
X56359450Y-129022600D01*
X56518200Y-128863850D01*
X56518200Y-127514600D01*
X56772200Y-127514600D01*
X56772200Y-128863850D01*
X56930950Y-129022600D01*
X57571510Y-129022600D01*
X57804899Y-128925927D01*
X57983527Y-128747298D01*
X58080200Y-128513909D01*
X58080200Y-127673350D01*
X57921450Y-127514600D01*
X56772200Y-127514600D01*
X56518200Y-127514600D01*
X55368950Y-127514600D01*
X55210200Y-127673350D01*
X53710000Y-127673350D01*
X53710000Y-126261291D01*
X55210200Y-126261291D01*
X55210200Y-127101850D01*
X55368950Y-127260600D01*
X56518200Y-127260600D01*
X56518200Y-125911350D01*
X56772200Y-125911350D01*
X56772200Y-127260600D01*
X57921450Y-127260600D01*
X58080200Y-127101850D01*
X58080200Y-126261291D01*
X57983527Y-126027902D01*
X57804899Y-125849273D01*
X57571510Y-125752600D01*
X56930950Y-125752600D01*
X56772200Y-125911350D01*
X56518200Y-125911350D01*
X56359450Y-125752600D01*
X55718890Y-125752600D01*
X55485501Y-125849273D01*
X55306873Y-126027902D01*
X55210200Y-126261291D01*
X53710000Y-126261291D01*
X53710000Y-105263823D01*
X54136713Y-105548943D01*
X54762400Y-105673400D01*
X55388087Y-105548943D01*
X55918520Y-105194520D01*
X56272943Y-104664087D01*
X56397400Y-104038400D01*
X56397400Y-102355039D01*
X56894078Y-102851717D01*
X56894080Y-102851720D01*
X57361269Y-103163885D01*
X57424513Y-103206143D01*
X58050200Y-103330601D01*
X58050205Y-103330600D01*
X61450195Y-103330600D01*
X61450200Y-103330601D01*
X62075888Y-103206143D01*
X62606320Y-102851720D01*
X63215000Y-102243040D01*
X63400200Y-102243040D01*
X63635517Y-102198762D01*
X63851641Y-102059690D01*
X63996631Y-101847490D01*
X64000721Y-101827291D01*
X64061810Y-101869031D01*
G36*
X142290000Y-149290000D02*
X110842043Y-149290000D01*
X111116556Y-149106576D01*
X111971692Y-148251440D01*
X113014000Y-148251440D01*
X113249317Y-148207162D01*
X113465441Y-148068090D01*
X113570951Y-147913671D01*
X113928313Y-148152452D01*
X114554000Y-148276909D01*
X115179687Y-148152452D01*
X115710120Y-147798029D01*
X115837219Y-147607812D01*
X116027683Y-147849922D01*
X116585645Y-148163144D01*
X116713566Y-148194124D01*
X116967000Y-148074777D01*
X116967000Y-146431000D01*
X116947000Y-146431000D01*
X116947000Y-146177000D01*
X116967000Y-146177000D01*
X116967000Y-144533223D01*
X117221000Y-144533223D01*
X117221000Y-146177000D01*
X117241000Y-146177000D01*
X117241000Y-146431000D01*
X117221000Y-146431000D01*
X117221000Y-148074777D01*
X117474434Y-148194124D01*
X117602355Y-148163144D01*
X118160317Y-147849922D01*
X118350781Y-147607812D01*
X118477880Y-147798029D01*
X119008313Y-148152452D01*
X119634000Y-148276909D01*
X120259687Y-148152452D01*
X120790120Y-147798029D01*
X121144543Y-147267596D01*
X121269000Y-146641909D01*
X121269000Y-145966091D01*
X121144543Y-145340404D01*
X120919766Y-145004000D01*
X122050560Y-145004000D01*
X122050560Y-147604000D01*
X122094838Y-147839317D01*
X122233910Y-148055441D01*
X122446110Y-148200431D01*
X122698000Y-148251440D01*
X124698000Y-148251440D01*
X124933317Y-148207162D01*
X125149441Y-148068090D01*
X125254951Y-147913671D01*
X125612313Y-148152452D01*
X126238000Y-148276909D01*
X126863687Y-148152452D01*
X127394120Y-147798029D01*
X127748543Y-147267596D01*
X127873000Y-146641909D01*
X127873000Y-145966091D01*
X127748543Y-145340404D01*
X127394120Y-144809971D01*
X126863687Y-144455548D01*
X126238000Y-144331091D01*
X125612313Y-144455548D01*
X125253808Y-144695093D01*
X125162090Y-144552559D01*
X124949890Y-144407569D01*
X124698000Y-144356560D01*
X122698000Y-144356560D01*
X122462683Y-144400838D01*
X122246559Y-144539910D01*
X122101569Y-144752110D01*
X122050560Y-145004000D01*
X120919766Y-145004000D01*
X120790120Y-144809971D01*
X120259687Y-144455548D01*
X119634000Y-144331091D01*
X119008313Y-144455548D01*
X118477880Y-144809971D01*
X118350781Y-145000188D01*
X118160317Y-144758078D01*
X117602355Y-144444856D01*
X117474434Y-144413876D01*
X117221000Y-144533223D01*
X116967000Y-144533223D01*
X116713566Y-144413876D01*
X116585645Y-144444856D01*
X116027683Y-144758078D01*
X115837219Y-145000188D01*
X115710120Y-144809971D01*
X115179687Y-144455548D01*
X114554000Y-144331091D01*
X113928313Y-144455548D01*
X113569808Y-144695093D01*
X113478090Y-144552559D01*
X113265890Y-144407569D01*
X113014000Y-144356560D01*
X111014000Y-144356560D01*
X110778683Y-144400838D01*
X110562559Y-144539910D01*
X110417569Y-144752110D01*
X110366560Y-145004000D01*
X110366560Y-146646308D01*
X109843858Y-147169010D01*
X109480153Y-147169010D01*
X109585000Y-146641909D01*
X109585000Y-145966091D01*
X109460543Y-145340404D01*
X109106120Y-144809971D01*
X108835000Y-144628815D01*
X108835000Y-140715750D01*
X111087000Y-140715750D01*
X111087000Y-141556309D01*
X111183673Y-141789698D01*
X111362301Y-141968327D01*
X111595690Y-142065000D01*
X112236250Y-142065000D01*
X112395000Y-141906250D01*
X112395000Y-140557000D01*
X112649000Y-140557000D01*
X112649000Y-141906250D01*
X112807750Y-142065000D01*
X113448310Y-142065000D01*
X113681699Y-141968327D01*
X113860327Y-141789698D01*
X113910163Y-141669381D01*
X116008021Y-141669381D01*
X116165258Y-142049925D01*
X116456154Y-142341329D01*
X116836423Y-142499230D01*
X117248171Y-142499589D01*
X117611633Y-142349410D01*
X121657215Y-142349410D01*
X122018023Y-142499230D01*
X122429771Y-142499589D01*
X122810315Y-142342352D01*
X123101719Y-142051456D01*
X123259620Y-141671187D01*
X123259979Y-141259439D01*
X123102742Y-140878895D01*
X122811846Y-140587491D01*
X122431577Y-140429590D01*
X122019829Y-140429231D01*
X121656367Y-140579410D01*
X117610785Y-140579410D01*
X117249977Y-140429590D01*
X116838229Y-140429231D01*
X116457685Y-140586468D01*
X116166281Y-140877364D01*
X116008380Y-141257633D01*
X116008021Y-141669381D01*
X113910163Y-141669381D01*
X113957000Y-141556309D01*
X113957000Y-140715750D01*
X113798250Y-140557000D01*
X112649000Y-140557000D01*
X112395000Y-140557000D01*
X111245750Y-140557000D01*
X111087000Y-140715750D01*
X108835000Y-140715750D01*
X108835000Y-139386574D01*
X108944058Y-139650515D01*
X109234954Y-139941919D01*
X109615223Y-140099820D01*
X110026971Y-140100179D01*
X110390433Y-139950000D01*
X111087000Y-139950000D01*
X111087000Y-140144250D01*
X111245750Y-140303000D01*
X112395000Y-140303000D01*
X112395000Y-140283000D01*
X112649000Y-140283000D01*
X112649000Y-140303000D01*
X113798250Y-140303000D01*
X113957000Y-140144250D01*
X113957000Y-139701109D01*
X124807529Y-139701109D01*
X127232208Y-142125787D01*
X127232210Y-142125790D01*
X127519325Y-142317633D01*
X127575516Y-142328810D01*
X127711669Y-142355893D01*
X127754838Y-142585317D01*
X127893910Y-142801441D01*
X128106110Y-142946431D01*
X128358000Y-142997440D01*
X128813000Y-142997440D01*
X128813000Y-144400778D01*
X128812683Y-144400838D01*
X128596559Y-144539910D01*
X128451569Y-144752110D01*
X128400560Y-145004000D01*
X128400560Y-147604000D01*
X128444838Y-147839317D01*
X128583910Y-148055441D01*
X128796110Y-148200431D01*
X129048000Y-148251440D01*
X131048000Y-148251440D01*
X131283317Y-148207162D01*
X131499441Y-148068090D01*
X131604951Y-147913671D01*
X131962313Y-148152452D01*
X132588000Y-148276909D01*
X133213687Y-148152452D01*
X133744120Y-147798029D01*
X134098543Y-147267596D01*
X134176630Y-146875022D01*
X136304584Y-146875022D01*
X136525353Y-147245743D01*
X137497012Y-147639119D01*
X138545247Y-147630713D01*
X139474647Y-147245743D01*
X139695416Y-146875022D01*
X138000000Y-145179605D01*
X136304584Y-146875022D01*
X134176630Y-146875022D01*
X134223000Y-146641909D01*
X134223000Y-145966091D01*
X134098543Y-145340404D01*
X133823000Y-144928024D01*
X133823000Y-144497012D01*
X135360881Y-144497012D01*
X135369287Y-145545247D01*
X135754257Y-146474647D01*
X136124978Y-146695416D01*
X137820395Y-145000000D01*
X138179605Y-145000000D01*
X139875022Y-146695416D01*
X140245743Y-146474647D01*
X140639119Y-145502988D01*
X140630713Y-144454753D01*
X140245743Y-143525353D01*
X139875022Y-143304584D01*
X138179605Y-145000000D01*
X137820395Y-145000000D01*
X136124978Y-143304584D01*
X135754257Y-143525353D01*
X135360881Y-144497012D01*
X133823000Y-144497012D01*
X133823000Y-143124978D01*
X136304584Y-143124978D01*
X138000000Y-144820395D01*
X139695416Y-143124978D01*
X139474647Y-142754257D01*
X138502988Y-142360881D01*
X137454753Y-142369287D01*
X136525353Y-142754257D01*
X136304584Y-143124978D01*
X133823000Y-143124978D01*
X133823000Y-142997440D01*
X134358000Y-142997440D01*
X134593317Y-142953162D01*
X134809441Y-142814090D01*
X134954431Y-142601890D01*
X135005440Y-142350000D01*
X135005440Y-140650000D01*
X134961162Y-140414683D01*
X134822090Y-140198559D01*
X134609890Y-140053569D01*
X134358000Y-140002560D01*
X134213672Y-140002560D01*
X134175633Y-139811325D01*
X133983790Y-139524210D01*
X133983787Y-139524208D01*
X133143580Y-138684000D01*
X136457091Y-138684000D01*
X136581548Y-139309687D01*
X136935971Y-139840120D01*
X137466404Y-140194543D01*
X138092091Y-140319000D01*
X138767909Y-140319000D01*
X139393596Y-140194543D01*
X139924029Y-139840120D01*
X140278452Y-139309687D01*
X140402909Y-138684000D01*
X140278452Y-138058313D01*
X140038907Y-137699808D01*
X140181441Y-137608090D01*
X140326431Y-137395890D01*
X140377440Y-137144000D01*
X140377440Y-135144000D01*
X140333162Y-134908683D01*
X140194090Y-134692559D01*
X139981890Y-134547569D01*
X139730000Y-134496560D01*
X137130000Y-134496560D01*
X136894683Y-134540838D01*
X136678559Y-134679910D01*
X136533569Y-134892110D01*
X136482560Y-135144000D01*
X136482560Y-137144000D01*
X136526838Y-137379317D01*
X136665910Y-137595441D01*
X136820329Y-137700951D01*
X136581548Y-138058313D01*
X136457091Y-138684000D01*
X133143580Y-138684000D01*
X132113778Y-137654198D01*
X132025841Y-137595441D01*
X131826663Y-137462355D01*
X131770472Y-137451178D01*
X131487988Y-137394987D01*
X131487983Y-137394988D01*
X130468843Y-137394988D01*
X130324385Y-137298465D01*
X130268194Y-137287288D01*
X129985710Y-137231097D01*
X129985705Y-137231098D01*
X113969440Y-137231098D01*
X113969440Y-137151365D01*
X114169461Y-137017716D01*
X119107177Y-132080000D01*
X136609491Y-132080000D01*
X136733948Y-132705687D01*
X137088371Y-133236120D01*
X137618804Y-133590543D01*
X138244491Y-133715000D01*
X138920309Y-133715000D01*
X139545996Y-133590543D01*
X140076429Y-133236120D01*
X140430852Y-132705687D01*
X140555309Y-132080000D01*
X140430852Y-131454313D01*
X140076429Y-130923880D01*
X139886212Y-130796781D01*
X140128322Y-130606317D01*
X140441544Y-130048355D01*
X140472524Y-129920434D01*
X140353177Y-129667000D01*
X138709400Y-129667000D01*
X138709400Y-129687000D01*
X138455400Y-129687000D01*
X138455400Y-129667000D01*
X136811623Y-129667000D01*
X136692276Y-129920434D01*
X136723256Y-130048355D01*
X137036478Y-130606317D01*
X137278588Y-130796781D01*
X137088371Y-130923880D01*
X136733948Y-131454313D01*
X136609491Y-132080000D01*
X119107177Y-132080000D01*
X120040421Y-131146756D01*
X120148710Y-131315041D01*
X120360910Y-131460031D01*
X120612800Y-131511040D01*
X122312800Y-131511040D01*
X122548117Y-131466762D01*
X122682052Y-131380577D01*
X122703401Y-131401927D01*
X122936790Y-131498600D01*
X123577350Y-131498600D01*
X123736100Y-131339850D01*
X123736100Y-129990600D01*
X123990100Y-129990600D01*
X123990100Y-131339850D01*
X124148850Y-131498600D01*
X124789410Y-131498600D01*
X125022799Y-131401927D01*
X125201427Y-131223298D01*
X125298100Y-130989909D01*
X125298100Y-130149350D01*
X125139350Y-129990600D01*
X123990100Y-129990600D01*
X123736100Y-129990600D01*
X123716100Y-129990600D01*
X123716100Y-129736600D01*
X123736100Y-129736600D01*
X123736100Y-129716600D01*
X123990100Y-129716600D01*
X123990100Y-129736600D01*
X125139350Y-129736600D01*
X125298100Y-129577850D01*
X125298100Y-129066999D01*
X128741001Y-129066999D01*
X129031840Y-129009147D01*
X129278402Y-128844400D01*
X131654443Y-126468359D01*
X131654421Y-126493771D01*
X131811658Y-126874315D01*
X132102554Y-127165719D01*
X132482823Y-127323620D01*
X132649764Y-127323766D01*
X132863399Y-127537401D01*
X133109961Y-127702148D01*
X133400800Y-127760000D01*
X136823693Y-127760000D01*
X137088371Y-128156120D01*
X137278588Y-128283219D01*
X137036478Y-128473683D01*
X136723256Y-129031645D01*
X136692276Y-129159566D01*
X136811623Y-129413000D01*
X138455400Y-129413000D01*
X138455400Y-129393000D01*
X138709400Y-129393000D01*
X138709400Y-129413000D01*
X140353177Y-129413000D01*
X140472524Y-129159566D01*
X140441544Y-129031645D01*
X140128322Y-128473683D01*
X139886212Y-128283219D01*
X140076429Y-128156120D01*
X140430852Y-127625687D01*
X140555309Y-127000000D01*
X140430852Y-126374313D01*
X140191307Y-126015808D01*
X140333841Y-125924090D01*
X140478831Y-125711890D01*
X140529840Y-125460000D01*
X140529840Y-123460000D01*
X140485562Y-123224683D01*
X140346490Y-123008559D01*
X140134290Y-122863569D01*
X139882400Y-122812560D01*
X137282400Y-122812560D01*
X137047083Y-122856838D01*
X136830959Y-122995910D01*
X136685969Y-123208110D01*
X136634960Y-123460000D01*
X136634960Y-125460000D01*
X136679238Y-125695317D01*
X136818310Y-125911441D01*
X136972729Y-126016951D01*
X136823693Y-126240000D01*
X133724643Y-126240000D01*
X133724779Y-126083829D01*
X133567542Y-125703285D01*
X133276646Y-125411881D01*
X132896377Y-125253980D01*
X132868846Y-125253956D01*
X137220161Y-120902641D01*
X137282946Y-121218285D01*
X137604853Y-121700054D01*
X138086622Y-122021961D01*
X138654907Y-122135000D01*
X138713093Y-122135000D01*
X139281378Y-122021961D01*
X139763147Y-121700054D01*
X140085054Y-121218285D01*
X140198093Y-120650000D01*
X140085054Y-120081715D01*
X139763147Y-119599946D01*
X139433974Y-119380000D01*
X139763147Y-119160054D01*
X140085054Y-118678285D01*
X140198093Y-118110000D01*
X140085054Y-117541715D01*
X139763147Y-117059946D01*
X139433974Y-116840000D01*
X139763147Y-116620054D01*
X140085054Y-116138285D01*
X140198093Y-115570000D01*
X140085054Y-115001715D01*
X139763147Y-114519946D01*
X139719223Y-114490597D01*
X139893698Y-114418327D01*
X140072327Y-114239699D01*
X140169000Y-114006310D01*
X140169000Y-113315750D01*
X140010250Y-113157000D01*
X138811000Y-113157000D01*
X138811000Y-113177000D01*
X138557000Y-113177000D01*
X138557000Y-113157000D01*
X137357750Y-113157000D01*
X137199000Y-113315750D01*
X137199000Y-114006310D01*
X137295673Y-114239699D01*
X137474302Y-114418327D01*
X137648777Y-114490597D01*
X137604853Y-114519946D01*
X137282946Y-115001715D01*
X137169907Y-115570000D01*
X137242790Y-115936408D01*
X136971598Y-116207600D01*
X136806851Y-116454162D01*
X136748999Y-116745001D01*
X136748999Y-119224199D01*
X132955591Y-123017607D01*
X132955591Y-122576400D01*
X133105411Y-122215592D01*
X133105770Y-121803844D01*
X132948533Y-121423300D01*
X132657637Y-121131896D01*
X132277368Y-120973995D01*
X131865620Y-120973636D01*
X131485076Y-121130873D01*
X131193672Y-121421769D01*
X131035771Y-121802038D01*
X131035412Y-122213786D01*
X131185591Y-122577248D01*
X131185591Y-123582832D01*
X130171000Y-124597423D01*
X130171000Y-118984580D01*
X130526448Y-118629131D01*
X130887515Y-118479942D01*
X131178919Y-118189046D01*
X131336820Y-117808777D01*
X131337179Y-117397029D01*
X131179942Y-117016485D01*
X130889046Y-116725081D01*
X130788663Y-116683399D01*
X131311800Y-116467243D01*
X131521663Y-116257745D01*
X133171861Y-116257745D01*
X133245995Y-116503864D01*
X133783223Y-116696965D01*
X134353454Y-116669778D01*
X134754005Y-116503864D01*
X134828139Y-116257745D01*
X134000000Y-115429605D01*
X133171861Y-116257745D01*
X131521663Y-116257745D01*
X131715824Y-116063923D01*
X131934750Y-115536691D01*
X131935189Y-115033223D01*
X132553035Y-115033223D01*
X132580222Y-115603454D01*
X132746136Y-116004005D01*
X132992255Y-116078139D01*
X133820395Y-115250000D01*
X134179605Y-115250000D01*
X135007745Y-116078139D01*
X135253864Y-116004005D01*
X135446965Y-115466777D01*
X135419778Y-114896546D01*
X135253864Y-114495995D01*
X135007745Y-114421861D01*
X134179605Y-115250000D01*
X133820395Y-115250000D01*
X132992255Y-114421861D01*
X132746136Y-114495995D01*
X132553035Y-115033223D01*
X131935189Y-115033223D01*
X131935248Y-114965813D01*
X131717243Y-114438200D01*
X131635000Y-114355813D01*
X131635000Y-114242255D01*
X133171861Y-114242255D01*
X134000000Y-115070395D01*
X134828139Y-114242255D01*
X134754005Y-113996136D01*
X134216777Y-113803035D01*
X133646546Y-113830222D01*
X133245995Y-113996136D01*
X133171861Y-114242255D01*
X131635000Y-114242255D01*
X131635000Y-112285750D01*
X132565000Y-112285750D01*
X132565000Y-113126309D01*
X132661673Y-113359698D01*
X132840301Y-113538327D01*
X133073690Y-113635000D01*
X133714250Y-113635000D01*
X133873000Y-113476250D01*
X133873000Y-112127000D01*
X134127000Y-112127000D01*
X134127000Y-113476250D01*
X134285750Y-113635000D01*
X134926310Y-113635000D01*
X135159699Y-113538327D01*
X135338327Y-113359698D01*
X135435000Y-113126309D01*
X135435000Y-112285750D01*
X135276250Y-112127000D01*
X134127000Y-112127000D01*
X133873000Y-112127000D01*
X132723750Y-112127000D01*
X132565000Y-112285750D01*
X131635000Y-112285750D01*
X131635000Y-112053690D01*
X137199000Y-112053690D01*
X137199000Y-112744250D01*
X137357750Y-112903000D01*
X138557000Y-112903000D01*
X138557000Y-111703750D01*
X138811000Y-111703750D01*
X138811000Y-112903000D01*
X140010250Y-112903000D01*
X140169000Y-112744250D01*
X140169000Y-112053690D01*
X140072327Y-111820301D01*
X139893698Y-111641673D01*
X139660309Y-111545000D01*
X138969750Y-111545000D01*
X138811000Y-111703750D01*
X138557000Y-111703750D01*
X138398250Y-111545000D01*
X137707691Y-111545000D01*
X137474302Y-111641673D01*
X137295673Y-111820301D01*
X137199000Y-112053690D01*
X131635000Y-112053690D01*
X131635000Y-111274600D01*
X132060400Y-111274600D01*
X132494746Y-111188203D01*
X132565000Y-111141261D01*
X132565000Y-111714250D01*
X132723750Y-111873000D01*
X133873000Y-111873000D01*
X133873000Y-110523750D01*
X134127000Y-110523750D01*
X134127000Y-111873000D01*
X135276250Y-111873000D01*
X135435000Y-111714250D01*
X135435000Y-110873691D01*
X135338327Y-110640302D01*
X135159699Y-110461673D01*
X134926310Y-110365000D01*
X134285750Y-110365000D01*
X134127000Y-110523750D01*
X133873000Y-110523750D01*
X133714250Y-110365000D01*
X133440132Y-110365000D01*
X134157692Y-109647440D01*
X134800000Y-109647440D01*
X135035317Y-109603162D01*
X135251441Y-109464090D01*
X135396431Y-109251890D01*
X135440200Y-109035750D01*
X137265000Y-109035750D01*
X137265000Y-109726310D01*
X137361673Y-109959699D01*
X137540302Y-110138327D01*
X137773691Y-110235000D01*
X138464250Y-110235000D01*
X138623000Y-110076250D01*
X138623000Y-108877000D01*
X138877000Y-108877000D01*
X138877000Y-110076250D01*
X139035750Y-110235000D01*
X139726309Y-110235000D01*
X139959698Y-110138327D01*
X140138327Y-109959699D01*
X140235000Y-109726310D01*
X140235000Y-109035750D01*
X140076250Y-108877000D01*
X138877000Y-108877000D01*
X138623000Y-108877000D01*
X137423750Y-108877000D01*
X137265000Y-109035750D01*
X135440200Y-109035750D01*
X135447440Y-109000000D01*
X135447440Y-107000000D01*
X135403162Y-106764683D01*
X135264090Y-106548559D01*
X135051890Y-106403569D01*
X134885000Y-106369773D01*
X134885000Y-106219473D01*
X135014698Y-106132811D01*
X135325767Y-105667264D01*
X135435000Y-105118113D01*
X135435000Y-105061887D01*
X135325767Y-104512736D01*
X135014698Y-104047189D01*
X134876729Y-103955001D01*
X137292597Y-103955001D01*
X137348946Y-104238285D01*
X137670853Y-104720054D01*
X138000026Y-104940000D01*
X137670853Y-105159946D01*
X137348946Y-105641715D01*
X137235907Y-106210000D01*
X137348946Y-106778285D01*
X137670853Y-107260054D01*
X137714777Y-107289403D01*
X137540302Y-107361673D01*
X137361673Y-107540301D01*
X137265000Y-107773690D01*
X137265000Y-108464250D01*
X137423750Y-108623000D01*
X138623000Y-108623000D01*
X138623000Y-108603000D01*
X138877000Y-108603000D01*
X138877000Y-108623000D01*
X140076250Y-108623000D01*
X140235000Y-108464250D01*
X140235000Y-107773690D01*
X140138327Y-107540301D01*
X139959698Y-107361673D01*
X139785223Y-107289403D01*
X139829147Y-107260054D01*
X140151054Y-106778285D01*
X140264093Y-106210000D01*
X140151054Y-105641715D01*
X139829147Y-105159946D01*
X139499974Y-104940000D01*
X139829147Y-104720054D01*
X140151054Y-104238285D01*
X140264093Y-103670000D01*
X140151054Y-103101715D01*
X139985000Y-102853197D01*
X139985000Y-102467919D01*
X139890991Y-101995305D01*
X139623277Y-101594642D01*
X131907357Y-93878722D01*
X131506694Y-93611008D01*
X131034080Y-93516999D01*
X77928497Y-93516999D01*
X77973531Y-93451090D01*
X78024540Y-93199200D01*
X78024540Y-91875022D01*
X136304584Y-91875022D01*
X136525353Y-92245743D01*
X137497012Y-92639119D01*
X138545247Y-92630713D01*
X139474647Y-92245743D01*
X139695416Y-91875022D01*
X138000000Y-90179605D01*
X136304584Y-91875022D01*
X78024540Y-91875022D01*
X78024540Y-91199200D01*
X77980262Y-90963883D01*
X77841190Y-90747759D01*
X77628990Y-90602769D01*
X77377100Y-90551760D01*
X77031904Y-90551760D01*
X76968100Y-90230997D01*
X76711281Y-89846640D01*
X77377100Y-89846640D01*
X77612417Y-89802362D01*
X77828541Y-89663290D01*
X77942153Y-89497012D01*
X135360881Y-89497012D01*
X135369287Y-90545247D01*
X135754257Y-91474647D01*
X136124978Y-91695416D01*
X137820395Y-90000000D01*
X138179605Y-90000000D01*
X139875022Y-91695416D01*
X140245743Y-91474647D01*
X140639119Y-90502988D01*
X140630713Y-89454753D01*
X140245743Y-88525353D01*
X139875022Y-88304584D01*
X138179605Y-90000000D01*
X137820395Y-90000000D01*
X136124978Y-88304584D01*
X135754257Y-88525353D01*
X135360881Y-89497012D01*
X77942153Y-89497012D01*
X77973531Y-89451090D01*
X78024540Y-89199200D01*
X78024540Y-89014000D01*
X78913561Y-88124978D01*
X136304584Y-88124978D01*
X138000000Y-89820395D01*
X139695416Y-88124978D01*
X139474647Y-87754257D01*
X138502988Y-87360881D01*
X137454753Y-87369287D01*
X136525353Y-87754257D01*
X136304584Y-88124978D01*
X78913561Y-88124978D01*
X79286517Y-87752022D01*
X79286520Y-87752020D01*
X79640943Y-87221587D01*
X79664816Y-87101571D01*
X79765401Y-86595900D01*
X79765400Y-86595895D01*
X79765400Y-86055200D01*
X79696735Y-85710000D01*
X142290000Y-85710000D01*
X142290000Y-149290000D01*
X142290000Y-149290000D01*
G37*
X142290000Y-149290000D02*
X110842043Y-149290000D01*
X111116556Y-149106576D01*
X111971692Y-148251440D01*
X113014000Y-148251440D01*
X113249317Y-148207162D01*
X113465441Y-148068090D01*
X113570951Y-147913671D01*
X113928313Y-148152452D01*
X114554000Y-148276909D01*
X115179687Y-148152452D01*
X115710120Y-147798029D01*
X115837219Y-147607812D01*
X116027683Y-147849922D01*
X116585645Y-148163144D01*
X116713566Y-148194124D01*
X116967000Y-148074777D01*
X116967000Y-146431000D01*
X116947000Y-146431000D01*
X116947000Y-146177000D01*
X116967000Y-146177000D01*
X116967000Y-144533223D01*
X117221000Y-144533223D01*
X117221000Y-146177000D01*
X117241000Y-146177000D01*
X117241000Y-146431000D01*
X117221000Y-146431000D01*
X117221000Y-148074777D01*
X117474434Y-148194124D01*
X117602355Y-148163144D01*
X118160317Y-147849922D01*
X118350781Y-147607812D01*
X118477880Y-147798029D01*
X119008313Y-148152452D01*
X119634000Y-148276909D01*
X120259687Y-148152452D01*
X120790120Y-147798029D01*
X121144543Y-147267596D01*
X121269000Y-146641909D01*
X121269000Y-145966091D01*
X121144543Y-145340404D01*
X120919766Y-145004000D01*
X122050560Y-145004000D01*
X122050560Y-147604000D01*
X122094838Y-147839317D01*
X122233910Y-148055441D01*
X122446110Y-148200431D01*
X122698000Y-148251440D01*
X124698000Y-148251440D01*
X124933317Y-148207162D01*
X125149441Y-148068090D01*
X125254951Y-147913671D01*
X125612313Y-148152452D01*
X126238000Y-148276909D01*
X126863687Y-148152452D01*
X127394120Y-147798029D01*
X127748543Y-147267596D01*
X127873000Y-146641909D01*
X127873000Y-145966091D01*
X127748543Y-145340404D01*
X127394120Y-144809971D01*
X126863687Y-144455548D01*
X126238000Y-144331091D01*
X125612313Y-144455548D01*
X125253808Y-144695093D01*
X125162090Y-144552559D01*
X124949890Y-144407569D01*
X124698000Y-144356560D01*
X122698000Y-144356560D01*
X122462683Y-144400838D01*
X122246559Y-144539910D01*
X122101569Y-144752110D01*
X122050560Y-145004000D01*
X120919766Y-145004000D01*
X120790120Y-144809971D01*
X120259687Y-144455548D01*
X119634000Y-144331091D01*
X119008313Y-144455548D01*
X118477880Y-144809971D01*
X118350781Y-145000188D01*
X118160317Y-144758078D01*
X117602355Y-144444856D01*
X117474434Y-144413876D01*
X117221000Y-144533223D01*
X116967000Y-144533223D01*
X116713566Y-144413876D01*
X116585645Y-144444856D01*
X116027683Y-144758078D01*
X115837219Y-145000188D01*
X115710120Y-144809971D01*
X115179687Y-144455548D01*
X114554000Y-144331091D01*
X113928313Y-144455548D01*
X113569808Y-144695093D01*
X113478090Y-144552559D01*
X113265890Y-144407569D01*
X113014000Y-144356560D01*
X111014000Y-144356560D01*
X110778683Y-144400838D01*
X110562559Y-144539910D01*
X110417569Y-144752110D01*
X110366560Y-145004000D01*
X110366560Y-146646308D01*
X109843858Y-147169010D01*
X109480153Y-147169010D01*
X109585000Y-146641909D01*
X109585000Y-145966091D01*
X109460543Y-145340404D01*
X109106120Y-144809971D01*
X108835000Y-144628815D01*
X108835000Y-140715750D01*
X111087000Y-140715750D01*
X111087000Y-141556309D01*
X111183673Y-141789698D01*
X111362301Y-141968327D01*
X111595690Y-142065000D01*
X112236250Y-142065000D01*
X112395000Y-141906250D01*
X112395000Y-140557000D01*
X112649000Y-140557000D01*
X112649000Y-141906250D01*
X112807750Y-142065000D01*
X113448310Y-142065000D01*
X113681699Y-141968327D01*
X113860327Y-141789698D01*
X113910163Y-141669381D01*
X116008021Y-141669381D01*
X116165258Y-142049925D01*
X116456154Y-142341329D01*
X116836423Y-142499230D01*
X117248171Y-142499589D01*
X117611633Y-142349410D01*
X121657215Y-142349410D01*
X122018023Y-142499230D01*
X122429771Y-142499589D01*
X122810315Y-142342352D01*
X123101719Y-142051456D01*
X123259620Y-141671187D01*
X123259979Y-141259439D01*
X123102742Y-140878895D01*
X122811846Y-140587491D01*
X122431577Y-140429590D01*
X122019829Y-140429231D01*
X121656367Y-140579410D01*
X117610785Y-140579410D01*
X117249977Y-140429590D01*
X116838229Y-140429231D01*
X116457685Y-140586468D01*
X116166281Y-140877364D01*
X116008380Y-141257633D01*
X116008021Y-141669381D01*
X113910163Y-141669381D01*
X113957000Y-141556309D01*
X113957000Y-140715750D01*
X113798250Y-140557000D01*
X112649000Y-140557000D01*
X112395000Y-140557000D01*
X111245750Y-140557000D01*
X111087000Y-140715750D01*
X108835000Y-140715750D01*
X108835000Y-139386574D01*
X108944058Y-139650515D01*
X109234954Y-139941919D01*
X109615223Y-140099820D01*
X110026971Y-140100179D01*
X110390433Y-139950000D01*
X111087000Y-139950000D01*
X111087000Y-140144250D01*
X111245750Y-140303000D01*
X112395000Y-140303000D01*
X112395000Y-140283000D01*
X112649000Y-140283000D01*
X112649000Y-140303000D01*
X113798250Y-140303000D01*
X113957000Y-140144250D01*
X113957000Y-139701109D01*
X124807529Y-139701109D01*
X127232208Y-142125787D01*
X127232210Y-142125790D01*
X127519325Y-142317633D01*
X127575516Y-142328810D01*
X127711669Y-142355893D01*
X127754838Y-142585317D01*
X127893910Y-142801441D01*
X128106110Y-142946431D01*
X128358000Y-142997440D01*
X128813000Y-142997440D01*
X128813000Y-144400778D01*
X128812683Y-144400838D01*
X128596559Y-144539910D01*
X128451569Y-144752110D01*
X128400560Y-145004000D01*
X128400560Y-147604000D01*
X128444838Y-147839317D01*
X128583910Y-148055441D01*
X128796110Y-148200431D01*
X129048000Y-148251440D01*
X131048000Y-148251440D01*
X131283317Y-148207162D01*
X131499441Y-148068090D01*
X131604951Y-147913671D01*
X131962313Y-148152452D01*
X132588000Y-148276909D01*
X133213687Y-148152452D01*
X133744120Y-147798029D01*
X134098543Y-147267596D01*
X134176630Y-146875022D01*
X136304584Y-146875022D01*
X136525353Y-147245743D01*
X137497012Y-147639119D01*
X138545247Y-147630713D01*
X139474647Y-147245743D01*
X139695416Y-146875022D01*
X138000000Y-145179605D01*
X136304584Y-146875022D01*
X134176630Y-146875022D01*
X134223000Y-146641909D01*
X134223000Y-145966091D01*
X134098543Y-145340404D01*
X133823000Y-144928024D01*
X133823000Y-144497012D01*
X135360881Y-144497012D01*
X135369287Y-145545247D01*
X135754257Y-146474647D01*
X136124978Y-146695416D01*
X137820395Y-145000000D01*
X138179605Y-145000000D01*
X139875022Y-146695416D01*
X140245743Y-146474647D01*
X140639119Y-145502988D01*
X140630713Y-144454753D01*
X140245743Y-143525353D01*
X139875022Y-143304584D01*
X138179605Y-145000000D01*
X137820395Y-145000000D01*
X136124978Y-143304584D01*
X135754257Y-143525353D01*
X135360881Y-144497012D01*
X133823000Y-144497012D01*
X133823000Y-143124978D01*
X136304584Y-143124978D01*
X138000000Y-144820395D01*
X139695416Y-143124978D01*
X139474647Y-142754257D01*
X138502988Y-142360881D01*
X137454753Y-142369287D01*
X136525353Y-142754257D01*
X136304584Y-143124978D01*
X133823000Y-143124978D01*
X133823000Y-142997440D01*
X134358000Y-142997440D01*
X134593317Y-142953162D01*
X134809441Y-142814090D01*
X134954431Y-142601890D01*
X135005440Y-142350000D01*
X135005440Y-140650000D01*
X134961162Y-140414683D01*
X134822090Y-140198559D01*
X134609890Y-140053569D01*
X134358000Y-140002560D01*
X134213672Y-140002560D01*
X134175633Y-139811325D01*
X133983790Y-139524210D01*
X133983787Y-139524208D01*
X133143580Y-138684000D01*
X136457091Y-138684000D01*
X136581548Y-139309687D01*
X136935971Y-139840120D01*
X137466404Y-140194543D01*
X138092091Y-140319000D01*
X138767909Y-140319000D01*
X139393596Y-140194543D01*
X139924029Y-139840120D01*
X140278452Y-139309687D01*
X140402909Y-138684000D01*
X140278452Y-138058313D01*
X140038907Y-137699808D01*
X140181441Y-137608090D01*
X140326431Y-137395890D01*
X140377440Y-137144000D01*
X140377440Y-135144000D01*
X140333162Y-134908683D01*
X140194090Y-134692559D01*
X139981890Y-134547569D01*
X139730000Y-134496560D01*
X137130000Y-134496560D01*
X136894683Y-134540838D01*
X136678559Y-134679910D01*
X136533569Y-134892110D01*
X136482560Y-135144000D01*
X136482560Y-137144000D01*
X136526838Y-137379317D01*
X136665910Y-137595441D01*
X136820329Y-137700951D01*
X136581548Y-138058313D01*
X136457091Y-138684000D01*
X133143580Y-138684000D01*
X132113778Y-137654198D01*
X132025841Y-137595441D01*
X131826663Y-137462355D01*
X131770472Y-137451178D01*
X131487988Y-137394987D01*
X131487983Y-137394988D01*
X130468843Y-137394988D01*
X130324385Y-137298465D01*
X130268194Y-137287288D01*
X129985710Y-137231097D01*
X129985705Y-137231098D01*
X113969440Y-137231098D01*
X113969440Y-137151365D01*
X114169461Y-137017716D01*
X119107177Y-132080000D01*
X136609491Y-132080000D01*
X136733948Y-132705687D01*
X137088371Y-133236120D01*
X137618804Y-133590543D01*
X138244491Y-133715000D01*
X138920309Y-133715000D01*
X139545996Y-133590543D01*
X140076429Y-133236120D01*
X140430852Y-132705687D01*
X140555309Y-132080000D01*
X140430852Y-131454313D01*
X140076429Y-130923880D01*
X139886212Y-130796781D01*
X140128322Y-130606317D01*
X140441544Y-130048355D01*
X140472524Y-129920434D01*
X140353177Y-129667000D01*
X138709400Y-129667000D01*
X138709400Y-129687000D01*
X138455400Y-129687000D01*
X138455400Y-129667000D01*
X136811623Y-129667000D01*
X136692276Y-129920434D01*
X136723256Y-130048355D01*
X137036478Y-130606317D01*
X137278588Y-130796781D01*
X137088371Y-130923880D01*
X136733948Y-131454313D01*
X136609491Y-132080000D01*
X119107177Y-132080000D01*
X120040421Y-131146756D01*
X120148710Y-131315041D01*
X120360910Y-131460031D01*
X120612800Y-131511040D01*
X122312800Y-131511040D01*
X122548117Y-131466762D01*
X122682052Y-131380577D01*
X122703401Y-131401927D01*
X122936790Y-131498600D01*
X123577350Y-131498600D01*
X123736100Y-131339850D01*
X123736100Y-129990600D01*
X123990100Y-129990600D01*
X123990100Y-131339850D01*
X124148850Y-131498600D01*
X124789410Y-131498600D01*
X125022799Y-131401927D01*
X125201427Y-131223298D01*
X125298100Y-130989909D01*
X125298100Y-130149350D01*
X125139350Y-129990600D01*
X123990100Y-129990600D01*
X123736100Y-129990600D01*
X123716100Y-129990600D01*
X123716100Y-129736600D01*
X123736100Y-129736600D01*
X123736100Y-129716600D01*
X123990100Y-129716600D01*
X123990100Y-129736600D01*
X125139350Y-129736600D01*
X125298100Y-129577850D01*
X125298100Y-129066999D01*
X128741001Y-129066999D01*
X129031840Y-129009147D01*
X129278402Y-128844400D01*
X131654443Y-126468359D01*
X131654421Y-126493771D01*
X131811658Y-126874315D01*
X132102554Y-127165719D01*
X132482823Y-127323620D01*
X132649764Y-127323766D01*
X132863399Y-127537401D01*
X133109961Y-127702148D01*
X133400800Y-127760000D01*
X136823693Y-127760000D01*
X137088371Y-128156120D01*
X137278588Y-128283219D01*
X137036478Y-128473683D01*
X136723256Y-129031645D01*
X136692276Y-129159566D01*
X136811623Y-129413000D01*
X138455400Y-129413000D01*
X138455400Y-129393000D01*
X138709400Y-129393000D01*
X138709400Y-129413000D01*
X140353177Y-129413000D01*
X140472524Y-129159566D01*
X140441544Y-129031645D01*
X140128322Y-128473683D01*
X139886212Y-128283219D01*
X140076429Y-128156120D01*
X140430852Y-127625687D01*
X140555309Y-127000000D01*
X140430852Y-126374313D01*
X140191307Y-126015808D01*
X140333841Y-125924090D01*
X140478831Y-125711890D01*
X140529840Y-125460000D01*
X140529840Y-123460000D01*
X140485562Y-123224683D01*
X140346490Y-123008559D01*
X140134290Y-122863569D01*
X139882400Y-122812560D01*
X137282400Y-122812560D01*
X137047083Y-122856838D01*
X136830959Y-122995910D01*
X136685969Y-123208110D01*
X136634960Y-123460000D01*
X136634960Y-125460000D01*
X136679238Y-125695317D01*
X136818310Y-125911441D01*
X136972729Y-126016951D01*
X136823693Y-126240000D01*
X133724643Y-126240000D01*
X133724779Y-126083829D01*
X133567542Y-125703285D01*
X133276646Y-125411881D01*
X132896377Y-125253980D01*
X132868846Y-125253956D01*
X137220161Y-120902641D01*
X137282946Y-121218285D01*
X137604853Y-121700054D01*
X138086622Y-122021961D01*
X138654907Y-122135000D01*
X138713093Y-122135000D01*
X139281378Y-122021961D01*
X139763147Y-121700054D01*
X140085054Y-121218285D01*
X140198093Y-120650000D01*
X140085054Y-120081715D01*
X139763147Y-119599946D01*
X139433974Y-119380000D01*
X139763147Y-119160054D01*
X140085054Y-118678285D01*
X140198093Y-118110000D01*
X140085054Y-117541715D01*
X139763147Y-117059946D01*
X139433974Y-116840000D01*
X139763147Y-116620054D01*
X140085054Y-116138285D01*
X140198093Y-115570000D01*
X140085054Y-115001715D01*
X139763147Y-114519946D01*
X139719223Y-114490597D01*
X139893698Y-114418327D01*
X140072327Y-114239699D01*
X140169000Y-114006310D01*
X140169000Y-113315750D01*
X140010250Y-113157000D01*
X138811000Y-113157000D01*
X138811000Y-113177000D01*
X138557000Y-113177000D01*
X138557000Y-113157000D01*
X137357750Y-113157000D01*
X137199000Y-113315750D01*
X137199000Y-114006310D01*
X137295673Y-114239699D01*
X137474302Y-114418327D01*
X137648777Y-114490597D01*
X137604853Y-114519946D01*
X137282946Y-115001715D01*
X137169907Y-115570000D01*
X137242790Y-115936408D01*
X136971598Y-116207600D01*
X136806851Y-116454162D01*
X136748999Y-116745001D01*
X136748999Y-119224199D01*
X132955591Y-123017607D01*
X132955591Y-122576400D01*
X133105411Y-122215592D01*
X133105770Y-121803844D01*
X132948533Y-121423300D01*
X132657637Y-121131896D01*
X132277368Y-120973995D01*
X131865620Y-120973636D01*
X131485076Y-121130873D01*
X131193672Y-121421769D01*
X131035771Y-121802038D01*
X131035412Y-122213786D01*
X131185591Y-122577248D01*
X131185591Y-123582832D01*
X130171000Y-124597423D01*
X130171000Y-118984580D01*
X130526448Y-118629131D01*
X130887515Y-118479942D01*
X131178919Y-118189046D01*
X131336820Y-117808777D01*
X131337179Y-117397029D01*
X131179942Y-117016485D01*
X130889046Y-116725081D01*
X130788663Y-116683399D01*
X131311800Y-116467243D01*
X131521663Y-116257745D01*
X133171861Y-116257745D01*
X133245995Y-116503864D01*
X133783223Y-116696965D01*
X134353454Y-116669778D01*
X134754005Y-116503864D01*
X134828139Y-116257745D01*
X134000000Y-115429605D01*
X133171861Y-116257745D01*
X131521663Y-116257745D01*
X131715824Y-116063923D01*
X131934750Y-115536691D01*
X131935189Y-115033223D01*
X132553035Y-115033223D01*
X132580222Y-115603454D01*
X132746136Y-116004005D01*
X132992255Y-116078139D01*
X133820395Y-115250000D01*
X134179605Y-115250000D01*
X135007745Y-116078139D01*
X135253864Y-116004005D01*
X135446965Y-115466777D01*
X135419778Y-114896546D01*
X135253864Y-114495995D01*
X135007745Y-114421861D01*
X134179605Y-115250000D01*
X133820395Y-115250000D01*
X132992255Y-114421861D01*
X132746136Y-114495995D01*
X132553035Y-115033223D01*
X131935189Y-115033223D01*
X131935248Y-114965813D01*
X131717243Y-114438200D01*
X131635000Y-114355813D01*
X131635000Y-114242255D01*
X133171861Y-114242255D01*
X134000000Y-115070395D01*
X134828139Y-114242255D01*
X134754005Y-113996136D01*
X134216777Y-113803035D01*
X133646546Y-113830222D01*
X133245995Y-113996136D01*
X133171861Y-114242255D01*
X131635000Y-114242255D01*
X131635000Y-112285750D01*
X132565000Y-112285750D01*
X132565000Y-113126309D01*
X132661673Y-113359698D01*
X132840301Y-113538327D01*
X133073690Y-113635000D01*
X133714250Y-113635000D01*
X133873000Y-113476250D01*
X133873000Y-112127000D01*
X134127000Y-112127000D01*
X134127000Y-113476250D01*
X134285750Y-113635000D01*
X134926310Y-113635000D01*
X135159699Y-113538327D01*
X135338327Y-113359698D01*
X135435000Y-113126309D01*
X135435000Y-112285750D01*
X135276250Y-112127000D01*
X134127000Y-112127000D01*
X133873000Y-112127000D01*
X132723750Y-112127000D01*
X132565000Y-112285750D01*
X131635000Y-112285750D01*
X131635000Y-112053690D01*
X137199000Y-112053690D01*
X137199000Y-112744250D01*
X137357750Y-112903000D01*
X138557000Y-112903000D01*
X138557000Y-111703750D01*
X138811000Y-111703750D01*
X138811000Y-112903000D01*
X140010250Y-112903000D01*
X140169000Y-112744250D01*
X140169000Y-112053690D01*
X140072327Y-111820301D01*
X139893698Y-111641673D01*
X139660309Y-111545000D01*
X138969750Y-111545000D01*
X138811000Y-111703750D01*
X138557000Y-111703750D01*
X138398250Y-111545000D01*
X137707691Y-111545000D01*
X137474302Y-111641673D01*
X137295673Y-111820301D01*
X137199000Y-112053690D01*
X131635000Y-112053690D01*
X131635000Y-111274600D01*
X132060400Y-111274600D01*
X132494746Y-111188203D01*
X132565000Y-111141261D01*
X132565000Y-111714250D01*
X132723750Y-111873000D01*
X133873000Y-111873000D01*
X133873000Y-110523750D01*
X134127000Y-110523750D01*
X134127000Y-111873000D01*
X135276250Y-111873000D01*
X135435000Y-111714250D01*
X135435000Y-110873691D01*
X135338327Y-110640302D01*
X135159699Y-110461673D01*
X134926310Y-110365000D01*
X134285750Y-110365000D01*
X134127000Y-110523750D01*
X133873000Y-110523750D01*
X133714250Y-110365000D01*
X133440132Y-110365000D01*
X134157692Y-109647440D01*
X134800000Y-109647440D01*
X135035317Y-109603162D01*
X135251441Y-109464090D01*
X135396431Y-109251890D01*
X135440200Y-109035750D01*
X137265000Y-109035750D01*
X137265000Y-109726310D01*
X137361673Y-109959699D01*
X137540302Y-110138327D01*
X137773691Y-110235000D01*
X138464250Y-110235000D01*
X138623000Y-110076250D01*
X138623000Y-108877000D01*
X138877000Y-108877000D01*
X138877000Y-110076250D01*
X139035750Y-110235000D01*
X139726309Y-110235000D01*
X139959698Y-110138327D01*
X140138327Y-109959699D01*
X140235000Y-109726310D01*
X140235000Y-109035750D01*
X140076250Y-108877000D01*
X138877000Y-108877000D01*
X138623000Y-108877000D01*
X137423750Y-108877000D01*
X137265000Y-109035750D01*
X135440200Y-109035750D01*
X135447440Y-109000000D01*
X135447440Y-107000000D01*
X135403162Y-106764683D01*
X135264090Y-106548559D01*
X135051890Y-106403569D01*
X134885000Y-106369773D01*
X134885000Y-106219473D01*
X135014698Y-106132811D01*
X135325767Y-105667264D01*
X135435000Y-105118113D01*
X135435000Y-105061887D01*
X135325767Y-104512736D01*
X135014698Y-104047189D01*
X134876729Y-103955001D01*
X137292597Y-103955001D01*
X137348946Y-104238285D01*
X137670853Y-104720054D01*
X138000026Y-104940000D01*
X137670853Y-105159946D01*
X137348946Y-105641715D01*
X137235907Y-106210000D01*
X137348946Y-106778285D01*
X137670853Y-107260054D01*
X137714777Y-107289403D01*
X137540302Y-107361673D01*
X137361673Y-107540301D01*
X137265000Y-107773690D01*
X137265000Y-108464250D01*
X137423750Y-108623000D01*
X138623000Y-108623000D01*
X138623000Y-108603000D01*
X138877000Y-108603000D01*
X138877000Y-108623000D01*
X140076250Y-108623000D01*
X140235000Y-108464250D01*
X140235000Y-107773690D01*
X140138327Y-107540301D01*
X139959698Y-107361673D01*
X139785223Y-107289403D01*
X139829147Y-107260054D01*
X140151054Y-106778285D01*
X140264093Y-106210000D01*
X140151054Y-105641715D01*
X139829147Y-105159946D01*
X139499974Y-104940000D01*
X139829147Y-104720054D01*
X140151054Y-104238285D01*
X140264093Y-103670000D01*
X140151054Y-103101715D01*
X139985000Y-102853197D01*
X139985000Y-102467919D01*
X139890991Y-101995305D01*
X139623277Y-101594642D01*
X131907357Y-93878722D01*
X131506694Y-93611008D01*
X131034080Y-93516999D01*
X77928497Y-93516999D01*
X77973531Y-93451090D01*
X78024540Y-93199200D01*
X78024540Y-91875022D01*
X136304584Y-91875022D01*
X136525353Y-92245743D01*
X137497012Y-92639119D01*
X138545247Y-92630713D01*
X139474647Y-92245743D01*
X139695416Y-91875022D01*
X138000000Y-90179605D01*
X136304584Y-91875022D01*
X78024540Y-91875022D01*
X78024540Y-91199200D01*
X77980262Y-90963883D01*
X77841190Y-90747759D01*
X77628990Y-90602769D01*
X77377100Y-90551760D01*
X77031904Y-90551760D01*
X76968100Y-90230997D01*
X76711281Y-89846640D01*
X77377100Y-89846640D01*
X77612417Y-89802362D01*
X77828541Y-89663290D01*
X77942153Y-89497012D01*
X135360881Y-89497012D01*
X135369287Y-90545247D01*
X135754257Y-91474647D01*
X136124978Y-91695416D01*
X137820395Y-90000000D01*
X138179605Y-90000000D01*
X139875022Y-91695416D01*
X140245743Y-91474647D01*
X140639119Y-90502988D01*
X140630713Y-89454753D01*
X140245743Y-88525353D01*
X139875022Y-88304584D01*
X138179605Y-90000000D01*
X137820395Y-90000000D01*
X136124978Y-88304584D01*
X135754257Y-88525353D01*
X135360881Y-89497012D01*
X77942153Y-89497012D01*
X77973531Y-89451090D01*
X78024540Y-89199200D01*
X78024540Y-89014000D01*
X78913561Y-88124978D01*
X136304584Y-88124978D01*
X138000000Y-89820395D01*
X139695416Y-88124978D01*
X139474647Y-87754257D01*
X138502988Y-87360881D01*
X137454753Y-87369287D01*
X136525353Y-87754257D01*
X136304584Y-88124978D01*
X78913561Y-88124978D01*
X79286517Y-87752022D01*
X79286520Y-87752020D01*
X79640943Y-87221587D01*
X79664816Y-87101571D01*
X79765401Y-86595900D01*
X79765400Y-86595895D01*
X79765400Y-86055200D01*
X79696735Y-85710000D01*
X142290000Y-85710000D01*
X142290000Y-149290000D01*
G36*
X77702600Y-118110000D02*
X77769967Y-118448675D01*
X77961810Y-118735790D01*
X78248925Y-118927633D01*
X78587600Y-118995000D01*
X83237422Y-118995000D01*
X84781422Y-120539000D01*
X80010000Y-120539000D01*
X79384313Y-120663457D01*
X79289872Y-120726560D01*
X79210000Y-120726560D01*
X78974683Y-120770838D01*
X78758559Y-120909910D01*
X78613569Y-121122110D01*
X78562560Y-121374000D01*
X78562560Y-121453872D01*
X78499457Y-121548313D01*
X78375000Y-122174000D01*
X78499457Y-122799687D01*
X78542296Y-122863800D01*
X77631185Y-122863800D01*
X77270377Y-122713980D01*
X76858629Y-122713621D01*
X76478085Y-122870858D01*
X76186681Y-123161754D01*
X76028780Y-123542023D01*
X76028421Y-123953771D01*
X76185658Y-124334315D01*
X76476554Y-124625719D01*
X76856823Y-124783620D01*
X77268571Y-124783979D01*
X77632033Y-124633800D01*
X79144342Y-124633800D01*
X78853880Y-124827880D01*
X78499457Y-125358313D01*
X78375000Y-125984000D01*
X78499457Y-126609687D01*
X78853880Y-127140120D01*
X79384313Y-127494543D01*
X80010000Y-127619000D01*
X82630199Y-127619000D01*
X82630199Y-144959610D01*
X81195760Y-144959610D01*
X81258336Y-144865958D01*
X81401823Y-144144600D01*
X81258336Y-143423242D01*
X80849719Y-142811704D01*
X80350200Y-142477936D01*
X80350200Y-140894605D01*
X80350201Y-140894600D01*
X80225743Y-140268912D01*
X80007253Y-139941919D01*
X79871320Y-139738480D01*
X79871317Y-139738478D01*
X75478840Y-135346000D01*
X77083611Y-135346000D01*
X77243019Y-135452513D01*
X77964377Y-135596000D01*
X79567623Y-135596000D01*
X80288981Y-135452513D01*
X80900519Y-135043896D01*
X81309136Y-134432358D01*
X81452623Y-133711000D01*
X81309136Y-132989642D01*
X80900519Y-132378104D01*
X80288981Y-131969487D01*
X79567623Y-131826000D01*
X77964377Y-131826000D01*
X77243019Y-131969487D01*
X77083611Y-132076000D01*
X75443239Y-132076000D01*
X70304382Y-126937142D01*
X70609854Y-126922578D01*
X71010405Y-126756664D01*
X71084539Y-126510545D01*
X70256400Y-125682405D01*
X70242258Y-125696548D01*
X70062653Y-125516943D01*
X70076795Y-125502800D01*
X70436005Y-125502800D01*
X71264145Y-126330939D01*
X71510264Y-126256805D01*
X71703365Y-125719577D01*
X71676178Y-125149346D01*
X71510264Y-124748795D01*
X71264145Y-124674661D01*
X70436005Y-125502800D01*
X70076795Y-125502800D01*
X70062653Y-125488658D01*
X70242258Y-125309052D01*
X70256400Y-125323195D01*
X71084539Y-124495055D01*
X71010405Y-124248936D01*
X70473177Y-124055835D01*
X69902946Y-124083022D01*
X69502395Y-124248936D01*
X69428261Y-124495053D01*
X69313386Y-124380178D01*
X69304635Y-124388929D01*
X69294530Y-124373806D01*
X69294527Y-124373804D01*
X66993323Y-122072599D01*
X67423681Y-122072599D01*
X67423686Y-122072600D01*
X67423691Y-122072599D01*
X68013959Y-122072599D01*
X68823979Y-122882618D01*
X68853238Y-123038117D01*
X68992310Y-123254241D01*
X69204510Y-123399231D01*
X69456400Y-123450240D01*
X69536273Y-123450240D01*
X69630712Y-123513342D01*
X70256400Y-123637800D01*
X70882087Y-123513342D01*
X70976526Y-123450240D01*
X71056400Y-123450240D01*
X71291717Y-123405962D01*
X71507841Y-123266890D01*
X71652831Y-123054690D01*
X71703840Y-122802800D01*
X71703840Y-122722926D01*
X71766942Y-122628487D01*
X71891400Y-122002800D01*
X71766942Y-121377112D01*
X71703840Y-121282673D01*
X71703840Y-121202800D01*
X71659562Y-120967483D01*
X71520490Y-120751359D01*
X71308290Y-120606369D01*
X71137653Y-120571814D01*
X70369682Y-119803842D01*
X72106128Y-118067396D01*
X72106131Y-118067394D01*
X72224803Y-117889788D01*
X72264788Y-117981048D01*
X72865642Y-118558047D01*
X73556767Y-118844313D01*
X73888600Y-118731365D01*
X73888600Y-116886200D01*
X74142600Y-116886200D01*
X74142600Y-118731365D01*
X74474433Y-118844313D01*
X75165558Y-118558047D01*
X75766412Y-117981048D01*
X76100720Y-117218034D01*
X75988076Y-116886200D01*
X74142600Y-116886200D01*
X73888600Y-116886200D01*
X73868600Y-116886200D01*
X73868600Y-116632200D01*
X73888600Y-116632200D01*
X73888600Y-114787035D01*
X74142600Y-114787035D01*
X74142600Y-116632200D01*
X75988076Y-116632200D01*
X76100720Y-116300366D01*
X75766412Y-115537352D01*
X75165558Y-114960353D01*
X74474433Y-114674087D01*
X74142600Y-114787035D01*
X73888600Y-114787035D01*
X73556767Y-114674087D01*
X72865642Y-114960353D01*
X72585011Y-115229842D01*
X72585011Y-114074602D01*
X77702600Y-108957012D01*
X77702600Y-118110000D01*
X77702600Y-118110000D01*
G37*
X77702600Y-118110000D02*
X77769967Y-118448675D01*
X77961810Y-118735790D01*
X78248925Y-118927633D01*
X78587600Y-118995000D01*
X83237422Y-118995000D01*
X84781422Y-120539000D01*
X80010000Y-120539000D01*
X79384313Y-120663457D01*
X79289872Y-120726560D01*
X79210000Y-120726560D01*
X78974683Y-120770838D01*
X78758559Y-120909910D01*
X78613569Y-121122110D01*
X78562560Y-121374000D01*
X78562560Y-121453872D01*
X78499457Y-121548313D01*
X78375000Y-122174000D01*
X78499457Y-122799687D01*
X78542296Y-122863800D01*
X77631185Y-122863800D01*
X77270377Y-122713980D01*
X76858629Y-122713621D01*
X76478085Y-122870858D01*
X76186681Y-123161754D01*
X76028780Y-123542023D01*
X76028421Y-123953771D01*
X76185658Y-124334315D01*
X76476554Y-124625719D01*
X76856823Y-124783620D01*
X77268571Y-124783979D01*
X77632033Y-124633800D01*
X79144342Y-124633800D01*
X78853880Y-124827880D01*
X78499457Y-125358313D01*
X78375000Y-125984000D01*
X78499457Y-126609687D01*
X78853880Y-127140120D01*
X79384313Y-127494543D01*
X80010000Y-127619000D01*
X82630199Y-127619000D01*
X82630199Y-144959610D01*
X81195760Y-144959610D01*
X81258336Y-144865958D01*
X81401823Y-144144600D01*
X81258336Y-143423242D01*
X80849719Y-142811704D01*
X80350200Y-142477936D01*
X80350200Y-140894605D01*
X80350201Y-140894600D01*
X80225743Y-140268912D01*
X80007253Y-139941919D01*
X79871320Y-139738480D01*
X79871317Y-139738478D01*
X75478840Y-135346000D01*
X77083611Y-135346000D01*
X77243019Y-135452513D01*
X77964377Y-135596000D01*
X79567623Y-135596000D01*
X80288981Y-135452513D01*
X80900519Y-135043896D01*
X81309136Y-134432358D01*
X81452623Y-133711000D01*
X81309136Y-132989642D01*
X80900519Y-132378104D01*
X80288981Y-131969487D01*
X79567623Y-131826000D01*
X77964377Y-131826000D01*
X77243019Y-131969487D01*
X77083611Y-132076000D01*
X75443239Y-132076000D01*
X70304382Y-126937142D01*
X70609854Y-126922578D01*
X71010405Y-126756664D01*
X71084539Y-126510545D01*
X70256400Y-125682405D01*
X70242258Y-125696548D01*
X70062653Y-125516943D01*
X70076795Y-125502800D01*
X70436005Y-125502800D01*
X71264145Y-126330939D01*
X71510264Y-126256805D01*
X71703365Y-125719577D01*
X71676178Y-125149346D01*
X71510264Y-124748795D01*
X71264145Y-124674661D01*
X70436005Y-125502800D01*
X70076795Y-125502800D01*
X70062653Y-125488658D01*
X70242258Y-125309052D01*
X70256400Y-125323195D01*
X71084539Y-124495055D01*
X71010405Y-124248936D01*
X70473177Y-124055835D01*
X69902946Y-124083022D01*
X69502395Y-124248936D01*
X69428261Y-124495053D01*
X69313386Y-124380178D01*
X69304635Y-124388929D01*
X69294530Y-124373806D01*
X69294527Y-124373804D01*
X66993323Y-122072599D01*
X67423681Y-122072599D01*
X67423686Y-122072600D01*
X67423691Y-122072599D01*
X68013959Y-122072599D01*
X68823979Y-122882618D01*
X68853238Y-123038117D01*
X68992310Y-123254241D01*
X69204510Y-123399231D01*
X69456400Y-123450240D01*
X69536273Y-123450240D01*
X69630712Y-123513342D01*
X70256400Y-123637800D01*
X70882087Y-123513342D01*
X70976526Y-123450240D01*
X71056400Y-123450240D01*
X71291717Y-123405962D01*
X71507841Y-123266890D01*
X71652831Y-123054690D01*
X71703840Y-122802800D01*
X71703840Y-122722926D01*
X71766942Y-122628487D01*
X71891400Y-122002800D01*
X71766942Y-121377112D01*
X71703840Y-121282673D01*
X71703840Y-121202800D01*
X71659562Y-120967483D01*
X71520490Y-120751359D01*
X71308290Y-120606369D01*
X71137653Y-120571814D01*
X70369682Y-119803842D01*
X72106128Y-118067396D01*
X72106131Y-118067394D01*
X72224803Y-117889788D01*
X72264788Y-117981048D01*
X72865642Y-118558047D01*
X73556767Y-118844313D01*
X73888600Y-118731365D01*
X73888600Y-116886200D01*
X74142600Y-116886200D01*
X74142600Y-118731365D01*
X74474433Y-118844313D01*
X75165558Y-118558047D01*
X75766412Y-117981048D01*
X76100720Y-117218034D01*
X75988076Y-116886200D01*
X74142600Y-116886200D01*
X73888600Y-116886200D01*
X73868600Y-116886200D01*
X73868600Y-116632200D01*
X73888600Y-116632200D01*
X73888600Y-114787035D01*
X74142600Y-114787035D01*
X74142600Y-116632200D01*
X75988076Y-116632200D01*
X76100720Y-116300366D01*
X75766412Y-115537352D01*
X75165558Y-114960353D01*
X74474433Y-114674087D01*
X74142600Y-114787035D01*
X73888600Y-114787035D01*
X73556767Y-114674087D01*
X72865642Y-114960353D01*
X72585011Y-115229842D01*
X72585011Y-114074602D01*
X77702600Y-108957012D01*
X77702600Y-118110000D01*
G36*
X107065000Y-144628815D02*
X106965808Y-144695093D01*
X106874090Y-144552559D01*
X106661890Y-144407569D01*
X106410000Y-144356560D01*
X106295000Y-144356560D01*
X106295000Y-131836980D01*
X107065000Y-131066979D01*
X107065000Y-144628815D01*
X107065000Y-144628815D01*
G37*
X107065000Y-144628815D02*
X106965808Y-144695093D01*
X106874090Y-144552559D01*
X106661890Y-144407569D01*
X106410000Y-144356560D01*
X106295000Y-144356560D01*
X106295000Y-131836980D01*
X107065000Y-131066979D01*
X107065000Y-144628815D01*
G36*
X88612244Y-125359786D02*
X88612246Y-125359789D01*
X88722560Y-125433498D01*
X88722560Y-126784000D01*
X88766838Y-127019317D01*
X88905910Y-127235441D01*
X89118110Y-127380431D01*
X89370000Y-127431440D01*
X90970000Y-127431440D01*
X91205317Y-127387162D01*
X91421441Y-127248090D01*
X91566431Y-127035890D01*
X91617440Y-126784000D01*
X91617440Y-126273017D01*
X91670222Y-126325799D01*
X91670224Y-126325802D01*
X91957339Y-126517645D01*
X92013530Y-126528822D01*
X92296014Y-126585013D01*
X92296019Y-126585012D01*
X106709055Y-126585012D01*
X102907433Y-130386635D01*
X102661396Y-130754855D01*
X102574999Y-131189201D01*
X102574999Y-132160598D01*
X102288981Y-131969487D01*
X101567623Y-131826000D01*
X99964377Y-131826000D01*
X99243019Y-131969487D01*
X99083611Y-132076000D01*
X92266000Y-132076000D01*
X91825807Y-132163560D01*
X90516000Y-132163560D01*
X90280683Y-132207838D01*
X90064559Y-132346910D01*
X89919569Y-132559110D01*
X89868560Y-132811000D01*
X89868560Y-134611000D01*
X89912838Y-134846317D01*
X90051910Y-135062441D01*
X90264110Y-135207431D01*
X90516000Y-135258440D01*
X91825807Y-135258440D01*
X92266000Y-135346000D01*
X99083611Y-135346000D01*
X99243019Y-135452513D01*
X99964377Y-135596000D01*
X101567623Y-135596000D01*
X102288981Y-135452513D01*
X102574999Y-135261402D01*
X102574999Y-142628142D01*
X102238181Y-142403087D01*
X101516823Y-142259600D01*
X99913577Y-142259600D01*
X99192219Y-142403087D01*
X99032811Y-142509600D01*
X92025207Y-142509600D01*
X92025202Y-142509599D01*
X91585006Y-142597160D01*
X90465200Y-142597160D01*
X90229883Y-142641438D01*
X90013759Y-142780510D01*
X89868769Y-142992710D01*
X89817760Y-143244600D01*
X89817760Y-144039802D01*
X89513706Y-144343856D01*
X89441450Y-144271600D01*
X87342200Y-144271600D01*
X87342200Y-144291600D01*
X87088200Y-144291600D01*
X87088200Y-144271600D01*
X87068200Y-144271600D01*
X87068200Y-144017600D01*
X87088200Y-144017600D01*
X87088200Y-142768350D01*
X87342200Y-142768350D01*
X87342200Y-144017600D01*
X89441450Y-144017600D01*
X89600200Y-143858850D01*
X89600200Y-143118290D01*
X89503527Y-142884901D01*
X89324898Y-142706273D01*
X89091509Y-142609600D01*
X87500950Y-142609600D01*
X87342200Y-142768350D01*
X87088200Y-142768350D01*
X86929450Y-142609600D01*
X85900199Y-142609600D01*
X85900199Y-135246000D01*
X86980250Y-135246000D01*
X87139000Y-135087250D01*
X87139000Y-133838000D01*
X87393000Y-133838000D01*
X87393000Y-135087250D01*
X87551750Y-135246000D01*
X89142309Y-135246000D01*
X89375698Y-135149327D01*
X89554327Y-134970699D01*
X89651000Y-134737310D01*
X89651000Y-133996750D01*
X89492250Y-133838000D01*
X87393000Y-133838000D01*
X87139000Y-133838000D01*
X87119000Y-133838000D01*
X87119000Y-133584000D01*
X87139000Y-133584000D01*
X87139000Y-132334750D01*
X87393000Y-132334750D01*
X87393000Y-133584000D01*
X89492250Y-133584000D01*
X89651000Y-133425250D01*
X89651000Y-132684690D01*
X89554327Y-132451301D01*
X89375698Y-132272673D01*
X89142309Y-132176000D01*
X87551750Y-132176000D01*
X87393000Y-132334750D01*
X87139000Y-132334750D01*
X86980250Y-132176000D01*
X85900199Y-132176000D01*
X85900199Y-127908040D01*
X85969818Y-127838421D01*
X86125317Y-127809162D01*
X86341441Y-127670090D01*
X86486431Y-127457890D01*
X86537440Y-127206000D01*
X86537440Y-127126128D01*
X86600543Y-127031688D01*
X86725001Y-126406000D01*
X86725000Y-126405995D01*
X86725000Y-126206000D01*
X86600543Y-125580313D01*
X86537440Y-125485872D01*
X86537440Y-125206000D01*
X86493162Y-124970683D01*
X86354090Y-124754559D01*
X86177353Y-124633800D01*
X87886257Y-124633800D01*
X88612244Y-125359786D01*
X88612244Y-125359786D01*
G37*
X88612244Y-125359786D02*
X88612246Y-125359789D01*
X88722560Y-125433498D01*
X88722560Y-126784000D01*
X88766838Y-127019317D01*
X88905910Y-127235441D01*
X89118110Y-127380431D01*
X89370000Y-127431440D01*
X90970000Y-127431440D01*
X91205317Y-127387162D01*
X91421441Y-127248090D01*
X91566431Y-127035890D01*
X91617440Y-126784000D01*
X91617440Y-126273017D01*
X91670222Y-126325799D01*
X91670224Y-126325802D01*
X91957339Y-126517645D01*
X92013530Y-126528822D01*
X92296014Y-126585013D01*
X92296019Y-126585012D01*
X106709055Y-126585012D01*
X102907433Y-130386635D01*
X102661396Y-130754855D01*
X102574999Y-131189201D01*
X102574999Y-132160598D01*
X102288981Y-131969487D01*
X101567623Y-131826000D01*
X99964377Y-131826000D01*
X99243019Y-131969487D01*
X99083611Y-132076000D01*
X92266000Y-132076000D01*
X91825807Y-132163560D01*
X90516000Y-132163560D01*
X90280683Y-132207838D01*
X90064559Y-132346910D01*
X89919569Y-132559110D01*
X89868560Y-132811000D01*
X89868560Y-134611000D01*
X89912838Y-134846317D01*
X90051910Y-135062441D01*
X90264110Y-135207431D01*
X90516000Y-135258440D01*
X91825807Y-135258440D01*
X92266000Y-135346000D01*
X99083611Y-135346000D01*
X99243019Y-135452513D01*
X99964377Y-135596000D01*
X101567623Y-135596000D01*
X102288981Y-135452513D01*
X102574999Y-135261402D01*
X102574999Y-142628142D01*
X102238181Y-142403087D01*
X101516823Y-142259600D01*
X99913577Y-142259600D01*
X99192219Y-142403087D01*
X99032811Y-142509600D01*
X92025207Y-142509600D01*
X92025202Y-142509599D01*
X91585006Y-142597160D01*
X90465200Y-142597160D01*
X90229883Y-142641438D01*
X90013759Y-142780510D01*
X89868769Y-142992710D01*
X89817760Y-143244600D01*
X89817760Y-144039802D01*
X89513706Y-144343856D01*
X89441450Y-144271600D01*
X87342200Y-144271600D01*
X87342200Y-144291600D01*
X87088200Y-144291600D01*
X87088200Y-144271600D01*
X87068200Y-144271600D01*
X87068200Y-144017600D01*
X87088200Y-144017600D01*
X87088200Y-142768350D01*
X87342200Y-142768350D01*
X87342200Y-144017600D01*
X89441450Y-144017600D01*
X89600200Y-143858850D01*
X89600200Y-143118290D01*
X89503527Y-142884901D01*
X89324898Y-142706273D01*
X89091509Y-142609600D01*
X87500950Y-142609600D01*
X87342200Y-142768350D01*
X87088200Y-142768350D01*
X86929450Y-142609600D01*
X85900199Y-142609600D01*
X85900199Y-135246000D01*
X86980250Y-135246000D01*
X87139000Y-135087250D01*
X87139000Y-133838000D01*
X87393000Y-133838000D01*
X87393000Y-135087250D01*
X87551750Y-135246000D01*
X89142309Y-135246000D01*
X89375698Y-135149327D01*
X89554327Y-134970699D01*
X89651000Y-134737310D01*
X89651000Y-133996750D01*
X89492250Y-133838000D01*
X87393000Y-133838000D01*
X87139000Y-133838000D01*
X87119000Y-133838000D01*
X87119000Y-133584000D01*
X87139000Y-133584000D01*
X87139000Y-132334750D01*
X87393000Y-132334750D01*
X87393000Y-133584000D01*
X89492250Y-133584000D01*
X89651000Y-133425250D01*
X89651000Y-132684690D01*
X89554327Y-132451301D01*
X89375698Y-132272673D01*
X89142309Y-132176000D01*
X87551750Y-132176000D01*
X87393000Y-132334750D01*
X87139000Y-132334750D01*
X86980250Y-132176000D01*
X85900199Y-132176000D01*
X85900199Y-127908040D01*
X85969818Y-127838421D01*
X86125317Y-127809162D01*
X86341441Y-127670090D01*
X86486431Y-127457890D01*
X86537440Y-127206000D01*
X86537440Y-127126128D01*
X86600543Y-127031688D01*
X86725001Y-126406000D01*
X86725000Y-126405995D01*
X86725000Y-126206000D01*
X86600543Y-125580313D01*
X86537440Y-125485872D01*
X86537440Y-125206000D01*
X86493162Y-124970683D01*
X86354090Y-124754559D01*
X86177353Y-124633800D01*
X87886257Y-124633800D01*
X88612244Y-125359786D01*
G36*
X68809435Y-136320023D02*
X68836622Y-136890254D01*
X69002536Y-137290805D01*
X69248655Y-137364939D01*
X70076795Y-136536800D01*
X70062652Y-136522658D01*
X70242258Y-136343053D01*
X70256400Y-136357195D01*
X70270543Y-136343053D01*
X70450148Y-136522658D01*
X70436005Y-136536800D01*
X71264145Y-137364939D01*
X71510264Y-137290805D01*
X71703365Y-136753577D01*
X71676178Y-136183346D01*
X71665198Y-136156838D01*
X77080200Y-141571839D01*
X77080200Y-142477936D01*
X76580681Y-142811704D01*
X76172064Y-143423242D01*
X76158655Y-143490653D01*
X71641650Y-138973647D01*
X71520490Y-138785359D01*
X71308290Y-138640369D01*
X71137171Y-138605716D01*
X71018251Y-138526257D01*
X70392563Y-138401799D01*
X70392558Y-138401800D01*
X68133640Y-138401800D01*
X67276385Y-137544545D01*
X69428261Y-137544545D01*
X69502395Y-137790664D01*
X70039623Y-137983765D01*
X70609854Y-137956578D01*
X71010405Y-137790664D01*
X71084539Y-137544545D01*
X70256400Y-136716405D01*
X69428261Y-137544545D01*
X67276385Y-137544545D01*
X65716440Y-135984600D01*
X68929999Y-135984600D01*
X68809435Y-136320023D01*
X68809435Y-136320023D01*
G37*
X68809435Y-136320023D02*
X68836622Y-136890254D01*
X69002536Y-137290805D01*
X69248655Y-137364939D01*
X70076795Y-136536800D01*
X70062652Y-136522658D01*
X70242258Y-136343053D01*
X70256400Y-136357195D01*
X70270543Y-136343053D01*
X70450148Y-136522658D01*
X70436005Y-136536800D01*
X71264145Y-137364939D01*
X71510264Y-137290805D01*
X71703365Y-136753577D01*
X71676178Y-136183346D01*
X71665198Y-136156838D01*
X77080200Y-141571839D01*
X77080200Y-142477936D01*
X76580681Y-142811704D01*
X76172064Y-143423242D01*
X76158655Y-143490653D01*
X71641650Y-138973647D01*
X71520490Y-138785359D01*
X71308290Y-138640369D01*
X71137171Y-138605716D01*
X71018251Y-138526257D01*
X70392563Y-138401799D01*
X70392558Y-138401800D01*
X68133640Y-138401800D01*
X67276385Y-137544545D01*
X69428261Y-137544545D01*
X69502395Y-137790664D01*
X70039623Y-137983765D01*
X70609854Y-137956578D01*
X71010405Y-137790664D01*
X71084539Y-137544545D01*
X70256400Y-136716405D01*
X69428261Y-137544545D01*
X67276385Y-137544545D01*
X65716440Y-135984600D01*
X68929999Y-135984600D01*
X68809435Y-136320023D01*
G36*
X107065654Y-116048603D02*
X107500000Y-116135000D01*
X112200000Y-116135000D01*
X112389932Y-116097220D01*
X114183377Y-116097220D01*
X112445598Y-117834999D01*
X112280851Y-118081561D01*
X112222999Y-118372400D01*
X112222999Y-122698411D01*
X112280851Y-122989250D01*
X112386594Y-123147505D01*
X112386424Y-123341986D01*
X112543661Y-123722530D01*
X112834557Y-124013934D01*
X113214826Y-124171835D01*
X113626574Y-124172194D01*
X114007118Y-124014957D01*
X114298522Y-123724061D01*
X114456423Y-123343792D01*
X114456782Y-122932044D01*
X114299545Y-122551500D01*
X114008649Y-122260096D01*
X113800704Y-122173750D01*
X116625000Y-122173750D01*
X116625000Y-123014309D01*
X116721673Y-123247698D01*
X116900301Y-123426327D01*
X117133690Y-123523000D01*
X117824250Y-123523000D01*
X117983000Y-123364250D01*
X117983000Y-122015000D01*
X118237000Y-122015000D01*
X118237000Y-123364250D01*
X118395750Y-123523000D01*
X119086310Y-123523000D01*
X119319699Y-123426327D01*
X119405000Y-123341026D01*
X119490301Y-123426327D01*
X119723690Y-123523000D01*
X120364250Y-123523000D01*
X120523000Y-123364250D01*
X120523000Y-122015000D01*
X120777000Y-122015000D01*
X120777000Y-123364250D01*
X120935750Y-123523000D01*
X121576310Y-123523000D01*
X121809699Y-123426327D01*
X121988327Y-123247698D01*
X122085000Y-123014309D01*
X122085000Y-122173750D01*
X121926250Y-122015000D01*
X120777000Y-122015000D01*
X120523000Y-122015000D01*
X118237000Y-122015000D01*
X117983000Y-122015000D01*
X116783750Y-122015000D01*
X116625000Y-122173750D01*
X113800704Y-122173750D01*
X113742999Y-122149789D01*
X113742999Y-121503516D01*
X114381459Y-121768628D01*
X115230815Y-121769370D01*
X116015800Y-121445020D01*
X116616909Y-120844959D01*
X116625000Y-120825474D01*
X116625000Y-121602250D01*
X116783750Y-121761000D01*
X117983000Y-121761000D01*
X117983000Y-120411750D01*
X118237000Y-120411750D01*
X118237000Y-121761000D01*
X120523000Y-121761000D01*
X120523000Y-120411750D01*
X120777000Y-120411750D01*
X120777000Y-121761000D01*
X121926250Y-121761000D01*
X122085000Y-121602250D01*
X122085000Y-120761691D01*
X121988327Y-120528302D01*
X121809699Y-120349673D01*
X121576310Y-120253000D01*
X120935750Y-120253000D01*
X120777000Y-120411750D01*
X120523000Y-120411750D01*
X120364250Y-120253000D01*
X119723690Y-120253000D01*
X119490301Y-120349673D01*
X119405000Y-120434974D01*
X119319699Y-120349673D01*
X119086310Y-120253000D01*
X118395750Y-120253000D01*
X118237000Y-120411750D01*
X117983000Y-120411750D01*
X117824250Y-120253000D01*
X117133690Y-120253000D01*
X116900301Y-120349673D01*
X116767373Y-120482602D01*
X116877063Y-120218440D01*
X116899999Y-120223002D01*
X116900004Y-120223001D01*
X122978100Y-120223001D01*
X122978100Y-124232154D01*
X122827783Y-124260438D01*
X122687218Y-124350889D01*
X122564690Y-124267169D01*
X122312800Y-124216160D01*
X120612800Y-124216160D01*
X120377483Y-124260438D01*
X120161359Y-124399510D01*
X120016369Y-124611710D01*
X119982976Y-124776609D01*
X119553477Y-124347109D01*
X119404288Y-123986043D01*
X119113392Y-123694639D01*
X118733123Y-123536738D01*
X118321375Y-123536379D01*
X117940831Y-123693616D01*
X117649427Y-123984512D01*
X117491526Y-124364781D01*
X117491167Y-124776529D01*
X117648404Y-125157073D01*
X117939300Y-125448477D01*
X118302497Y-125599289D01*
X119192596Y-126489387D01*
X119192598Y-126489390D01*
X119372638Y-126609688D01*
X119479713Y-126681233D01*
X119818388Y-126748600D01*
X119965360Y-126748600D01*
X119965360Y-126828588D01*
X112722817Y-126828588D01*
X112722812Y-126828587D01*
X112440328Y-126884778D01*
X112384137Y-126895955D01*
X112097022Y-127087798D01*
X112097020Y-127087801D01*
X110477398Y-128707422D01*
X110453542Y-128649685D01*
X110232321Y-128428078D01*
X110352346Y-128404203D01*
X110720566Y-128158166D01*
X111818164Y-127060568D01*
X111911250Y-126921255D01*
X112064201Y-126692348D01*
X112150598Y-126258002D01*
X112150598Y-125100398D01*
X112064201Y-124666052D01*
X111985989Y-124549000D01*
X111818164Y-124297831D01*
X105030966Y-117510634D01*
X104935954Y-117447149D01*
X104662746Y-117264597D01*
X104228400Y-117178200D01*
X103204643Y-117178200D01*
X103139135Y-117150999D01*
X103702567Y-116587567D01*
X103948604Y-116219347D01*
X103952313Y-116200700D01*
X104017608Y-115872440D01*
X106802008Y-115872440D01*
X107065654Y-116048603D01*
X107065654Y-116048603D01*
G37*
X107065654Y-116048603D02*
X107500000Y-116135000D01*
X112200000Y-116135000D01*
X112389932Y-116097220D01*
X114183377Y-116097220D01*
X112445598Y-117834999D01*
X112280851Y-118081561D01*
X112222999Y-118372400D01*
X112222999Y-122698411D01*
X112280851Y-122989250D01*
X112386594Y-123147505D01*
X112386424Y-123341986D01*
X112543661Y-123722530D01*
X112834557Y-124013934D01*
X113214826Y-124171835D01*
X113626574Y-124172194D01*
X114007118Y-124014957D01*
X114298522Y-123724061D01*
X114456423Y-123343792D01*
X114456782Y-122932044D01*
X114299545Y-122551500D01*
X114008649Y-122260096D01*
X113800704Y-122173750D01*
X116625000Y-122173750D01*
X116625000Y-123014309D01*
X116721673Y-123247698D01*
X116900301Y-123426327D01*
X117133690Y-123523000D01*
X117824250Y-123523000D01*
X117983000Y-123364250D01*
X117983000Y-122015000D01*
X118237000Y-122015000D01*
X118237000Y-123364250D01*
X118395750Y-123523000D01*
X119086310Y-123523000D01*
X119319699Y-123426327D01*
X119405000Y-123341026D01*
X119490301Y-123426327D01*
X119723690Y-123523000D01*
X120364250Y-123523000D01*
X120523000Y-123364250D01*
X120523000Y-122015000D01*
X120777000Y-122015000D01*
X120777000Y-123364250D01*
X120935750Y-123523000D01*
X121576310Y-123523000D01*
X121809699Y-123426327D01*
X121988327Y-123247698D01*
X122085000Y-123014309D01*
X122085000Y-122173750D01*
X121926250Y-122015000D01*
X120777000Y-122015000D01*
X120523000Y-122015000D01*
X118237000Y-122015000D01*
X117983000Y-122015000D01*
X116783750Y-122015000D01*
X116625000Y-122173750D01*
X113800704Y-122173750D01*
X113742999Y-122149789D01*
X113742999Y-121503516D01*
X114381459Y-121768628D01*
X115230815Y-121769370D01*
X116015800Y-121445020D01*
X116616909Y-120844959D01*
X116625000Y-120825474D01*
X116625000Y-121602250D01*
X116783750Y-121761000D01*
X117983000Y-121761000D01*
X117983000Y-120411750D01*
X118237000Y-120411750D01*
X118237000Y-121761000D01*
X120523000Y-121761000D01*
X120523000Y-120411750D01*
X120777000Y-120411750D01*
X120777000Y-121761000D01*
X121926250Y-121761000D01*
X122085000Y-121602250D01*
X122085000Y-120761691D01*
X121988327Y-120528302D01*
X121809699Y-120349673D01*
X121576310Y-120253000D01*
X120935750Y-120253000D01*
X120777000Y-120411750D01*
X120523000Y-120411750D01*
X120364250Y-120253000D01*
X119723690Y-120253000D01*
X119490301Y-120349673D01*
X119405000Y-120434974D01*
X119319699Y-120349673D01*
X119086310Y-120253000D01*
X118395750Y-120253000D01*
X118237000Y-120411750D01*
X117983000Y-120411750D01*
X117824250Y-120253000D01*
X117133690Y-120253000D01*
X116900301Y-120349673D01*
X116767373Y-120482602D01*
X116877063Y-120218440D01*
X116899999Y-120223002D01*
X116900004Y-120223001D01*
X122978100Y-120223001D01*
X122978100Y-124232154D01*
X122827783Y-124260438D01*
X122687218Y-124350889D01*
X122564690Y-124267169D01*
X122312800Y-124216160D01*
X120612800Y-124216160D01*
X120377483Y-124260438D01*
X120161359Y-124399510D01*
X120016369Y-124611710D01*
X119982976Y-124776609D01*
X119553477Y-124347109D01*
X119404288Y-123986043D01*
X119113392Y-123694639D01*
X118733123Y-123536738D01*
X118321375Y-123536379D01*
X117940831Y-123693616D01*
X117649427Y-123984512D01*
X117491526Y-124364781D01*
X117491167Y-124776529D01*
X117648404Y-125157073D01*
X117939300Y-125448477D01*
X118302497Y-125599289D01*
X119192596Y-126489387D01*
X119192598Y-126489390D01*
X119372638Y-126609688D01*
X119479713Y-126681233D01*
X119818388Y-126748600D01*
X119965360Y-126748600D01*
X119965360Y-126828588D01*
X112722817Y-126828588D01*
X112722812Y-126828587D01*
X112440328Y-126884778D01*
X112384137Y-126895955D01*
X112097022Y-127087798D01*
X112097020Y-127087801D01*
X110477398Y-128707422D01*
X110453542Y-128649685D01*
X110232321Y-128428078D01*
X110352346Y-128404203D01*
X110720566Y-128158166D01*
X111818164Y-127060568D01*
X111911250Y-126921255D01*
X112064201Y-126692348D01*
X112150598Y-126258002D01*
X112150598Y-125100398D01*
X112064201Y-124666052D01*
X111985989Y-124549000D01*
X111818164Y-124297831D01*
X105030966Y-117510634D01*
X104935954Y-117447149D01*
X104662746Y-117264597D01*
X104228400Y-117178200D01*
X103204643Y-117178200D01*
X103139135Y-117150999D01*
X103702567Y-116587567D01*
X103948604Y-116219347D01*
X103952313Y-116200700D01*
X104017608Y-115872440D01*
X106802008Y-115872440D01*
X107065654Y-116048603D01*
G36*
X132565000Y-105061887D02*
X132565000Y-105118113D01*
X132674233Y-105667264D01*
X132985302Y-106132811D01*
X133115000Y-106219473D01*
X133115000Y-106368554D01*
X132964683Y-106396838D01*
X132748559Y-106535910D01*
X132603569Y-106748110D01*
X132552560Y-107000000D01*
X132552560Y-108042308D01*
X131590268Y-109004600D01*
X130500000Y-109004600D01*
X130065654Y-109090997D01*
X129697434Y-109337034D01*
X129451397Y-109705254D01*
X129365000Y-110139600D01*
X129365000Y-114355394D01*
X129284176Y-114436077D01*
X129065250Y-114963309D01*
X129064752Y-115534187D01*
X129282757Y-116061800D01*
X129686077Y-116465824D01*
X130012960Y-116601558D01*
X129716485Y-116724058D01*
X129425081Y-117014954D01*
X129274268Y-117378152D01*
X128660210Y-117992210D01*
X128468367Y-118279325D01*
X128468367Y-118279326D01*
X128400999Y-118618000D01*
X128401000Y-118618005D01*
X128401000Y-119676595D01*
X128231019Y-119676447D01*
X128026384Y-119761000D01*
X126335000Y-119761000D01*
X126335000Y-121606476D01*
X126666834Y-121719120D01*
X127429848Y-121384812D01*
X127544808Y-121265099D01*
X127550990Y-121280059D01*
X127550990Y-123532267D01*
X127430485Y-123582058D01*
X127139081Y-123872954D01*
X126981180Y-124253223D01*
X126980821Y-124664971D01*
X127138058Y-125045515D01*
X127428954Y-125336919D01*
X127809223Y-125494820D01*
X128220971Y-125495179D01*
X128250994Y-125482774D01*
X128250821Y-125680971D01*
X128408058Y-126061515D01*
X128557352Y-126211070D01*
X127939834Y-126828588D01*
X125310540Y-126828588D01*
X125310540Y-124863600D01*
X125266262Y-124628283D01*
X125127190Y-124412159D01*
X124914990Y-124267169D01*
X124748100Y-124233373D01*
X124748100Y-121136918D01*
X124986152Y-121384812D01*
X125749166Y-121719120D01*
X126081000Y-121606476D01*
X126081000Y-119761000D01*
X126061000Y-119761000D01*
X126061000Y-119507000D01*
X126081000Y-119507000D01*
X126081000Y-119487000D01*
X126335000Y-119487000D01*
X126335000Y-119507000D01*
X128180165Y-119507000D01*
X128293113Y-119175167D01*
X128006847Y-118484042D01*
X127429848Y-117883188D01*
X126666834Y-117548880D01*
X126654515Y-117553062D01*
X126669883Y-117537694D01*
X127302205Y-117537694D01*
X127663013Y-117687514D01*
X128074761Y-117687873D01*
X128455305Y-117530636D01*
X128746709Y-117239740D01*
X128904610Y-116859471D01*
X128904969Y-116447723D01*
X128747732Y-116067179D01*
X128456836Y-115775775D01*
X128076567Y-115617874D01*
X127664819Y-115617515D01*
X127301357Y-115767694D01*
X126303309Y-115767694D01*
X126303304Y-115767693D01*
X125964630Y-115835060D01*
X125894379Y-115882000D01*
X125677514Y-116026904D01*
X125677512Y-116026907D01*
X123251417Y-118453001D01*
X122097440Y-118453001D01*
X122097440Y-116888000D01*
X122053162Y-116652683D01*
X121914090Y-116436559D01*
X121701890Y-116291569D01*
X121450000Y-116240560D01*
X120393842Y-116240560D01*
X122467767Y-114166635D01*
X122632971Y-114166779D01*
X122996433Y-114016600D01*
X123444397Y-114016600D01*
X123444402Y-114016601D01*
X123726897Y-113960408D01*
X123783077Y-113949233D01*
X124070192Y-113757390D01*
X124585787Y-113241794D01*
X124585790Y-113241792D01*
X124777633Y-112954677D01*
X124793991Y-112872440D01*
X124845001Y-112616002D01*
X124845000Y-112615997D01*
X124845000Y-112480594D01*
X124921673Y-112665699D01*
X125100302Y-112844327D01*
X125333691Y-112941000D01*
X126174250Y-112941000D01*
X126333000Y-112782250D01*
X126333000Y-111633000D01*
X126587000Y-111633000D01*
X126587000Y-112782250D01*
X126745750Y-112941000D01*
X127586309Y-112941000D01*
X127819698Y-112844327D01*
X127998327Y-112665699D01*
X128095000Y-112432310D01*
X128095000Y-111791750D01*
X127936250Y-111633000D01*
X126587000Y-111633000D01*
X126333000Y-111633000D01*
X126313000Y-111633000D01*
X126313000Y-111379000D01*
X126333000Y-111379000D01*
X126333000Y-111359000D01*
X126587000Y-111359000D01*
X126587000Y-111379000D01*
X127936250Y-111379000D01*
X128095000Y-111220250D01*
X128095000Y-110579690D01*
X127998327Y-110346301D01*
X127819698Y-110167673D01*
X127741653Y-110135346D01*
X127911441Y-110026090D01*
X128056431Y-109813890D01*
X128107440Y-109562000D01*
X128107440Y-108669692D01*
X130269808Y-106507325D01*
X130500000Y-106553113D01*
X131049151Y-106443880D01*
X131514698Y-106132811D01*
X131808488Y-105693124D01*
X132596106Y-104905506D01*
X132565000Y-105061887D01*
X132565000Y-105061887D01*
G37*
X132565000Y-105061887D02*
X132565000Y-105118113D01*
X132674233Y-105667264D01*
X132985302Y-106132811D01*
X133115000Y-106219473D01*
X133115000Y-106368554D01*
X132964683Y-106396838D01*
X132748559Y-106535910D01*
X132603569Y-106748110D01*
X132552560Y-107000000D01*
X132552560Y-108042308D01*
X131590268Y-109004600D01*
X130500000Y-109004600D01*
X130065654Y-109090997D01*
X129697434Y-109337034D01*
X129451397Y-109705254D01*
X129365000Y-110139600D01*
X129365000Y-114355394D01*
X129284176Y-114436077D01*
X129065250Y-114963309D01*
X129064752Y-115534187D01*
X129282757Y-116061800D01*
X129686077Y-116465824D01*
X130012960Y-116601558D01*
X129716485Y-116724058D01*
X129425081Y-117014954D01*
X129274268Y-117378152D01*
X128660210Y-117992210D01*
X128468367Y-118279325D01*
X128468367Y-118279326D01*
X128400999Y-118618000D01*
X128401000Y-118618005D01*
X128401000Y-119676595D01*
X128231019Y-119676447D01*
X128026384Y-119761000D01*
X126335000Y-119761000D01*
X126335000Y-121606476D01*
X126666834Y-121719120D01*
X127429848Y-121384812D01*
X127544808Y-121265099D01*
X127550990Y-121280059D01*
X127550990Y-123532267D01*
X127430485Y-123582058D01*
X127139081Y-123872954D01*
X126981180Y-124253223D01*
X126980821Y-124664971D01*
X127138058Y-125045515D01*
X127428954Y-125336919D01*
X127809223Y-125494820D01*
X128220971Y-125495179D01*
X128250994Y-125482774D01*
X128250821Y-125680971D01*
X128408058Y-126061515D01*
X128557352Y-126211070D01*
X127939834Y-126828588D01*
X125310540Y-126828588D01*
X125310540Y-124863600D01*
X125266262Y-124628283D01*
X125127190Y-124412159D01*
X124914990Y-124267169D01*
X124748100Y-124233373D01*
X124748100Y-121136918D01*
X124986152Y-121384812D01*
X125749166Y-121719120D01*
X126081000Y-121606476D01*
X126081000Y-119761000D01*
X126061000Y-119761000D01*
X126061000Y-119507000D01*
X126081000Y-119507000D01*
X126081000Y-119487000D01*
X126335000Y-119487000D01*
X126335000Y-119507000D01*
X128180165Y-119507000D01*
X128293113Y-119175167D01*
X128006847Y-118484042D01*
X127429848Y-117883188D01*
X126666834Y-117548880D01*
X126654515Y-117553062D01*
X126669883Y-117537694D01*
X127302205Y-117537694D01*
X127663013Y-117687514D01*
X128074761Y-117687873D01*
X128455305Y-117530636D01*
X128746709Y-117239740D01*
X128904610Y-116859471D01*
X128904969Y-116447723D01*
X128747732Y-116067179D01*
X128456836Y-115775775D01*
X128076567Y-115617874D01*
X127664819Y-115617515D01*
X127301357Y-115767694D01*
X126303309Y-115767694D01*
X126303304Y-115767693D01*
X125964630Y-115835060D01*
X125894379Y-115882000D01*
X125677514Y-116026904D01*
X125677512Y-116026907D01*
X123251417Y-118453001D01*
X122097440Y-118453001D01*
X122097440Y-116888000D01*
X122053162Y-116652683D01*
X121914090Y-116436559D01*
X121701890Y-116291569D01*
X121450000Y-116240560D01*
X120393842Y-116240560D01*
X122467767Y-114166635D01*
X122632971Y-114166779D01*
X122996433Y-114016600D01*
X123444397Y-114016600D01*
X123444402Y-114016601D01*
X123726897Y-113960408D01*
X123783077Y-113949233D01*
X124070192Y-113757390D01*
X124585787Y-113241794D01*
X124585790Y-113241792D01*
X124777633Y-112954677D01*
X124793991Y-112872440D01*
X124845001Y-112616002D01*
X124845000Y-112615997D01*
X124845000Y-112480594D01*
X124921673Y-112665699D01*
X125100302Y-112844327D01*
X125333691Y-112941000D01*
X126174250Y-112941000D01*
X126333000Y-112782250D01*
X126333000Y-111633000D01*
X126587000Y-111633000D01*
X126587000Y-112782250D01*
X126745750Y-112941000D01*
X127586309Y-112941000D01*
X127819698Y-112844327D01*
X127998327Y-112665699D01*
X128095000Y-112432310D01*
X128095000Y-111791750D01*
X127936250Y-111633000D01*
X126587000Y-111633000D01*
X126333000Y-111633000D01*
X126313000Y-111633000D01*
X126313000Y-111379000D01*
X126333000Y-111379000D01*
X126333000Y-111359000D01*
X126587000Y-111359000D01*
X126587000Y-111379000D01*
X127936250Y-111379000D01*
X128095000Y-111220250D01*
X128095000Y-110579690D01*
X127998327Y-110346301D01*
X127819698Y-110167673D01*
X127741653Y-110135346D01*
X127911441Y-110026090D01*
X128056431Y-109813890D01*
X128107440Y-109562000D01*
X128107440Y-108669692D01*
X130269808Y-106507325D01*
X130500000Y-106553113D01*
X131049151Y-106443880D01*
X131514698Y-106132811D01*
X131808488Y-105693124D01*
X132596106Y-104905506D01*
X132565000Y-105061887D01*
G36*
X89760560Y-108570139D02*
X89760560Y-109766000D01*
X89804838Y-110001317D01*
X89941584Y-110213826D01*
X89811569Y-110404110D01*
X89760560Y-110656000D01*
X89760560Y-112356000D01*
X89804838Y-112591317D01*
X89857266Y-112672792D01*
X88238626Y-114291432D01*
X87998143Y-114390798D01*
X87650429Y-114737905D01*
X87462015Y-115191656D01*
X87461611Y-115654200D01*
X82783043Y-115654200D01*
X82542734Y-115554415D01*
X82051421Y-115553986D01*
X81597343Y-115741608D01*
X81249629Y-116088715D01*
X81061215Y-116542466D01*
X81060786Y-117033779D01*
X81139797Y-117225000D01*
X79472600Y-117225000D01*
X79472600Y-113003440D01*
X81042000Y-113003440D01*
X81277317Y-112959162D01*
X81493441Y-112820090D01*
X81638431Y-112607890D01*
X81689440Y-112356000D01*
X81689440Y-111791750D01*
X82407000Y-111791750D01*
X82407000Y-112482310D01*
X82503673Y-112715699D01*
X82682302Y-112894327D01*
X82915691Y-112991000D01*
X83756250Y-112991000D01*
X83915000Y-112832250D01*
X83915000Y-111633000D01*
X84169000Y-111633000D01*
X84169000Y-112832250D01*
X84327750Y-112991000D01*
X85168309Y-112991000D01*
X85401698Y-112894327D01*
X85580327Y-112715699D01*
X85677000Y-112482310D01*
X85677000Y-111791750D01*
X85773000Y-111791750D01*
X85773000Y-112482310D01*
X85869673Y-112715699D01*
X86048302Y-112894327D01*
X86281691Y-112991000D01*
X87122250Y-112991000D01*
X87281000Y-112832250D01*
X87281000Y-111633000D01*
X87535000Y-111633000D01*
X87535000Y-112832250D01*
X87693750Y-112991000D01*
X88534309Y-112991000D01*
X88767698Y-112894327D01*
X88946327Y-112715699D01*
X89043000Y-112482310D01*
X89043000Y-111791750D01*
X88884250Y-111633000D01*
X87535000Y-111633000D01*
X87281000Y-111633000D01*
X85931750Y-111633000D01*
X85773000Y-111791750D01*
X85677000Y-111791750D01*
X85518250Y-111633000D01*
X84169000Y-111633000D01*
X83915000Y-111633000D01*
X82565750Y-111633000D01*
X82407000Y-111791750D01*
X81689440Y-111791750D01*
X81689440Y-110656000D01*
X81645162Y-110420683D01*
X81508416Y-110208174D01*
X81638431Y-110017890D01*
X81689440Y-109766000D01*
X81689440Y-109251750D01*
X82407000Y-109251750D01*
X82407000Y-109892310D01*
X82503673Y-110125699D01*
X82588974Y-110211000D01*
X82503673Y-110296301D01*
X82407000Y-110529690D01*
X82407000Y-111220250D01*
X82565750Y-111379000D01*
X83915000Y-111379000D01*
X83915000Y-109093000D01*
X84169000Y-109093000D01*
X84169000Y-111379000D01*
X85518250Y-111379000D01*
X85677000Y-111220250D01*
X85677000Y-110529690D01*
X85580327Y-110296301D01*
X85495026Y-110211000D01*
X85580327Y-110125699D01*
X85677000Y-109892310D01*
X85677000Y-109251750D01*
X85773000Y-109251750D01*
X85773000Y-109892310D01*
X85869673Y-110125699D01*
X85954974Y-110211000D01*
X85869673Y-110296301D01*
X85773000Y-110529690D01*
X85773000Y-111220250D01*
X85931750Y-111379000D01*
X87281000Y-111379000D01*
X87281000Y-109093000D01*
X87535000Y-109093000D01*
X87535000Y-111379000D01*
X88884250Y-111379000D01*
X89043000Y-111220250D01*
X89043000Y-110529690D01*
X88946327Y-110296301D01*
X88861026Y-110211000D01*
X88946327Y-110125699D01*
X89043000Y-109892310D01*
X89043000Y-109251750D01*
X88884250Y-109093000D01*
X87535000Y-109093000D01*
X87281000Y-109093000D01*
X85931750Y-109093000D01*
X85773000Y-109251750D01*
X85677000Y-109251750D01*
X85518250Y-109093000D01*
X84169000Y-109093000D01*
X83915000Y-109093000D01*
X82565750Y-109093000D01*
X82407000Y-109251750D01*
X81689440Y-109251750D01*
X81689440Y-108770140D01*
X82407000Y-108052579D01*
X82407000Y-108680250D01*
X82565750Y-108839000D01*
X83915000Y-108839000D01*
X83915000Y-108819000D01*
X84169000Y-108819000D01*
X84169000Y-108839000D01*
X85518250Y-108839000D01*
X85677000Y-108680250D01*
X85677000Y-108221400D01*
X85773000Y-108221400D01*
X85773000Y-108680250D01*
X85931750Y-108839000D01*
X87281000Y-108839000D01*
X87281000Y-108819000D01*
X87535000Y-108819000D01*
X87535000Y-108839000D01*
X88884250Y-108839000D01*
X89043000Y-108680250D01*
X89043000Y-108039690D01*
X88946327Y-107806301D01*
X88767698Y-107627673D01*
X88534309Y-107531000D01*
X88483468Y-107531000D01*
X88522947Y-107332527D01*
X89760560Y-108570139D01*
X89760560Y-108570139D01*
G37*
X89760560Y-108570139D02*
X89760560Y-109766000D01*
X89804838Y-110001317D01*
X89941584Y-110213826D01*
X89811569Y-110404110D01*
X89760560Y-110656000D01*
X89760560Y-112356000D01*
X89804838Y-112591317D01*
X89857266Y-112672792D01*
X88238626Y-114291432D01*
X87998143Y-114390798D01*
X87650429Y-114737905D01*
X87462015Y-115191656D01*
X87461611Y-115654200D01*
X82783043Y-115654200D01*
X82542734Y-115554415D01*
X82051421Y-115553986D01*
X81597343Y-115741608D01*
X81249629Y-116088715D01*
X81061215Y-116542466D01*
X81060786Y-117033779D01*
X81139797Y-117225000D01*
X79472600Y-117225000D01*
X79472600Y-113003440D01*
X81042000Y-113003440D01*
X81277317Y-112959162D01*
X81493441Y-112820090D01*
X81638431Y-112607890D01*
X81689440Y-112356000D01*
X81689440Y-111791750D01*
X82407000Y-111791750D01*
X82407000Y-112482310D01*
X82503673Y-112715699D01*
X82682302Y-112894327D01*
X82915691Y-112991000D01*
X83756250Y-112991000D01*
X83915000Y-112832250D01*
X83915000Y-111633000D01*
X84169000Y-111633000D01*
X84169000Y-112832250D01*
X84327750Y-112991000D01*
X85168309Y-112991000D01*
X85401698Y-112894327D01*
X85580327Y-112715699D01*
X85677000Y-112482310D01*
X85677000Y-111791750D01*
X85773000Y-111791750D01*
X85773000Y-112482310D01*
X85869673Y-112715699D01*
X86048302Y-112894327D01*
X86281691Y-112991000D01*
X87122250Y-112991000D01*
X87281000Y-112832250D01*
X87281000Y-111633000D01*
X87535000Y-111633000D01*
X87535000Y-112832250D01*
X87693750Y-112991000D01*
X88534309Y-112991000D01*
X88767698Y-112894327D01*
X88946327Y-112715699D01*
X89043000Y-112482310D01*
X89043000Y-111791750D01*
X88884250Y-111633000D01*
X87535000Y-111633000D01*
X87281000Y-111633000D01*
X85931750Y-111633000D01*
X85773000Y-111791750D01*
X85677000Y-111791750D01*
X85518250Y-111633000D01*
X84169000Y-111633000D01*
X83915000Y-111633000D01*
X82565750Y-111633000D01*
X82407000Y-111791750D01*
X81689440Y-111791750D01*
X81689440Y-110656000D01*
X81645162Y-110420683D01*
X81508416Y-110208174D01*
X81638431Y-110017890D01*
X81689440Y-109766000D01*
X81689440Y-109251750D01*
X82407000Y-109251750D01*
X82407000Y-109892310D01*
X82503673Y-110125699D01*
X82588974Y-110211000D01*
X82503673Y-110296301D01*
X82407000Y-110529690D01*
X82407000Y-111220250D01*
X82565750Y-111379000D01*
X83915000Y-111379000D01*
X83915000Y-109093000D01*
X84169000Y-109093000D01*
X84169000Y-111379000D01*
X85518250Y-111379000D01*
X85677000Y-111220250D01*
X85677000Y-110529690D01*
X85580327Y-110296301D01*
X85495026Y-110211000D01*
X85580327Y-110125699D01*
X85677000Y-109892310D01*
X85677000Y-109251750D01*
X85773000Y-109251750D01*
X85773000Y-109892310D01*
X85869673Y-110125699D01*
X85954974Y-110211000D01*
X85869673Y-110296301D01*
X85773000Y-110529690D01*
X85773000Y-111220250D01*
X85931750Y-111379000D01*
X87281000Y-111379000D01*
X87281000Y-109093000D01*
X87535000Y-109093000D01*
X87535000Y-111379000D01*
X88884250Y-111379000D01*
X89043000Y-111220250D01*
X89043000Y-110529690D01*
X88946327Y-110296301D01*
X88861026Y-110211000D01*
X88946327Y-110125699D01*
X89043000Y-109892310D01*
X89043000Y-109251750D01*
X88884250Y-109093000D01*
X87535000Y-109093000D01*
X87281000Y-109093000D01*
X85931750Y-109093000D01*
X85773000Y-109251750D01*
X85677000Y-109251750D01*
X85518250Y-109093000D01*
X84169000Y-109093000D01*
X83915000Y-109093000D01*
X82565750Y-109093000D01*
X82407000Y-109251750D01*
X81689440Y-109251750D01*
X81689440Y-108770140D01*
X82407000Y-108052579D01*
X82407000Y-108680250D01*
X82565750Y-108839000D01*
X83915000Y-108839000D01*
X83915000Y-108819000D01*
X84169000Y-108819000D01*
X84169000Y-108839000D01*
X85518250Y-108839000D01*
X85677000Y-108680250D01*
X85677000Y-108221400D01*
X85773000Y-108221400D01*
X85773000Y-108680250D01*
X85931750Y-108839000D01*
X87281000Y-108839000D01*
X87281000Y-108819000D01*
X87535000Y-108819000D01*
X87535000Y-108839000D01*
X88884250Y-108839000D01*
X89043000Y-108680250D01*
X89043000Y-108039690D01*
X88946327Y-107806301D01*
X88767698Y-107627673D01*
X88534309Y-107531000D01*
X88483468Y-107531000D01*
X88522947Y-107332527D01*
X89760560Y-108570139D01*
G36*
X114630560Y-97574000D02*
X114674838Y-97809317D01*
X114813910Y-98025441D01*
X115026110Y-98170431D01*
X115278000Y-98221440D01*
X116878000Y-98221440D01*
X117113317Y-98177162D01*
X117329441Y-98038090D01*
X117474431Y-97825890D01*
X117502557Y-97687000D01*
X119989962Y-97687000D01*
X120008838Y-97787317D01*
X120147910Y-98003441D01*
X120360110Y-98148431D01*
X120612000Y-98199440D01*
X122212000Y-98199440D01*
X122447317Y-98155162D01*
X122663441Y-98016090D01*
X122736612Y-97909000D01*
X122855357Y-97909000D01*
X123095666Y-98008785D01*
X123586979Y-98009214D01*
X124041057Y-97821592D01*
X124388771Y-97474485D01*
X124577185Y-97020734D01*
X124577614Y-96529421D01*
X124389992Y-96075343D01*
X124301802Y-95986999D01*
X125043047Y-95986999D01*
X124884120Y-96224849D01*
X124774887Y-96774000D01*
X124884120Y-97323151D01*
X125195189Y-97788698D01*
X125660736Y-98099767D01*
X126209887Y-98209000D01*
X126266113Y-98209000D01*
X126815264Y-98099767D01*
X127280811Y-97788698D01*
X127591880Y-97323151D01*
X127701113Y-96774000D01*
X127591880Y-96224849D01*
X127432953Y-95986999D01*
X130522526Y-95986999D01*
X136220528Y-101685001D01*
X133076479Y-101685001D01*
X132642133Y-101771398D01*
X132273913Y-102017435D01*
X130637175Y-103654173D01*
X130500000Y-103626887D01*
X129950849Y-103736120D01*
X129485302Y-104047189D01*
X129361347Y-104232701D01*
X129279434Y-104287433D01*
X126352308Y-107214560D01*
X125460000Y-107214560D01*
X125224683Y-107258838D01*
X125008559Y-107397910D01*
X124863569Y-107610110D01*
X124812560Y-107862000D01*
X124812560Y-109562000D01*
X124856838Y-109797317D01*
X124995910Y-110013441D01*
X125175842Y-110136383D01*
X125100302Y-110167673D01*
X124921673Y-110346301D01*
X124845000Y-110531406D01*
X124845000Y-110062000D01*
X124777633Y-109723325D01*
X124585790Y-109436210D01*
X124585787Y-109436208D01*
X124107440Y-108957861D01*
X124107440Y-107862000D01*
X124063162Y-107626683D01*
X123924090Y-107410559D01*
X123711890Y-107265569D01*
X123460000Y-107214560D01*
X121460000Y-107214560D01*
X121224683Y-107258838D01*
X121008559Y-107397910D01*
X120863569Y-107610110D01*
X120812560Y-107862000D01*
X120812560Y-109562000D01*
X120856838Y-109797317D01*
X120995910Y-110013441D01*
X121174246Y-110135293D01*
X121008559Y-110241910D01*
X120920356Y-110371000D01*
X120411192Y-110371000D01*
X120304090Y-110204559D01*
X120091890Y-110059569D01*
X119840000Y-110008560D01*
X118367772Y-110008560D01*
X124054574Y-104321758D01*
X124295057Y-104222392D01*
X124642771Y-103875285D01*
X124831185Y-103421534D01*
X124831614Y-102930221D01*
X124643992Y-102476143D01*
X124296885Y-102128429D01*
X123843134Y-101940015D01*
X123351821Y-101939586D01*
X122897743Y-102127208D01*
X122596409Y-102428016D01*
X122596414Y-102422221D01*
X122547000Y-102302630D01*
X122547000Y-102091018D01*
X122663441Y-102016090D01*
X122808431Y-101803890D01*
X122859440Y-101552000D01*
X122859440Y-99552000D01*
X122815162Y-99316683D01*
X122788984Y-99276000D01*
X124790560Y-99276000D01*
X124790560Y-100876000D01*
X124834838Y-101111317D01*
X124973910Y-101327441D01*
X125186110Y-101472431D01*
X125438000Y-101523440D01*
X127038000Y-101523440D01*
X127273317Y-101479162D01*
X127489441Y-101340090D01*
X127634431Y-101127890D01*
X127685440Y-100876000D01*
X127685440Y-99276000D01*
X127641162Y-99040683D01*
X127502090Y-98824559D01*
X127289890Y-98679569D01*
X127038000Y-98628560D01*
X125438000Y-98628560D01*
X125202683Y-98672838D01*
X124986559Y-98811910D01*
X124841569Y-99024110D01*
X124790560Y-99276000D01*
X122788984Y-99276000D01*
X122676090Y-99100559D01*
X122463890Y-98955569D01*
X122212000Y-98904560D01*
X120612000Y-98904560D01*
X120376683Y-98948838D01*
X120160559Y-99087910D01*
X120015569Y-99300110D01*
X119964560Y-99552000D01*
X119964560Y-101552000D01*
X120008838Y-101787317D01*
X120147910Y-102003441D01*
X120265929Y-102084080D01*
X120126415Y-102420066D01*
X120125986Y-102911379D01*
X120313608Y-103365457D01*
X120660715Y-103713171D01*
X121114466Y-103901585D01*
X121264352Y-103901716D01*
X116012635Y-109153433D01*
X115766598Y-109521653D01*
X115680201Y-109955999D01*
X115680201Y-110021000D01*
X115125750Y-110021000D01*
X114967000Y-110179750D01*
X114967000Y-111379000D01*
X114987000Y-111379000D01*
X114987000Y-111633000D01*
X114967000Y-111633000D01*
X114967000Y-111653000D01*
X114713000Y-111653000D01*
X114713000Y-111633000D01*
X114693000Y-111633000D01*
X114693000Y-111379000D01*
X114713000Y-111379000D01*
X114713000Y-110179750D01*
X114554250Y-110021000D01*
X113826132Y-110021000D01*
X113002566Y-109197434D01*
X112634346Y-108951397D01*
X112300547Y-108885000D01*
X113995995Y-108885000D01*
X113996000Y-108885001D01*
X114315581Y-108821431D01*
X114334675Y-108817633D01*
X114621790Y-108625790D01*
X114722965Y-108524615D01*
X114950979Y-108524814D01*
X115405057Y-108337192D01*
X115752771Y-107990085D01*
X115941185Y-107536334D01*
X115941614Y-107045021D01*
X115753992Y-106590943D01*
X115406885Y-106243229D01*
X114953134Y-106054815D01*
X114461821Y-106054386D01*
X114007743Y-106242008D01*
X113660029Y-106589115D01*
X113471615Y-107042866D01*
X113471552Y-107115000D01*
X113147256Y-107115000D01*
X113147614Y-106705411D01*
X112959992Y-106251333D01*
X112651987Y-105942789D01*
X113462188Y-105132587D01*
X113462191Y-105132585D01*
X113654034Y-104845470D01*
X113691791Y-104655654D01*
X113701958Y-104604546D01*
X114135057Y-104425592D01*
X114482771Y-104078485D01*
X114671185Y-103624734D01*
X114671614Y-103133421D01*
X114483992Y-102679343D01*
X114136885Y-102331629D01*
X113683134Y-102143215D01*
X113191821Y-102142786D01*
X112737743Y-102330408D01*
X112390029Y-102677515D01*
X112201615Y-103131266D01*
X112201410Y-103365979D01*
X112018768Y-103639324D01*
X112018768Y-103639325D01*
X111951400Y-103977999D01*
X111951401Y-103978004D01*
X111951401Y-104140216D01*
X111704797Y-104386820D01*
X111664090Y-104323559D01*
X111451890Y-104178569D01*
X111200000Y-104127560D01*
X108197992Y-104127560D01*
X107934346Y-103951397D01*
X107500000Y-103865000D01*
X103314998Y-103865000D01*
X102880653Y-103951396D01*
X102512432Y-104197434D01*
X102499064Y-104210802D01*
X102451890Y-104178569D01*
X102200000Y-104127560D01*
X99837800Y-104127560D01*
X99837800Y-103581200D01*
X99743791Y-103108586D01*
X99476077Y-102707923D01*
X99075414Y-102440209D01*
X98602800Y-102346200D01*
X91902816Y-102346200D01*
X91267616Y-101711000D01*
X116078000Y-101711000D01*
X116703687Y-101586543D01*
X117234120Y-101232120D01*
X117588543Y-100701687D01*
X117713000Y-100076000D01*
X117588543Y-99450313D01*
X117234120Y-98919880D01*
X116703687Y-98565457D01*
X116078000Y-98441000D01*
X84971998Y-98441000D01*
X84346310Y-98565457D01*
X84175530Y-98679569D01*
X83815878Y-98919880D01*
X83815876Y-98919883D01*
X80371930Y-102363828D01*
X80088785Y-102080189D01*
X79708516Y-101922288D01*
X79296768Y-101921929D01*
X78933306Y-102072108D01*
X73482894Y-102072108D01*
X73144219Y-102139475D01*
X72857104Y-102331318D01*
X72857102Y-102331321D01*
X70015653Y-105172769D01*
X69764698Y-104797189D01*
X69299151Y-104486120D01*
X68750000Y-104376887D01*
X68200849Y-104486120D01*
X67735302Y-104797189D01*
X67689992Y-104865000D01*
X66394171Y-104865000D01*
X66063923Y-104534176D01*
X65671236Y-104371118D01*
X67799314Y-102243040D01*
X68400200Y-102243040D01*
X68635517Y-102198762D01*
X68851641Y-102059690D01*
X68996631Y-101847490D01*
X69047640Y-101595600D01*
X69047640Y-101240897D01*
X69060743Y-101221287D01*
X69157501Y-100734853D01*
X70235745Y-99656609D01*
X70392389Y-99656609D01*
X70865003Y-99562600D01*
X71265666Y-99294886D01*
X74573553Y-95986999D01*
X114630560Y-95986999D01*
X114630560Y-97574000D01*
X114630560Y-97574000D01*
G37*
X114630560Y-97574000D02*
X114674838Y-97809317D01*
X114813910Y-98025441D01*
X115026110Y-98170431D01*
X115278000Y-98221440D01*
X116878000Y-98221440D01*
X117113317Y-98177162D01*
X117329441Y-98038090D01*
X117474431Y-97825890D01*
X117502557Y-97687000D01*
X119989962Y-97687000D01*
X120008838Y-97787317D01*
X120147910Y-98003441D01*
X120360110Y-98148431D01*
X120612000Y-98199440D01*
X122212000Y-98199440D01*
X122447317Y-98155162D01*
X122663441Y-98016090D01*
X122736612Y-97909000D01*
X122855357Y-97909000D01*
X123095666Y-98008785D01*
X123586979Y-98009214D01*
X124041057Y-97821592D01*
X124388771Y-97474485D01*
X124577185Y-97020734D01*
X124577614Y-96529421D01*
X124389992Y-96075343D01*
X124301802Y-95986999D01*
X125043047Y-95986999D01*
X124884120Y-96224849D01*
X124774887Y-96774000D01*
X124884120Y-97323151D01*
X125195189Y-97788698D01*
X125660736Y-98099767D01*
X126209887Y-98209000D01*
X126266113Y-98209000D01*
X126815264Y-98099767D01*
X127280811Y-97788698D01*
X127591880Y-97323151D01*
X127701113Y-96774000D01*
X127591880Y-96224849D01*
X127432953Y-95986999D01*
X130522526Y-95986999D01*
X136220528Y-101685001D01*
X133076479Y-101685001D01*
X132642133Y-101771398D01*
X132273913Y-102017435D01*
X130637175Y-103654173D01*
X130500000Y-103626887D01*
X129950849Y-103736120D01*
X129485302Y-104047189D01*
X129361347Y-104232701D01*
X129279434Y-104287433D01*
X126352308Y-107214560D01*
X125460000Y-107214560D01*
X125224683Y-107258838D01*
X125008559Y-107397910D01*
X124863569Y-107610110D01*
X124812560Y-107862000D01*
X124812560Y-109562000D01*
X124856838Y-109797317D01*
X124995910Y-110013441D01*
X125175842Y-110136383D01*
X125100302Y-110167673D01*
X124921673Y-110346301D01*
X124845000Y-110531406D01*
X124845000Y-110062000D01*
X124777633Y-109723325D01*
X124585790Y-109436210D01*
X124585787Y-109436208D01*
X124107440Y-108957861D01*
X124107440Y-107862000D01*
X124063162Y-107626683D01*
X123924090Y-107410559D01*
X123711890Y-107265569D01*
X123460000Y-107214560D01*
X121460000Y-107214560D01*
X121224683Y-107258838D01*
X121008559Y-107397910D01*
X120863569Y-107610110D01*
X120812560Y-107862000D01*
X120812560Y-109562000D01*
X120856838Y-109797317D01*
X120995910Y-110013441D01*
X121174246Y-110135293D01*
X121008559Y-110241910D01*
X120920356Y-110371000D01*
X120411192Y-110371000D01*
X120304090Y-110204559D01*
X120091890Y-110059569D01*
X119840000Y-110008560D01*
X118367772Y-110008560D01*
X124054574Y-104321758D01*
X124295057Y-104222392D01*
X124642771Y-103875285D01*
X124831185Y-103421534D01*
X124831614Y-102930221D01*
X124643992Y-102476143D01*
X124296885Y-102128429D01*
X123843134Y-101940015D01*
X123351821Y-101939586D01*
X122897743Y-102127208D01*
X122596409Y-102428016D01*
X122596414Y-102422221D01*
X122547000Y-102302630D01*
X122547000Y-102091018D01*
X122663441Y-102016090D01*
X122808431Y-101803890D01*
X122859440Y-101552000D01*
X122859440Y-99552000D01*
X122815162Y-99316683D01*
X122788984Y-99276000D01*
X124790560Y-99276000D01*
X124790560Y-100876000D01*
X124834838Y-101111317D01*
X124973910Y-101327441D01*
X125186110Y-101472431D01*
X125438000Y-101523440D01*
X127038000Y-101523440D01*
X127273317Y-101479162D01*
X127489441Y-101340090D01*
X127634431Y-101127890D01*
X127685440Y-100876000D01*
X127685440Y-99276000D01*
X127641162Y-99040683D01*
X127502090Y-98824559D01*
X127289890Y-98679569D01*
X127038000Y-98628560D01*
X125438000Y-98628560D01*
X125202683Y-98672838D01*
X124986559Y-98811910D01*
X124841569Y-99024110D01*
X124790560Y-99276000D01*
X122788984Y-99276000D01*
X122676090Y-99100559D01*
X122463890Y-98955569D01*
X122212000Y-98904560D01*
X120612000Y-98904560D01*
X120376683Y-98948838D01*
X120160559Y-99087910D01*
X120015569Y-99300110D01*
X119964560Y-99552000D01*
X119964560Y-101552000D01*
X120008838Y-101787317D01*
X120147910Y-102003441D01*
X120265929Y-102084080D01*
X120126415Y-102420066D01*
X120125986Y-102911379D01*
X120313608Y-103365457D01*
X120660715Y-103713171D01*
X121114466Y-103901585D01*
X121264352Y-103901716D01*
X116012635Y-109153433D01*
X115766598Y-109521653D01*
X115680201Y-109955999D01*
X115680201Y-110021000D01*
X115125750Y-110021000D01*
X114967000Y-110179750D01*
X114967000Y-111379000D01*
X114987000Y-111379000D01*
X114987000Y-111633000D01*
X114967000Y-111633000D01*
X114967000Y-111653000D01*
X114713000Y-111653000D01*
X114713000Y-111633000D01*
X114693000Y-111633000D01*
X114693000Y-111379000D01*
X114713000Y-111379000D01*
X114713000Y-110179750D01*
X114554250Y-110021000D01*
X113826132Y-110021000D01*
X113002566Y-109197434D01*
X112634346Y-108951397D01*
X112300547Y-108885000D01*
X113995995Y-108885000D01*
X113996000Y-108885001D01*
X114315581Y-108821431D01*
X114334675Y-108817633D01*
X114621790Y-108625790D01*
X114722965Y-108524615D01*
X114950979Y-108524814D01*
X115405057Y-108337192D01*
X115752771Y-107990085D01*
X115941185Y-107536334D01*
X115941614Y-107045021D01*
X115753992Y-106590943D01*
X115406885Y-106243229D01*
X114953134Y-106054815D01*
X114461821Y-106054386D01*
X114007743Y-106242008D01*
X113660029Y-106589115D01*
X113471615Y-107042866D01*
X113471552Y-107115000D01*
X113147256Y-107115000D01*
X113147614Y-106705411D01*
X112959992Y-106251333D01*
X112651987Y-105942789D01*
X113462188Y-105132587D01*
X113462191Y-105132585D01*
X113654034Y-104845470D01*
X113691791Y-104655654D01*
X113701958Y-104604546D01*
X114135057Y-104425592D01*
X114482771Y-104078485D01*
X114671185Y-103624734D01*
X114671614Y-103133421D01*
X114483992Y-102679343D01*
X114136885Y-102331629D01*
X113683134Y-102143215D01*
X113191821Y-102142786D01*
X112737743Y-102330408D01*
X112390029Y-102677515D01*
X112201615Y-103131266D01*
X112201410Y-103365979D01*
X112018768Y-103639324D01*
X112018768Y-103639325D01*
X111951400Y-103977999D01*
X111951401Y-103978004D01*
X111951401Y-104140216D01*
X111704797Y-104386820D01*
X111664090Y-104323559D01*
X111451890Y-104178569D01*
X111200000Y-104127560D01*
X108197992Y-104127560D01*
X107934346Y-103951397D01*
X107500000Y-103865000D01*
X103314998Y-103865000D01*
X102880653Y-103951396D01*
X102512432Y-104197434D01*
X102499064Y-104210802D01*
X102451890Y-104178569D01*
X102200000Y-104127560D01*
X99837800Y-104127560D01*
X99837800Y-103581200D01*
X99743791Y-103108586D01*
X99476077Y-102707923D01*
X99075414Y-102440209D01*
X98602800Y-102346200D01*
X91902816Y-102346200D01*
X91267616Y-101711000D01*
X116078000Y-101711000D01*
X116703687Y-101586543D01*
X117234120Y-101232120D01*
X117588543Y-100701687D01*
X117713000Y-100076000D01*
X117588543Y-99450313D01*
X117234120Y-98919880D01*
X116703687Y-98565457D01*
X116078000Y-98441000D01*
X84971998Y-98441000D01*
X84346310Y-98565457D01*
X84175530Y-98679569D01*
X83815878Y-98919880D01*
X83815876Y-98919883D01*
X80371930Y-102363828D01*
X80088785Y-102080189D01*
X79708516Y-101922288D01*
X79296768Y-101921929D01*
X78933306Y-102072108D01*
X73482894Y-102072108D01*
X73144219Y-102139475D01*
X72857104Y-102331318D01*
X72857102Y-102331321D01*
X70015653Y-105172769D01*
X69764698Y-104797189D01*
X69299151Y-104486120D01*
X68750000Y-104376887D01*
X68200849Y-104486120D01*
X67735302Y-104797189D01*
X67689992Y-104865000D01*
X66394171Y-104865000D01*
X66063923Y-104534176D01*
X65671236Y-104371118D01*
X67799314Y-102243040D01*
X68400200Y-102243040D01*
X68635517Y-102198762D01*
X68851641Y-102059690D01*
X68996631Y-101847490D01*
X69047640Y-101595600D01*
X69047640Y-101240897D01*
X69060743Y-101221287D01*
X69157501Y-100734853D01*
X70235745Y-99656609D01*
X70392389Y-99656609D01*
X70865003Y-99562600D01*
X71265666Y-99294886D01*
X74573553Y-95986999D01*
X114630560Y-95986999D01*
X114630560Y-97574000D01*
G36*
X62870980Y-87393080D02*
X62516557Y-87923512D01*
X62392099Y-88549200D01*
X62392100Y-88549205D01*
X62392100Y-88787769D01*
X62379660Y-88849200D01*
X62379660Y-90549200D01*
X62423938Y-90784517D01*
X62563010Y-91000641D01*
X62775210Y-91145631D01*
X63027100Y-91196640D01*
X63381803Y-91196640D01*
X63401413Y-91209743D01*
X64027100Y-91334200D01*
X64652787Y-91209743D01*
X64672397Y-91196640D01*
X65027100Y-91196640D01*
X65262417Y-91152362D01*
X65478541Y-91013290D01*
X65623531Y-90801090D01*
X65674540Y-90549200D01*
X65674540Y-89214000D01*
X67183219Y-87705320D01*
X67537643Y-87174888D01*
X67662100Y-86549200D01*
X67537643Y-85923512D01*
X67394978Y-85710000D01*
X69055769Y-85710000D01*
X68977000Y-86106000D01*
X68977000Y-86673622D01*
X68901413Y-86688657D01*
X68370980Y-87043080D01*
X68370978Y-87043083D01*
X67212300Y-88201760D01*
X67027100Y-88201760D01*
X66791783Y-88246038D01*
X66575659Y-88385110D01*
X66430669Y-88597310D01*
X66379660Y-88849200D01*
X66379660Y-90549200D01*
X66423938Y-90784517D01*
X66563010Y-91000641D01*
X66775210Y-91145631D01*
X67027100Y-91196640D01*
X67381802Y-91196640D01*
X67401412Y-91209743D01*
X68027100Y-91334201D01*
X68652788Y-91209743D01*
X68672398Y-91196640D01*
X69027100Y-91196640D01*
X69262417Y-91152362D01*
X69385918Y-91072891D01*
X70292100Y-91072891D01*
X70292100Y-91913450D01*
X70450850Y-92072200D01*
X71650100Y-92072200D01*
X71650100Y-90722950D01*
X71491350Y-90564200D01*
X70800790Y-90564200D01*
X70567401Y-90660873D01*
X70388773Y-90839502D01*
X70292100Y-91072891D01*
X69385918Y-91072891D01*
X69478541Y-91013290D01*
X69623531Y-90801090D01*
X69674540Y-90549200D01*
X69674540Y-90364000D01*
X70204339Y-89834200D01*
X70865669Y-89834200D01*
X70927100Y-89846640D01*
X72627100Y-89846640D01*
X72862417Y-89802362D01*
X73078110Y-89663567D01*
X73153823Y-89776879D01*
X73484651Y-90107707D01*
X73273095Y-90195336D01*
X73198961Y-90441455D01*
X74027100Y-91269595D01*
X74041242Y-91255452D01*
X74220848Y-91435058D01*
X74206705Y-91449200D01*
X74220848Y-91463342D01*
X74041242Y-91642948D01*
X74027100Y-91628805D01*
X74012958Y-91642948D01*
X73833352Y-91463342D01*
X73847495Y-91449200D01*
X73019355Y-90621061D01*
X72944858Y-90643500D01*
X72753410Y-90564200D01*
X72062850Y-90564200D01*
X71904100Y-90722950D01*
X71904100Y-92072200D01*
X72718972Y-92072200D01*
X72773236Y-92203205D01*
X73019353Y-92277339D01*
X72970492Y-92326200D01*
X71904100Y-92326200D01*
X71904100Y-93675450D01*
X72062850Y-93834200D01*
X72753410Y-93834200D01*
X72986799Y-93737527D01*
X73165427Y-93558898D01*
X73262100Y-93325509D01*
X73262100Y-92666561D01*
X73273095Y-92703064D01*
X73810323Y-92896165D01*
X74380554Y-92868978D01*
X74781105Y-92703064D01*
X74855239Y-92456947D01*
X74970114Y-92571822D01*
X75029660Y-92512276D01*
X75029660Y-93199200D01*
X75073938Y-93434517D01*
X75127014Y-93516999D01*
X74061999Y-93516999D01*
X73589385Y-93611008D01*
X73188722Y-93878722D01*
X71122972Y-95944472D01*
X70802920Y-95465481D01*
X70776920Y-95439480D01*
X70246488Y-95085057D01*
X69620800Y-94960599D01*
X69620795Y-94960600D01*
X68461631Y-94960600D01*
X68400200Y-94948160D01*
X66700200Y-94948160D01*
X66464883Y-94992438D01*
X66248759Y-95131510D01*
X66103769Y-95343710D01*
X66052760Y-95595600D01*
X66052760Y-95853932D01*
X65941839Y-95964853D01*
X65867705Y-95718736D01*
X65330477Y-95525635D01*
X64760246Y-95552822D01*
X64359695Y-95718736D01*
X64285561Y-95964855D01*
X65113700Y-96792995D01*
X65127842Y-96778852D01*
X65307448Y-96958458D01*
X65293305Y-96972600D01*
X66084387Y-97763681D01*
X66097038Y-97830917D01*
X66236110Y-98047041D01*
X66448310Y-98192031D01*
X66700200Y-98243040D01*
X68156206Y-98243040D01*
X67539341Y-98859905D01*
X67427200Y-98837599D01*
X67427195Y-98837600D01*
X65828756Y-98837600D01*
X65387339Y-98396183D01*
X65467154Y-98392378D01*
X65867705Y-98226464D01*
X65941839Y-97980345D01*
X65113700Y-97152205D01*
X65099558Y-97166348D01*
X64919952Y-96986742D01*
X64934095Y-96972600D01*
X64105955Y-96144461D01*
X64035200Y-96165773D01*
X64035200Y-95469291D01*
X63938527Y-95235902D01*
X63759899Y-95057273D01*
X63526510Y-94960600D01*
X62835950Y-94960600D01*
X62677200Y-95119350D01*
X62677200Y-96468600D01*
X62697200Y-96468600D01*
X62697200Y-96722600D01*
X62677200Y-96722600D01*
X62677200Y-96742600D01*
X62423200Y-96742600D01*
X62423200Y-96722600D01*
X62403200Y-96722600D01*
X62403200Y-96468600D01*
X62423200Y-96468600D01*
X62423200Y-95119350D01*
X62264450Y-94960600D01*
X61573890Y-94960600D01*
X61483510Y-94998037D01*
X61150920Y-94500280D01*
X60620487Y-94145857D01*
X59994800Y-94021400D01*
X59369113Y-94145857D01*
X58838680Y-94500280D01*
X58484257Y-95030713D01*
X58359800Y-95656400D01*
X58359800Y-97223760D01*
X58235400Y-97348160D01*
X58050200Y-97348160D01*
X57814883Y-97392438D01*
X57598759Y-97531510D01*
X57453769Y-97743710D01*
X57402760Y-97995600D01*
X57402760Y-98735920D01*
X56697640Y-98030800D01*
X56697640Y-97995600D01*
X56653362Y-97760283D01*
X56514290Y-97544159D01*
X56302090Y-97399169D01*
X56050200Y-97348160D01*
X55845498Y-97348160D01*
X55825888Y-97335057D01*
X55200200Y-97210599D01*
X55200195Y-97210600D01*
X55050205Y-97210600D01*
X55050200Y-97210599D01*
X54484368Y-97323151D01*
X54424513Y-97335057D01*
X54404903Y-97348160D01*
X54050200Y-97348160D01*
X53814883Y-97392438D01*
X53710000Y-97459928D01*
X53710000Y-91875022D01*
X56304584Y-91875022D01*
X56525353Y-92245743D01*
X57497012Y-92639119D01*
X58545247Y-92630713D01*
X58897150Y-92484950D01*
X70292100Y-92484950D01*
X70292100Y-93325509D01*
X70388773Y-93558898D01*
X70567401Y-93737527D01*
X70800790Y-93834200D01*
X71491350Y-93834200D01*
X71650100Y-93675450D01*
X71650100Y-92326200D01*
X70450850Y-92326200D01*
X70292100Y-92484950D01*
X58897150Y-92484950D01*
X59474647Y-92245743D01*
X59695416Y-91875022D01*
X58000000Y-90179605D01*
X56304584Y-91875022D01*
X53710000Y-91875022D01*
X53710000Y-89497012D01*
X55360881Y-89497012D01*
X55369287Y-90545247D01*
X55754257Y-91474647D01*
X56124978Y-91695416D01*
X57820395Y-90000000D01*
X58179605Y-90000000D01*
X59875022Y-91695416D01*
X60245743Y-91474647D01*
X60639119Y-90502988D01*
X60630713Y-89454753D01*
X60245743Y-88525353D01*
X59875022Y-88304584D01*
X58179605Y-90000000D01*
X57820395Y-90000000D01*
X56124978Y-88304584D01*
X55754257Y-88525353D01*
X55360881Y-89497012D01*
X53710000Y-89497012D01*
X53710000Y-88124978D01*
X56304584Y-88124978D01*
X58000000Y-89820395D01*
X59695416Y-88124978D01*
X59474647Y-87754257D01*
X58502988Y-87360881D01*
X57454753Y-87369287D01*
X56525353Y-87754257D01*
X56304584Y-88124978D01*
X53710000Y-88124978D01*
X53710000Y-85710000D01*
X64554061Y-85710000D01*
X62870980Y-87393080D01*
X62870980Y-87393080D01*
G37*
X62870980Y-87393080D02*
X62516557Y-87923512D01*
X62392099Y-88549200D01*
X62392100Y-88549205D01*
X62392100Y-88787769D01*
X62379660Y-88849200D01*
X62379660Y-90549200D01*
X62423938Y-90784517D01*
X62563010Y-91000641D01*
X62775210Y-91145631D01*
X63027100Y-91196640D01*
X63381803Y-91196640D01*
X63401413Y-91209743D01*
X64027100Y-91334200D01*
X64652787Y-91209743D01*
X64672397Y-91196640D01*
X65027100Y-91196640D01*
X65262417Y-91152362D01*
X65478541Y-91013290D01*
X65623531Y-90801090D01*
X65674540Y-90549200D01*
X65674540Y-89214000D01*
X67183219Y-87705320D01*
X67537643Y-87174888D01*
X67662100Y-86549200D01*
X67537643Y-85923512D01*
X67394978Y-85710000D01*
X69055769Y-85710000D01*
X68977000Y-86106000D01*
X68977000Y-86673622D01*
X68901413Y-86688657D01*
X68370980Y-87043080D01*
X68370978Y-87043083D01*
X67212300Y-88201760D01*
X67027100Y-88201760D01*
X66791783Y-88246038D01*
X66575659Y-88385110D01*
X66430669Y-88597310D01*
X66379660Y-88849200D01*
X66379660Y-90549200D01*
X66423938Y-90784517D01*
X66563010Y-91000641D01*
X66775210Y-91145631D01*
X67027100Y-91196640D01*
X67381802Y-91196640D01*
X67401412Y-91209743D01*
X68027100Y-91334201D01*
X68652788Y-91209743D01*
X68672398Y-91196640D01*
X69027100Y-91196640D01*
X69262417Y-91152362D01*
X69385918Y-91072891D01*
X70292100Y-91072891D01*
X70292100Y-91913450D01*
X70450850Y-92072200D01*
X71650100Y-92072200D01*
X71650100Y-90722950D01*
X71491350Y-90564200D01*
X70800790Y-90564200D01*
X70567401Y-90660873D01*
X70388773Y-90839502D01*
X70292100Y-91072891D01*
X69385918Y-91072891D01*
X69478541Y-91013290D01*
X69623531Y-90801090D01*
X69674540Y-90549200D01*
X69674540Y-90364000D01*
X70204339Y-89834200D01*
X70865669Y-89834200D01*
X70927100Y-89846640D01*
X72627100Y-89846640D01*
X72862417Y-89802362D01*
X73078110Y-89663567D01*
X73153823Y-89776879D01*
X73484651Y-90107707D01*
X73273095Y-90195336D01*
X73198961Y-90441455D01*
X74027100Y-91269595D01*
X74041242Y-91255452D01*
X74220848Y-91435058D01*
X74206705Y-91449200D01*
X74220848Y-91463342D01*
X74041242Y-91642948D01*
X74027100Y-91628805D01*
X74012958Y-91642948D01*
X73833352Y-91463342D01*
X73847495Y-91449200D01*
X73019355Y-90621061D01*
X72944858Y-90643500D01*
X72753410Y-90564200D01*
X72062850Y-90564200D01*
X71904100Y-90722950D01*
X71904100Y-92072200D01*
X72718972Y-92072200D01*
X72773236Y-92203205D01*
X73019353Y-92277339D01*
X72970492Y-92326200D01*
X71904100Y-92326200D01*
X71904100Y-93675450D01*
X72062850Y-93834200D01*
X72753410Y-93834200D01*
X72986799Y-93737527D01*
X73165427Y-93558898D01*
X73262100Y-93325509D01*
X73262100Y-92666561D01*
X73273095Y-92703064D01*
X73810323Y-92896165D01*
X74380554Y-92868978D01*
X74781105Y-92703064D01*
X74855239Y-92456947D01*
X74970114Y-92571822D01*
X75029660Y-92512276D01*
X75029660Y-93199200D01*
X75073938Y-93434517D01*
X75127014Y-93516999D01*
X74061999Y-93516999D01*
X73589385Y-93611008D01*
X73188722Y-93878722D01*
X71122972Y-95944472D01*
X70802920Y-95465481D01*
X70776920Y-95439480D01*
X70246488Y-95085057D01*
X69620800Y-94960599D01*
X69620795Y-94960600D01*
X68461631Y-94960600D01*
X68400200Y-94948160D01*
X66700200Y-94948160D01*
X66464883Y-94992438D01*
X66248759Y-95131510D01*
X66103769Y-95343710D01*
X66052760Y-95595600D01*
X66052760Y-95853932D01*
X65941839Y-95964853D01*
X65867705Y-95718736D01*
X65330477Y-95525635D01*
X64760246Y-95552822D01*
X64359695Y-95718736D01*
X64285561Y-95964855D01*
X65113700Y-96792995D01*
X65127842Y-96778852D01*
X65307448Y-96958458D01*
X65293305Y-96972600D01*
X66084387Y-97763681D01*
X66097038Y-97830917D01*
X66236110Y-98047041D01*
X66448310Y-98192031D01*
X66700200Y-98243040D01*
X68156206Y-98243040D01*
X67539341Y-98859905D01*
X67427200Y-98837599D01*
X67427195Y-98837600D01*
X65828756Y-98837600D01*
X65387339Y-98396183D01*
X65467154Y-98392378D01*
X65867705Y-98226464D01*
X65941839Y-97980345D01*
X65113700Y-97152205D01*
X65099558Y-97166348D01*
X64919952Y-96986742D01*
X64934095Y-96972600D01*
X64105955Y-96144461D01*
X64035200Y-96165773D01*
X64035200Y-95469291D01*
X63938527Y-95235902D01*
X63759899Y-95057273D01*
X63526510Y-94960600D01*
X62835950Y-94960600D01*
X62677200Y-95119350D01*
X62677200Y-96468600D01*
X62697200Y-96468600D01*
X62697200Y-96722600D01*
X62677200Y-96722600D01*
X62677200Y-96742600D01*
X62423200Y-96742600D01*
X62423200Y-96722600D01*
X62403200Y-96722600D01*
X62403200Y-96468600D01*
X62423200Y-96468600D01*
X62423200Y-95119350D01*
X62264450Y-94960600D01*
X61573890Y-94960600D01*
X61483510Y-94998037D01*
X61150920Y-94500280D01*
X60620487Y-94145857D01*
X59994800Y-94021400D01*
X59369113Y-94145857D01*
X58838680Y-94500280D01*
X58484257Y-95030713D01*
X58359800Y-95656400D01*
X58359800Y-97223760D01*
X58235400Y-97348160D01*
X58050200Y-97348160D01*
X57814883Y-97392438D01*
X57598759Y-97531510D01*
X57453769Y-97743710D01*
X57402760Y-97995600D01*
X57402760Y-98735920D01*
X56697640Y-98030800D01*
X56697640Y-97995600D01*
X56653362Y-97760283D01*
X56514290Y-97544159D01*
X56302090Y-97399169D01*
X56050200Y-97348160D01*
X55845498Y-97348160D01*
X55825888Y-97335057D01*
X55200200Y-97210599D01*
X55200195Y-97210600D01*
X55050205Y-97210600D01*
X55050200Y-97210599D01*
X54484368Y-97323151D01*
X54424513Y-97335057D01*
X54404903Y-97348160D01*
X54050200Y-97348160D01*
X53814883Y-97392438D01*
X53710000Y-97459928D01*
X53710000Y-91875022D01*
X56304584Y-91875022D01*
X56525353Y-92245743D01*
X57497012Y-92639119D01*
X58545247Y-92630713D01*
X58897150Y-92484950D01*
X70292100Y-92484950D01*
X70292100Y-93325509D01*
X70388773Y-93558898D01*
X70567401Y-93737527D01*
X70800790Y-93834200D01*
X71491350Y-93834200D01*
X71650100Y-93675450D01*
X71650100Y-92326200D01*
X70450850Y-92326200D01*
X70292100Y-92484950D01*
X58897150Y-92484950D01*
X59474647Y-92245743D01*
X59695416Y-91875022D01*
X58000000Y-90179605D01*
X56304584Y-91875022D01*
X53710000Y-91875022D01*
X53710000Y-89497012D01*
X55360881Y-89497012D01*
X55369287Y-90545247D01*
X55754257Y-91474647D01*
X56124978Y-91695416D01*
X57820395Y-90000000D01*
X58179605Y-90000000D01*
X59875022Y-91695416D01*
X60245743Y-91474647D01*
X60639119Y-90502988D01*
X60630713Y-89454753D01*
X60245743Y-88525353D01*
X59875022Y-88304584D01*
X58179605Y-90000000D01*
X57820395Y-90000000D01*
X56124978Y-88304584D01*
X55754257Y-88525353D01*
X55360881Y-89497012D01*
X53710000Y-89497012D01*
X53710000Y-88124978D01*
X56304584Y-88124978D01*
X58000000Y-89820395D01*
X59695416Y-88124978D01*
X59474647Y-87754257D01*
X58502988Y-87360881D01*
X57454753Y-87369287D01*
X56525353Y-87754257D01*
X56304584Y-88124978D01*
X53710000Y-88124978D01*
X53710000Y-85710000D01*
X64554061Y-85710000D01*
X62870980Y-87393080D01*
M02*
