G04 #@! TF.FileFunction,Legend,Top*
%FSLAX46Y46*%
G04 Gerber Fmt 4.6, Leading zero omitted, Abs format (unit mm)*
G04 Created by KiCad (PCBNEW 4.0.2+dfsg1-stable) date sam. 06 janv. 2018 03:07:49 CET*
%MOMM*%
G01*
G04 APERTURE LIST*
%ADD10C,0.100000*%
%ADD11C,0.300000*%
%ADD12C,0.200000*%
%ADD13C,0.120000*%
%ADD14C,0.150000*%
G04 APERTURE END LIST*
D10*
D11*
X136707143Y-121658572D02*
X136778571Y-121444286D01*
X136778571Y-121087143D01*
X136707143Y-120944286D01*
X136635714Y-120872857D01*
X136492857Y-120801429D01*
X136350000Y-120801429D01*
X136207143Y-120872857D01*
X136135714Y-120944286D01*
X136064286Y-121087143D01*
X135992857Y-121372857D01*
X135921429Y-121515715D01*
X135850000Y-121587143D01*
X135707143Y-121658572D01*
X135564286Y-121658572D01*
X135421429Y-121587143D01*
X135350000Y-121515715D01*
X135278571Y-121372857D01*
X135278571Y-121015715D01*
X135350000Y-120801429D01*
X135278571Y-120372858D02*
X135278571Y-119515715D01*
X136778571Y-119944286D02*
X135278571Y-119944286D01*
X136207143Y-119015715D02*
X136207143Y-117872858D01*
X136778571Y-116444286D02*
X136778571Y-117158572D01*
X135278571Y-117158572D01*
X136778571Y-115944286D02*
X135778571Y-115944286D01*
X135278571Y-115944286D02*
X135350000Y-116015715D01*
X135421429Y-115944286D01*
X135350000Y-115872858D01*
X135278571Y-115944286D01*
X135421429Y-115944286D01*
X135778571Y-115230000D02*
X136778571Y-115230000D01*
X135921429Y-115230000D02*
X135850000Y-115158572D01*
X135778571Y-115015714D01*
X135778571Y-114801429D01*
X135850000Y-114658572D01*
X135992857Y-114587143D01*
X136778571Y-114587143D01*
X136778571Y-113872857D02*
X135278571Y-113872857D01*
X136207143Y-113730000D02*
X136778571Y-113301429D01*
X135778571Y-113301429D02*
X136350000Y-113872857D01*
X132302857Y-135129999D02*
X132302857Y-134629999D01*
X133088571Y-134415713D02*
X133088571Y-135129999D01*
X131588571Y-135129999D01*
X131588571Y-134415713D01*
X132088571Y-133772856D02*
X133088571Y-133772856D01*
X132231429Y-133772856D02*
X132160000Y-133701428D01*
X132088571Y-133558570D01*
X132088571Y-133344285D01*
X132160000Y-133201428D01*
X132302857Y-133129999D01*
X133088571Y-133129999D01*
X133017143Y-131772856D02*
X133088571Y-131915713D01*
X133088571Y-132201427D01*
X133017143Y-132344285D01*
X132945714Y-132415713D01*
X132802857Y-132487142D01*
X132374286Y-132487142D01*
X132231429Y-132415713D01*
X132160000Y-132344285D01*
X132088571Y-132201427D01*
X132088571Y-131915713D01*
X132160000Y-131772856D01*
X133088571Y-130915713D02*
X133017143Y-131058571D01*
X132945714Y-131129999D01*
X132802857Y-131201428D01*
X132374286Y-131201428D01*
X132231429Y-131129999D01*
X132160000Y-131058571D01*
X132088571Y-130915713D01*
X132088571Y-130701428D01*
X132160000Y-130558571D01*
X132231429Y-130487142D01*
X132374286Y-130415713D01*
X132802857Y-130415713D01*
X132945714Y-130487142D01*
X133017143Y-130558571D01*
X133088571Y-130701428D01*
X133088571Y-130915713D01*
X133088571Y-129129999D02*
X131588571Y-129129999D01*
X133017143Y-129129999D02*
X133088571Y-129272856D01*
X133088571Y-129558570D01*
X133017143Y-129701428D01*
X132945714Y-129772856D01*
X132802857Y-129844285D01*
X132374286Y-129844285D01*
X132231429Y-129772856D01*
X132160000Y-129701428D01*
X132088571Y-129558570D01*
X132088571Y-129272856D01*
X132160000Y-129129999D01*
X133017143Y-127844285D02*
X133088571Y-127987142D01*
X133088571Y-128272856D01*
X133017143Y-128415713D01*
X132874286Y-128487142D01*
X132302857Y-128487142D01*
X132160000Y-128415713D01*
X132088571Y-128272856D01*
X132088571Y-127987142D01*
X132160000Y-127844285D01*
X132302857Y-127772856D01*
X132445714Y-127772856D01*
X132588571Y-128487142D01*
X132088571Y-126487142D02*
X133088571Y-126487142D01*
X132088571Y-127129999D02*
X132874286Y-127129999D01*
X133017143Y-127058571D01*
X133088571Y-126915713D01*
X133088571Y-126701428D01*
X133017143Y-126558571D01*
X132945714Y-126487142D01*
X133088571Y-125772856D02*
X132088571Y-125772856D01*
X132374286Y-125772856D02*
X132231429Y-125701428D01*
X132160000Y-125629999D01*
X132088571Y-125487142D01*
X132088571Y-125344285D01*
X131731429Y-124915714D02*
X131660000Y-124844285D01*
X131588571Y-124701428D01*
X131588571Y-124344285D01*
X131660000Y-124201428D01*
X131731429Y-124129999D01*
X131874286Y-124058571D01*
X132017143Y-124058571D01*
X132231429Y-124129999D01*
X133088571Y-124987142D01*
X133088571Y-124058571D01*
X134808571Y-138548571D02*
X134808571Y-139262857D01*
X133308571Y-139262857D01*
X134808571Y-138048571D02*
X133808571Y-138048571D01*
X133308571Y-138048571D02*
X133380000Y-138120000D01*
X133451429Y-138048571D01*
X133380000Y-137977143D01*
X133308571Y-138048571D01*
X133451429Y-138048571D01*
X134808571Y-137334285D02*
X133308571Y-137334285D01*
X133880000Y-137334285D02*
X133808571Y-137191428D01*
X133808571Y-136905714D01*
X133880000Y-136762857D01*
X133951429Y-136691428D01*
X134094286Y-136619999D01*
X134522857Y-136619999D01*
X134665714Y-136691428D01*
X134737143Y-136762857D01*
X134808571Y-136905714D01*
X134808571Y-137191428D01*
X134737143Y-137334285D01*
X134808571Y-135977142D02*
X133808571Y-135977142D01*
X134094286Y-135977142D02*
X133951429Y-135905714D01*
X133880000Y-135834285D01*
X133808571Y-135691428D01*
X133808571Y-135548571D01*
X134737143Y-134477143D02*
X134808571Y-134620000D01*
X134808571Y-134905714D01*
X134737143Y-135048571D01*
X134594286Y-135120000D01*
X134022857Y-135120000D01*
X133880000Y-135048571D01*
X133808571Y-134905714D01*
X133808571Y-134620000D01*
X133880000Y-134477143D01*
X134022857Y-134405714D01*
X134165714Y-134405714D01*
X134308571Y-135120000D01*
X130235715Y-141725714D02*
X130164286Y-141797143D01*
X129950000Y-141868571D01*
X129807143Y-141868571D01*
X129592858Y-141797143D01*
X129450000Y-141654286D01*
X129378572Y-141511429D01*
X129307143Y-141225714D01*
X129307143Y-141011429D01*
X129378572Y-140725714D01*
X129450000Y-140582857D01*
X129592858Y-140440000D01*
X129807143Y-140368571D01*
X129950000Y-140368571D01*
X130164286Y-140440000D01*
X130235715Y-140511429D01*
X130807143Y-141440000D02*
X131521429Y-141440000D01*
X130664286Y-141868571D02*
X131164286Y-140368571D01*
X131664286Y-141868571D01*
X132164286Y-141868571D02*
X132164286Y-140368571D01*
X133021429Y-141868571D01*
X133021429Y-140368571D01*
X122075715Y-141667143D02*
X122290001Y-141738571D01*
X122647144Y-141738571D01*
X122790001Y-141667143D01*
X122861430Y-141595714D01*
X122932858Y-141452857D01*
X122932858Y-141310000D01*
X122861430Y-141167143D01*
X122790001Y-141095714D01*
X122647144Y-141024286D01*
X122361430Y-140952857D01*
X122218572Y-140881429D01*
X122147144Y-140810000D01*
X122075715Y-140667143D01*
X122075715Y-140524286D01*
X122147144Y-140381429D01*
X122218572Y-140310000D01*
X122361430Y-140238571D01*
X122718572Y-140238571D01*
X122932858Y-140310000D01*
X124147143Y-141667143D02*
X124004286Y-141738571D01*
X123718572Y-141738571D01*
X123575715Y-141667143D01*
X123504286Y-141524286D01*
X123504286Y-140952857D01*
X123575715Y-140810000D01*
X123718572Y-140738571D01*
X124004286Y-140738571D01*
X124147143Y-140810000D01*
X124218572Y-140952857D01*
X124218572Y-141095714D01*
X123504286Y-141238571D01*
X124861429Y-141738571D02*
X124861429Y-140738571D01*
X124861429Y-141024286D02*
X124932857Y-140881429D01*
X125004286Y-140810000D01*
X125147143Y-140738571D01*
X125290000Y-140738571D01*
X125790000Y-141738571D02*
X125790000Y-140738571D01*
X125790000Y-140238571D02*
X125718571Y-140310000D01*
X125790000Y-140381429D01*
X125861428Y-140310000D01*
X125790000Y-140238571D01*
X125790000Y-140381429D01*
X127147143Y-141738571D02*
X127147143Y-140952857D01*
X127075714Y-140810000D01*
X126932857Y-140738571D01*
X126647143Y-140738571D01*
X126504286Y-140810000D01*
X127147143Y-141667143D02*
X127004286Y-141738571D01*
X126647143Y-141738571D01*
X126504286Y-141667143D01*
X126432857Y-141524286D01*
X126432857Y-141381429D01*
X126504286Y-141238571D01*
X126647143Y-141167143D01*
X127004286Y-141167143D01*
X127147143Y-141095714D01*
X128075715Y-141738571D02*
X127932857Y-141667143D01*
X127861429Y-141524286D01*
X127861429Y-140238571D01*
X109870001Y-141872857D02*
X110370001Y-141872857D01*
X110584287Y-142658571D02*
X109870001Y-142658571D01*
X109870001Y-141158571D01*
X110584287Y-141158571D01*
X111227144Y-141658571D02*
X111227144Y-142658571D01*
X111227144Y-141801429D02*
X111298572Y-141730000D01*
X111441430Y-141658571D01*
X111655715Y-141658571D01*
X111798572Y-141730000D01*
X111870001Y-141872857D01*
X111870001Y-142658571D01*
X113227144Y-142587143D02*
X113084287Y-142658571D01*
X112798573Y-142658571D01*
X112655715Y-142587143D01*
X112584287Y-142515714D01*
X112512858Y-142372857D01*
X112512858Y-141944286D01*
X112584287Y-141801429D01*
X112655715Y-141730000D01*
X112798573Y-141658571D01*
X113084287Y-141658571D01*
X113227144Y-141730000D01*
X114084287Y-142658571D02*
X113941429Y-142587143D01*
X113870001Y-142515714D01*
X113798572Y-142372857D01*
X113798572Y-141944286D01*
X113870001Y-141801429D01*
X113941429Y-141730000D01*
X114084287Y-141658571D01*
X114298572Y-141658571D01*
X114441429Y-141730000D01*
X114512858Y-141801429D01*
X114584287Y-141944286D01*
X114584287Y-142372857D01*
X114512858Y-142515714D01*
X114441429Y-142587143D01*
X114298572Y-142658571D01*
X114084287Y-142658571D01*
X115870001Y-142658571D02*
X115870001Y-141158571D01*
X115870001Y-142587143D02*
X115727144Y-142658571D01*
X115441430Y-142658571D01*
X115298572Y-142587143D01*
X115227144Y-142515714D01*
X115155715Y-142372857D01*
X115155715Y-141944286D01*
X115227144Y-141801429D01*
X115298572Y-141730000D01*
X115441430Y-141658571D01*
X115727144Y-141658571D01*
X115870001Y-141730000D01*
X117155715Y-142587143D02*
X117012858Y-142658571D01*
X116727144Y-142658571D01*
X116584287Y-142587143D01*
X116512858Y-142444286D01*
X116512858Y-141872857D01*
X116584287Y-141730000D01*
X116727144Y-141658571D01*
X117012858Y-141658571D01*
X117155715Y-141730000D01*
X117227144Y-141872857D01*
X117227144Y-142015714D01*
X116512858Y-142158571D01*
X118512858Y-141658571D02*
X118512858Y-142658571D01*
X117870001Y-141658571D02*
X117870001Y-142444286D01*
X117941429Y-142587143D01*
X118084287Y-142658571D01*
X118298572Y-142658571D01*
X118441429Y-142587143D01*
X118512858Y-142515714D01*
X119227144Y-142658571D02*
X119227144Y-141658571D01*
X119227144Y-141944286D02*
X119298572Y-141801429D01*
X119370001Y-141730000D01*
X119512858Y-141658571D01*
X119655715Y-141658571D01*
X120941429Y-142658571D02*
X120084286Y-142658571D01*
X120512858Y-142658571D02*
X120512858Y-141158571D01*
X120370001Y-141372857D01*
X120227143Y-141515714D01*
X120084286Y-141587143D01*
X105035715Y-142648571D02*
X105035715Y-141148571D01*
X105678572Y-141291429D02*
X105750001Y-141220000D01*
X105892858Y-141148571D01*
X106250001Y-141148571D01*
X106392858Y-141220000D01*
X106464287Y-141291429D01*
X106535715Y-141434286D01*
X106535715Y-141577143D01*
X106464287Y-141791429D01*
X105607144Y-142648571D01*
X106535715Y-142648571D01*
X108035715Y-142505714D02*
X107964286Y-142577143D01*
X107750000Y-142648571D01*
X107607143Y-142648571D01*
X107392858Y-142577143D01*
X107250000Y-142434286D01*
X107178572Y-142291429D01*
X107107143Y-142005714D01*
X107107143Y-141791429D01*
X107178572Y-141505714D01*
X107250000Y-141362857D01*
X107392858Y-141220000D01*
X107607143Y-141148571D01*
X107750000Y-141148571D01*
X107964286Y-141220000D01*
X108035715Y-141291429D01*
X61468571Y-147117143D02*
X62968571Y-146617143D01*
X61468571Y-146117143D01*
X62968571Y-144974286D02*
X61468571Y-144974286D01*
X62897143Y-144974286D02*
X62968571Y-145117143D01*
X62968571Y-145402857D01*
X62897143Y-145545715D01*
X62825714Y-145617143D01*
X62682857Y-145688572D01*
X62254286Y-145688572D01*
X62111429Y-145617143D01*
X62040000Y-145545715D01*
X61968571Y-145402857D01*
X61968571Y-145117143D01*
X62040000Y-144974286D01*
X62968571Y-143617143D02*
X61468571Y-143617143D01*
X62897143Y-143617143D02*
X62968571Y-143760000D01*
X62968571Y-144045714D01*
X62897143Y-144188572D01*
X62825714Y-144260000D01*
X62682857Y-144331429D01*
X62254286Y-144331429D01*
X62111429Y-144260000D01*
X62040000Y-144188572D01*
X61968571Y-144045714D01*
X61968571Y-143760000D01*
X62040000Y-143617143D01*
X54408571Y-117885714D02*
X55908571Y-117385714D01*
X54408571Y-116885714D01*
X55837143Y-115742857D02*
X55908571Y-115885714D01*
X55908571Y-116171428D01*
X55837143Y-116314286D01*
X55765714Y-116385714D01*
X55622857Y-116457143D01*
X55194286Y-116457143D01*
X55051429Y-116385714D01*
X54980000Y-116314286D01*
X54908571Y-116171428D01*
X54908571Y-115885714D01*
X54980000Y-115742857D01*
X55837143Y-114457143D02*
X55908571Y-114600000D01*
X55908571Y-114885714D01*
X55837143Y-115028572D01*
X55765714Y-115100000D01*
X55622857Y-115171429D01*
X55194286Y-115171429D01*
X55051429Y-115100000D01*
X54980000Y-115028572D01*
X54908571Y-114885714D01*
X54908571Y-114600000D01*
X54980000Y-114457143D01*
X65424857Y-147518285D02*
X65424857Y-148018285D01*
X66210571Y-148018285D02*
X64710571Y-148018285D01*
X64710571Y-147303999D01*
X65782000Y-146804000D02*
X65782000Y-146089714D01*
X66210571Y-146946857D02*
X64710571Y-146446857D01*
X66210571Y-145946857D01*
X66210571Y-145446857D02*
X64710571Y-145446857D01*
X66210571Y-144589714D01*
X64710571Y-144589714D01*
X89862401Y-91953543D02*
X91005258Y-91953543D01*
X90433829Y-92524971D02*
X90433829Y-91382114D01*
X91576687Y-91024971D02*
X92505258Y-91024971D01*
X92005258Y-91596400D01*
X92219544Y-91596400D01*
X92362401Y-91667829D01*
X92433830Y-91739257D01*
X92505258Y-91882114D01*
X92505258Y-92239257D01*
X92433830Y-92382114D01*
X92362401Y-92453543D01*
X92219544Y-92524971D01*
X91790972Y-92524971D01*
X91648115Y-92453543D01*
X91576687Y-92382114D01*
X93148115Y-92382114D02*
X93219543Y-92453543D01*
X93148115Y-92524971D01*
X93076686Y-92453543D01*
X93148115Y-92382114D01*
X93148115Y-92524971D01*
X93719544Y-91024971D02*
X94648115Y-91024971D01*
X94148115Y-91596400D01*
X94362401Y-91596400D01*
X94505258Y-91667829D01*
X94576687Y-91739257D01*
X94648115Y-91882114D01*
X94648115Y-92239257D01*
X94576687Y-92382114D01*
X94505258Y-92453543D01*
X94362401Y-92524971D01*
X93933829Y-92524971D01*
X93790972Y-92453543D01*
X93719544Y-92382114D01*
X95076686Y-91024971D02*
X95576686Y-92524971D01*
X96076686Y-91024971D01*
X89867029Y-87381543D02*
X91009886Y-87381543D01*
X90438457Y-87952971D02*
X90438457Y-86810114D01*
X92438458Y-86452971D02*
X91724172Y-86452971D01*
X91652743Y-87167257D01*
X91724172Y-87095829D01*
X91867029Y-87024400D01*
X92224172Y-87024400D01*
X92367029Y-87095829D01*
X92438458Y-87167257D01*
X92509886Y-87310114D01*
X92509886Y-87667257D01*
X92438458Y-87810114D01*
X92367029Y-87881543D01*
X92224172Y-87952971D01*
X91867029Y-87952971D01*
X91724172Y-87881543D01*
X91652743Y-87810114D01*
X92938457Y-86452971D02*
X93438457Y-87952971D01*
X93938457Y-86452971D01*
X102519830Y-88410171D02*
X102019830Y-87695886D01*
X101662687Y-88410171D02*
X101662687Y-86910171D01*
X102234115Y-86910171D01*
X102376973Y-86981600D01*
X102448401Y-87053029D01*
X102519830Y-87195886D01*
X102519830Y-87410171D01*
X102448401Y-87553029D01*
X102376973Y-87624457D01*
X102234115Y-87695886D01*
X101662687Y-87695886D01*
X103376973Y-88410171D02*
X103234115Y-88338743D01*
X103162687Y-88267314D01*
X103091258Y-88124457D01*
X103091258Y-87695886D01*
X103162687Y-87553029D01*
X103234115Y-87481600D01*
X103376973Y-87410171D01*
X103591258Y-87410171D01*
X103734115Y-87481600D01*
X103805544Y-87553029D01*
X103876973Y-87695886D01*
X103876973Y-88124457D01*
X103805544Y-88267314D01*
X103734115Y-88338743D01*
X103591258Y-88410171D01*
X103376973Y-88410171D01*
X104519830Y-88410171D02*
X104519830Y-86910171D01*
X104519830Y-87481600D02*
X104662687Y-87410171D01*
X104948401Y-87410171D01*
X105091258Y-87481600D01*
X105162687Y-87553029D01*
X105234116Y-87695886D01*
X105234116Y-88124457D01*
X105162687Y-88267314D01*
X105091258Y-88338743D01*
X104948401Y-88410171D01*
X104662687Y-88410171D01*
X104519830Y-88338743D01*
X106091259Y-88410171D02*
X105948401Y-88338743D01*
X105876973Y-88267314D01*
X105805544Y-88124457D01*
X105805544Y-87695886D01*
X105876973Y-87553029D01*
X105948401Y-87481600D01*
X106091259Y-87410171D01*
X106305544Y-87410171D01*
X106448401Y-87481600D01*
X106519830Y-87553029D01*
X106591259Y-87695886D01*
X106591259Y-88124457D01*
X106519830Y-88267314D01*
X106448401Y-88338743D01*
X106305544Y-88410171D01*
X106091259Y-88410171D01*
X107019830Y-87410171D02*
X107591259Y-87410171D01*
X107234116Y-86910171D02*
X107234116Y-88195886D01*
X107305544Y-88338743D01*
X107448402Y-88410171D01*
X107591259Y-88410171D01*
X108091259Y-88410171D02*
X108091259Y-87410171D01*
X108091259Y-87695886D02*
X108162687Y-87553029D01*
X108234116Y-87481600D01*
X108376973Y-87410171D01*
X108519830Y-87410171D01*
X109234116Y-88410171D02*
X109091258Y-88338743D01*
X109019830Y-88267314D01*
X108948401Y-88124457D01*
X108948401Y-87695886D01*
X109019830Y-87553029D01*
X109091258Y-87481600D01*
X109234116Y-87410171D01*
X109448401Y-87410171D01*
X109591258Y-87481600D01*
X109662687Y-87553029D01*
X109734116Y-87695886D01*
X109734116Y-88124457D01*
X109662687Y-88267314D01*
X109591258Y-88338743D01*
X109448401Y-88410171D01*
X109234116Y-88410171D01*
X110376973Y-87410171D02*
X110376973Y-88410171D01*
X110376973Y-87553029D02*
X110448401Y-87481600D01*
X110591259Y-87410171D01*
X110805544Y-87410171D01*
X110948401Y-87481600D01*
X111019830Y-87624457D01*
X111019830Y-88410171D01*
X111734116Y-88410171D02*
X111734116Y-87410171D01*
X111734116Y-86910171D02*
X111662687Y-86981600D01*
X111734116Y-87053029D01*
X111805544Y-86981600D01*
X111734116Y-86910171D01*
X111734116Y-87053029D01*
X112448402Y-88410171D02*
X112448402Y-86910171D01*
X112591259Y-87838743D02*
X113019830Y-88410171D01*
X113019830Y-87410171D02*
X112448402Y-87981600D01*
X115662688Y-88267314D02*
X115591259Y-88338743D01*
X115376973Y-88410171D01*
X115234116Y-88410171D01*
X115019831Y-88338743D01*
X114876973Y-88195886D01*
X114805545Y-88053029D01*
X114734116Y-87767314D01*
X114734116Y-87553029D01*
X114805545Y-87267314D01*
X114876973Y-87124457D01*
X115019831Y-86981600D01*
X115234116Y-86910171D01*
X115376973Y-86910171D01*
X115591259Y-86981600D01*
X115662688Y-87053029D01*
X116305545Y-88410171D02*
X116305545Y-86910171D01*
X116662688Y-86910171D01*
X116876973Y-86981600D01*
X117019831Y-87124457D01*
X117091259Y-87267314D01*
X117162688Y-87553029D01*
X117162688Y-87767314D01*
X117091259Y-88053029D01*
X117019831Y-88195886D01*
X116876973Y-88338743D01*
X116662688Y-88410171D01*
X116305545Y-88410171D01*
X118305545Y-87624457D02*
X117805545Y-87624457D01*
X117805545Y-88410171D02*
X117805545Y-86910171D01*
X118519831Y-86910171D01*
X119948402Y-88410171D02*
X119448402Y-87695886D01*
X119091259Y-88410171D02*
X119091259Y-86910171D01*
X119662687Y-86910171D01*
X119805545Y-86981600D01*
X119876973Y-87053029D01*
X119948402Y-87195886D01*
X119948402Y-87410171D01*
X119876973Y-87553029D01*
X119805545Y-87624457D01*
X119662687Y-87695886D01*
X119091259Y-87695886D01*
X121662687Y-87053029D02*
X121734116Y-86981600D01*
X121876973Y-86910171D01*
X122234116Y-86910171D01*
X122376973Y-86981600D01*
X122448402Y-87053029D01*
X122519830Y-87195886D01*
X122519830Y-87338743D01*
X122448402Y-87553029D01*
X121591259Y-88410171D01*
X122519830Y-88410171D01*
X123448401Y-86910171D02*
X123591258Y-86910171D01*
X123734115Y-86981600D01*
X123805544Y-87053029D01*
X123876973Y-87195886D01*
X123948401Y-87481600D01*
X123948401Y-87838743D01*
X123876973Y-88124457D01*
X123805544Y-88267314D01*
X123734115Y-88338743D01*
X123591258Y-88410171D01*
X123448401Y-88410171D01*
X123305544Y-88338743D01*
X123234115Y-88267314D01*
X123162687Y-88124457D01*
X123091258Y-87838743D01*
X123091258Y-87481600D01*
X123162687Y-87195886D01*
X123234115Y-87053029D01*
X123305544Y-86981600D01*
X123448401Y-86910171D01*
X125376972Y-88410171D02*
X124519829Y-88410171D01*
X124948401Y-88410171D02*
X124948401Y-86910171D01*
X124805544Y-87124457D01*
X124662686Y-87267314D01*
X124519829Y-87338743D01*
X126234115Y-87553029D02*
X126091257Y-87481600D01*
X126019829Y-87410171D01*
X125948400Y-87267314D01*
X125948400Y-87195886D01*
X126019829Y-87053029D01*
X126091257Y-86981600D01*
X126234115Y-86910171D01*
X126519829Y-86910171D01*
X126662686Y-86981600D01*
X126734115Y-87053029D01*
X126805543Y-87195886D01*
X126805543Y-87267314D01*
X126734115Y-87410171D01*
X126662686Y-87481600D01*
X126519829Y-87553029D01*
X126234115Y-87553029D01*
X126091257Y-87624457D01*
X126019829Y-87695886D01*
X125948400Y-87838743D01*
X125948400Y-88124457D01*
X126019829Y-88267314D01*
X126091257Y-88338743D01*
X126234115Y-88410171D01*
X126519829Y-88410171D01*
X126662686Y-88338743D01*
X126734115Y-88267314D01*
X126805543Y-88124457D01*
X126805543Y-87838743D01*
X126734115Y-87695886D01*
X126662686Y-87624457D01*
X126519829Y-87553029D01*
D12*
X110000000Y-100000000D02*
X110000000Y-120000000D01*
X96000000Y-100000000D02*
X110000000Y-100000000D01*
X96000000Y-120000000D02*
X96000000Y-100000000D01*
X110000000Y-120000000D02*
X96000000Y-120000000D01*
D13*
X129190000Y-113380000D02*
X131810000Y-113380000D01*
X131810000Y-113380000D02*
X131810000Y-106960000D01*
X131810000Y-106960000D02*
X129190000Y-106960000D01*
X129190000Y-106960000D02*
X129190000Y-113380000D01*
X130500000Y-114270000D02*
X130500000Y-113380000D01*
X130500000Y-106070000D02*
X130500000Y-106960000D01*
X110644000Y-143284000D02*
X110644000Y-149284000D01*
X110644000Y-149284000D02*
X121004000Y-149284000D01*
X121004000Y-149284000D02*
X121004000Y-143284000D01*
X121004000Y-143284000D02*
X110644000Y-143284000D01*
X112014000Y-149284000D02*
X112014000Y-148284000D01*
X112014000Y-148284000D02*
X119634000Y-148284000D01*
X119634000Y-148284000D02*
X119634000Y-149284000D01*
X112014000Y-148284000D02*
X112264000Y-147854000D01*
X112264000Y-147854000D02*
X119384000Y-147854000D01*
X119384000Y-147854000D02*
X119634000Y-148284000D01*
X112264000Y-149284000D02*
X112264000Y-148284000D01*
X119384000Y-149284000D02*
X119384000Y-148284000D01*
X111214000Y-143284000D02*
X111214000Y-143904000D01*
X111214000Y-143904000D02*
X112814000Y-143904000D01*
X112814000Y-143904000D02*
X112814000Y-143284000D01*
X113754000Y-143284000D02*
X113754000Y-143904000D01*
X113754000Y-143904000D02*
X115354000Y-143904000D01*
X115354000Y-143904000D02*
X115354000Y-143284000D01*
X116294000Y-143284000D02*
X116294000Y-143904000D01*
X116294000Y-143904000D02*
X117894000Y-143904000D01*
X117894000Y-143904000D02*
X117894000Y-143284000D01*
X118834000Y-143284000D02*
X118834000Y-143904000D01*
X118834000Y-143904000D02*
X120434000Y-143904000D01*
X120434000Y-143904000D02*
X120434000Y-143284000D01*
D14*
X112625000Y-113875000D02*
X112900000Y-113875000D01*
X112625000Y-106125000D02*
X112990000Y-106125000D01*
X128375000Y-106125000D02*
X128010000Y-106125000D01*
X128375000Y-113875000D02*
X128010000Y-113875000D01*
X112625000Y-113875000D02*
X112625000Y-106125000D01*
X128375000Y-113875000D02*
X128375000Y-106125000D01*
X112900000Y-113875000D02*
X112900000Y-115700000D01*
D13*
X74346400Y-123752800D02*
G75*
G03X74346400Y-123752800I-4090000J0D01*
G01*
X74306400Y-123752800D02*
X66206400Y-123752800D01*
X74306400Y-123792800D02*
X66206400Y-123792800D01*
X74306400Y-123832800D02*
X66206400Y-123832800D01*
X74305400Y-123872800D02*
X66207400Y-123872800D01*
X74303400Y-123912800D02*
X66209400Y-123912800D01*
X74302400Y-123952800D02*
X66210400Y-123952800D01*
X74299400Y-123992800D02*
X66213400Y-123992800D01*
X74297400Y-124032800D02*
X66215400Y-124032800D01*
X74294400Y-124072800D02*
X66218400Y-124072800D01*
X74291400Y-124112800D02*
X66221400Y-124112800D01*
X74287400Y-124152800D02*
X66225400Y-124152800D01*
X74283400Y-124192800D02*
X66229400Y-124192800D01*
X74278400Y-124232800D02*
X66234400Y-124232800D01*
X74273400Y-124272800D02*
X66239400Y-124272800D01*
X74268400Y-124312800D02*
X66244400Y-124312800D01*
X74262400Y-124352800D02*
X66250400Y-124352800D01*
X74256400Y-124392800D02*
X66256400Y-124392800D01*
X74250400Y-124432800D02*
X66262400Y-124432800D01*
X74243400Y-124473800D02*
X66269400Y-124473800D01*
X74235400Y-124513800D02*
X66277400Y-124513800D01*
X74227400Y-124553800D02*
X71236400Y-124553800D01*
X69276400Y-124553800D02*
X66285400Y-124553800D01*
X74219400Y-124593800D02*
X71236400Y-124593800D01*
X69276400Y-124593800D02*
X66293400Y-124593800D01*
X74211400Y-124633800D02*
X71236400Y-124633800D01*
X69276400Y-124633800D02*
X66301400Y-124633800D01*
X74202400Y-124673800D02*
X71236400Y-124673800D01*
X69276400Y-124673800D02*
X66310400Y-124673800D01*
X74192400Y-124713800D02*
X71236400Y-124713800D01*
X69276400Y-124713800D02*
X66320400Y-124713800D01*
X74182400Y-124753800D02*
X71236400Y-124753800D01*
X69276400Y-124753800D02*
X66330400Y-124753800D01*
X74172400Y-124793800D02*
X71236400Y-124793800D01*
X69276400Y-124793800D02*
X66340400Y-124793800D01*
X74161400Y-124833800D02*
X71236400Y-124833800D01*
X69276400Y-124833800D02*
X66351400Y-124833800D01*
X74150400Y-124873800D02*
X71236400Y-124873800D01*
X69276400Y-124873800D02*
X66362400Y-124873800D01*
X74139400Y-124913800D02*
X71236400Y-124913800D01*
X69276400Y-124913800D02*
X66373400Y-124913800D01*
X74126400Y-124953800D02*
X71236400Y-124953800D01*
X69276400Y-124953800D02*
X66386400Y-124953800D01*
X74114400Y-124993800D02*
X71236400Y-124993800D01*
X69276400Y-124993800D02*
X66398400Y-124993800D01*
X74101400Y-125033800D02*
X71236400Y-125033800D01*
X69276400Y-125033800D02*
X66411400Y-125033800D01*
X74088400Y-125073800D02*
X71236400Y-125073800D01*
X69276400Y-125073800D02*
X66424400Y-125073800D01*
X74074400Y-125113800D02*
X71236400Y-125113800D01*
X69276400Y-125113800D02*
X66438400Y-125113800D01*
X74059400Y-125153800D02*
X71236400Y-125153800D01*
X69276400Y-125153800D02*
X66453400Y-125153800D01*
X74045400Y-125193800D02*
X71236400Y-125193800D01*
X69276400Y-125193800D02*
X66467400Y-125193800D01*
X74029400Y-125233800D02*
X71236400Y-125233800D01*
X69276400Y-125233800D02*
X66483400Y-125233800D01*
X74014400Y-125273800D02*
X71236400Y-125273800D01*
X69276400Y-125273800D02*
X66498400Y-125273800D01*
X73997400Y-125313800D02*
X71236400Y-125313800D01*
X69276400Y-125313800D02*
X66515400Y-125313800D01*
X73981400Y-125353800D02*
X71236400Y-125353800D01*
X69276400Y-125353800D02*
X66531400Y-125353800D01*
X73963400Y-125393800D02*
X71236400Y-125393800D01*
X69276400Y-125393800D02*
X66549400Y-125393800D01*
X73946400Y-125433800D02*
X71236400Y-125433800D01*
X69276400Y-125433800D02*
X66566400Y-125433800D01*
X73927400Y-125473800D02*
X71236400Y-125473800D01*
X69276400Y-125473800D02*
X66585400Y-125473800D01*
X73908400Y-125513800D02*
X71236400Y-125513800D01*
X69276400Y-125513800D02*
X66604400Y-125513800D01*
X73889400Y-125553800D02*
X71236400Y-125553800D01*
X69276400Y-125553800D02*
X66623400Y-125553800D01*
X73869400Y-125593800D02*
X71236400Y-125593800D01*
X69276400Y-125593800D02*
X66643400Y-125593800D01*
X73849400Y-125633800D02*
X71236400Y-125633800D01*
X69276400Y-125633800D02*
X66663400Y-125633800D01*
X73828400Y-125673800D02*
X71236400Y-125673800D01*
X69276400Y-125673800D02*
X66684400Y-125673800D01*
X73806400Y-125713800D02*
X71236400Y-125713800D01*
X69276400Y-125713800D02*
X66706400Y-125713800D01*
X73784400Y-125753800D02*
X71236400Y-125753800D01*
X69276400Y-125753800D02*
X66728400Y-125753800D01*
X73761400Y-125793800D02*
X71236400Y-125793800D01*
X69276400Y-125793800D02*
X66751400Y-125793800D01*
X73738400Y-125833800D02*
X71236400Y-125833800D01*
X69276400Y-125833800D02*
X66774400Y-125833800D01*
X73714400Y-125873800D02*
X71236400Y-125873800D01*
X69276400Y-125873800D02*
X66798400Y-125873800D01*
X73690400Y-125913800D02*
X71236400Y-125913800D01*
X69276400Y-125913800D02*
X66822400Y-125913800D01*
X73664400Y-125953800D02*
X71236400Y-125953800D01*
X69276400Y-125953800D02*
X66848400Y-125953800D01*
X73639400Y-125993800D02*
X71236400Y-125993800D01*
X69276400Y-125993800D02*
X66873400Y-125993800D01*
X73612400Y-126033800D02*
X71236400Y-126033800D01*
X69276400Y-126033800D02*
X66900400Y-126033800D01*
X73585400Y-126073800D02*
X71236400Y-126073800D01*
X69276400Y-126073800D02*
X66927400Y-126073800D01*
X73557400Y-126113800D02*
X71236400Y-126113800D01*
X69276400Y-126113800D02*
X66955400Y-126113800D01*
X73528400Y-126153800D02*
X71236400Y-126153800D01*
X69276400Y-126153800D02*
X66984400Y-126153800D01*
X73499400Y-126193800D02*
X71236400Y-126193800D01*
X69276400Y-126193800D02*
X67013400Y-126193800D01*
X73469400Y-126233800D02*
X71236400Y-126233800D01*
X69276400Y-126233800D02*
X67043400Y-126233800D01*
X73438400Y-126273800D02*
X71236400Y-126273800D01*
X69276400Y-126273800D02*
X67074400Y-126273800D01*
X73406400Y-126313800D02*
X71236400Y-126313800D01*
X69276400Y-126313800D02*
X67106400Y-126313800D01*
X73374400Y-126353800D02*
X71236400Y-126353800D01*
X69276400Y-126353800D02*
X67138400Y-126353800D01*
X73340400Y-126393800D02*
X71236400Y-126393800D01*
X69276400Y-126393800D02*
X67172400Y-126393800D01*
X73306400Y-126433800D02*
X71236400Y-126433800D01*
X69276400Y-126433800D02*
X67206400Y-126433800D01*
X73271400Y-126473800D02*
X71236400Y-126473800D01*
X69276400Y-126473800D02*
X67241400Y-126473800D01*
X73235400Y-126513800D02*
X67277400Y-126513800D01*
X73198400Y-126553800D02*
X67314400Y-126553800D01*
X73160400Y-126593800D02*
X67352400Y-126593800D01*
X73121400Y-126633800D02*
X67391400Y-126633800D01*
X73080400Y-126673800D02*
X67432400Y-126673800D01*
X73039400Y-126713800D02*
X67473400Y-126713800D01*
X72996400Y-126753800D02*
X67516400Y-126753800D01*
X72953400Y-126793800D02*
X67559400Y-126793800D01*
X72908400Y-126833800D02*
X67604400Y-126833800D01*
X72861400Y-126873800D02*
X67651400Y-126873800D01*
X72813400Y-126913800D02*
X67699400Y-126913800D01*
X72764400Y-126953800D02*
X67748400Y-126953800D01*
X72713400Y-126993800D02*
X67799400Y-126993800D01*
X72660400Y-127033800D02*
X67852400Y-127033800D01*
X72605400Y-127073800D02*
X67907400Y-127073800D01*
X72549400Y-127113800D02*
X67963400Y-127113800D01*
X72490400Y-127153800D02*
X68022400Y-127153800D01*
X72429400Y-127193800D02*
X68083400Y-127193800D01*
X72365400Y-127233800D02*
X68147400Y-127233800D01*
X72299400Y-127273800D02*
X68213400Y-127273800D01*
X72230400Y-127313800D02*
X68282400Y-127313800D01*
X72158400Y-127353800D02*
X68354400Y-127353800D01*
X72082400Y-127393800D02*
X68430400Y-127393800D01*
X72001400Y-127433800D02*
X68511400Y-127433800D01*
X71916400Y-127473800D02*
X68596400Y-127473800D01*
X71826400Y-127513800D02*
X68686400Y-127513800D01*
X71729400Y-127553800D02*
X68783400Y-127553800D01*
X71625400Y-127593800D02*
X68887400Y-127593800D01*
X71510400Y-127633800D02*
X69002400Y-127633800D01*
X71383400Y-127673800D02*
X69129400Y-127673800D01*
X71239400Y-127713800D02*
X69273400Y-127713800D01*
X71070400Y-127753800D02*
X69442400Y-127753800D01*
X70854400Y-127793800D02*
X69658400Y-127793800D01*
X70502400Y-127833800D02*
X70010400Y-127833800D01*
X70256400Y-119802800D02*
X70256400Y-121002800D01*
X70906400Y-120402800D02*
X69606400Y-120402800D01*
X78117100Y-89699200D02*
G75*
G03X78117100Y-89699200I-4090000J0D01*
G01*
X78077100Y-89699200D02*
X69977100Y-89699200D01*
X78077100Y-89739200D02*
X69977100Y-89739200D01*
X78077100Y-89779200D02*
X69977100Y-89779200D01*
X78076100Y-89819200D02*
X69978100Y-89819200D01*
X78074100Y-89859200D02*
X69980100Y-89859200D01*
X78073100Y-89899200D02*
X69981100Y-89899200D01*
X78070100Y-89939200D02*
X69984100Y-89939200D01*
X78068100Y-89979200D02*
X69986100Y-89979200D01*
X78065100Y-90019200D02*
X69989100Y-90019200D01*
X78062100Y-90059200D02*
X69992100Y-90059200D01*
X78058100Y-90099200D02*
X69996100Y-90099200D01*
X78054100Y-90139200D02*
X70000100Y-90139200D01*
X78049100Y-90179200D02*
X70005100Y-90179200D01*
X78044100Y-90219200D02*
X70010100Y-90219200D01*
X78039100Y-90259200D02*
X70015100Y-90259200D01*
X78033100Y-90299200D02*
X70021100Y-90299200D01*
X78027100Y-90339200D02*
X70027100Y-90339200D01*
X78021100Y-90379200D02*
X70033100Y-90379200D01*
X78014100Y-90420200D02*
X70040100Y-90420200D01*
X78006100Y-90460200D02*
X70048100Y-90460200D01*
X77998100Y-90500200D02*
X75007100Y-90500200D01*
X73047100Y-90500200D02*
X70056100Y-90500200D01*
X77990100Y-90540200D02*
X75007100Y-90540200D01*
X73047100Y-90540200D02*
X70064100Y-90540200D01*
X77982100Y-90580200D02*
X75007100Y-90580200D01*
X73047100Y-90580200D02*
X70072100Y-90580200D01*
X77973100Y-90620200D02*
X75007100Y-90620200D01*
X73047100Y-90620200D02*
X70081100Y-90620200D01*
X77963100Y-90660200D02*
X75007100Y-90660200D01*
X73047100Y-90660200D02*
X70091100Y-90660200D01*
X77953100Y-90700200D02*
X75007100Y-90700200D01*
X73047100Y-90700200D02*
X70101100Y-90700200D01*
X77943100Y-90740200D02*
X75007100Y-90740200D01*
X73047100Y-90740200D02*
X70111100Y-90740200D01*
X77932100Y-90780200D02*
X75007100Y-90780200D01*
X73047100Y-90780200D02*
X70122100Y-90780200D01*
X77921100Y-90820200D02*
X75007100Y-90820200D01*
X73047100Y-90820200D02*
X70133100Y-90820200D01*
X77910100Y-90860200D02*
X75007100Y-90860200D01*
X73047100Y-90860200D02*
X70144100Y-90860200D01*
X77897100Y-90900200D02*
X75007100Y-90900200D01*
X73047100Y-90900200D02*
X70157100Y-90900200D01*
X77885100Y-90940200D02*
X75007100Y-90940200D01*
X73047100Y-90940200D02*
X70169100Y-90940200D01*
X77872100Y-90980200D02*
X75007100Y-90980200D01*
X73047100Y-90980200D02*
X70182100Y-90980200D01*
X77859100Y-91020200D02*
X75007100Y-91020200D01*
X73047100Y-91020200D02*
X70195100Y-91020200D01*
X77845100Y-91060200D02*
X75007100Y-91060200D01*
X73047100Y-91060200D02*
X70209100Y-91060200D01*
X77830100Y-91100200D02*
X75007100Y-91100200D01*
X73047100Y-91100200D02*
X70224100Y-91100200D01*
X77816100Y-91140200D02*
X75007100Y-91140200D01*
X73047100Y-91140200D02*
X70238100Y-91140200D01*
X77800100Y-91180200D02*
X75007100Y-91180200D01*
X73047100Y-91180200D02*
X70254100Y-91180200D01*
X77785100Y-91220200D02*
X75007100Y-91220200D01*
X73047100Y-91220200D02*
X70269100Y-91220200D01*
X77768100Y-91260200D02*
X75007100Y-91260200D01*
X73047100Y-91260200D02*
X70286100Y-91260200D01*
X77752100Y-91300200D02*
X75007100Y-91300200D01*
X73047100Y-91300200D02*
X70302100Y-91300200D01*
X77734100Y-91340200D02*
X75007100Y-91340200D01*
X73047100Y-91340200D02*
X70320100Y-91340200D01*
X77717100Y-91380200D02*
X75007100Y-91380200D01*
X73047100Y-91380200D02*
X70337100Y-91380200D01*
X77698100Y-91420200D02*
X75007100Y-91420200D01*
X73047100Y-91420200D02*
X70356100Y-91420200D01*
X77679100Y-91460200D02*
X75007100Y-91460200D01*
X73047100Y-91460200D02*
X70375100Y-91460200D01*
X77660100Y-91500200D02*
X75007100Y-91500200D01*
X73047100Y-91500200D02*
X70394100Y-91500200D01*
X77640100Y-91540200D02*
X75007100Y-91540200D01*
X73047100Y-91540200D02*
X70414100Y-91540200D01*
X77620100Y-91580200D02*
X75007100Y-91580200D01*
X73047100Y-91580200D02*
X70434100Y-91580200D01*
X77599100Y-91620200D02*
X75007100Y-91620200D01*
X73047100Y-91620200D02*
X70455100Y-91620200D01*
X77577100Y-91660200D02*
X75007100Y-91660200D01*
X73047100Y-91660200D02*
X70477100Y-91660200D01*
X77555100Y-91700200D02*
X75007100Y-91700200D01*
X73047100Y-91700200D02*
X70499100Y-91700200D01*
X77532100Y-91740200D02*
X75007100Y-91740200D01*
X73047100Y-91740200D02*
X70522100Y-91740200D01*
X77509100Y-91780200D02*
X75007100Y-91780200D01*
X73047100Y-91780200D02*
X70545100Y-91780200D01*
X77485100Y-91820200D02*
X75007100Y-91820200D01*
X73047100Y-91820200D02*
X70569100Y-91820200D01*
X77461100Y-91860200D02*
X75007100Y-91860200D01*
X73047100Y-91860200D02*
X70593100Y-91860200D01*
X77435100Y-91900200D02*
X75007100Y-91900200D01*
X73047100Y-91900200D02*
X70619100Y-91900200D01*
X77410100Y-91940200D02*
X75007100Y-91940200D01*
X73047100Y-91940200D02*
X70644100Y-91940200D01*
X77383100Y-91980200D02*
X75007100Y-91980200D01*
X73047100Y-91980200D02*
X70671100Y-91980200D01*
X77356100Y-92020200D02*
X75007100Y-92020200D01*
X73047100Y-92020200D02*
X70698100Y-92020200D01*
X77328100Y-92060200D02*
X75007100Y-92060200D01*
X73047100Y-92060200D02*
X70726100Y-92060200D01*
X77299100Y-92100200D02*
X75007100Y-92100200D01*
X73047100Y-92100200D02*
X70755100Y-92100200D01*
X77270100Y-92140200D02*
X75007100Y-92140200D01*
X73047100Y-92140200D02*
X70784100Y-92140200D01*
X77240100Y-92180200D02*
X75007100Y-92180200D01*
X73047100Y-92180200D02*
X70814100Y-92180200D01*
X77209100Y-92220200D02*
X75007100Y-92220200D01*
X73047100Y-92220200D02*
X70845100Y-92220200D01*
X77177100Y-92260200D02*
X75007100Y-92260200D01*
X73047100Y-92260200D02*
X70877100Y-92260200D01*
X77145100Y-92300200D02*
X75007100Y-92300200D01*
X73047100Y-92300200D02*
X70909100Y-92300200D01*
X77111100Y-92340200D02*
X75007100Y-92340200D01*
X73047100Y-92340200D02*
X70943100Y-92340200D01*
X77077100Y-92380200D02*
X75007100Y-92380200D01*
X73047100Y-92380200D02*
X70977100Y-92380200D01*
X77042100Y-92420200D02*
X75007100Y-92420200D01*
X73047100Y-92420200D02*
X71012100Y-92420200D01*
X77006100Y-92460200D02*
X71048100Y-92460200D01*
X76969100Y-92500200D02*
X71085100Y-92500200D01*
X76931100Y-92540200D02*
X71123100Y-92540200D01*
X76892100Y-92580200D02*
X71162100Y-92580200D01*
X76851100Y-92620200D02*
X71203100Y-92620200D01*
X76810100Y-92660200D02*
X71244100Y-92660200D01*
X76767100Y-92700200D02*
X71287100Y-92700200D01*
X76724100Y-92740200D02*
X71330100Y-92740200D01*
X76679100Y-92780200D02*
X71375100Y-92780200D01*
X76632100Y-92820200D02*
X71422100Y-92820200D01*
X76584100Y-92860200D02*
X71470100Y-92860200D01*
X76535100Y-92900200D02*
X71519100Y-92900200D01*
X76484100Y-92940200D02*
X71570100Y-92940200D01*
X76431100Y-92980200D02*
X71623100Y-92980200D01*
X76376100Y-93020200D02*
X71678100Y-93020200D01*
X76320100Y-93060200D02*
X71734100Y-93060200D01*
X76261100Y-93100200D02*
X71793100Y-93100200D01*
X76200100Y-93140200D02*
X71854100Y-93140200D01*
X76136100Y-93180200D02*
X71918100Y-93180200D01*
X76070100Y-93220200D02*
X71984100Y-93220200D01*
X76001100Y-93260200D02*
X72053100Y-93260200D01*
X75929100Y-93300200D02*
X72125100Y-93300200D01*
X75853100Y-93340200D02*
X72201100Y-93340200D01*
X75772100Y-93380200D02*
X72282100Y-93380200D01*
X75687100Y-93420200D02*
X72367100Y-93420200D01*
X75597100Y-93460200D02*
X72457100Y-93460200D01*
X75500100Y-93500200D02*
X72554100Y-93500200D01*
X75396100Y-93540200D02*
X72658100Y-93540200D01*
X75281100Y-93580200D02*
X72773100Y-93580200D01*
X75154100Y-93620200D02*
X72900100Y-93620200D01*
X75010100Y-93660200D02*
X73044100Y-93660200D01*
X74841100Y-93700200D02*
X73213100Y-93700200D01*
X74625100Y-93740200D02*
X73429100Y-93740200D01*
X74273100Y-93780200D02*
X73781100Y-93780200D01*
X74027100Y-85749200D02*
X74027100Y-86949200D01*
X74677100Y-86349200D02*
X73377100Y-86349200D01*
X69203700Y-98722600D02*
G75*
G03X69203700Y-98722600I-4090000J0D01*
G01*
X61063700Y-98722600D02*
X69163700Y-98722600D01*
X61063700Y-98682600D02*
X69163700Y-98682600D01*
X61063700Y-98642600D02*
X69163700Y-98642600D01*
X61064700Y-98602600D02*
X69162700Y-98602600D01*
X61066700Y-98562600D02*
X69160700Y-98562600D01*
X61067700Y-98522600D02*
X69159700Y-98522600D01*
X61070700Y-98482600D02*
X69156700Y-98482600D01*
X61072700Y-98442600D02*
X69154700Y-98442600D01*
X61075700Y-98402600D02*
X69151700Y-98402600D01*
X61078700Y-98362600D02*
X69148700Y-98362600D01*
X61082700Y-98322600D02*
X69144700Y-98322600D01*
X61086700Y-98282600D02*
X69140700Y-98282600D01*
X61091700Y-98242600D02*
X69135700Y-98242600D01*
X61096700Y-98202600D02*
X69130700Y-98202600D01*
X61101700Y-98162600D02*
X69125700Y-98162600D01*
X61107700Y-98122600D02*
X69119700Y-98122600D01*
X61113700Y-98082600D02*
X69113700Y-98082600D01*
X61119700Y-98042600D02*
X69107700Y-98042600D01*
X61126700Y-98001600D02*
X69100700Y-98001600D01*
X61134700Y-97961600D02*
X69092700Y-97961600D01*
X61142700Y-97921600D02*
X64133700Y-97921600D01*
X66093700Y-97921600D02*
X69084700Y-97921600D01*
X61150700Y-97881600D02*
X64133700Y-97881600D01*
X66093700Y-97881600D02*
X69076700Y-97881600D01*
X61158700Y-97841600D02*
X64133700Y-97841600D01*
X66093700Y-97841600D02*
X69068700Y-97841600D01*
X61167700Y-97801600D02*
X64133700Y-97801600D01*
X66093700Y-97801600D02*
X69059700Y-97801600D01*
X61177700Y-97761600D02*
X64133700Y-97761600D01*
X66093700Y-97761600D02*
X69049700Y-97761600D01*
X61187700Y-97721600D02*
X64133700Y-97721600D01*
X66093700Y-97721600D02*
X69039700Y-97721600D01*
X61197700Y-97681600D02*
X64133700Y-97681600D01*
X66093700Y-97681600D02*
X69029700Y-97681600D01*
X61208700Y-97641600D02*
X64133700Y-97641600D01*
X66093700Y-97641600D02*
X69018700Y-97641600D01*
X61219700Y-97601600D02*
X64133700Y-97601600D01*
X66093700Y-97601600D02*
X69007700Y-97601600D01*
X61230700Y-97561600D02*
X64133700Y-97561600D01*
X66093700Y-97561600D02*
X68996700Y-97561600D01*
X61243700Y-97521600D02*
X64133700Y-97521600D01*
X66093700Y-97521600D02*
X68983700Y-97521600D01*
X61255700Y-97481600D02*
X64133700Y-97481600D01*
X66093700Y-97481600D02*
X68971700Y-97481600D01*
X61268700Y-97441600D02*
X64133700Y-97441600D01*
X66093700Y-97441600D02*
X68958700Y-97441600D01*
X61281700Y-97401600D02*
X64133700Y-97401600D01*
X66093700Y-97401600D02*
X68945700Y-97401600D01*
X61295700Y-97361600D02*
X64133700Y-97361600D01*
X66093700Y-97361600D02*
X68931700Y-97361600D01*
X61310700Y-97321600D02*
X64133700Y-97321600D01*
X66093700Y-97321600D02*
X68916700Y-97321600D01*
X61324700Y-97281600D02*
X64133700Y-97281600D01*
X66093700Y-97281600D02*
X68902700Y-97281600D01*
X61340700Y-97241600D02*
X64133700Y-97241600D01*
X66093700Y-97241600D02*
X68886700Y-97241600D01*
X61355700Y-97201600D02*
X64133700Y-97201600D01*
X66093700Y-97201600D02*
X68871700Y-97201600D01*
X61372700Y-97161600D02*
X64133700Y-97161600D01*
X66093700Y-97161600D02*
X68854700Y-97161600D01*
X61388700Y-97121600D02*
X64133700Y-97121600D01*
X66093700Y-97121600D02*
X68838700Y-97121600D01*
X61406700Y-97081600D02*
X64133700Y-97081600D01*
X66093700Y-97081600D02*
X68820700Y-97081600D01*
X61423700Y-97041600D02*
X64133700Y-97041600D01*
X66093700Y-97041600D02*
X68803700Y-97041600D01*
X61442700Y-97001600D02*
X64133700Y-97001600D01*
X66093700Y-97001600D02*
X68784700Y-97001600D01*
X61461700Y-96961600D02*
X64133700Y-96961600D01*
X66093700Y-96961600D02*
X68765700Y-96961600D01*
X61480700Y-96921600D02*
X64133700Y-96921600D01*
X66093700Y-96921600D02*
X68746700Y-96921600D01*
X61500700Y-96881600D02*
X64133700Y-96881600D01*
X66093700Y-96881600D02*
X68726700Y-96881600D01*
X61520700Y-96841600D02*
X64133700Y-96841600D01*
X66093700Y-96841600D02*
X68706700Y-96841600D01*
X61541700Y-96801600D02*
X64133700Y-96801600D01*
X66093700Y-96801600D02*
X68685700Y-96801600D01*
X61563700Y-96761600D02*
X64133700Y-96761600D01*
X66093700Y-96761600D02*
X68663700Y-96761600D01*
X61585700Y-96721600D02*
X64133700Y-96721600D01*
X66093700Y-96721600D02*
X68641700Y-96721600D01*
X61608700Y-96681600D02*
X64133700Y-96681600D01*
X66093700Y-96681600D02*
X68618700Y-96681600D01*
X61631700Y-96641600D02*
X64133700Y-96641600D01*
X66093700Y-96641600D02*
X68595700Y-96641600D01*
X61655700Y-96601600D02*
X64133700Y-96601600D01*
X66093700Y-96601600D02*
X68571700Y-96601600D01*
X61679700Y-96561600D02*
X64133700Y-96561600D01*
X66093700Y-96561600D02*
X68547700Y-96561600D01*
X61705700Y-96521600D02*
X64133700Y-96521600D01*
X66093700Y-96521600D02*
X68521700Y-96521600D01*
X61730700Y-96481600D02*
X64133700Y-96481600D01*
X66093700Y-96481600D02*
X68496700Y-96481600D01*
X61757700Y-96441600D02*
X64133700Y-96441600D01*
X66093700Y-96441600D02*
X68469700Y-96441600D01*
X61784700Y-96401600D02*
X64133700Y-96401600D01*
X66093700Y-96401600D02*
X68442700Y-96401600D01*
X61812700Y-96361600D02*
X64133700Y-96361600D01*
X66093700Y-96361600D02*
X68414700Y-96361600D01*
X61841700Y-96321600D02*
X64133700Y-96321600D01*
X66093700Y-96321600D02*
X68385700Y-96321600D01*
X61870700Y-96281600D02*
X64133700Y-96281600D01*
X66093700Y-96281600D02*
X68356700Y-96281600D01*
X61900700Y-96241600D02*
X64133700Y-96241600D01*
X66093700Y-96241600D02*
X68326700Y-96241600D01*
X61931700Y-96201600D02*
X64133700Y-96201600D01*
X66093700Y-96201600D02*
X68295700Y-96201600D01*
X61963700Y-96161600D02*
X64133700Y-96161600D01*
X66093700Y-96161600D02*
X68263700Y-96161600D01*
X61995700Y-96121600D02*
X64133700Y-96121600D01*
X66093700Y-96121600D02*
X68231700Y-96121600D01*
X62029700Y-96081600D02*
X64133700Y-96081600D01*
X66093700Y-96081600D02*
X68197700Y-96081600D01*
X62063700Y-96041600D02*
X64133700Y-96041600D01*
X66093700Y-96041600D02*
X68163700Y-96041600D01*
X62098700Y-96001600D02*
X64133700Y-96001600D01*
X66093700Y-96001600D02*
X68128700Y-96001600D01*
X62134700Y-95961600D02*
X68092700Y-95961600D01*
X62171700Y-95921600D02*
X68055700Y-95921600D01*
X62209700Y-95881600D02*
X68017700Y-95881600D01*
X62248700Y-95841600D02*
X67978700Y-95841600D01*
X62289700Y-95801600D02*
X67937700Y-95801600D01*
X62330700Y-95761600D02*
X67896700Y-95761600D01*
X62373700Y-95721600D02*
X67853700Y-95721600D01*
X62416700Y-95681600D02*
X67810700Y-95681600D01*
X62461700Y-95641600D02*
X67765700Y-95641600D01*
X62508700Y-95601600D02*
X67718700Y-95601600D01*
X62556700Y-95561600D02*
X67670700Y-95561600D01*
X62605700Y-95521600D02*
X67621700Y-95521600D01*
X62656700Y-95481600D02*
X67570700Y-95481600D01*
X62709700Y-95441600D02*
X67517700Y-95441600D01*
X62764700Y-95401600D02*
X67462700Y-95401600D01*
X62820700Y-95361600D02*
X67406700Y-95361600D01*
X62879700Y-95321600D02*
X67347700Y-95321600D01*
X62940700Y-95281600D02*
X67286700Y-95281600D01*
X63004700Y-95241600D02*
X67222700Y-95241600D01*
X63070700Y-95201600D02*
X67156700Y-95201600D01*
X63139700Y-95161600D02*
X67087700Y-95161600D01*
X63211700Y-95121600D02*
X67015700Y-95121600D01*
X63287700Y-95081600D02*
X66939700Y-95081600D01*
X63368700Y-95041600D02*
X66858700Y-95041600D01*
X63453700Y-95001600D02*
X66773700Y-95001600D01*
X63543700Y-94961600D02*
X66683700Y-94961600D01*
X63640700Y-94921600D02*
X66586700Y-94921600D01*
X63744700Y-94881600D02*
X66482700Y-94881600D01*
X63859700Y-94841600D02*
X66367700Y-94841600D01*
X63986700Y-94801600D02*
X66240700Y-94801600D01*
X64130700Y-94761600D02*
X66096700Y-94761600D01*
X64299700Y-94721600D02*
X65927700Y-94721600D01*
X64515700Y-94681600D02*
X65711700Y-94681600D01*
X64867700Y-94641600D02*
X65359700Y-94641600D01*
X65113700Y-102672600D02*
X65113700Y-101472600D01*
X64463700Y-102072600D02*
X65763700Y-102072600D01*
X82534000Y-100326000D02*
X80534000Y-100326000D01*
X80534000Y-102366000D02*
X82534000Y-102366000D01*
X121896000Y-126882000D02*
X121896000Y-131182000D01*
X121896000Y-131182000D02*
X129446000Y-131182000D01*
X121896000Y-126882000D02*
X129446000Y-126882000D01*
X75665200Y-131366400D02*
X75665200Y-127066400D01*
X75665200Y-127066400D02*
X68115200Y-127066400D01*
X75665200Y-131366400D02*
X68115200Y-131366400D01*
X88670000Y-89780000D02*
X88670000Y-85480000D01*
X88670000Y-85480000D02*
X81120000Y-85480000D01*
X88670000Y-89780000D02*
X81120000Y-89780000D01*
X78970000Y-89798000D02*
X78970000Y-94098000D01*
X78970000Y-94098000D02*
X86520000Y-94098000D01*
X78970000Y-89798000D02*
X86520000Y-89798000D01*
X95766000Y-136211000D02*
X95766000Y-138711000D01*
X95766000Y-128711000D02*
X95766000Y-131211000D01*
X83766000Y-128711000D02*
X83766000Y-131211000D01*
X83766000Y-138711000D02*
X83766000Y-136211000D01*
X94266000Y-133711000D02*
X85266000Y-133711000D01*
X94266000Y-136211000D02*
X94266000Y-131211000D01*
X85266000Y-136211000D02*
X85266000Y-131211000D01*
X79766000Y-135611000D02*
X79766000Y-136211000D01*
X99766000Y-131811000D02*
X99766000Y-131211000D01*
X99766000Y-131211000D02*
X79766000Y-131211000D01*
X79766000Y-131211000D02*
X79766000Y-131811000D01*
X79766000Y-136211000D02*
X99766000Y-136211000D01*
X99766000Y-136211000D02*
X99766000Y-135611000D01*
X77766000Y-135611000D02*
X77766000Y-138711000D01*
X101766000Y-131811000D02*
X101766000Y-128711000D01*
X101766000Y-128711000D02*
X77766000Y-128711000D01*
X77766000Y-128711000D02*
X77766000Y-131811000D01*
X77766000Y-138711000D02*
X101766000Y-138711000D01*
X101766000Y-138711000D02*
X101766000Y-135611000D01*
X122328000Y-143284000D02*
X122328000Y-149284000D01*
X122328000Y-149284000D02*
X127608000Y-149284000D01*
X127608000Y-149284000D02*
X127608000Y-143284000D01*
X127608000Y-143284000D02*
X122328000Y-143284000D01*
X123698000Y-149284000D02*
X123698000Y-148284000D01*
X123698000Y-148284000D02*
X126238000Y-148284000D01*
X126238000Y-148284000D02*
X126238000Y-149284000D01*
X123698000Y-148284000D02*
X123948000Y-147854000D01*
X123948000Y-147854000D02*
X125988000Y-147854000D01*
X125988000Y-147854000D02*
X126238000Y-148284000D01*
X123948000Y-149284000D02*
X123948000Y-148284000D01*
X125988000Y-149284000D02*
X125988000Y-148284000D01*
X122898000Y-143284000D02*
X122898000Y-143904000D01*
X122898000Y-143904000D02*
X124498000Y-143904000D01*
X124498000Y-143904000D02*
X124498000Y-143284000D01*
X125438000Y-143284000D02*
X125438000Y-143904000D01*
X125438000Y-143904000D02*
X127038000Y-143904000D01*
X127038000Y-143904000D02*
X127038000Y-143284000D01*
X67667200Y-143334800D02*
X67667200Y-149334800D01*
X67667200Y-149334800D02*
X72947200Y-149334800D01*
X72947200Y-149334800D02*
X72947200Y-143334800D01*
X72947200Y-143334800D02*
X67667200Y-143334800D01*
X69037200Y-149334800D02*
X69037200Y-148334800D01*
X69037200Y-148334800D02*
X71577200Y-148334800D01*
X71577200Y-148334800D02*
X71577200Y-149334800D01*
X69037200Y-148334800D02*
X69287200Y-147904800D01*
X69287200Y-147904800D02*
X71327200Y-147904800D01*
X71327200Y-147904800D02*
X71577200Y-148334800D01*
X69287200Y-149334800D02*
X69287200Y-148334800D01*
X71327200Y-149334800D02*
X71327200Y-148334800D01*
X68237200Y-143334800D02*
X68237200Y-143954800D01*
X68237200Y-143954800D02*
X69837200Y-143954800D01*
X69837200Y-143954800D02*
X69837200Y-143334800D01*
X70777200Y-143334800D02*
X70777200Y-143954800D01*
X70777200Y-143954800D02*
X72377200Y-143954800D01*
X72377200Y-143954800D02*
X72377200Y-143334800D01*
X140080000Y-102340000D02*
X137420000Y-102340000D01*
X140080000Y-107480000D02*
X140080000Y-102340000D01*
X137420000Y-107480000D02*
X137420000Y-102340000D01*
X140080000Y-107480000D02*
X137420000Y-107480000D01*
X140080000Y-108750000D02*
X140080000Y-110080000D01*
X140080000Y-110080000D02*
X138750000Y-110080000D01*
X104040000Y-143284000D02*
X104040000Y-149284000D01*
X104040000Y-149284000D02*
X109320000Y-149284000D01*
X109320000Y-149284000D02*
X109320000Y-143284000D01*
X109320000Y-143284000D02*
X104040000Y-143284000D01*
X105410000Y-149284000D02*
X105410000Y-148284000D01*
X105410000Y-148284000D02*
X107950000Y-148284000D01*
X107950000Y-148284000D02*
X107950000Y-149284000D01*
X105410000Y-148284000D02*
X105660000Y-147854000D01*
X105660000Y-147854000D02*
X107700000Y-147854000D01*
X107700000Y-147854000D02*
X107950000Y-148284000D01*
X105660000Y-149284000D02*
X105660000Y-148284000D01*
X107700000Y-149284000D02*
X107700000Y-148284000D01*
X104610000Y-143284000D02*
X104610000Y-143904000D01*
X104610000Y-143904000D02*
X106210000Y-143904000D01*
X106210000Y-143904000D02*
X106210000Y-143284000D01*
X107150000Y-143284000D02*
X107150000Y-143904000D01*
X107150000Y-143904000D02*
X108750000Y-143904000D01*
X108750000Y-143904000D02*
X108750000Y-143284000D01*
X141450000Y-134774000D02*
X135450000Y-134774000D01*
X135450000Y-134774000D02*
X135450000Y-140054000D01*
X135450000Y-140054000D02*
X141450000Y-140054000D01*
X141450000Y-140054000D02*
X141450000Y-134774000D01*
X135450000Y-136144000D02*
X136450000Y-136144000D01*
X136450000Y-136144000D02*
X136450000Y-138684000D01*
X136450000Y-138684000D02*
X135450000Y-138684000D01*
X136450000Y-136144000D02*
X136880000Y-136394000D01*
X136880000Y-136394000D02*
X136880000Y-138434000D01*
X136880000Y-138434000D02*
X136450000Y-138684000D01*
X135450000Y-136394000D02*
X136450000Y-136394000D01*
X135450000Y-138434000D02*
X136450000Y-138434000D01*
X141450000Y-135344000D02*
X140830000Y-135344000D01*
X140830000Y-135344000D02*
X140830000Y-136944000D01*
X140830000Y-136944000D02*
X141450000Y-136944000D01*
X141450000Y-137884000D02*
X140830000Y-137884000D01*
X140830000Y-137884000D02*
X140830000Y-139484000D01*
X140830000Y-139484000D02*
X141450000Y-139484000D01*
X128678000Y-143284000D02*
X128678000Y-149284000D01*
X128678000Y-149284000D02*
X133958000Y-149284000D01*
X133958000Y-149284000D02*
X133958000Y-143284000D01*
X133958000Y-143284000D02*
X128678000Y-143284000D01*
X130048000Y-149284000D02*
X130048000Y-148284000D01*
X130048000Y-148284000D02*
X132588000Y-148284000D01*
X132588000Y-148284000D02*
X132588000Y-149284000D01*
X130048000Y-148284000D02*
X130298000Y-147854000D01*
X130298000Y-147854000D02*
X132338000Y-147854000D01*
X132338000Y-147854000D02*
X132588000Y-148284000D01*
X130298000Y-149284000D02*
X130298000Y-148284000D01*
X132338000Y-149284000D02*
X132338000Y-148284000D01*
X129248000Y-143284000D02*
X129248000Y-143904000D01*
X129248000Y-143904000D02*
X130848000Y-143904000D01*
X130848000Y-143904000D02*
X130848000Y-143284000D01*
X131788000Y-143284000D02*
X131788000Y-143904000D01*
X131788000Y-143904000D02*
X133388000Y-143904000D01*
X133388000Y-143904000D02*
X133388000Y-143284000D01*
X141602400Y-123090000D02*
X135602400Y-123090000D01*
X135602400Y-123090000D02*
X135602400Y-133450000D01*
X135602400Y-133450000D02*
X141602400Y-133450000D01*
X141602400Y-133450000D02*
X141602400Y-123090000D01*
X135602400Y-124460000D02*
X136602400Y-124460000D01*
X136602400Y-124460000D02*
X136602400Y-132080000D01*
X136602400Y-132080000D02*
X135602400Y-132080000D01*
X136602400Y-124460000D02*
X137032400Y-124710000D01*
X137032400Y-124710000D02*
X137032400Y-131830000D01*
X137032400Y-131830000D02*
X136602400Y-132080000D01*
X135602400Y-124710000D02*
X136602400Y-124710000D01*
X135602400Y-131830000D02*
X136602400Y-131830000D01*
X141602400Y-123660000D02*
X140982400Y-123660000D01*
X140982400Y-123660000D02*
X140982400Y-125260000D01*
X140982400Y-125260000D02*
X141602400Y-125260000D01*
X141602400Y-126200000D02*
X140982400Y-126200000D01*
X140982400Y-126200000D02*
X140982400Y-127800000D01*
X140982400Y-127800000D02*
X141602400Y-127800000D01*
X141602400Y-128740000D02*
X140982400Y-128740000D01*
X140982400Y-128740000D02*
X140982400Y-130340000D01*
X140982400Y-130340000D02*
X141602400Y-130340000D01*
X141602400Y-131280000D02*
X140982400Y-131280000D01*
X140982400Y-131280000D02*
X140982400Y-132880000D01*
X140982400Y-132880000D02*
X141602400Y-132880000D01*
X134166000Y-119396000D02*
X134166000Y-121396000D01*
X132026000Y-121396000D02*
X132026000Y-119396000D01*
X127746000Y-133658000D02*
X125746000Y-133658000D01*
X125746000Y-131518000D02*
X127746000Y-131518000D01*
X104086000Y-128000000D02*
X104086000Y-126000000D01*
X106226000Y-126000000D02*
X106226000Y-128000000D01*
X122158000Y-93780000D02*
X120158000Y-93780000D01*
X120158000Y-91640000D02*
X122158000Y-91640000D01*
D14*
X93375000Y-106125000D02*
X93100000Y-106125000D01*
X93375000Y-113875000D02*
X93010000Y-113875000D01*
X77625000Y-113875000D02*
X77990000Y-113875000D01*
X77625000Y-106125000D02*
X77990000Y-106125000D01*
X93375000Y-106125000D02*
X93375000Y-113875000D01*
X77625000Y-106125000D02*
X77625000Y-113875000D01*
X93100000Y-106125000D02*
X93100000Y-104300000D01*
X108875000Y-132375000D02*
X109100000Y-132375000D01*
X108875000Y-125125000D02*
X109175000Y-125125000D01*
X116125000Y-125125000D02*
X115825000Y-125125000D01*
X116125000Y-132375000D02*
X115825000Y-132375000D01*
X108875000Y-132375000D02*
X108875000Y-132075000D01*
X116125000Y-132375000D02*
X116125000Y-132075000D01*
X116125000Y-125125000D02*
X116125000Y-125425000D01*
X108875000Y-125125000D02*
X108875000Y-125425000D01*
X109100000Y-132375000D02*
X109100000Y-133600000D01*
X55145200Y-119452600D02*
X55145200Y-130822600D01*
X56645200Y-119452600D02*
X56645200Y-130822600D01*
X53645200Y-130822600D02*
X63645200Y-130822600D01*
X53645200Y-119452600D02*
X53645200Y-130822600D01*
X63645200Y-119452600D02*
X53645200Y-119452600D01*
X65645200Y-130822600D02*
X63645200Y-130822600D01*
X65645200Y-119452600D02*
X65645200Y-130822600D01*
X63645200Y-119452600D02*
X65645200Y-119452600D01*
X65645200Y-119452600D02*
X65645200Y-130822600D01*
D13*
X62617100Y-91609200D02*
X63877100Y-91609200D01*
X69437100Y-91609200D02*
X68177100Y-91609200D01*
X62617100Y-87849200D02*
X62617100Y-91609200D01*
X69437100Y-85599200D02*
X69437100Y-91609200D01*
X60496500Y-96857900D02*
X59236500Y-96857900D01*
X53676500Y-96857900D02*
X54936500Y-96857900D01*
X60496500Y-100617900D02*
X60496500Y-96857900D01*
X53676500Y-102867900D02*
X53676500Y-96857900D01*
D14*
X114597000Y-141005000D02*
X114597000Y-140955000D01*
X110447000Y-141005000D02*
X110447000Y-140860000D01*
X110447000Y-135855000D02*
X110447000Y-136000000D01*
X114597000Y-135855000D02*
X114597000Y-136000000D01*
X114597000Y-141005000D02*
X110447000Y-141005000D01*
X114597000Y-135855000D02*
X110447000Y-135855000D01*
X114597000Y-140955000D02*
X115997000Y-140955000D01*
D13*
X74346400Y-138286800D02*
G75*
G03X74346400Y-138286800I-4090000J0D01*
G01*
X66206400Y-138286800D02*
X74306400Y-138286800D01*
X66206400Y-138246800D02*
X74306400Y-138246800D01*
X66206400Y-138206800D02*
X74306400Y-138206800D01*
X66207400Y-138166800D02*
X74305400Y-138166800D01*
X66209400Y-138126800D02*
X74303400Y-138126800D01*
X66210400Y-138086800D02*
X74302400Y-138086800D01*
X66213400Y-138046800D02*
X74299400Y-138046800D01*
X66215400Y-138006800D02*
X74297400Y-138006800D01*
X66218400Y-137966800D02*
X74294400Y-137966800D01*
X66221400Y-137926800D02*
X74291400Y-137926800D01*
X66225400Y-137886800D02*
X74287400Y-137886800D01*
X66229400Y-137846800D02*
X74283400Y-137846800D01*
X66234400Y-137806800D02*
X74278400Y-137806800D01*
X66239400Y-137766800D02*
X74273400Y-137766800D01*
X66244400Y-137726800D02*
X74268400Y-137726800D01*
X66250400Y-137686800D02*
X74262400Y-137686800D01*
X66256400Y-137646800D02*
X74256400Y-137646800D01*
X66262400Y-137606800D02*
X74250400Y-137606800D01*
X66269400Y-137565800D02*
X74243400Y-137565800D01*
X66277400Y-137525800D02*
X74235400Y-137525800D01*
X66285400Y-137485800D02*
X69276400Y-137485800D01*
X71236400Y-137485800D02*
X74227400Y-137485800D01*
X66293400Y-137445800D02*
X69276400Y-137445800D01*
X71236400Y-137445800D02*
X74219400Y-137445800D01*
X66301400Y-137405800D02*
X69276400Y-137405800D01*
X71236400Y-137405800D02*
X74211400Y-137405800D01*
X66310400Y-137365800D02*
X69276400Y-137365800D01*
X71236400Y-137365800D02*
X74202400Y-137365800D01*
X66320400Y-137325800D02*
X69276400Y-137325800D01*
X71236400Y-137325800D02*
X74192400Y-137325800D01*
X66330400Y-137285800D02*
X69276400Y-137285800D01*
X71236400Y-137285800D02*
X74182400Y-137285800D01*
X66340400Y-137245800D02*
X69276400Y-137245800D01*
X71236400Y-137245800D02*
X74172400Y-137245800D01*
X66351400Y-137205800D02*
X69276400Y-137205800D01*
X71236400Y-137205800D02*
X74161400Y-137205800D01*
X66362400Y-137165800D02*
X69276400Y-137165800D01*
X71236400Y-137165800D02*
X74150400Y-137165800D01*
X66373400Y-137125800D02*
X69276400Y-137125800D01*
X71236400Y-137125800D02*
X74139400Y-137125800D01*
X66386400Y-137085800D02*
X69276400Y-137085800D01*
X71236400Y-137085800D02*
X74126400Y-137085800D01*
X66398400Y-137045800D02*
X69276400Y-137045800D01*
X71236400Y-137045800D02*
X74114400Y-137045800D01*
X66411400Y-137005800D02*
X69276400Y-137005800D01*
X71236400Y-137005800D02*
X74101400Y-137005800D01*
X66424400Y-136965800D02*
X69276400Y-136965800D01*
X71236400Y-136965800D02*
X74088400Y-136965800D01*
X66438400Y-136925800D02*
X69276400Y-136925800D01*
X71236400Y-136925800D02*
X74074400Y-136925800D01*
X66453400Y-136885800D02*
X69276400Y-136885800D01*
X71236400Y-136885800D02*
X74059400Y-136885800D01*
X66467400Y-136845800D02*
X69276400Y-136845800D01*
X71236400Y-136845800D02*
X74045400Y-136845800D01*
X66483400Y-136805800D02*
X69276400Y-136805800D01*
X71236400Y-136805800D02*
X74029400Y-136805800D01*
X66498400Y-136765800D02*
X69276400Y-136765800D01*
X71236400Y-136765800D02*
X74014400Y-136765800D01*
X66515400Y-136725800D02*
X69276400Y-136725800D01*
X71236400Y-136725800D02*
X73997400Y-136725800D01*
X66531400Y-136685800D02*
X69276400Y-136685800D01*
X71236400Y-136685800D02*
X73981400Y-136685800D01*
X66549400Y-136645800D02*
X69276400Y-136645800D01*
X71236400Y-136645800D02*
X73963400Y-136645800D01*
X66566400Y-136605800D02*
X69276400Y-136605800D01*
X71236400Y-136605800D02*
X73946400Y-136605800D01*
X66585400Y-136565800D02*
X69276400Y-136565800D01*
X71236400Y-136565800D02*
X73927400Y-136565800D01*
X66604400Y-136525800D02*
X69276400Y-136525800D01*
X71236400Y-136525800D02*
X73908400Y-136525800D01*
X66623400Y-136485800D02*
X69276400Y-136485800D01*
X71236400Y-136485800D02*
X73889400Y-136485800D01*
X66643400Y-136445800D02*
X69276400Y-136445800D01*
X71236400Y-136445800D02*
X73869400Y-136445800D01*
X66663400Y-136405800D02*
X69276400Y-136405800D01*
X71236400Y-136405800D02*
X73849400Y-136405800D01*
X66684400Y-136365800D02*
X69276400Y-136365800D01*
X71236400Y-136365800D02*
X73828400Y-136365800D01*
X66706400Y-136325800D02*
X69276400Y-136325800D01*
X71236400Y-136325800D02*
X73806400Y-136325800D01*
X66728400Y-136285800D02*
X69276400Y-136285800D01*
X71236400Y-136285800D02*
X73784400Y-136285800D01*
X66751400Y-136245800D02*
X69276400Y-136245800D01*
X71236400Y-136245800D02*
X73761400Y-136245800D01*
X66774400Y-136205800D02*
X69276400Y-136205800D01*
X71236400Y-136205800D02*
X73738400Y-136205800D01*
X66798400Y-136165800D02*
X69276400Y-136165800D01*
X71236400Y-136165800D02*
X73714400Y-136165800D01*
X66822400Y-136125800D02*
X69276400Y-136125800D01*
X71236400Y-136125800D02*
X73690400Y-136125800D01*
X66848400Y-136085800D02*
X69276400Y-136085800D01*
X71236400Y-136085800D02*
X73664400Y-136085800D01*
X66873400Y-136045800D02*
X69276400Y-136045800D01*
X71236400Y-136045800D02*
X73639400Y-136045800D01*
X66900400Y-136005800D02*
X69276400Y-136005800D01*
X71236400Y-136005800D02*
X73612400Y-136005800D01*
X66927400Y-135965800D02*
X69276400Y-135965800D01*
X71236400Y-135965800D02*
X73585400Y-135965800D01*
X66955400Y-135925800D02*
X69276400Y-135925800D01*
X71236400Y-135925800D02*
X73557400Y-135925800D01*
X66984400Y-135885800D02*
X69276400Y-135885800D01*
X71236400Y-135885800D02*
X73528400Y-135885800D01*
X67013400Y-135845800D02*
X69276400Y-135845800D01*
X71236400Y-135845800D02*
X73499400Y-135845800D01*
X67043400Y-135805800D02*
X69276400Y-135805800D01*
X71236400Y-135805800D02*
X73469400Y-135805800D01*
X67074400Y-135765800D02*
X69276400Y-135765800D01*
X71236400Y-135765800D02*
X73438400Y-135765800D01*
X67106400Y-135725800D02*
X69276400Y-135725800D01*
X71236400Y-135725800D02*
X73406400Y-135725800D01*
X67138400Y-135685800D02*
X69276400Y-135685800D01*
X71236400Y-135685800D02*
X73374400Y-135685800D01*
X67172400Y-135645800D02*
X69276400Y-135645800D01*
X71236400Y-135645800D02*
X73340400Y-135645800D01*
X67206400Y-135605800D02*
X69276400Y-135605800D01*
X71236400Y-135605800D02*
X73306400Y-135605800D01*
X67241400Y-135565800D02*
X69276400Y-135565800D01*
X71236400Y-135565800D02*
X73271400Y-135565800D01*
X67277400Y-135525800D02*
X73235400Y-135525800D01*
X67314400Y-135485800D02*
X73198400Y-135485800D01*
X67352400Y-135445800D02*
X73160400Y-135445800D01*
X67391400Y-135405800D02*
X73121400Y-135405800D01*
X67432400Y-135365800D02*
X73080400Y-135365800D01*
X67473400Y-135325800D02*
X73039400Y-135325800D01*
X67516400Y-135285800D02*
X72996400Y-135285800D01*
X67559400Y-135245800D02*
X72953400Y-135245800D01*
X67604400Y-135205800D02*
X72908400Y-135205800D01*
X67651400Y-135165800D02*
X72861400Y-135165800D01*
X67699400Y-135125800D02*
X72813400Y-135125800D01*
X67748400Y-135085800D02*
X72764400Y-135085800D01*
X67799400Y-135045800D02*
X72713400Y-135045800D01*
X67852400Y-135005800D02*
X72660400Y-135005800D01*
X67907400Y-134965800D02*
X72605400Y-134965800D01*
X67963400Y-134925800D02*
X72549400Y-134925800D01*
X68022400Y-134885800D02*
X72490400Y-134885800D01*
X68083400Y-134845800D02*
X72429400Y-134845800D01*
X68147400Y-134805800D02*
X72365400Y-134805800D01*
X68213400Y-134765800D02*
X72299400Y-134765800D01*
X68282400Y-134725800D02*
X72230400Y-134725800D01*
X68354400Y-134685800D02*
X72158400Y-134685800D01*
X68430400Y-134645800D02*
X72082400Y-134645800D01*
X68511400Y-134605800D02*
X72001400Y-134605800D01*
X68596400Y-134565800D02*
X71916400Y-134565800D01*
X68686400Y-134525800D02*
X71826400Y-134525800D01*
X68783400Y-134485800D02*
X71729400Y-134485800D01*
X68887400Y-134445800D02*
X71625400Y-134445800D01*
X69002400Y-134405800D02*
X71510400Y-134405800D01*
X69129400Y-134365800D02*
X71383400Y-134365800D01*
X69273400Y-134325800D02*
X71239400Y-134325800D01*
X69442400Y-134285800D02*
X71070400Y-134285800D01*
X69658400Y-134245800D02*
X70854400Y-134245800D01*
X70010400Y-134205800D02*
X70502400Y-134205800D01*
X70256400Y-142236800D02*
X70256400Y-141036800D01*
X69606400Y-141636800D02*
X70906400Y-141636800D01*
X123218000Y-101136000D02*
X123218000Y-99016000D01*
X123218000Y-99016000D02*
X119098000Y-99016000D01*
X119098000Y-99016000D02*
X119098000Y-101136000D01*
X119098000Y-101136000D02*
X123218000Y-101136000D01*
X125258000Y-100076000D02*
X123218000Y-100076000D01*
X117058000Y-100076000D02*
X119098000Y-100076000D01*
X122558000Y-101136000D02*
X122558000Y-99016000D01*
X119098000Y-95714000D02*
X119098000Y-97834000D01*
X119098000Y-97834000D02*
X123218000Y-97834000D01*
X123218000Y-97834000D02*
X123218000Y-95714000D01*
X123218000Y-95714000D02*
X119098000Y-95714000D01*
X117058000Y-96774000D02*
X119098000Y-96774000D01*
X125258000Y-96774000D02*
X123218000Y-96774000D01*
X119758000Y-95714000D02*
X119758000Y-97834000D01*
X75665200Y-135024000D02*
X75665200Y-130724000D01*
X75665200Y-130724000D02*
X68115200Y-130724000D01*
X75665200Y-135024000D02*
X68115200Y-135024000D01*
X95715200Y-146644600D02*
X95715200Y-149144600D01*
X95715200Y-139144600D02*
X95715200Y-141644600D01*
X83715200Y-139144600D02*
X83715200Y-141644600D01*
X83715200Y-149144600D02*
X83715200Y-146644600D01*
X94215200Y-144144600D02*
X85215200Y-144144600D01*
X94215200Y-146644600D02*
X94215200Y-141644600D01*
X85215200Y-146644600D02*
X85215200Y-141644600D01*
X79715200Y-146044600D02*
X79715200Y-146644600D01*
X99715200Y-142244600D02*
X99715200Y-141644600D01*
X99715200Y-141644600D02*
X79715200Y-141644600D01*
X79715200Y-141644600D02*
X79715200Y-142244600D01*
X79715200Y-146644600D02*
X99715200Y-146644600D01*
X99715200Y-146644600D02*
X99715200Y-146044600D01*
X77715200Y-146044600D02*
X77715200Y-149144600D01*
X101715200Y-142244600D02*
X101715200Y-139144600D01*
X101715200Y-139144600D02*
X77715200Y-139144600D01*
X77715200Y-139144600D02*
X77715200Y-142244600D01*
X77715200Y-149144600D02*
X101715200Y-149144600D01*
X101715200Y-149144600D02*
X101715200Y-146044600D01*
X132690000Y-113380000D02*
X135310000Y-113380000D01*
X135310000Y-113380000D02*
X135310000Y-106960000D01*
X135310000Y-106960000D02*
X132690000Y-106960000D01*
X132690000Y-106960000D02*
X132690000Y-113380000D01*
X134000000Y-114270000D02*
X134000000Y-113380000D01*
X134000000Y-106070000D02*
X134000000Y-106960000D01*
X66560000Y-107620000D02*
X63940000Y-107620000D01*
X63940000Y-107620000D02*
X63940000Y-114040000D01*
X63940000Y-114040000D02*
X66560000Y-114040000D01*
X66560000Y-114040000D02*
X66560000Y-107620000D01*
X65250000Y-106730000D02*
X65250000Y-107620000D01*
X65250000Y-114930000D02*
X65250000Y-114040000D01*
X114248000Y-117954000D02*
X114248000Y-117174000D01*
X114248000Y-117174000D02*
X126768000Y-117174000D01*
X126768000Y-117174000D02*
X126768000Y-117954000D01*
X114248000Y-121314000D02*
X114248000Y-122094000D01*
X114248000Y-122094000D02*
X126768000Y-122094000D01*
X126768000Y-122094000D02*
X126768000Y-121314000D01*
X116608000Y-118634000D02*
X124408000Y-118634000D01*
X116608000Y-118754000D02*
X124408000Y-118754000D01*
X116608000Y-118874000D02*
X124408000Y-118874000D01*
X116608000Y-118994000D02*
X124408000Y-118994000D01*
X116608000Y-119114000D02*
X124408000Y-119114000D01*
X116608000Y-119234000D02*
X124408000Y-119234000D01*
X116608000Y-119354000D02*
X124408000Y-119354000D01*
X116608000Y-119474000D02*
X124408000Y-119474000D01*
X116608000Y-119594000D02*
X124408000Y-119594000D01*
X116608000Y-119714000D02*
X124408000Y-119714000D01*
X116608000Y-119834000D02*
X124408000Y-119834000D01*
X116608000Y-119954000D02*
X124408000Y-119954000D01*
X116608000Y-120074000D02*
X124408000Y-120074000D01*
X116608000Y-120194000D02*
X124408000Y-120194000D01*
X116608000Y-120314000D02*
X124408000Y-120314000D01*
X116608000Y-120434000D02*
X124408000Y-120434000D01*
X116608000Y-120554000D02*
X124408000Y-120554000D01*
X116608000Y-118634000D02*
X116608000Y-120554000D01*
X124408000Y-118634000D02*
X124408000Y-120554000D01*
X75695600Y-104799200D02*
X76475600Y-104799200D01*
X76475600Y-104799200D02*
X76475600Y-117319200D01*
X76475600Y-117319200D02*
X75695600Y-117319200D01*
X72335600Y-104799200D02*
X71555600Y-104799200D01*
X71555600Y-104799200D02*
X71555600Y-117319200D01*
X71555600Y-117319200D02*
X72335600Y-117319200D01*
X75015600Y-107159200D02*
X75015600Y-114959200D01*
X74895600Y-107159200D02*
X74895600Y-114959200D01*
X74775600Y-107159200D02*
X74775600Y-114959200D01*
X74655600Y-107159200D02*
X74655600Y-114959200D01*
X74535600Y-107159200D02*
X74535600Y-114959200D01*
X74415600Y-107159200D02*
X74415600Y-114959200D01*
X74295600Y-107159200D02*
X74295600Y-114959200D01*
X74175600Y-107159200D02*
X74175600Y-114959200D01*
X74055600Y-107159200D02*
X74055600Y-114959200D01*
X73935600Y-107159200D02*
X73935600Y-114959200D01*
X73815600Y-107159200D02*
X73815600Y-114959200D01*
X73695600Y-107159200D02*
X73695600Y-114959200D01*
X73575600Y-107159200D02*
X73575600Y-114959200D01*
X73455600Y-107159200D02*
X73455600Y-114959200D01*
X73335600Y-107159200D02*
X73335600Y-114959200D01*
X73215600Y-107159200D02*
X73215600Y-114959200D01*
X73095600Y-107159200D02*
X73095600Y-114959200D01*
X75015600Y-107159200D02*
X73095600Y-107159200D01*
X75015600Y-114959200D02*
X73095600Y-114959200D01*
D14*
X55145200Y-131164600D02*
X55145200Y-142534600D01*
X56645200Y-131164600D02*
X56645200Y-142534600D01*
X53645200Y-142534600D02*
X63645200Y-142534600D01*
X53645200Y-131164600D02*
X53645200Y-142534600D01*
X63645200Y-131164600D02*
X53645200Y-131164600D01*
X65645200Y-142534600D02*
X63645200Y-142534600D01*
X65645200Y-131164600D02*
X65645200Y-142534600D01*
X63645200Y-131164600D02*
X65645200Y-131164600D01*
X65645200Y-131164600D02*
X65645200Y-142534600D01*
D13*
X111502000Y-97552000D02*
X111502000Y-99552000D01*
X113542000Y-99552000D02*
X113542000Y-97552000D01*
X91932000Y-117598000D02*
X89932000Y-117598000D01*
X89932000Y-119638000D02*
X91932000Y-119638000D01*
X87150000Y-127044000D02*
X87150000Y-124924000D01*
X87150000Y-124924000D02*
X83030000Y-124924000D01*
X83030000Y-124924000D02*
X83030000Y-127044000D01*
X83030000Y-127044000D02*
X87150000Y-127044000D01*
X89190000Y-125984000D02*
X87150000Y-125984000D01*
X80990000Y-125984000D02*
X83030000Y-125984000D01*
X86490000Y-127044000D02*
X86490000Y-124924000D01*
X83030000Y-121114000D02*
X83030000Y-123234000D01*
X83030000Y-123234000D02*
X87150000Y-123234000D01*
X87150000Y-123234000D02*
X87150000Y-121114000D01*
X87150000Y-121114000D02*
X83030000Y-121114000D01*
X80990000Y-122174000D02*
X83030000Y-122174000D01*
X89190000Y-122174000D02*
X87150000Y-122174000D01*
X83690000Y-121114000D02*
X83690000Y-123234000D01*
X67440000Y-114130000D02*
X70060000Y-114130000D01*
X70060000Y-114130000D02*
X70060000Y-107710000D01*
X70060000Y-107710000D02*
X67440000Y-107710000D01*
X67440000Y-107710000D02*
X67440000Y-114130000D01*
X68750000Y-115020000D02*
X68750000Y-114130000D01*
X68750000Y-106820000D02*
X68750000Y-107710000D01*
X92148000Y-124952000D02*
X92148000Y-122952000D01*
X94288000Y-122952000D02*
X94288000Y-124952000D01*
X137354000Y-121980000D02*
X140014000Y-121980000D01*
X137354000Y-114300000D02*
X137354000Y-121980000D01*
X140014000Y-114300000D02*
X140014000Y-121980000D01*
X137354000Y-114300000D02*
X140014000Y-114300000D01*
X137354000Y-113030000D02*
X137354000Y-111700000D01*
X137354000Y-111700000D02*
X138684000Y-111700000D01*
D14*
X128642381Y-110336666D02*
X128166190Y-110670000D01*
X128642381Y-110908095D02*
X127642381Y-110908095D01*
X127642381Y-110527142D01*
X127690000Y-110431904D01*
X127737619Y-110384285D01*
X127832857Y-110336666D01*
X127975714Y-110336666D01*
X128070952Y-110384285D01*
X128118571Y-110431904D01*
X128166190Y-110527142D01*
X128166190Y-110908095D01*
X128642381Y-109384285D02*
X128642381Y-109955714D01*
X128642381Y-109670000D02*
X127642381Y-109670000D01*
X127785238Y-109765238D01*
X127880476Y-109860476D01*
X127928095Y-109955714D01*
X115151905Y-144382381D02*
X115151905Y-143382381D01*
X115532858Y-143382381D01*
X115628096Y-143430000D01*
X115675715Y-143477619D01*
X115723334Y-143572857D01*
X115723334Y-143715714D01*
X115675715Y-143810952D01*
X115628096Y-143858571D01*
X115532858Y-143906190D01*
X115151905Y-143906190D01*
X116628096Y-143382381D02*
X116151905Y-143382381D01*
X116104286Y-143858571D01*
X116151905Y-143810952D01*
X116247143Y-143763333D01*
X116485239Y-143763333D01*
X116580477Y-143810952D01*
X116628096Y-143858571D01*
X116675715Y-143953810D01*
X116675715Y-144191905D01*
X116628096Y-144287143D01*
X116580477Y-144334762D01*
X116485239Y-144382381D01*
X116247143Y-144382381D01*
X116151905Y-144334762D01*
X116104286Y-144287143D01*
X111152381Y-110761905D02*
X111961905Y-110761905D01*
X112057143Y-110714286D01*
X112104762Y-110666667D01*
X112152381Y-110571429D01*
X112152381Y-110380952D01*
X112104762Y-110285714D01*
X112057143Y-110238095D01*
X111961905Y-110190476D01*
X111152381Y-110190476D01*
X112152381Y-109190476D02*
X112152381Y-109761905D01*
X112152381Y-109476191D02*
X111152381Y-109476191D01*
X111295238Y-109571429D01*
X111390476Y-109666667D01*
X111438095Y-109761905D01*
X75923543Y-123919466D02*
X75971162Y-123967085D01*
X76018781Y-124109942D01*
X76018781Y-124205180D01*
X75971162Y-124348038D01*
X75875924Y-124443276D01*
X75780686Y-124490895D01*
X75590210Y-124538514D01*
X75447352Y-124538514D01*
X75256876Y-124490895D01*
X75161638Y-124443276D01*
X75066400Y-124348038D01*
X75018781Y-124205180D01*
X75018781Y-124109942D01*
X75066400Y-123967085D01*
X75114019Y-123919466D01*
X75018781Y-123062323D02*
X75018781Y-123252800D01*
X75066400Y-123348038D01*
X75114019Y-123395657D01*
X75256876Y-123490895D01*
X75447352Y-123538514D01*
X75828305Y-123538514D01*
X75923543Y-123490895D01*
X75971162Y-123443276D01*
X76018781Y-123348038D01*
X76018781Y-123157561D01*
X75971162Y-123062323D01*
X75923543Y-123014704D01*
X75828305Y-122967085D01*
X75590210Y-122967085D01*
X75494971Y-123014704D01*
X75447352Y-123062323D01*
X75399733Y-123157561D01*
X75399733Y-123348038D01*
X75447352Y-123443276D01*
X75494971Y-123490895D01*
X75590210Y-123538514D01*
X79694243Y-89865866D02*
X79741862Y-89913485D01*
X79789481Y-90056342D01*
X79789481Y-90151580D01*
X79741862Y-90294438D01*
X79646624Y-90389676D01*
X79551386Y-90437295D01*
X79360910Y-90484914D01*
X79218052Y-90484914D01*
X79027576Y-90437295D01*
X78932338Y-90389676D01*
X78837100Y-90294438D01*
X78789481Y-90151580D01*
X78789481Y-90056342D01*
X78837100Y-89913485D01*
X78884719Y-89865866D01*
X79218052Y-89294438D02*
X79170433Y-89389676D01*
X79122814Y-89437295D01*
X79027576Y-89484914D01*
X78979957Y-89484914D01*
X78884719Y-89437295D01*
X78837100Y-89389676D01*
X78789481Y-89294438D01*
X78789481Y-89103961D01*
X78837100Y-89008723D01*
X78884719Y-88961104D01*
X78979957Y-88913485D01*
X79027576Y-88913485D01*
X79122814Y-88961104D01*
X79170433Y-89008723D01*
X79218052Y-89103961D01*
X79218052Y-89294438D01*
X79265671Y-89389676D01*
X79313290Y-89437295D01*
X79408529Y-89484914D01*
X79599005Y-89484914D01*
X79694243Y-89437295D01*
X79741862Y-89389676D01*
X79789481Y-89294438D01*
X79789481Y-89103961D01*
X79741862Y-89008723D01*
X79694243Y-88961104D01*
X79599005Y-88913485D01*
X79408529Y-88913485D01*
X79313290Y-88961104D01*
X79265671Y-89008723D01*
X79218052Y-89103961D01*
X60160843Y-98889266D02*
X60208462Y-98936885D01*
X60256081Y-99079742D01*
X60256081Y-99174980D01*
X60208462Y-99317838D01*
X60113224Y-99413076D01*
X60017986Y-99460695D01*
X59827510Y-99508314D01*
X59684652Y-99508314D01*
X59494176Y-99460695D01*
X59398938Y-99413076D01*
X59303700Y-99317838D01*
X59256081Y-99174980D01*
X59256081Y-99079742D01*
X59303700Y-98936885D01*
X59351319Y-98889266D01*
X60256081Y-98413076D02*
X60256081Y-98222600D01*
X60208462Y-98127361D01*
X60160843Y-98079742D01*
X60017986Y-97984504D01*
X59827510Y-97936885D01*
X59446557Y-97936885D01*
X59351319Y-97984504D01*
X59303700Y-98032123D01*
X59256081Y-98127361D01*
X59256081Y-98317838D01*
X59303700Y-98413076D01*
X59351319Y-98460695D01*
X59446557Y-98508314D01*
X59684652Y-98508314D01*
X59779890Y-98460695D01*
X59827510Y-98413076D01*
X59875129Y-98317838D01*
X59875129Y-98127361D01*
X59827510Y-98032123D01*
X59779890Y-97984504D01*
X59684652Y-97936885D01*
X80486381Y-99953143D02*
X80438762Y-100000762D01*
X80295905Y-100048381D01*
X80200667Y-100048381D01*
X80057809Y-100000762D01*
X79962571Y-99905524D01*
X79914952Y-99810286D01*
X79867333Y-99619810D01*
X79867333Y-99476952D01*
X79914952Y-99286476D01*
X79962571Y-99191238D01*
X80057809Y-99096000D01*
X80200667Y-99048381D01*
X80295905Y-99048381D01*
X80438762Y-99096000D01*
X80486381Y-99143619D01*
X81295905Y-100000762D02*
X81200667Y-100048381D01*
X81010190Y-100048381D01*
X80914952Y-100000762D01*
X80867333Y-99905524D01*
X80867333Y-99524571D01*
X80914952Y-99429333D01*
X81010190Y-99381714D01*
X81200667Y-99381714D01*
X81295905Y-99429333D01*
X81343524Y-99524571D01*
X81343524Y-99619810D01*
X80867333Y-99715048D01*
X81772095Y-99381714D02*
X81772095Y-100048381D01*
X81772095Y-99476952D02*
X81819714Y-99429333D01*
X81914952Y-99381714D01*
X82057810Y-99381714D01*
X82153048Y-99429333D01*
X82200667Y-99524571D01*
X82200667Y-100048381D01*
X82629238Y-99143619D02*
X82676857Y-99096000D01*
X82772095Y-99048381D01*
X83010191Y-99048381D01*
X83105429Y-99096000D01*
X83153048Y-99143619D01*
X83200667Y-99238857D01*
X83200667Y-99334095D01*
X83153048Y-99476952D01*
X82581619Y-100048381D01*
X83200667Y-100048381D01*
X126007905Y-126484381D02*
X126007905Y-125484381D01*
X126246000Y-125484381D01*
X126388858Y-125532000D01*
X126484096Y-125627238D01*
X126531715Y-125722476D01*
X126579334Y-125912952D01*
X126579334Y-126055810D01*
X126531715Y-126246286D01*
X126484096Y-126341524D01*
X126388858Y-126436762D01*
X126246000Y-126484381D01*
X126007905Y-126484381D01*
X127484096Y-125484381D02*
X127007905Y-125484381D01*
X126960286Y-125960571D01*
X127007905Y-125912952D01*
X127103143Y-125865333D01*
X127341239Y-125865333D01*
X127436477Y-125912952D01*
X127484096Y-125960571D01*
X127531715Y-126055810D01*
X127531715Y-126293905D01*
X127484096Y-126389143D01*
X127436477Y-126436762D01*
X127341239Y-126484381D01*
X127103143Y-126484381D01*
X127007905Y-126436762D01*
X126960286Y-126389143D01*
X70077105Y-132668781D02*
X70077105Y-131668781D01*
X70315200Y-131668781D01*
X70458058Y-131716400D01*
X70553296Y-131811638D01*
X70600915Y-131906876D01*
X70648534Y-132097352D01*
X70648534Y-132240210D01*
X70600915Y-132430686D01*
X70553296Y-132525924D01*
X70458058Y-132621162D01*
X70315200Y-132668781D01*
X70077105Y-132668781D01*
X70981867Y-131668781D02*
X71648534Y-131668781D01*
X71219962Y-132668781D01*
X83081905Y-91082381D02*
X83081905Y-90082381D01*
X83320000Y-90082381D01*
X83462858Y-90130000D01*
X83558096Y-90225238D01*
X83605715Y-90320476D01*
X83653334Y-90510952D01*
X83653334Y-90653810D01*
X83605715Y-90844286D01*
X83558096Y-90939524D01*
X83462858Y-91034762D01*
X83320000Y-91082381D01*
X83081905Y-91082381D01*
X84224762Y-90510952D02*
X84129524Y-90463333D01*
X84081905Y-90415714D01*
X84034286Y-90320476D01*
X84034286Y-90272857D01*
X84081905Y-90177619D01*
X84129524Y-90130000D01*
X84224762Y-90082381D01*
X84415239Y-90082381D01*
X84510477Y-90130000D01*
X84558096Y-90177619D01*
X84605715Y-90272857D01*
X84605715Y-90320476D01*
X84558096Y-90415714D01*
X84510477Y-90463333D01*
X84415239Y-90510952D01*
X84224762Y-90510952D01*
X84129524Y-90558571D01*
X84081905Y-90606190D01*
X84034286Y-90701429D01*
X84034286Y-90891905D01*
X84081905Y-90987143D01*
X84129524Y-91034762D01*
X84224762Y-91082381D01*
X84415239Y-91082381D01*
X84510477Y-91034762D01*
X84558096Y-90987143D01*
X84605715Y-90891905D01*
X84605715Y-90701429D01*
X84558096Y-90606190D01*
X84510477Y-90558571D01*
X84415239Y-90510952D01*
X83081905Y-89400381D02*
X83081905Y-88400381D01*
X83320000Y-88400381D01*
X83462858Y-88448000D01*
X83558096Y-88543238D01*
X83605715Y-88638476D01*
X83653334Y-88828952D01*
X83653334Y-88971810D01*
X83605715Y-89162286D01*
X83558096Y-89257524D01*
X83462858Y-89352762D01*
X83320000Y-89400381D01*
X83081905Y-89400381D01*
X84129524Y-89400381D02*
X84320000Y-89400381D01*
X84415239Y-89352762D01*
X84462858Y-89305143D01*
X84558096Y-89162286D01*
X84605715Y-88971810D01*
X84605715Y-88590857D01*
X84558096Y-88495619D01*
X84510477Y-88448000D01*
X84415239Y-88400381D01*
X84224762Y-88400381D01*
X84129524Y-88448000D01*
X84081905Y-88495619D01*
X84034286Y-88590857D01*
X84034286Y-88828952D01*
X84081905Y-88924190D01*
X84129524Y-88971810D01*
X84224762Y-89019429D01*
X84415239Y-89019429D01*
X84510477Y-88971810D01*
X84558096Y-88924190D01*
X84605715Y-88828952D01*
X89432667Y-141259571D02*
X89099333Y-141259571D01*
X89099333Y-141783381D02*
X89099333Y-140783381D01*
X89575524Y-140783381D01*
X90480286Y-141783381D02*
X89908857Y-141783381D01*
X90194571Y-141783381D02*
X90194571Y-140783381D01*
X90099333Y-140926238D01*
X90004095Y-141021476D01*
X89908857Y-141069095D01*
X124176667Y-142922381D02*
X124176667Y-143636667D01*
X124129047Y-143779524D01*
X124033809Y-143874762D01*
X123890952Y-143922381D01*
X123795714Y-143922381D01*
X125176667Y-143922381D02*
X124605238Y-143922381D01*
X124890952Y-143922381D02*
X124890952Y-142922381D01*
X124795714Y-143065238D01*
X124700476Y-143160476D01*
X124605238Y-143208095D01*
X69703867Y-141307181D02*
X69703867Y-142021467D01*
X69656247Y-142164324D01*
X69561009Y-142259562D01*
X69418152Y-142307181D01*
X69322914Y-142307181D01*
X70084819Y-141307181D02*
X70703867Y-141307181D01*
X70370533Y-141688133D01*
X70513391Y-141688133D01*
X70608629Y-141735752D01*
X70656248Y-141783371D01*
X70703867Y-141878610D01*
X70703867Y-142116705D01*
X70656248Y-142211943D01*
X70608629Y-142259562D01*
X70513391Y-142307181D01*
X70227676Y-142307181D01*
X70132438Y-142259562D01*
X70084819Y-142211943D01*
X137916667Y-110532381D02*
X137916667Y-111246667D01*
X137869047Y-111389524D01*
X137773809Y-111484762D01*
X137630952Y-111532381D01*
X137535714Y-111532381D01*
X138392857Y-111532381D02*
X138392857Y-110532381D01*
X138773810Y-110532381D01*
X138869048Y-110580000D01*
X138916667Y-110627619D01*
X138964286Y-110722857D01*
X138964286Y-110865714D01*
X138916667Y-110960952D01*
X138869048Y-111008571D01*
X138773810Y-111056190D01*
X138392857Y-111056190D01*
X139916667Y-111532381D02*
X139345238Y-111532381D01*
X139630952Y-111532381D02*
X139630952Y-110532381D01*
X139535714Y-110675238D01*
X139440476Y-110770476D01*
X139345238Y-110818095D01*
X105621905Y-144402381D02*
X105621905Y-143402381D01*
X106002858Y-143402381D01*
X106098096Y-143450000D01*
X106145715Y-143497619D01*
X106193334Y-143592857D01*
X106193334Y-143735714D01*
X106145715Y-143830952D01*
X106098096Y-143878571D01*
X106002858Y-143926190D01*
X105621905Y-143926190D01*
X107145715Y-144402381D02*
X106574286Y-144402381D01*
X106860000Y-144402381D02*
X106860000Y-143402381D01*
X106764762Y-143545238D01*
X106669524Y-143640476D01*
X106574286Y-143688095D01*
X136712381Y-138078095D02*
X135712381Y-138078095D01*
X135712381Y-137697142D01*
X135760000Y-137601904D01*
X135807619Y-137554285D01*
X135902857Y-137506666D01*
X136045714Y-137506666D01*
X136140952Y-137554285D01*
X136188571Y-137601904D01*
X136236190Y-137697142D01*
X136236190Y-138078095D01*
X135807619Y-137125714D02*
X135760000Y-137078095D01*
X135712381Y-136982857D01*
X135712381Y-136744761D01*
X135760000Y-136649523D01*
X135807619Y-136601904D01*
X135902857Y-136554285D01*
X135998095Y-136554285D01*
X136140952Y-136601904D01*
X136712381Y-137173333D01*
X136712381Y-136554285D01*
X130331905Y-144512381D02*
X130331905Y-143512381D01*
X130712858Y-143512381D01*
X130808096Y-143560000D01*
X130855715Y-143607619D01*
X130903334Y-143702857D01*
X130903334Y-143845714D01*
X130855715Y-143940952D01*
X130808096Y-143988571D01*
X130712858Y-144036190D01*
X130331905Y-144036190D01*
X131236667Y-143512381D02*
X131855715Y-143512381D01*
X131522381Y-143893333D01*
X131665239Y-143893333D01*
X131760477Y-143940952D01*
X131808096Y-143988571D01*
X131855715Y-144083810D01*
X131855715Y-144321905D01*
X131808096Y-144417143D01*
X131760477Y-144464762D01*
X131665239Y-144512381D01*
X131379524Y-144512381D01*
X131284286Y-144464762D01*
X131236667Y-144417143D01*
X134564381Y-129262095D02*
X133564381Y-129262095D01*
X133564381Y-128881142D01*
X133612000Y-128785904D01*
X133659619Y-128738285D01*
X133754857Y-128690666D01*
X133897714Y-128690666D01*
X133992952Y-128738285D01*
X134040571Y-128785904D01*
X134088190Y-128881142D01*
X134088190Y-129262095D01*
X133897714Y-127833523D02*
X134564381Y-127833523D01*
X133516762Y-128071619D02*
X134231048Y-128309714D01*
X134231048Y-127690666D01*
X131698381Y-120562666D02*
X131222190Y-120896000D01*
X131698381Y-121134095D02*
X130698381Y-121134095D01*
X130698381Y-120753142D01*
X130746000Y-120657904D01*
X130793619Y-120610285D01*
X130888857Y-120562666D01*
X131031714Y-120562666D01*
X131126952Y-120610285D01*
X131174571Y-120657904D01*
X131222190Y-120753142D01*
X131222190Y-121134095D01*
X130698381Y-119657904D02*
X130698381Y-120134095D01*
X131174571Y-120181714D01*
X131126952Y-120134095D01*
X131079333Y-120038857D01*
X131079333Y-119800761D01*
X131126952Y-119705523D01*
X131174571Y-119657904D01*
X131269810Y-119610285D01*
X131507905Y-119610285D01*
X131603143Y-119657904D01*
X131650762Y-119705523D01*
X131698381Y-119800761D01*
X131698381Y-120038857D01*
X131650762Y-120134095D01*
X131603143Y-120181714D01*
X126579334Y-131190381D02*
X126246000Y-130714190D01*
X126007905Y-131190381D02*
X126007905Y-130190381D01*
X126388858Y-130190381D01*
X126484096Y-130238000D01*
X126531715Y-130285619D01*
X126579334Y-130380857D01*
X126579334Y-130523714D01*
X126531715Y-130618952D01*
X126484096Y-130666571D01*
X126388858Y-130714190D01*
X126007905Y-130714190D01*
X127436477Y-130190381D02*
X127246000Y-130190381D01*
X127150762Y-130238000D01*
X127103143Y-130285619D01*
X127007905Y-130428476D01*
X126960286Y-130618952D01*
X126960286Y-130999905D01*
X127007905Y-131095143D01*
X127055524Y-131142762D01*
X127150762Y-131190381D01*
X127341239Y-131190381D01*
X127436477Y-131142762D01*
X127484096Y-131095143D01*
X127531715Y-130999905D01*
X127531715Y-130761810D01*
X127484096Y-130666571D01*
X127436477Y-130618952D01*
X127341239Y-130571333D01*
X127150762Y-130571333D01*
X127055524Y-130618952D01*
X127007905Y-130666571D01*
X126960286Y-130761810D01*
X107458381Y-128047619D02*
X106982190Y-128380953D01*
X107458381Y-128619048D02*
X106458381Y-128619048D01*
X106458381Y-128238095D01*
X106506000Y-128142857D01*
X106553619Y-128095238D01*
X106648857Y-128047619D01*
X106791714Y-128047619D01*
X106886952Y-128095238D01*
X106934571Y-128142857D01*
X106982190Y-128238095D01*
X106982190Y-128619048D01*
X107410762Y-127238095D02*
X107458381Y-127333333D01*
X107458381Y-127523810D01*
X107410762Y-127619048D01*
X107315524Y-127666667D01*
X106934571Y-127666667D01*
X106839333Y-127619048D01*
X106791714Y-127523810D01*
X106791714Y-127333333D01*
X106839333Y-127238095D01*
X106934571Y-127190476D01*
X107029810Y-127190476D01*
X107125048Y-127666667D01*
X106791714Y-126761905D02*
X107458381Y-126761905D01*
X106886952Y-126761905D02*
X106839333Y-126714286D01*
X106791714Y-126619048D01*
X106791714Y-126476190D01*
X106839333Y-126380952D01*
X106934571Y-126333333D01*
X107458381Y-126333333D01*
X106553619Y-125904762D02*
X106506000Y-125857143D01*
X106458381Y-125761905D01*
X106458381Y-125523809D01*
X106506000Y-125428571D01*
X106553619Y-125380952D01*
X106648857Y-125333333D01*
X106744095Y-125333333D01*
X106886952Y-125380952D01*
X107458381Y-125952381D01*
X107458381Y-125333333D01*
X120538953Y-91312381D02*
X120205619Y-90836190D01*
X119967524Y-91312381D02*
X119967524Y-90312381D01*
X120348477Y-90312381D01*
X120443715Y-90360000D01*
X120491334Y-90407619D01*
X120538953Y-90502857D01*
X120538953Y-90645714D01*
X120491334Y-90740952D01*
X120443715Y-90788571D01*
X120348477Y-90836190D01*
X119967524Y-90836190D01*
X120967524Y-90645714D02*
X120967524Y-91645714D01*
X120967524Y-90693333D02*
X121062762Y-90645714D01*
X121253239Y-90645714D01*
X121348477Y-90693333D01*
X121396096Y-90740952D01*
X121443715Y-90836190D01*
X121443715Y-91121905D01*
X121396096Y-91217143D01*
X121348477Y-91264762D01*
X121253239Y-91312381D01*
X121062762Y-91312381D01*
X120967524Y-91264762D01*
X122396096Y-91312381D02*
X121824667Y-91312381D01*
X122110381Y-91312381D02*
X122110381Y-90312381D01*
X122015143Y-90455238D01*
X121919905Y-90550476D01*
X121824667Y-90598095D01*
X93752381Y-110761905D02*
X94561905Y-110761905D01*
X94657143Y-110714286D01*
X94704762Y-110666667D01*
X94752381Y-110571429D01*
X94752381Y-110380952D01*
X94704762Y-110285714D01*
X94657143Y-110238095D01*
X94561905Y-110190476D01*
X93752381Y-110190476D01*
X93847619Y-109761905D02*
X93800000Y-109714286D01*
X93752381Y-109619048D01*
X93752381Y-109380952D01*
X93800000Y-109285714D01*
X93847619Y-109238095D01*
X93942857Y-109190476D01*
X94038095Y-109190476D01*
X94180952Y-109238095D01*
X94752381Y-109809524D01*
X94752381Y-109190476D01*
X106102381Y-129511905D02*
X106911905Y-129511905D01*
X107007143Y-129464286D01*
X107054762Y-129416667D01*
X107102381Y-129321429D01*
X107102381Y-129130952D01*
X107054762Y-129035714D01*
X107007143Y-128988095D01*
X106911905Y-128940476D01*
X106102381Y-128940476D01*
X106102381Y-128559524D02*
X106102381Y-127940476D01*
X106483333Y-128273810D01*
X106483333Y-128130952D01*
X106530952Y-128035714D01*
X106578571Y-127988095D01*
X106673810Y-127940476D01*
X106911905Y-127940476D01*
X107007143Y-127988095D01*
X107054762Y-128035714D01*
X107102381Y-128130952D01*
X107102381Y-128416667D01*
X107054762Y-128511905D01*
X107007143Y-128559524D01*
X62883295Y-117089981D02*
X62883295Y-117899505D01*
X62930914Y-117994743D01*
X62978533Y-118042362D01*
X63073771Y-118089981D01*
X63264248Y-118089981D01*
X63359486Y-118042362D01*
X63407105Y-117994743D01*
X63454724Y-117899505D01*
X63454724Y-117089981D01*
X64359486Y-117423314D02*
X64359486Y-118089981D01*
X64121390Y-117042362D02*
X63883295Y-117756648D01*
X64502343Y-117756648D01*
X69979481Y-90461105D02*
X70789005Y-90461105D01*
X70884243Y-90413486D01*
X70931862Y-90365867D01*
X70979481Y-90270629D01*
X70979481Y-90080152D01*
X70931862Y-89984914D01*
X70884243Y-89937295D01*
X70789005Y-89889676D01*
X69979481Y-89889676D01*
X69979481Y-88937295D02*
X69979481Y-89413486D01*
X70455671Y-89461105D01*
X70408052Y-89413486D01*
X70360433Y-89318248D01*
X70360433Y-89080152D01*
X70408052Y-88984914D01*
X70455671Y-88937295D01*
X70550910Y-88889676D01*
X70789005Y-88889676D01*
X70884243Y-88937295D01*
X70931862Y-88984914D01*
X70979481Y-89080152D01*
X70979481Y-89318248D01*
X70931862Y-89413486D01*
X70884243Y-89461105D01*
X56022381Y-99481905D02*
X56831905Y-99481905D01*
X56927143Y-99434286D01*
X56974762Y-99386667D01*
X57022381Y-99291429D01*
X57022381Y-99100952D01*
X56974762Y-99005714D01*
X56927143Y-98958095D01*
X56831905Y-98910476D01*
X56022381Y-98910476D01*
X56022381Y-98005714D02*
X56022381Y-98196191D01*
X56070000Y-98291429D01*
X56117619Y-98339048D01*
X56260476Y-98434286D01*
X56450952Y-98481905D01*
X56831905Y-98481905D01*
X56927143Y-98434286D01*
X56974762Y-98386667D01*
X57022381Y-98291429D01*
X57022381Y-98100952D01*
X56974762Y-98005714D01*
X56927143Y-97958095D01*
X56831905Y-97910476D01*
X56593810Y-97910476D01*
X56498571Y-97958095D01*
X56450952Y-98005714D01*
X56403333Y-98100952D01*
X56403333Y-98291429D01*
X56450952Y-98386667D01*
X56498571Y-98434286D01*
X56593810Y-98481905D01*
X106934095Y-137628381D02*
X106934095Y-138437905D01*
X106981714Y-138533143D01*
X107029333Y-138580762D01*
X107124571Y-138628381D01*
X107315048Y-138628381D01*
X107410286Y-138580762D01*
X107457905Y-138533143D01*
X107505524Y-138437905D01*
X107505524Y-137628381D01*
X108029333Y-138628381D02*
X108219809Y-138628381D01*
X108315048Y-138580762D01*
X108362667Y-138533143D01*
X108457905Y-138390286D01*
X108505524Y-138199810D01*
X108505524Y-137818857D01*
X108457905Y-137723619D01*
X108410286Y-137676000D01*
X108315048Y-137628381D01*
X108124571Y-137628381D01*
X108029333Y-137676000D01*
X107981714Y-137723619D01*
X107934095Y-137818857D01*
X107934095Y-138056952D01*
X107981714Y-138152190D01*
X108029333Y-138199810D01*
X108124571Y-138247429D01*
X108315048Y-138247429D01*
X108410286Y-138199810D01*
X108457905Y-138152190D01*
X108505524Y-138056952D01*
X65303543Y-138929657D02*
X65351162Y-138977276D01*
X65398781Y-139120133D01*
X65398781Y-139215371D01*
X65351162Y-139358229D01*
X65255924Y-139453467D01*
X65160686Y-139501086D01*
X64970210Y-139548705D01*
X64827352Y-139548705D01*
X64636876Y-139501086D01*
X64541638Y-139453467D01*
X64446400Y-139358229D01*
X64398781Y-139215371D01*
X64398781Y-139120133D01*
X64446400Y-138977276D01*
X64494019Y-138929657D01*
X65398781Y-137977276D02*
X65398781Y-138548705D01*
X65398781Y-138262991D02*
X64398781Y-138262991D01*
X64541638Y-138358229D01*
X64636876Y-138453467D01*
X64684495Y-138548705D01*
X64398781Y-137358229D02*
X64398781Y-137262990D01*
X64446400Y-137167752D01*
X64494019Y-137120133D01*
X64589257Y-137072514D01*
X64779733Y-137024895D01*
X65017829Y-137024895D01*
X65208305Y-137072514D01*
X65303543Y-137120133D01*
X65351162Y-137167752D01*
X65398781Y-137262990D01*
X65398781Y-137358229D01*
X65351162Y-137453467D01*
X65303543Y-137501086D01*
X65208305Y-137548705D01*
X65017829Y-137596324D01*
X64779733Y-137596324D01*
X64589257Y-137548705D01*
X64494019Y-137501086D01*
X64446400Y-137453467D01*
X64398781Y-137358229D01*
X120419905Y-102588381D02*
X120419905Y-101588381D01*
X120658000Y-101588381D01*
X120800858Y-101636000D01*
X120896096Y-101731238D01*
X120943715Y-101826476D01*
X120991334Y-102016952D01*
X120991334Y-102159810D01*
X120943715Y-102350286D01*
X120896096Y-102445524D01*
X120800858Y-102540762D01*
X120658000Y-102588381D01*
X120419905Y-102588381D01*
X121943715Y-102588381D02*
X121372286Y-102588381D01*
X121658000Y-102588381D02*
X121658000Y-101588381D01*
X121562762Y-101731238D01*
X121467524Y-101826476D01*
X121372286Y-101874095D01*
X120419905Y-95166381D02*
X120419905Y-94166381D01*
X120658000Y-94166381D01*
X120800858Y-94214000D01*
X120896096Y-94309238D01*
X120943715Y-94404476D01*
X120991334Y-94594952D01*
X120991334Y-94737810D01*
X120943715Y-94928286D01*
X120896096Y-95023524D01*
X120800858Y-95118762D01*
X120658000Y-95166381D01*
X120419905Y-95166381D01*
X121372286Y-94261619D02*
X121419905Y-94214000D01*
X121515143Y-94166381D01*
X121753239Y-94166381D01*
X121848477Y-94214000D01*
X121896096Y-94261619D01*
X121943715Y-94356857D01*
X121943715Y-94452095D01*
X121896096Y-94594952D01*
X121324667Y-95166381D01*
X121943715Y-95166381D01*
X69600914Y-136326381D02*
X69600914Y-135326381D01*
X69839009Y-135326381D01*
X69981867Y-135374000D01*
X70077105Y-135469238D01*
X70124724Y-135564476D01*
X70172343Y-135754952D01*
X70172343Y-135897810D01*
X70124724Y-136088286D01*
X70077105Y-136183524D01*
X69981867Y-136278762D01*
X69839009Y-136326381D01*
X69600914Y-136326381D01*
X71124724Y-136326381D02*
X70553295Y-136326381D01*
X70839009Y-136326381D02*
X70839009Y-135326381D01*
X70743771Y-135469238D01*
X70648533Y-135564476D01*
X70553295Y-135612095D01*
X72077105Y-136326381D02*
X71505676Y-136326381D01*
X71791390Y-136326381D02*
X71791390Y-135326381D01*
X71696152Y-135469238D01*
X71600914Y-135564476D01*
X71505676Y-135612095D01*
X89786667Y-149088571D02*
X89453333Y-149088571D01*
X89453333Y-149612381D02*
X89453333Y-148612381D01*
X89929524Y-148612381D01*
X90262857Y-148707619D02*
X90310476Y-148660000D01*
X90405714Y-148612381D01*
X90643810Y-148612381D01*
X90739048Y-148660000D01*
X90786667Y-148707619D01*
X90834286Y-148802857D01*
X90834286Y-148898095D01*
X90786667Y-149040952D01*
X90215238Y-149612381D01*
X90834286Y-149612381D01*
X132142381Y-110336666D02*
X131666190Y-110670000D01*
X132142381Y-110908095D02*
X131142381Y-110908095D01*
X131142381Y-110527142D01*
X131190000Y-110431904D01*
X131237619Y-110384285D01*
X131332857Y-110336666D01*
X131475714Y-110336666D01*
X131570952Y-110384285D01*
X131618571Y-110431904D01*
X131666190Y-110527142D01*
X131666190Y-110908095D01*
X131237619Y-109955714D02*
X131190000Y-109908095D01*
X131142381Y-109812857D01*
X131142381Y-109574761D01*
X131190000Y-109479523D01*
X131237619Y-109431904D01*
X131332857Y-109384285D01*
X131428095Y-109384285D01*
X131570952Y-109431904D01*
X132142381Y-110003333D01*
X132142381Y-109384285D01*
X68012381Y-110996666D02*
X67536190Y-111330000D01*
X68012381Y-111568095D02*
X67012381Y-111568095D01*
X67012381Y-111187142D01*
X67060000Y-111091904D01*
X67107619Y-111044285D01*
X67202857Y-110996666D01*
X67345714Y-110996666D01*
X67440952Y-111044285D01*
X67488571Y-111091904D01*
X67536190Y-111187142D01*
X67536190Y-111568095D01*
X67012381Y-110663333D02*
X67012381Y-110044285D01*
X67393333Y-110377619D01*
X67393333Y-110234761D01*
X67440952Y-110139523D01*
X67488571Y-110091904D01*
X67583810Y-110044285D01*
X67821905Y-110044285D01*
X67917143Y-110091904D01*
X67964762Y-110139523D01*
X68012381Y-110234761D01*
X68012381Y-110520476D01*
X67964762Y-110615714D01*
X67917143Y-110663333D01*
X118222286Y-116626381D02*
X117888952Y-116150190D01*
X117650857Y-116626381D02*
X117650857Y-115626381D01*
X118031810Y-115626381D01*
X118127048Y-115674000D01*
X118174667Y-115721619D01*
X118222286Y-115816857D01*
X118222286Y-115959714D01*
X118174667Y-116054952D01*
X118127048Y-116102571D01*
X118031810Y-116150190D01*
X117650857Y-116150190D01*
X118603238Y-116578762D02*
X118698476Y-116626381D01*
X118888952Y-116626381D01*
X118984191Y-116578762D01*
X119031810Y-116483524D01*
X119031810Y-116435905D01*
X118984191Y-116340667D01*
X118888952Y-116293048D01*
X118746095Y-116293048D01*
X118650857Y-116245429D01*
X118603238Y-116150190D01*
X118603238Y-116102571D01*
X118650857Y-116007333D01*
X118746095Y-115959714D01*
X118888952Y-115959714D01*
X118984191Y-116007333D01*
X119841334Y-116578762D02*
X119746096Y-116626381D01*
X119555619Y-116626381D01*
X119460381Y-116578762D01*
X119412762Y-116483524D01*
X119412762Y-116102571D01*
X119460381Y-116007333D01*
X119555619Y-115959714D01*
X119746096Y-115959714D01*
X119841334Y-116007333D01*
X119888953Y-116102571D01*
X119888953Y-116197810D01*
X119412762Y-116293048D01*
X120317524Y-115959714D02*
X120317524Y-116626381D01*
X120317524Y-116054952D02*
X120365143Y-116007333D01*
X120460381Y-115959714D01*
X120603239Y-115959714D01*
X120698477Y-116007333D01*
X120746096Y-116102571D01*
X120746096Y-116626381D01*
X121174667Y-116578762D02*
X121269905Y-116626381D01*
X121460381Y-116626381D01*
X121555620Y-116578762D01*
X121603239Y-116483524D01*
X121603239Y-116435905D01*
X121555620Y-116340667D01*
X121460381Y-116293048D01*
X121317524Y-116293048D01*
X121222286Y-116245429D01*
X121174667Y-116150190D01*
X121174667Y-116102571D01*
X121222286Y-116007333D01*
X121317524Y-115959714D01*
X121460381Y-115959714D01*
X121555620Y-116007333D01*
X122412763Y-116578762D02*
X122317525Y-116626381D01*
X122127048Y-116626381D01*
X122031810Y-116578762D01*
X121984191Y-116483524D01*
X121984191Y-116102571D01*
X122031810Y-116007333D01*
X122127048Y-115959714D01*
X122317525Y-115959714D01*
X122412763Y-116007333D01*
X122460382Y-116102571D01*
X122460382Y-116197810D01*
X121984191Y-116293048D01*
X123412763Y-116626381D02*
X122841334Y-116626381D01*
X123127048Y-116626381D02*
X123127048Y-115626381D01*
X123031810Y-115769238D01*
X122936572Y-115864476D01*
X122841334Y-115912095D01*
X77927981Y-113344914D02*
X77451790Y-113678248D01*
X77927981Y-113916343D02*
X76927981Y-113916343D01*
X76927981Y-113535390D01*
X76975600Y-113440152D01*
X77023219Y-113392533D01*
X77118457Y-113344914D01*
X77261314Y-113344914D01*
X77356552Y-113392533D01*
X77404171Y-113440152D01*
X77451790Y-113535390D01*
X77451790Y-113916343D01*
X77880362Y-112963962D02*
X77927981Y-112868724D01*
X77927981Y-112678248D01*
X77880362Y-112583009D01*
X77785124Y-112535390D01*
X77737505Y-112535390D01*
X77642267Y-112583009D01*
X77594648Y-112678248D01*
X77594648Y-112821105D01*
X77547029Y-112916343D01*
X77451790Y-112963962D01*
X77404171Y-112963962D01*
X77308933Y-112916343D01*
X77261314Y-112821105D01*
X77261314Y-112678248D01*
X77308933Y-112583009D01*
X77880362Y-111725866D02*
X77927981Y-111821104D01*
X77927981Y-112011581D01*
X77880362Y-112106819D01*
X77785124Y-112154438D01*
X77404171Y-112154438D01*
X77308933Y-112106819D01*
X77261314Y-112011581D01*
X77261314Y-111821104D01*
X77308933Y-111725866D01*
X77404171Y-111678247D01*
X77499410Y-111678247D01*
X77594648Y-112154438D01*
X77261314Y-111249676D02*
X77927981Y-111249676D01*
X77356552Y-111249676D02*
X77308933Y-111202057D01*
X77261314Y-111106819D01*
X77261314Y-110963961D01*
X77308933Y-110868723D01*
X77404171Y-110821104D01*
X77927981Y-110821104D01*
X77880362Y-110392533D02*
X77927981Y-110297295D01*
X77927981Y-110106819D01*
X77880362Y-110011580D01*
X77785124Y-109963961D01*
X77737505Y-109963961D01*
X77642267Y-110011580D01*
X77594648Y-110106819D01*
X77594648Y-110249676D01*
X77547029Y-110344914D01*
X77451790Y-110392533D01*
X77404171Y-110392533D01*
X77308933Y-110344914D01*
X77261314Y-110249676D01*
X77261314Y-110106819D01*
X77308933Y-110011580D01*
X77880362Y-109154437D02*
X77927981Y-109249675D01*
X77927981Y-109440152D01*
X77880362Y-109535390D01*
X77785124Y-109583009D01*
X77404171Y-109583009D01*
X77308933Y-109535390D01*
X77261314Y-109440152D01*
X77261314Y-109249675D01*
X77308933Y-109154437D01*
X77404171Y-109106818D01*
X77499410Y-109106818D01*
X77594648Y-109583009D01*
X77023219Y-108725866D02*
X76975600Y-108678247D01*
X76927981Y-108583009D01*
X76927981Y-108344913D01*
X76975600Y-108249675D01*
X77023219Y-108202056D01*
X77118457Y-108154437D01*
X77213695Y-108154437D01*
X77356552Y-108202056D01*
X77927981Y-108773485D01*
X77927981Y-108154437D01*
X140058095Y-147772381D02*
X140058095Y-148581905D01*
X140105714Y-148677143D01*
X140153333Y-148724762D01*
X140248571Y-148772381D01*
X140439048Y-148772381D01*
X140534286Y-148724762D01*
X140581905Y-148677143D01*
X140629524Y-148581905D01*
X140629524Y-147772381D01*
X141010476Y-147772381D02*
X141677143Y-147772381D01*
X141248571Y-148772381D01*
X57238095Y-141912381D02*
X57238095Y-142721905D01*
X57285714Y-142817143D01*
X57333333Y-142864762D01*
X57428571Y-142912381D01*
X57619048Y-142912381D01*
X57714286Y-142864762D01*
X57761905Y-142817143D01*
X57809524Y-142721905D01*
X57809524Y-141912381D01*
X58428571Y-142340952D02*
X58333333Y-142293333D01*
X58285714Y-142245714D01*
X58238095Y-142150476D01*
X58238095Y-142102857D01*
X58285714Y-142007619D01*
X58333333Y-141960000D01*
X58428571Y-141912381D01*
X58619048Y-141912381D01*
X58714286Y-141960000D01*
X58761905Y-142007619D01*
X58809524Y-142102857D01*
X58809524Y-142150476D01*
X58761905Y-142245714D01*
X58714286Y-142293333D01*
X58619048Y-142340952D01*
X58428571Y-142340952D01*
X58333333Y-142388571D01*
X58285714Y-142436190D01*
X58238095Y-142531429D01*
X58238095Y-142721905D01*
X58285714Y-142817143D01*
X58333333Y-142864762D01*
X58428571Y-142912381D01*
X58619048Y-142912381D01*
X58714286Y-142864762D01*
X58761905Y-142817143D01*
X58809524Y-142721905D01*
X58809524Y-142531429D01*
X58761905Y-142436190D01*
X58714286Y-142388571D01*
X58619048Y-142340952D01*
X138941905Y-86352381D02*
X138941905Y-87161905D01*
X138989524Y-87257143D01*
X139037143Y-87304762D01*
X139132381Y-87352381D01*
X139322858Y-87352381D01*
X139418096Y-87304762D01*
X139465715Y-87257143D01*
X139513334Y-87161905D01*
X139513334Y-86352381D01*
X140513334Y-87352381D02*
X139941905Y-87352381D01*
X140227619Y-87352381D02*
X140227619Y-86352381D01*
X140132381Y-86495238D01*
X140037143Y-86590476D01*
X139941905Y-86638095D01*
X141132381Y-86352381D02*
X141227620Y-86352381D01*
X141322858Y-86400000D01*
X141370477Y-86447619D01*
X141418096Y-86542857D01*
X141465715Y-86733333D01*
X141465715Y-86971429D01*
X141418096Y-87161905D01*
X141370477Y-87257143D01*
X141322858Y-87304762D01*
X141227620Y-87352381D01*
X141132381Y-87352381D01*
X141037143Y-87304762D01*
X140989524Y-87257143D01*
X140941905Y-87161905D01*
X140894286Y-86971429D01*
X140894286Y-86733333D01*
X140941905Y-86542857D01*
X140989524Y-86447619D01*
X141037143Y-86400000D01*
X141132381Y-86352381D01*
X56761905Y-86912381D02*
X56761905Y-87721905D01*
X56809524Y-87817143D01*
X56857143Y-87864762D01*
X56952381Y-87912381D01*
X57142858Y-87912381D01*
X57238096Y-87864762D01*
X57285715Y-87817143D01*
X57333334Y-87721905D01*
X57333334Y-86912381D01*
X58333334Y-87912381D02*
X57761905Y-87912381D01*
X58047619Y-87912381D02*
X58047619Y-86912381D01*
X57952381Y-87055238D01*
X57857143Y-87150476D01*
X57761905Y-87198095D01*
X59285715Y-87912381D02*
X58714286Y-87912381D01*
X59000000Y-87912381D02*
X59000000Y-86912381D01*
X58904762Y-87055238D01*
X58809524Y-87150476D01*
X58714286Y-87198095D01*
X62407105Y-128801981D02*
X62407105Y-129611505D01*
X62454724Y-129706743D01*
X62502343Y-129754362D01*
X62597581Y-129801981D01*
X62788058Y-129801981D01*
X62883296Y-129754362D01*
X62930915Y-129706743D01*
X62978534Y-129611505D01*
X62978534Y-128801981D01*
X63978534Y-129801981D02*
X63407105Y-129801981D01*
X63692819Y-129801981D02*
X63692819Y-128801981D01*
X63597581Y-128944838D01*
X63502343Y-129040076D01*
X63407105Y-129087695D01*
X64359486Y-128897219D02*
X64407105Y-128849600D01*
X64502343Y-128801981D01*
X64740439Y-128801981D01*
X64835677Y-128849600D01*
X64883296Y-128897219D01*
X64930915Y-128992457D01*
X64930915Y-129087695D01*
X64883296Y-129230552D01*
X64311867Y-129801981D01*
X64930915Y-129801981D01*
X111129143Y-99171047D02*
X111176762Y-99218666D01*
X111224381Y-99361523D01*
X111224381Y-99456761D01*
X111176762Y-99599619D01*
X111081524Y-99694857D01*
X110986286Y-99742476D01*
X110795810Y-99790095D01*
X110652952Y-99790095D01*
X110462476Y-99742476D01*
X110367238Y-99694857D01*
X110272000Y-99599619D01*
X110224381Y-99456761D01*
X110224381Y-99361523D01*
X110272000Y-99218666D01*
X110319619Y-99171047D01*
X110557714Y-98742476D02*
X111557714Y-98742476D01*
X110605333Y-98742476D02*
X110557714Y-98647238D01*
X110557714Y-98456761D01*
X110605333Y-98361523D01*
X110652952Y-98313904D01*
X110748190Y-98266285D01*
X111033905Y-98266285D01*
X111129143Y-98313904D01*
X111176762Y-98361523D01*
X111224381Y-98456761D01*
X111224381Y-98647238D01*
X111176762Y-98742476D01*
X111224381Y-97313904D02*
X111224381Y-97885333D01*
X111224381Y-97599619D02*
X110224381Y-97599619D01*
X110367238Y-97694857D01*
X110462476Y-97790095D01*
X110510095Y-97885333D01*
X90312953Y-117225143D02*
X90265334Y-117272762D01*
X90122477Y-117320381D01*
X90027239Y-117320381D01*
X89884381Y-117272762D01*
X89789143Y-117177524D01*
X89741524Y-117082286D01*
X89693905Y-116891810D01*
X89693905Y-116748952D01*
X89741524Y-116558476D01*
X89789143Y-116463238D01*
X89884381Y-116368000D01*
X90027239Y-116320381D01*
X90122477Y-116320381D01*
X90265334Y-116368000D01*
X90312953Y-116415619D01*
X90741524Y-116653714D02*
X90741524Y-117653714D01*
X90741524Y-116701333D02*
X90836762Y-116653714D01*
X91027239Y-116653714D01*
X91122477Y-116701333D01*
X91170096Y-116748952D01*
X91217715Y-116844190D01*
X91217715Y-117129905D01*
X91170096Y-117225143D01*
X91122477Y-117272762D01*
X91027239Y-117320381D01*
X90836762Y-117320381D01*
X90741524Y-117272762D01*
X91598667Y-116415619D02*
X91646286Y-116368000D01*
X91741524Y-116320381D01*
X91979620Y-116320381D01*
X92074858Y-116368000D01*
X92122477Y-116415619D01*
X92170096Y-116510857D01*
X92170096Y-116606095D01*
X92122477Y-116748952D01*
X91551048Y-117320381D01*
X92170096Y-117320381D01*
X84351905Y-128496381D02*
X84351905Y-127496381D01*
X84590000Y-127496381D01*
X84732858Y-127544000D01*
X84828096Y-127639238D01*
X84875715Y-127734476D01*
X84923334Y-127924952D01*
X84923334Y-128067810D01*
X84875715Y-128258286D01*
X84828096Y-128353524D01*
X84732858Y-128448762D01*
X84590000Y-128496381D01*
X84351905Y-128496381D01*
X85256667Y-127496381D02*
X85875715Y-127496381D01*
X85542381Y-127877333D01*
X85685239Y-127877333D01*
X85780477Y-127924952D01*
X85828096Y-127972571D01*
X85875715Y-128067810D01*
X85875715Y-128305905D01*
X85828096Y-128401143D01*
X85780477Y-128448762D01*
X85685239Y-128496381D01*
X85399524Y-128496381D01*
X85304286Y-128448762D01*
X85256667Y-128401143D01*
X84351905Y-120566381D02*
X84351905Y-119566381D01*
X84590000Y-119566381D01*
X84732858Y-119614000D01*
X84828096Y-119709238D01*
X84875715Y-119804476D01*
X84923334Y-119994952D01*
X84923334Y-120137810D01*
X84875715Y-120328286D01*
X84828096Y-120423524D01*
X84732858Y-120518762D01*
X84590000Y-120566381D01*
X84351905Y-120566381D01*
X85780477Y-119899714D02*
X85780477Y-120566381D01*
X85542381Y-119518762D02*
X85304286Y-120233048D01*
X85923334Y-120233048D01*
X66892381Y-111086666D02*
X66416190Y-111420000D01*
X66892381Y-111658095D02*
X65892381Y-111658095D01*
X65892381Y-111277142D01*
X65940000Y-111181904D01*
X65987619Y-111134285D01*
X66082857Y-111086666D01*
X66225714Y-111086666D01*
X66320952Y-111134285D01*
X66368571Y-111181904D01*
X66416190Y-111277142D01*
X66416190Y-111658095D01*
X66225714Y-110229523D02*
X66892381Y-110229523D01*
X65844762Y-110467619D02*
X66559048Y-110705714D01*
X66559048Y-110086666D01*
X95520381Y-124571047D02*
X95044190Y-124904381D01*
X95520381Y-125142476D02*
X94520381Y-125142476D01*
X94520381Y-124761523D01*
X94568000Y-124666285D01*
X94615619Y-124618666D01*
X94710857Y-124571047D01*
X94853714Y-124571047D01*
X94948952Y-124618666D01*
X94996571Y-124666285D01*
X95044190Y-124761523D01*
X95044190Y-125142476D01*
X94853714Y-124142476D02*
X95853714Y-124142476D01*
X94901333Y-124142476D02*
X94853714Y-124047238D01*
X94853714Y-123856761D01*
X94901333Y-123761523D01*
X94948952Y-123713904D01*
X95044190Y-123666285D01*
X95329905Y-123666285D01*
X95425143Y-123713904D01*
X95472762Y-123761523D01*
X95520381Y-123856761D01*
X95520381Y-124047238D01*
X95472762Y-124142476D01*
X94615619Y-123285333D02*
X94568000Y-123237714D01*
X94520381Y-123142476D01*
X94520381Y-122904380D01*
X94568000Y-122809142D01*
X94615619Y-122761523D01*
X94710857Y-122713904D01*
X94806095Y-122713904D01*
X94948952Y-122761523D01*
X95520381Y-123332952D01*
X95520381Y-122713904D01*
X138350667Y-110152381D02*
X138350667Y-110866667D01*
X138303047Y-111009524D01*
X138207809Y-111104762D01*
X138064952Y-111152381D01*
X137969714Y-111152381D01*
X138779238Y-110247619D02*
X138826857Y-110200000D01*
X138922095Y-110152381D01*
X139160191Y-110152381D01*
X139255429Y-110200000D01*
X139303048Y-110247619D01*
X139350667Y-110342857D01*
X139350667Y-110438095D01*
X139303048Y-110580952D01*
X138731619Y-111152381D01*
X139350667Y-111152381D01*
M02*
